<svg id="BellIcon" xmlns="http://www.w3.org/2000/svg" width="42.106" height="42" viewBox="0 0 42.106 42">
  <g id="Сгруппировать_1783" data-name="Сгруппировать 1783" transform="translate(0 0)">
    <rect id="Прямоугольник_104" data-name="Прямоугольник 104" width="8.421" height="8.4" transform="translate(8.421 8.4)" fill="#fb4e33"/>
    <rect id="Прямоугольник_105" data-name="Прямоугольник 105" width="8.421" height="8.4" transform="translate(16.842)" fill="#fe3b1f"/>
    <rect id="Прямоугольник_106" data-name="Прямоугольник 106" width="8.421" height="8.4" transform="translate(25.264 8.4)" fill="#e51f1f"/>
    <rect id="Прямоугольник_107" data-name="Прямоугольник 107" width="8.421" height="8.4" transform="translate(25.264 16.8)" fill="#fe3b1f"/>
    <path id="Контур_3138" data-name="Контур 3138" d="M0,0H8.421V8.4H0Z" transform="translate(8.421 16.8)" fill="#fa271b"/>
    <path id="Контур_3137" data-name="Контур 3137" d="M0,0H8.421V8.4H0Z" transform="translate(0 25.2)" fill="#e51f1f"/>
    <rect id="Прямоугольник_110" data-name="Прямоугольник 110" width="8.421" height="8.4" transform="translate(33.685 25.2)" fill="#ff2707"/>
    <rect id="Прямоугольник_111" data-name="Прямоугольник 111" width="8.421" height="8.4" transform="translate(16.842 25.2)" fill="#fb4e33"/>
    <rect id="Прямоугольник_112" data-name="Прямоугольник 112" width="8.421" height="8.4" transform="translate(8.421 25.2)" fill="#fe3b1f"/>
    <rect id="Прямоугольник_113" data-name="Прямоугольник 113" width="8.421" height="8.4" transform="translate(25.264 25.2)" fill="#e51f1f"/>
    <rect id="Прямоугольник_114" data-name="Прямоугольник 114" width="8.421" height="8.4" transform="translate(16.842 16.8)" fill="#e51f1f"/>
    <rect id="Прямоугольник_115" data-name="Прямоугольник 115" width="8.421" height="8.4" transform="translate(16.842 8.4)" fill="#fe3b1f"/>
    <rect id="Прямоугольник_116" data-name="Прямоугольник 116" width="8.421" height="8.4" transform="translate(16.842 33.6)" fill="#1fa5e1"/>
  </g>
</svg>
