<svg xmlns="http://www.w3.org/2000/svg" width="163.384" height="24.093">
    <defs>
        <style>
            .cls-1{fill:#96a8c7}
        </style>
    </defs>
    <g id="Group_5725" data-name="Group 5725" transform="translate(-10.554 -371.785)">
        <path id="Path_6209" data-name="Path 6209" class="cls-1" d="M27.84 395.839h-9.249l8.154-21.953a3.3 3.3 0 0 1 3.037-2.1h5.376A1.6 1.6 0 0 1 36.612 374l-7.188 20.7-.031.08a1.734 1.734 0 0 1-.9.926c-.04.019-.08.03-.13.049s-.089.03-.13.04a.453.453 0 0 1-.069.02.7.7 0 0 1-.139.019z" transform="translate(-.995)"/>
        <path id="Path_6210" data-name="Path 6210" d="M25.71 396.977h-9.339a1.648 1.648 0 0 1-1.364-.935l-.11-.289-4.231-12.565a1.608 1.608 0 0 1 1.454-2.211h5.058a3.3 3.3 0 0 1 3.046 2.121l5.168 12.783a1.559 1.559 0 0 0 1.344 1.106z" transform="translate(0 -1.139)" style="fill:#acbbd6"/>
        <path id="Path_6211" data-name="Path 6211" class="cls-1" d="M26.388 396.645a1.576 1.576 0 0 0 1.324 1.106H18.6l3.943-10.614z" transform="translate(-.997 -1.901)"/>
        <path id="Path_6212" data-name="Path 6212" class="cls-1" d="M28.4 397.069h-.15a1.573 1.573 0 0 1-1.314-1.1l-3.843-9.518 1.762-4.729 2.645 13.317a2.243 2.243 0 0 0 1.414 1.941c-.04.01-.08.031-.13.039-.02.01-.05.01-.07.021a.681.681 0 0 1-.139.019z" transform="translate(-1.553 -1.23)"/>
        <path id="Path_6213" data-name="Path 6213" class="cls-1" d="M49.753 396.811a4.65 4.65 0 0 1-4.969-4.75c0-2.757 1.842-4.8 4.819-5.345l5.337-.986-.01-.1a2.814 2.814 0 0 0-2.977-2.339 4.982 4.982 0 0 0-3.724 1.862L45.66 382.5a8.693 8.693 0 0 1 6.621-3.186c4.052 0 7 2.807 7 6.66v10.473h-4.362v-2.081H54.6l-.03.04a6.25 6.25 0 0 1-4.819 2.4m1.324-7.288c-1.214.219-1.942.906-1.942 1.843 0 1.155.787 1.842 2.131 1.842a3.663 3.663 0 0 0 3.644-3.923v-.478z" transform="translate(-4.24 -.933)"/>
        <path id="Path_6214" data-name="Path 6214" class="cls-1" d="M71.773 396.789a8.747 8.747 0 0 1 0-17.493 8.411 8.411 0 0 1 4.948 1.543l-1.862 3.684a5.113 5.113 0 0 0-3.087-1.106 4.63 4.63 0 0 0 0 9.24 5.071 5.071 0 0 0 3.087-1.106l1.862 3.684a8.348 8.348 0 0 1-4.948 1.553" transform="translate(-6.507 -.93)"/>
        <path id="Path_6215" data-name="Path 6215" class="cls-1" d="M87.716 396.789a8.747 8.747 0 0 1 0-17.493 8.408 8.408 0 0 1 4.948 1.543l-1.864 3.684a5.108 5.108 0 0 0-3.086-1.106 4.63 4.63 0 0 0 0 9.24 5.068 5.068 0 0 0 3.086-1.106l1.862 3.684a8.3 8.3 0 0 1-4.948 1.553" transform="translate(-8.482 -.93)"/>
        <path id="Path_6216" data-name="Path 6216" class="cls-1" d="M103.863 396.791a8.728 8.728 0 0 1-8.682-8.741 8.816 8.816 0 0 1 2.5-6.173 8.221 8.221 0 0 1 14.187 5.834 12.412 12.412 0 0 1-.15 1.971H99.671l.039.131a4.379 4.379 0 0 0 4.481 3.026 6.121 6.121 0 0 0 3.385-1.006l3.116 2.409a10.192 10.192 0 0 1-6.83 2.549m-.338-13.53a4.112 4.112 0 0 0-3.814 3.026l-.039.131h7.707l-.04-.131a4.11 4.11 0 0 0-3.813-3.026" transform="translate(-10.481 -.932)"/>
        <path id="Path_6217" data-name="Path 6217" class="cls-1" d="M186.671 396.791a8.78 8.78 0 0 1-6.183-14.915 8.221 8.221 0 0 1 14.187 5.834 12.566 12.566 0 0 1-.149 1.971H182.47l.039.131a4.379 4.379 0 0 0 4.481 3.026 6.157 6.157 0 0 0 3.4-1.006l3.116 2.409a10.219 10.219 0 0 1-6.83 2.549m-.338-13.53a4.121 4.121 0 0 0-3.814 3.026l-.039.131h7.706l-.039-.131a4.11 4.11 0 0 0-3.813-3.026" transform="translate(-20.738 -.932)"/>
        <path id="Rectangle_4951" data-name="Rectangle 4951" class="cls-1" transform="translate(131.982 378.365)" d="M0 0h4.351v17.473H0z"/>
        <path id="Path_6218" data-name="Path 6218" class="cls-1" d="M157.956 395.868a.721.721 0 0 1-.707-.726v-22.631a.721.721 0 0 1 .707-.726h7.059a8.073 8.073 0 0 1 5.506 1.882 5.893 5.893 0 0 1 1.991 4.43 5.3 5.3 0 0 1-3.146 4.938l-.289.109.3.08a6.131 6.131 0 0 1 4.312 5.8c0 4.033-3.3 6.84-8.005 6.84zm3.873-4.3h3.743a3.067 3.067 0 1 0 0-6.113h-3.743zm0-10.414h3.071a2.543 2.543 0 1 0 0-5.058h-3.066z" transform="translate(-18.169)"/>
        <path id="Path_6219" data-name="Path 6219" class="cls-1" d="M122.43 396.79a7.4 7.4 0 0 1-4.262-1.165 5.7 5.7 0 0 1-1.962-2.289l3.625-1.653a2.653 2.653 0 0 0 2.6 1.513c1.224 0 1.981-.567 1.981-1.493 0-.846-.548-1.384-1.643-1.6l-2.1-.507c-2.927-.647-4.52-2.37-4.52-4.859 0-3.046 2.649-5.426 6.034-5.426a6.846 6.846 0 0 1 4.32 1.294 5.137 5.137 0 0 1 1.763 2.44l-3.625 1.563a2.271 2.271 0 0 0-2.419-1.733 1.711 1.711 0 0 0-1.9 1.494 1.6 1.6 0 0 0 1.354 1.483l2.26.508c3.086.667 4.829 2.479 4.779 4.977 0 2.619-1.971 5.457-6.282 5.457" transform="translate(-13.078 -.932)"/>
        <path id="Path_6220" data-name="Path 6220" class="cls-1" d="M138.191 396.79a7.4 7.4 0 0 1-4.261-1.165 5.7 5.7 0 0 1-1.962-2.289l3.624-1.653a2.654 2.654 0 0 0 2.6 1.513c1.225 0 1.982-.567 1.982-1.493 0-.846-.548-1.384-1.643-1.6l-2.1-.507c-2.927-.647-4.52-2.37-4.52-4.859 0-3.046 2.649-5.426 6.034-5.426a6.846 6.846 0 0 1 4.32 1.294 5.135 5.135 0 0 1 1.762 2.44L140.4 384.6a2.28 2.28 0 0 0-2.419-1.733 1.71 1.71 0 0 0-1.9 1.494 1.6 1.6 0 0 0 1.354 1.483l2.26.508c3.086.667 4.828 2.479 4.778 4.977.01 2.619-1.952 5.457-6.283 5.457" transform="translate(-15.03 -.932)"/>
        <path id="Path_6221" data-name="Path 6221" class="cls-1" d="M148.637 374.647a2.506 2.506 0 1 0 2.519-2.419 2.482 2.482 0 0 0-2.519 2.419" transform="translate(-17.102 -.055)"/>
    </g>
</svg>
