<svg xmlns="http://www.w3.org/2000/svg" width="148.74" height="38.66">
    <defs>
        <style>
            .cls-1{fill:#151d23;fill-rule:evenodd}
        </style>
    </defs>
    <g id="codeable" transform="translate(-91 -142)">
        <path id="Path_3154" data-name="Path 3154" class="cls-1" d="m66.493 17.2-2.723 1.263A3.453 3.453 0 0 0 61 17.25a3.339 3.339 0 0 0-3.317 3.54A3.309 3.309 0 0 0 61 24.279a3.442 3.442 0 0 0 2.772-1.188l2.748 1.262a6.082 6.082 0 0 1-5.571 3.047 6.589 6.589 0 0 1-6.708-6.609 6.689 6.689 0 0 1 6.708-6.683 6.113 6.113 0 0 1 5.544 3.092m3.581 3.614a3.321 3.321 0 1 0 6.634 0 3.326 3.326 0 1 0-6.634 0m10.05 0a6.746 6.746 0 0 1-13.49 0 6.745 6.745 0 0 1 13.49 0m10.638-.075a3.284 3.284 0 0 0-3.39-3.49A3.194 3.194 0 0 0 84.1 20.74a3.217 3.217 0 0 0 3.272 3.56 3.306 3.306 0 0 0 3.391-3.564zM94.129 9.7v17.5H90.59v-2.03c0 .916-1.659 2.277-3.836 2.277-2.7 0-6.089-2.129-6.089-6.708a6.3 6.3 0 0 1 6.089-6.634c2.178 0 3.836 1.436 3.836 2.031V9.7h3.54zm4.747 9.8h6.139a3.171 3.171 0 0 0-6.139 0m9.258 2.5h-9.283a3.276 3.276 0 0 0 3.441 2.45 5.4 5.4 0 0 0 3.143-.866l1.956 1.906a6.789 6.789 0 0 1-5.223 1.955 6.672 6.672 0 1 1-.247-13.341c2.921 0 6.98 2.2 6.213 7.9m4-1.262A3.216 3.216 0 0 0 115.4 24.3a3.306 3.306 0 0 0 3.391-3.564 3.285 3.285 0 0 0-3.391-3.49 3.193 3.193 0 0 0-3.267 3.49m6.485-4.6v-1.807h3.539V27.2h-3.539v-2.03c0 .916-1.658 2.277-3.837 2.277-2.7 0-6.089-2.129-6.089-6.708a6.3 6.3 0 0 1 6.089-6.634c2.178 0 3.837 1.436 3.837 2.031m15.445 4.6a3.193 3.193 0 0 0-3.267-3.49 3.285 3.285 0 0 0-3.391 3.49 3.305 3.305 0 0 0 3.391 3.564 3.216 3.216 0 0 0 3.267-3.564m3.441 0c0 4.58-3.391 6.708-6.089 6.708-2.178 0-3.837-1.361-3.837-2.277V27.2h-3.54V9.7h3.54v6.436c0-.595 1.659-2.03 3.837-2.03a6.3 6.3 0 0 1 6.089 6.634" transform="translate(83.371 140.635)"/>
        <path id="Path_3155" data-name="Path 3155" class="cls-1" d="M152.573 27.2h3.54V9.7h-3.54zm8.277-7.7h6.139a3.171 3.171 0 0 0-6.139 0m9.258 2.5h-9.283a3.276 3.276 0 0 0 3.441 2.45 5.4 5.4 0 0 0 3.143-.866l1.956 1.906a6.789 6.789 0 0 1-5.223 1.955 6.672 6.672 0 1 1-.247-13.341c2.921 0 6.98 2.2 6.213 7.9" transform="translate(69.538 140.635)"/>
        <path id="Path_3156" data-name="Path 3156" d="M15 27.883A12.887 12.887 0 1 0 27.883 15v12.883z" transform="translate(88.89 139.89)" style="fill:#fdb199;fill-rule:evenodd"/>
        <path id="Path_3157" data-name="Path 3157" d="M25.773 12.887V0H0v25.773h12.887V12.887z" transform="translate(91 142)" style="fill:#165260;fill-rule:evenodd"/>
    </g>
</svg>
