<svg xmlns="http://www.w3.org/2000/svg" width="112" height="22.386">
    <defs>
        <style>
            .cls-1{fill:#96a8c7}
        </style>
    </defs>
    <g id="dorco" transform="translate(1879.267 1540.176)">
        <path id="Path_6230" data-name="Path 6230" class="cls-1" d="M-1860.709-1528.355a11.144 11.144 0 0 1-11.415 10.882h-7.144v-21.733h7.144a11.138 11.138 0 0 1 11.415 10.851zm-5.29 0a6.285 6.285 0 0 0-6.125-6.438h-1.854v12.909h1.854a6.293 6.293 0 0 0 6.124-6.471z" transform="translate(.001 -.644)"/>
        <path id="Path_6231" data-name="Path 6231" class="cls-1" d="M-1819.635-1529c0-6.177 5.25-11.177 11.773-11.177 6.5 0 11.777 5 11.777 11.177a11.493 11.493 0 0 1-11.777 11.21 11.477 11.477 0 0 1-11.773-11.21zm18.216 0a6.327 6.327 0 0 0-6.443-6.209 6.315 6.315 0 0 0-6.443 6.209 6.321 6.321 0 0 0 6.443 6.242 6.333 6.333 0 0 0 6.443-6.242z" transform="translate(-39.564)"/>
        <path id="Path_6232" data-name="Path 6232" class="cls-1" d="M-1743.4-1531.647a8.752 8.752 0 0 1 9.014-8.529 8.726 8.726 0 0 1 8.948 8.529 6.907 6.907 0 0 1-3.584 6.177l3.938 7.353h-5.549l-4.494-8.889c3.043-1.111 4.375-2.582 4.375-4.641a3.587 3.587 0 0 0-3.634-3.595 3.628 3.628 0 0 0-3.7 3.595v13.53h-5.309z" transform="translate(-90.141)"/>
        <path id="Path_6233" data-name="Path 6233" class="cls-1" d="M-1616.368-1529c0-6.177 5.25-11.177 11.753-11.177s11.772 5 11.772 11.177a11.489 11.489 0 0 1-11.772 11.21 11.472 11.472 0 0 1-11.753-11.21zm18.2 0a6.319 6.319 0 0 0-6.448-6.209 6.327 6.327 0 0 0-6.443 6.209 6.333 6.333 0 0 0 6.443 6.242 6.325 6.325 0 0 0 6.449-6.242z" transform="translate(-174.424)"/>
        <path id="Path_6234" data-name="Path 6234" class="cls-1" d="m-1667.34-1525.8 4.713 2.284a11.867 11.867 0 0 1-10.261 5.689c-6.488 0-11.758-5-11.758-11.177s5.27-11.177 11.758-11.177a11.866 11.866 0 0 1 10.261 5.69l-4.713 2.284h-.02a6.493 6.493 0 0 0-5.528-3.006 6.33 6.33 0 0 0-6.448 6.209 6.33 6.33 0 0 0 6.448 6.209 6.492 6.492 0 0 0 5.528-3.007z" transform="translate(-129.124)"/>
    </g>
</svg>
