<svg xmlns="http://www.w3.org/2000/svg" width="149.619" height="31.942">
    <g data-name="Group 5759">
        <path data-name="Path 6235" d="M394.918 155.417v-2.631h-3.268V148.7l-.11.034-3.069.939-.061.018v3.1h-4.844v-1.731a2.742 2.742 0 0 1 .534-1.83 1.884 1.884 0 0 1 1.5-.611 3.488 3.488 0 0 1 1.42.323l.121.054v-2.771l-.057-.021a5.535 5.535 0 0 0-1.815-.242 5.32 5.32 0 0 0-2.574.618 4.4 4.4 0 0 0-1.766 1.746 5.206 5.206 0 0 0-.626 2.562v1.9h-2.275v2.631h2.272V166.5h3.266v-11.083h4.844v7.044c0 2.9 1.368 4.371 4.067 4.371a6.672 6.672 0 0 0 1.387-.154 3.831 3.831 0 0 0 1.01-.32l.043-.025v-2.656l-.133.088a2.287 2.287 0 0 1-.657.286 2.5 2.5 0 0 1-.645.11 1.75 1.75 0 0 1-1.39-.507 2.728 2.728 0 0 1-.442-1.762v-6.476zm-24.187 8.745a3.465 3.465 0 0 1-2.779-1.162 4.958 4.958 0 0 1-1-3.3 5.153 5.153 0 0 1 1-3.385 3.41 3.41 0 0 1 2.752-1.186 3.358 3.358 0 0 1 2.68 1.134 5.053 5.053 0 0 1 .978 3.357 5.387 5.387 0 0 1-.92 3.4 3.276 3.276 0 0 1-2.711 1.145m.145-11.707a7.164 7.164 0 0 0-5.339 1.97 7.386 7.386 0 0 0-1.929 5.377 7 7 0 0 0 1.883 5.133 6.831 6.831 0 0 0 5.054 1.9 6.968 6.968 0 0 0 5.233-2 7.366 7.366 0 0 0 1.929-5.324 7.186 7.186 0 0 0-1.809-5.172 6.665 6.665 0 0 0-5.022-1.885m-12.534 0a5.9 5.9 0 0 0-3.783 1.169 3.731 3.731 0 0 0-1.474 3.043 4.257 4.257 0 0 0 .318 1.7 3.417 3.417 0 0 0 .976 1.275 8.494 8.494 0 0 0 1.985 1.111 14.79 14.79 0 0 1 1.651.769 2.3 2.3 0 0 1 .727.6 1.34 1.34 0 0 1 .2.778c0 .922-.69 1.37-2.11 1.37a5.8 5.8 0 0 1-1.786-.327 6.706 6.706 0 0 1-1.829-.927l-.136-.1v3.145l.05.023a8.092 8.092 0 0 0 1.732.535 9.288 9.288 0 0 0 1.849.214 6.27 6.27 0 0 0 3.995-1.176 3.8 3.8 0 0 0 1.488-3.115 3.583 3.583 0 0 0-.8-2.357 6.859 6.859 0 0 0-2.719-1.731 7.011 7.011 0 0 1-1.937-1.007 1.41 1.41 0 0 1-.391-1.057 1.177 1.177 0 0 1 .5-.977 2.228 2.228 0 0 1 1.39-.392 5.69 5.69 0 0 1 1.655.254 5.318 5.318 0 0 1 1.445.67l.133.091v-2.983l-.051-.022a7.127 7.127 0 0 0-1.467-.409 8.958 8.958 0 0 0-1.609-.167m-13.773 11.707A3.465 3.465 0 0 1 341.79 163a4.956 4.956 0 0 1-1-3.3 5.152 5.152 0 0 1 1-3.385 3.408 3.408 0 0 1 2.752-1.186 3.358 3.358 0 0 1 2.68 1.134 5.052 5.052 0 0 1 .978 3.357 5.387 5.387 0 0 1-.921 3.4 3.275 3.275 0 0 1-2.711 1.145m.146-11.707a7.162 7.162 0 0 0-5.339 1.97 7.387 7.387 0 0 0-1.929 5.377 6.994 6.994 0 0 0 1.884 5.133 6.831 6.831 0 0 0 5.054 1.9 6.969 6.969 0 0 0 5.234-2 7.368 7.368 0 0 0 1.929-5.324 7.185 7.185 0 0 0-1.81-5.172 6.665 6.665 0 0 0-5.022-1.885m-12.227 2.706v-2.375h-3.226V166.5h3.226v-7.016a4.89 4.89 0 0 1 .8-2.914 2.467 2.467 0 0 1 2.087-1.1 3.789 3.789 0 0 1 .97.143 2.455 2.455 0 0 1 .752.3l.136.1v-3.253l-.052-.022a3.34 3.34 0 0 0-1.263-.192 3.306 3.306 0 0 0-2.158.773 4.37 4.37 0 0 0-1.241 1.84zm-9-2.706a7.964 7.964 0 0 0-3.923.943 6.355 6.355 0 0 0-2.588 2.661 8.475 8.475 0 0 0-.889 3.942 7.272 7.272 0 0 0 .864 3.533 6.071 6.071 0 0 0 2.414 2.441 7.187 7.187 0 0 0 3.527.857 7.723 7.723 0 0 0 3.892-.911l.042-.024v-2.956l-.136.1a6.065 6.065 0 0 1-1.578.822 4.77 4.77 0 0 1-1.546.3 3.973 3.973 0 0 1-3.02-1.177 4.579 4.579 0 0 1-1.114-3.262 4.75 4.75 0 0 1 1.161-3.348 3.952 3.952 0 0 1 3.026-1.249 5.182 5.182 0 0 1 3.072 1.068l.135.1v-3.115l-.044-.025a5.324 5.324 0 0 0-1.493-.5 8.917 8.917 0 0 0-1.8-.194m-9.622.331h-3.226V166.5h3.226zm-1.58-5.843a1.944 1.944 0 0 0-1.375.539 1.778 1.778 0 0 0-.576 1.345 1.728 1.728 0 0 0 .57 1.319 1.965 1.965 0 0 0 1.381.525 1.99 1.99 0 0 0 1.387-.525 1.721 1.721 0 0 0 .577-1.32 1.812 1.812 0 0 0-.561-1.331 1.925 1.925 0 0 0-1.4-.553m-8.05 4.831V166.5h3.293v-19.137h-4.557l-5.793 14.216-5.621-14.216h-4.753V166.5h3.09v-14.727h.106l5.936 14.729h2.335l5.843-14.728z" transform="translate(-245.299 -140.967)" style="fill:#706d6e"/>
        <path data-name="Path 6236" d="M15.178 126.637H0v-15.178h15.178z" style="fill:#f1511c" transform="translate(0 -111.459)"/>
        <path data-name="Path 6237" d="M130.966 126.637h-15.178v-15.178h15.178v15.178z" transform="translate(-99.029 -111.459)" style="fill:#80cc28"/>
        <path data-name="Path 6238" d="M15.178 242.465H0v-15.178h15.178z" transform="translate(0 -210.523)" style="fill:#21adef"/>
        <path data-name="Path 6239" d="M130.966 242.465h-15.178v-15.178h15.178v15.178z" transform="translate(-99.029 -210.523)" style="fill:#fbbc2c"/>
    </g>
</svg>
