<svg xmlns="http://www.w3.org/2000/svg" width="140" height="46.253">
    <defs>
        <style>
            .cls-1{fill:#515666}.cls-4{fill:#137089}
        </style>
    </defs>
    <g id="Group_5755" data-name="Group 5755" transform="translate(-964.522 -2145.473)">
        <g id="Group_5740" data-name="Group 5740">
            <path id="Path_6261" data-name="Path 6261" class="cls-1" d="m1030.3 2168.5-2.751-4.157h1.239l2.121 3.4h.021l2.162-3.4h1.176l-2.772 4.178 2.877 4.346h-1.281l-2.183-3.59h-.042l-2.289 3.59h-1.218z"/>
            <path id="Path_6262" data-name="Path 6262" class="cls-1" d="M1036.222 2164.348h1.071v7.537h4.472v.987h-5.543z"/>
            <path id="Path_6263" data-name="Path 6263" class="cls-1" d="M1043.718 2164.348h1.365l2.771 7.075h.021l2.751-7.075h1.385v8.524h-1.028v-7.013h-.021s-.231.672-.378 1.071l-2.331 5.942h-.819l-2.33-5.942a21.019 21.019 0 0 1-.378-1.071h-.021v7.013h-.966l-.021-8.524z"/>
            <path id="Path_6264" data-name="Path 6264" class="cls-1" d="M1054.027 2169.807a3.006 3.006 0 0 1 2.918-3.234c1.848 0 2.835 1.428 2.835 3.465h-4.766a2.036 2.036 0 0 0 1.994 2.2 1.577 1.577 0 0 0 1.7-1.26h.945a2.522 2.522 0 0 1-2.646 2.079 3 3 0 0 1-2.98-3.25zm1.008-.5h3.716c-.063-1.218-.693-1.974-1.806-1.974-1.133-.004-1.763.836-1.91 1.967z"/>
            <path id="Path_6265" data-name="Path 6265" class="cls-1" d="M1061.27 2169.807c0-2.058 1.176-3.234 2.709-3.234a2.287 2.287 0 0 1 1.932 1.008h.021v-3.233h.965v8.524h-.965v-.756h-.021a2.239 2.239 0 0 1-1.911.924c-1.68.021-2.73-1.24-2.73-3.233zm4.725.021c0-1.428-.693-2.436-1.974-2.436-1.176 0-1.764 1.05-1.764 2.436s.588 2.414 1.785 2.414c1.365 0 1.953-1.029 1.953-2.414z"/>
            <path id="Path_6266" data-name="Path 6266" class="cls-1" d="M1069.123 2164.348h.966v1.2h-.966zm0 2.372h.966v6.173h-.966z"/>
            <path id="Path_6267" data-name="Path 6267" class="cls-1" d="M1076.073 2172.011a2.492 2.492 0 0 1-2.058.987c-1.176 0-2.079-.546-2.079-1.722 0-1.448 1.155-1.742 2.688-1.994.861-.126 1.47-.21 1.47-.882 0-.693-.5-1.092-1.386-1.092-1.008 0-1.512.42-1.533 1.365h-.945c.042-1.2.819-2.079 2.457-2.079 1.3 0 2.267.483 2.267 1.953v2.939c0 .5.126.777.651.651h.042v.714a1.425 1.425 0 0 1-.525.1.966.966 0 0 1-1.049-.94zm.021-1.406v-1.05a4.423 4.423 0 0 1-1.407.462c-.966.189-1.743.336-1.743 1.259 0 .819.651 1.008 1.281 1.008a1.768 1.768 0 0 0 1.869-1.684z"/>
            <path id="Path_6268" data-name="Path 6268" class="cls-1" d="M1082.2 2164.348h3.549a2.546 2.546 0 0 1 2.036.819 2.479 2.479 0 0 1 .567 1.616c0 1.554-.9 2.5-2.75 2.5h-2.331v3.569h-1.071v-8.5zm1.071 4.073h2.247c1.2 0 1.784-.609 1.784-1.6 0-1.029-.63-1.553-1.721-1.553h-2.31z"/>
            <path id="Path_6269" data-name="Path 6269" class="cls-1" d="M1090.287 2164.348h1.07v7.537h4.473v.987h-5.543z"/>
            <path id="Path_6270" data-name="Path 6270" class="cls-1" d="M1096.921 2168.61c0-2.5 1.512-4.451 4.053-4.451a3.169 3.169 0 0 1 3.422 2.708h-1.05a2.215 2.215 0 0 0-2.393-1.784c-1.869 0-2.919 1.511-2.919 3.527 0 2.079 1.155 3.485 2.94 3.485a2.353 2.353 0 0 0 2.477-2.351h1.071a3.655 3.655 0 0 1-1.029 2.393 3.522 3.522 0 0 1-2.561.9c-2.432.003-4.011-1.845-4.011-4.427z"/>
        </g>
        <path id="Path_6271" data-name="Path 6271" d="m1000.446 2145.976-27.757 16.041a1.192 1.192 0 0 0-.588 1.008 1.154 1.154 0 0 0 .63 1.029l11.233 5.753 16.482-9.511z" style="fill:#fff"/>
        <path id="Path_6272" data-name="Path 6272" d="m964.522 2191.726 27.756-16.019a1.192 1.192 0 0 0 .588-1.008 1.154 1.154 0 0 0-.63-1.029L981 2167.917l-16.482 9.49z" style="fill:#26b7d6"/>
        <path id="Path_6273" data-name="Path 6273" class="cls-4" d="m1000.446 2177.659-16.482-8.44-11.233-5.753a1.154 1.154 0 0 1-.63-1.029v11.632a1.173 1.173 0 0 0 .588 1.008l27.757 16.019v-13.437z"/>
        <path id="Path_6274" data-name="Path 6274" class="cls-4" d="m1000.446 2145.473-27.757 16.019a1.192 1.192 0 0 0-.588 1.008 1.154 1.154 0 0 0 .63 1.029l11.233 5.753 16.482-9.511z"/>
        <path id="Path_6275" data-name="Path 6275" d="M992.866 2163.067a1.173 1.173 0 0 0-.588-1.008l-27.756-16.02v13.438l16.482 8.44 11.232 5.732a1.154 1.154 0 0 1 .63 1.029z" style="fill:#3ac6ed"/>
        <path id="Path_6276" data-name="Path 6276" d="m1021.189 2145.536-27.756 16.04a1.192 1.192 0 0 0-.588 1.008 1.154 1.154 0 0 0 .63 1.029l11.233 5.753 16.481-9.511z" style="fill:#0c223e"/>
        <path id="Path_6277" data-name="Path 6277" d="m1021.189 2177.218-16.481-8.44-11.233-5.753a1.154 1.154 0 0 1-.63-1.029v11.632a1.174 1.174 0 0 0 .588 1.008l27.756 16.02z" style="fill:#074970"/>
    </g>
</svg>
