<svg xmlns="http://www.w3.org/2000/svg" width="116.164" height="27.787">
    <defs>
        <style>
            .cls-1{fill:#96a8c7}
        </style>
    </defs>
    <g id="Group_5726" data-name="Group 5726" transform="translate(175 -568.421)">
        <path id="Path_6222" data-name="Path 6222" class="cls-1" d="M-98.514 573.853a7.069 7.069 0 0 0-.78-2.841c.125.375-.125 1.093-.656 1.093-1.249 0-.968-1.467 1.249-3.684-2.841 1.28-4.214 2.435-5.026 3.59a3.839 3.839 0 0 0-.749 1.686 2.7 2.7 0 0 0-.125.874 3.158 3.158 0 0 0 3.434 3.278c1.186-.031 2.654-1.124 2.654-4" transform="translate(-48.421)"/>
        <path id="Path_6223" data-name="Path 6223" class="cls-1" d="M-77.879 577.761v-3.715h6.962V586.1a5.083 5.083 0 0 1 4.714-2.935c3.34 0 5.744 2.56 5.744 7.118v5.588h1.623v3.684h-7.992v-3.684h1.53V590.4c0-2.06-.812-3.091-2.529-3.091-1.936 0-3.091 1.124-3.091 3.434v5.12h1.53v3.684H-77.5v-3.684h1.748v-18.102zm-5.245 11.613a3.081 3.081 0 0 0-2.966-2.248c-2.092 0-3.59 1.748-3.59 4.339 0 2.9 1.53 4.4 3.84 4.4a4.379 4.379 0 0 0 3.372-1.686l3 2.747A8.029 8.029 0 0 1-86 599.895c-5.182 0-8.648-3.247-8.648-8.4 0-5.495 3.84-8.335 7.368-8.335a4.684 4.684 0 0 1 4.09 1.779l.312-1.436h3.028v5.869zm-18.2.749c-.062-1.967-1.218-3.215-2.966-3.215a3.261 3.261 0 0 0-3.4 3.215zm-2.466 5.932a5.452 5.452 0 0 0 3.715-1.436l2.591 2.9a8.325 8.325 0 0 1-6.4 2.373c-5.619 0-8.679-3.465-8.679-8.4a8.011 8.011 0 0 1 8.242-8.335c5.494 0 8.242 4.308 7.867 9.927h-11.176a3.492 3.492 0 0 0 3.84 2.966m-13.081-.031c-.749 0-1.374-.344-1.374-1.967v-6.712h3.9v-3.84h-3.9v-5.526a23.53 23.53 0 0 0-4.808-1.186v6.712h-2.247v3.84h2.248v6.337c0 4.932 2.217 6.306 5.307 6.306a6.426 6.426 0 0 0 4.277-1.467l-1.717-3.309a2.781 2.781 0 0 1-1.686.812m-27.878-12.519h8.023v3.84h-1.5l1.4 3.216a22.9 22.9 0 0 1 1.218 3.933 26.678 26.678 0 0 1 1.311-3.933l1.467-3.216h-1.561v-3.84h6.962v3.84h-1.4l-5.557 12.206h-3.153l-5.526-12.206h-1.686zm-2.4 12.363h1.748v3.684h-8.335v-3.684h1.748v-8.523h-1.748v-3.84h6.587zM-174 581.32v-7.4h17.919v2.56l-12.643 19.262h8.273l.5-3.777h3.621v7.586H-175v-2.685l12.675-19.137h-7.555l-.5 3.59z" transform="translate(0 -3.783)"/>
    </g>
</svg>
