<?xml version="1.0" encoding="UTF-8"?>
<svg id="SVGDoc" width="200" height="200" xmlns="http://www.w3.org/2000/svg" version="1.1" xmlns:xlink="http://www.w3.org/1999/xlink" xmlns:avocode="https://avocode.com/" viewBox="0 0 200 200"><defs><mask id="Mask4221" x="-1" y="-1" width="2" height="2"><rect width="126" height="126" x="37" y="37" fill="#ffffff"></rect><path d="M47,163c-5.52285,0 -10,-4.47715 -10,-10v-106c0,-5.52285 4.47715,-10 10,-10h106c5.52285,0 10,4.47715 10,10v106c0,5.52285 -4.47715,10 -10,10z" fill="#000000"></path></mask><filter id="Filter4225" width="198" height="198" x="7" y="7" filterUnits="userSpaceOnUse"><feOffset dx="12" dy="12" result="FeOffset4226Out" in="SourceGraphic"></feOffset><feGaussianBlur stdDeviation="8 8" result="FeGaussianBlur4227Out" in="FeOffset4226Out"></feGaussianBlur></filter><linearGradient id="LinearGradient4228" gradientUnits="userSpaceOnUse" x1="100" y1="37" x2="100" y2="163"><stop stop-opacity="1" stop-color="#fafdff" offset="0"></stop><stop stop-opacity="1" stop-color="#f2f9ff" offset="1"></stop></linearGradient><mask id="Mask4240" x="-1" y="-1" width="2" height="2"><rect width="92" height="92" x="54" y="54" fill="#ffffff"></rect><path d="M54,100c0,-25.4051 20.5949,-46 46,-46c25.4051,0 46,20.5949 46,46c0,25.4051 -20.5949,46 -46,46c-25.4051,0 -46,-20.5949 -46,-46z" fill="#000000"></path></mask><filter id="Filter4244" width="139" height="139" x="28" y="28" filterUnits="userSpaceOnUse"><feOffset dx="-5" dy="-5" result="FeOffset4245Out" in="SourceGraphic"></feOffset><feGaussianBlur stdDeviation="4.4 4.4" result="FeGaussianBlur4246Out" in="FeOffset4245Out"></feGaussianBlur></filter><linearGradient id="LinearGradient4247" gradientUnits="userSpaceOnUse" x1="33.39" y1="3.8900000000003274" x2="126.11000000000001" y2="140.46000000000004"><stop stop-opacity="1" stop-color="#d3dfe8" offset="0"></stop><stop stop-opacity="1" stop-color="#e9eef4" offset="0.61"></stop><stop stop-opacity="1" stop-color="#dfe9fc" offset="1"></stop></linearGradient><mask id="Mask4262" x="-1" y="-1" width="2" height="2"><rect width="18" height="23.390000000000327" x="91" y="64" fill="#ffffff"></rect><path d="M99.98829,87.38558v0h-8.98829v0l8.98829,-23.32751v0v-0.05807v0l0.0112,0.02942v0l0.0114,-0.02942v0v0.05807v0l8.98887,23.32751v0z" fill="#000000"></path></mask><filter id="Filter4266" width="52" height="57.39000000000033" x="75" y="48" filterUnits="userSpaceOnUse"><feOffset dx="2" dy="2" result="FeOffset4267Out" in="SourceGraphic"></feOffset><feGaussianBlur stdDeviation="2.4 2.4" result="FeGaussianBlur4268Out" in="FeOffset4267Out"></feGaussianBlur></filter><linearGradient id="LinearGradient4269" gradientUnits="userSpaceOnUse" x1="105.52000000000001" y1="71.61999999999989" x2="92.1" y2="92.13000000000011"><stop stop-opacity="1" stop-color="#fb3b1e" offset="0"></stop><stop stop-opacity="1" stop-color="#ff6b55" offset="1"></stop></linearGradient><mask id="Mask4281" x="-1" y="-1" width="2" height="2"><rect width="18" height="23.390000000000327" x="91" y="112.60999999999967" fill="#ffffff"></rect><path d="M99.98853,136v0h-8.98829v0l8.98829,-23.32751v0v-0.05807v0l0.0112,0.02942v0l0.0114,-0.02942v0v0.05807v0l8.98887,23.32751v0z" fill="#000000"></path></mask><filter id="Filter4285" width="52" height="57.39000000000033" x="73" y="94.60999999999967" filterUnits="userSpaceOnUse"><feOffset dx="-2" dy="-2" result="FeOffset4286Out" in="SourceGraphic"></feOffset><feGaussianBlur stdDeviation="2.4 2.4" result="FeGaussianBlur4287Out" in="FeOffset4286Out"></feGaussianBlur></filter><linearGradient id="LinearGradient4288" gradientUnits="userSpaceOnUse" x1="100" y1="112.60999999999967" x2="100" y2="136"><stop stop-opacity="1" stop-color="#1da0df" offset="0"></stop><stop stop-opacity="1" stop-color="#49b2e5" offset="1"></stop></linearGradient><mask id="Mask4300" x="-1" y="-1" width="2" height="2"><rect width="34" height="34" x="83" y="83" fill="#ffffff"></rect><path d="M83,100c0,-9.38884 7.61116,-17 17,-17c9.38884,0 17,7.61116 17,17c0,9.38884 -7.61116,17 -17,17c-9.38884,0 -17,-7.61116 -17,-17z" fill="#000000"></path></mask><filter id="Filter4304" width="81" height="81" x="62" y="62" filterUnits="userSpaceOnUse"><feOffset dx="5" dy="5" result="FeOffset4305Out" in="SourceGraphic"></feOffset><feGaussianBlur stdDeviation="4.4 4.4" result="FeGaussianBlur4306Out" in="FeOffset4305Out"></feGaussianBlur></filter><linearGradient id="LinearGradient4307" gradientUnits="userSpaceOnUse" x1="89.94999999999999" y1="90.25" x2="115.03" y2="128.82999999999993"><stop stop-opacity="1" stop-color="#f0f8ff" offset="0"></stop><stop stop-opacity="1" stop-color="#dfe9fc" offset="1"></stop></linearGradient><mask id="Mask4319" x="-1" y="-1" width="2" height="2"><rect width="33" height="34" x="84" y="82" fill="#ffffff"></rect><path d="M84,99c0,-9.38884 7.3873,-17 16.5,-17c9.1127,0 16.5,7.61116 16.5,17c0,9.38884 -7.3873,17 -16.5,17c-9.1127,0 -16.5,-7.61116 -16.5,-17z" fill="#000000"></path></mask><filter id="Filter4323" width="105" height="106" x="42" y="40" filterUnits="userSpaceOnUse"><feOffset dx="-12" dy="-12" result="FeOffset4324Out" in="SourceGraphic"></feOffset><feGaussianBlur stdDeviation="8 8" result="FeGaussianBlur4325Out" in="FeOffset4324Out"></feGaussianBlur></filter><mask id="Mask4334" x="-1" y="-1" width="2" height="2"><rect width="33" height="34" x="84" y="82" fill="#ffffff"></rect><path d="M84,99c0,-9.38884 7.3873,-17 16.5,-17c9.1127,0 16.5,7.61116 16.5,17c0,9.38884 -7.3873,17 -16.5,17c-9.1127,0 -16.5,-7.61116 -16.5,-17z" fill="#000000"></path></mask><filter id="Filter4338" width="80" height="81" x="58" y="56" filterUnits="userSpaceOnUse"><feOffset dx="-5" dy="-5" result="FeOffset4339Out" in="SourceGraphic"></feOffset><feGaussianBlur stdDeviation="4.4 4.4" result="FeGaussianBlur4340Out" in="FeOffset4339Out"></feGaussianBlur></filter><mask id="Mask4349" x="-1" y="-1" width="2" height="2"><rect width="18" height="18" x="91" y="91" fill="#ffffff"></rect><path d="M91,100c0,-4.97056 4.02944,-9 9,-9c4.97056,0 9,4.02944 9,9c0,4.97056 -4.02944,9 -9,9c-4.97056,0 -9,-4.02944 -9,-9z" fill="#000000"></path></mask><filter id="Filter4353" width="65" height="65" x="70" y="70" filterUnits="userSpaceOnUse"><feOffset dx="5" dy="5" result="FeOffset4354Out" in="SourceGraphic"></feOffset><feGaussianBlur stdDeviation="4.4 4.4" result="FeGaussianBlur4355Out" in="FeOffset4354Out"></feGaussianBlur></filter><linearGradient id="LinearGradient4356" gradientUnits="userSpaceOnUse" x1="94.68" y1="94.84000000000015" x2="107.96000000000001" y2="115.26000000000022"><stop stop-opacity="1" stop-color="#fafdff" offset="0"></stop><stop stop-opacity="1" stop-color="#dfe9fc" offset="1"></stop></linearGradient></defs><desc>Generated with Avocode.</desc><g><g><title>Group 6103</title><g><title>Rectangle 489</title><path d="M10,200c-5.52285,0 -10,-4.47715 -10,-10v-180c0,-5.52285 4.47715,-10 10,-10h180c5.52285,0 10,4.47715 10,10v180c0,5.52285 -4.47715,10 -10,10z" fill="#e8eff7" fill-opacity="1"></path></g><g><title>Rectangle 490</title><g filter="url(#Filter4225)"><path d="M47,163c-5.52285,0 -10,-4.47715 -10,-10v-106c0,-5.52285 4.47715,-10 10,-10h106c5.52285,0 10,4.47715 10,10v106c0,5.52285 -4.47715,10 -10,10z" fill="none" stroke-opacity="0.16" stroke-width="0" mask="url(&quot;#Mask4221&quot;)"></path><path d="M47,163c-5.52285,0 -10,-4.47715 -10,-10v-106c0,-5.52285 4.47715,-10 10,-10h106c5.52285,0 10,4.47715 10,10v106c0,5.52285 -4.47715,10 -10,10z" fill="#3d495c" fill-opacity="0.16"></path></g><path d="M47,163c-5.52285,0 -10,-4.47715 -10,-10v-106c0,-5.52285 4.47715,-10 10,-10h106c5.52285,0 10,4.47715 10,10v106c0,5.52285 -4.47715,10 -10,10z" fill="url(#LinearGradient4228)"></path></g><g opacity="0.4"><title>Ellipse 77</title><g filter="url(#Filter4244)"><path d="M54,100c0,-25.4051 20.5949,-46 46,-46c25.4051,0 46,20.5949 46,46c0,25.4051 -20.5949,46 -46,46c-25.4051,0 -46,-20.5949 -46,-46z" fill="none" stroke-opacity="0.02" stroke-width="0" mask="url(&quot;#Mask4240&quot;)"></path><path d="M54,100c0,-25.4051 20.5949,-46 46,-46c25.4051,0 46,20.5949 46,46c0,25.4051 -20.5949,46 -46,46c-25.4051,0 -46,-20.5949 -46,-46z" fill="#1a2534" fill-opacity="0.02"></path></g><path d="M54,100c0,-25.4051 20.5949,-46 46,-46c25.4051,0 46,20.5949 46,46c0,25.4051 -20.5949,46 -46,46c-25.4051,0 -46,-20.5949 -46,-46z" fill="url(#LinearGradient4247)"></path></g><g><title>Group 5868</title><g><title>Union 21</title><g filter="url(#Filter4266)"><path d="M99.98829,87.38558v0h-8.98829v0l8.98829,-23.32751v0v-0.05807v0l0.0112,0.02942v0l0.0114,-0.02942v0v0.05807v0l8.98887,23.32751v0z" fill="none" stroke-opacity="0.16" stroke-width="0" mask="url(&quot;#Mask4262&quot;)"></path><path d="M99.98829,87.38558v0h-8.98829v0l8.98829,-23.32751v0v-0.05807v0l0.0112,0.02942v0l0.0114,-0.02942v0v0.05807v0l8.98887,23.32751v0z" fill="#1a2534" fill-opacity="0.16"></path></g><path d="M99.98829,87.38558v0h-8.98829v0l8.98829,-23.32751v0v-0.05807v0l0.0112,0.02942v0l0.0114,-0.02942v0v0.05807v0l8.98887,23.32751v0z" fill="url(#LinearGradient4269)"></path></g><g transform="rotate(-180 100 124.30499999999984)"><title>Union 22</title><g filter="url(#Filter4285)"><path d="M99.98853,136v0h-8.98829v0l8.98829,-23.32751v0v-0.05807v0l0.0112,0.02942v0l0.0114,-0.02942v0v0.05807v0l8.98887,23.32751v0z" fill="none" stroke-opacity="0.16" stroke-width="0" mask="url(&quot;#Mask4281&quot;)"></path><path d="M99.98853,136v0h-8.98829v0l8.98829,-23.32751v0v-0.05807v0l0.0112,0.02942v0l0.0114,-0.02942v0v0.05807v0l8.98887,23.32751v0z" fill="#1a2534" fill-opacity="0.16"></path></g><path d="M99.98853,136v0h-8.98829v0l8.98829,-23.32751v0v-0.05807v0l0.0112,0.02942v0l0.0114,-0.02942v0v0.05807v0l8.98887,23.32751v0z" fill="url(#LinearGradient4288)"></path></g></g><g><title>Ellipse 78</title><g filter="url(#Filter4304)"><path d="M83,100c0,-9.38884 7.61116,-17 17,-17c9.38884,0 17,7.61116 17,17c0,9.38884 -7.61116,17 -17,17c-9.38884,0 -17,-7.61116 -17,-17z" fill="none" stroke-opacity="0.16" stroke-width="0" mask="url(&quot;#Mask4300&quot;)"></path><path d="M83,100c0,-9.38884 7.61116,-17 17,-17c9.38884,0 17,7.61116 17,17c0,9.38884 -7.61116,17 -17,17c-9.38884,0 -17,-7.61116 -17,-17z" fill="#1a2534" fill-opacity="0.16"></path></g><path d="M83,100c0,-9.38884 7.61116,-17 17,-17c9.38884,0 17,7.61116 17,17c0,9.38884 -7.61116,17 -17,17c-9.38884,0 -17,-7.61116 -17,-17z" fill="url(#LinearGradient4307)"></path></g><g><title>Ellipse 79</title><g filter="url(#Filter4323)"><path d="M84,99c0,-9.38884 7.3873,-17 16.5,-17c9.1127,0 16.5,7.61116 16.5,17c0,9.38884 -7.3873,17 -16.5,17c-9.1127,0 -16.5,-7.61116 -16.5,-17z" fill="none" stroke-opacity="0.16" stroke-width="0" mask="url(&quot;#Mask4319&quot;)"></path><path d="M84,99c0,-9.38884 7.3873,-17 16.5,-17c9.1127,0 16.5,7.61116 16.5,17c0,9.38884 -7.3873,17 -16.5,17c-9.1127,0 -16.5,-7.61116 -16.5,-17z" fill="#a9b9d1" fill-opacity="0.16"></path></g></g><g><title>Ellipse 80</title><g filter="url(#Filter4338)"><path d="M84,99c0,-9.38884 7.3873,-17 16.5,-17c9.1127,0 16.5,7.61116 16.5,17c0,9.38884 -7.3873,17 -16.5,17c-9.1127,0 -16.5,-7.61116 -16.5,-17z" fill="none" stroke-opacity="0.16" stroke-width="0" mask="url(&quot;#Mask4334&quot;)"></path><path d="M84,99c0,-9.38884 7.3873,-17 16.5,-17c9.1127,0 16.5,7.61116 16.5,17c0,9.38884 -7.3873,17 -16.5,17c-9.1127,0 -16.5,-7.61116 -16.5,-17z" fill="#ffffff" fill-opacity="0.16"></path></g></g><g><title>Ellipse 81</title><g filter="url(#Filter4353)"><path d="M91,100c0,-4.97056 4.02944,-9 9,-9c4.97056,0 9,4.02944 9,9c0,4.97056 -4.02944,9 -9,9c-4.97056,0 -9,-4.02944 -9,-9z" fill="none" stroke-opacity="0.16" stroke-width="0" mask="url(&quot;#Mask4349&quot;)"></path><path d="M91,100c0,-4.97056 4.02944,-9 9,-9c4.97056,0 9,4.02944 9,9c0,4.97056 -4.02944,9 -9,9c-4.97056,0 -9,-4.02944 -9,-9z" fill="#1a2534" fill-opacity="0.16"></path></g><path d="M91,100c0,-4.97056 4.02944,-9 9,-9c4.97056,0 9,4.02944 9,9c0,4.97056 -4.02944,9 -9,9c-4.97056,0 -9,-4.02944 -9,-9z" fill="url(#LinearGradient4356)"></path></g><g><title>Group 5869</title><g><title>Group 1883</title><g><title>Line 7</title><path d="M153.23093,100.00021h4.76712" fill-opacity="0" fill="#ffffff" stroke-dashoffset="0" stroke-linejoin="miter" stroke-linecap="round" stroke-opacity="1" stroke="#254b88" stroke-miterlimit="20" stroke-width="2"></path></g><g><title>Line 8</title><path d="M41.99805,100.00021h4.76712" fill-opacity="0" fill="#ffffff" stroke-dashoffset="0" stroke-linejoin="miter" stroke-linecap="round" stroke-opacity="1" stroke="#254b88" stroke-miterlimit="20" stroke-width="2"></path></g></g><g transform="rotate(90 44.379999999999995 100)"><title>Group 1884</title><g><title>Line 7</title><path d="M153.23016,100h4.76712" fill-opacity="0" fill="#ffffff" stroke-dashoffset="0" stroke-linejoin="miter" stroke-linecap="round" stroke-opacity="1" stroke="#254b88" stroke-miterlimit="20" stroke-width="2"></path></g><g><title>Line 8</title><path d="M41.99728,100h4.76712" fill-opacity="0" fill="#ffffff" stroke-dashoffset="0" stroke-linejoin="miter" stroke-linecap="round" stroke-opacity="1" stroke="#254b88" stroke-miterlimit="20" stroke-width="2"></path></g></g><g transform="rotate(59.99999955470796 44.385000000000005 100)"><title>Group 1887</title><g><title>Line 7</title><path d="M153.23151,100.00057h4.76712" fill-opacity="0" fill="#ffffff" stroke-dashoffset="0" stroke-linejoin="miter" stroke-linecap="round" stroke-opacity="1" stroke="#cfd9e5" stroke-miterlimit="20" stroke-width="1"></path></g><g><title>Line 8</title><path d="M41.99864,100.00057h4.76712" fill-opacity="0" fill="#ffffff" stroke-dashoffset="0" stroke-linejoin="miter" stroke-linecap="round" stroke-opacity="1" stroke="#cfd9e5" stroke-miterlimit="20" stroke-width="1"></path></g></g><g transform="rotate(120.00000044529205 44.379999999999995 100)"><title>Group 1885</title><g><title>Line 7</title><path d="M153.23074,100.00057h4.76712" fill-opacity="0" fill="#ffffff" stroke-dashoffset="0" stroke-linejoin="miter" stroke-linecap="round" stroke-opacity="1" stroke="#cfd9e5" stroke-miterlimit="20" stroke-width="1"></path></g><g><title>Line 8</title><path d="M41.99786,100.00057h4.76712" fill-opacity="0" fill="#ffffff" stroke-dashoffset="0" stroke-linejoin="miter" stroke-linecap="round" stroke-opacity="1" stroke="#cfd9e5" stroke-miterlimit="20" stroke-width="1"></path></g></g><g transform="rotate(149.99999955470795 44.385000000000005 100)"><title>Group 1886</title><g><title>Line 7</title><path d="M153.23076,100.00059h4.76712" fill-opacity="0" fill="#ffffff" stroke-dashoffset="0" stroke-linejoin="miter" stroke-linecap="round" stroke-opacity="1" stroke="#cfd9e5" stroke-miterlimit="20" stroke-width="1"></path></g><g><title>Line 8</title><path d="M41.99788,100.00059h4.76712" fill-opacity="0" fill="#ffffff" stroke-dashoffset="0" stroke-linejoin="miter" stroke-linecap="round" stroke-opacity="1" stroke="#cfd9e5" stroke-miterlimit="20" stroke-width="1"></path></g></g><g transform="rotate(30.00000044529205 44.385000000000005 100)"><title>Group 1888</title><g><title>Line 7</title><path d="M153.23149,100.00059h4.76712" fill-opacity="0" fill="#ffffff" stroke-dashoffset="0" stroke-linejoin="miter" stroke-linecap="round" stroke-opacity="1" stroke="#cfd9e5" stroke-miterlimit="20" stroke-width="1"></path></g><g><title>Line 8</title><path d="M41.99862,100.00059h4.76712" fill-opacity="0" fill="#ffffff" stroke-dashoffset="0" stroke-linejoin="miter" stroke-linecap="round" stroke-opacity="1" stroke="#cfd9e5" stroke-miterlimit="20" stroke-width="1"></path></g></g></g></g></g></svg>