<?xml version="1.0" encoding="UTF-8"?>
<svg id="SVGDoc" width="200" height="200" xmlns="http://www.w3.org/2000/svg" version="1.1" xmlns:xlink="http://www.w3.org/1999/xlink" xmlns:avocode="https://avocode.com/" viewBox="0 0 200 200"><defs><mask id="Mask3815" x="-1" y="-1" width="2" height="2"><rect width="126" height="126" x="37" y="37" fill="#ffffff"></rect><path d="M47,163c-5.52285,0 -10,-4.47715 -10,-10v-106c0,-5.52285 4.47715,-10 10,-10h106c5.52285,0 10,4.47715 10,10v106c0,5.52285 -4.47715,10 -10,10z" fill="#000000"></path></mask><filter id="Filter3819" width="198" height="198" x="7" y="7" filterUnits="userSpaceOnUse"><feOffset dx="12" dy="12" result="FeOffset3820Out" in="SourceGraphic"></feOffset><feGaussianBlur stdDeviation="8 8" result="FeGaussianBlur3821Out" in="FeOffset3820Out"></feGaussianBlur></filter><linearGradient id="LinearGradient3822" gradientUnits="userSpaceOnUse" x1="100" y1="37" x2="100" y2="163"><stop stop-opacity="1" stop-color="#fafdff" offset="0"></stop><stop stop-opacity="1" stop-color="#f2f9ff" offset="1"></stop></linearGradient><mask id="Mask3856" x="-1" y="-1" width="2" height="2"><rect width="126" height="20" x="37" y="37" fill="#ffffff"></rect><path d="M37,57v0v-10c0,-5.52285 4.47715,-10 10,-10h106c5.52285,0 10,4.47715 10,10v10v0z" fill="#000000"></path></mask><filter id="Filter3860" width="148" height="43" x="26" y="26" filterUnits="userSpaceOnUse"><feOffset dx="0" dy="1" result="FeOffset3861Out" in="SourceGraphic"></feOffset><feGaussianBlur stdDeviation="0.4 0.4" result="FeGaussianBlur3862Out" in="FeOffset3861Out"></feGaussianBlur></filter><linearGradient id="LinearGradient3863" gradientUnits="userSpaceOnUse" x1="100" y1="37" x2="100" y2="57"><stop stop-opacity="1" stop-color="#fafdff" offset="0"></stop><stop stop-opacity="1" stop-color="#f2f9ff" offset="1"></stop></linearGradient><mask id="Mask3879" x="-1" y="-1" width="2" height="2"><rect width="5.300000000000068" height="5.300000000000182" x="46.639999999999986" y="44.909999999999854" fill="#ffffff"></rect><path d="M47.64453,50.20627c-0.55228,0 -1,-0.44772 -1,-1v-3.29709c0,-0.55228 0.44772,-1 1,-1h3.29709c0.55228,0 1,0.44772 1,1v3.29709c0,0.55228 -0.44772,1 -1,1z" fill="#000000"></path></mask><filter id="Filter3883" width="36.30000000000007" height="36.30000000000018" x="31.639999999999986" y="29.909999999999854" filterUnits="userSpaceOnUse"><feOffset dx="1" dy="1" result="FeOffset3884Out" in="SourceGraphic"></feOffset><feGaussianBlur stdDeviation="2 2" result="FeGaussianBlur3885Out" in="FeOffset3884Out"></feGaussianBlur></filter><mask id="Mask3895" x="-1" y="-1" width="2" height="2"><rect width="5.300000000000068" height="5.300000000000182" x="46.639999999999986" y="44.909999999999854" fill="#ffffff"></rect><path d="M47.64453,50.20627c-0.55228,0 -1,-0.44772 -1,-1v-3.29709c0,-0.55228 0.44772,-1 1,-1h3.29709c0.55228,0 1,0.44772 1,1v3.29709c0,0.55228 -0.44772,1 -1,1z" fill="#000000"></path></mask><filter id="Filter3899" width="36.30000000000007" height="36.30000000000018" x="30.639999999999986" y="28.909999999999854" filterUnits="userSpaceOnUse"><feOffset dx="-1" dy="-1" result="FeOffset3900Out" in="SourceGraphic"></feOffset><feGaussianBlur stdDeviation="2 2" result="FeGaussianBlur3901Out" in="FeOffset3900Out"></feGaussianBlur></filter><linearGradient id="LinearGradient3902" gradientUnits="userSpaceOnUse" x1="51.18999999999994" y1="50.210000000000036" x2="46.809999999999945" y2="42.960000000000036"><stop stop-opacity="1" stop-color="#fb4428" offset="0"></stop><stop stop-opacity="1" stop-color="#fb563e" offset="1"></stop></linearGradient><mask id="Mask3914" x="-1" y="-1" width="2" height="2"><rect width="5.300000000000068" height="5.300000000000182" x="46.639999999999986" y="44.909999999999854" fill="#ffffff"></rect><path d="M47.64453,50.20627c-0.55228,0 -1,-0.44772 -1,-1v-3.29709c0,-0.55228 0.44772,-1 1,-1h3.29709c0.55228,0 1,0.44772 1,1v3.29709c0,0.55228 -0.44772,1 -1,1z" fill="#000000"></path></mask><filter id="Filter3918" width="36.30000000000007" height="36.30000000000018" x="30.639999999999986" y="28.909999999999854" filterUnits="userSpaceOnUse"><feOffset dx="-1" dy="-1" result="FeOffset3919Out" in="SourceGraphic"></feOffset><feGaussianBlur stdDeviation="2 2" result="FeGaussianBlur3920Out" in="FeOffset3919Out"></feGaussianBlur></filter><linearGradient id="LinearGradient3921" gradientUnits="userSpaceOnUse" x1="51.18999999999994" y1="50.210000000000036" x2="46.809999999999945" y2="42.960000000000036"><stop stop-opacity="1" stop-color="#fb4428" offset="0"></stop><stop stop-opacity="1" stop-color="#fb563e" offset="1"></stop></linearGradient><mask id="Mask3933" x="-1" y="-1" width="2" height="2"><rect width="5.300000000000068" height="5.300000000000182" x="46.639999999999986" y="44.909999999999854" fill="#ffffff"></rect><path d="M47.64453,50.20627c-0.55228,0 -1,-0.44772 -1,-1v-3.29709c0,-0.55228 0.44772,-1 1,-1h3.29709c0.55228,0 1,0.44772 1,1v3.29709c0,0.55228 -0.44772,1 -1,1z" fill="#000000"></path></mask><filter id="Filter3937" width="36.30000000000007" height="36.30000000000018" x="30.639999999999986" y="28.909999999999854" filterUnits="userSpaceOnUse"><feOffset dx="-1" dy="-1" result="FeOffset3938Out" in="SourceGraphic"></feOffset><feGaussianBlur stdDeviation="2 2" result="FeGaussianBlur3939Out" in="FeOffset3938Out"></feGaussianBlur></filter><mask id="Mask3948" x="-1" y="-1" width="2" height="2"><rect width="5.300000000000068" height="5.300000000000182" x="46.639999999999986" y="44.909999999999854" fill="#ffffff"></rect><path d="M47.64453,50.20627c-0.55228,0 -1,-0.44772 -1,-1v-3.29709c0,-0.55228 0.44772,-1 1,-1h3.29709c0.55228,0 1,0.44772 1,1v3.29709c0,0.55228 -0.44772,1 -1,1z" fill="#000000"></path></mask><filter id="Filter3952" width="36.30000000000007" height="36.30000000000018" x="30.639999999999986" y="28.909999999999854" filterUnits="userSpaceOnUse"><feOffset dx="-1" dy="-1" result="FeOffset3953Out" in="SourceGraphic"></feOffset><feGaussianBlur stdDeviation="2 2" result="FeGaussianBlur3954Out" in="FeOffset3953Out"></feGaussianBlur></filter><linearGradient id="LinearGradient3955" gradientUnits="userSpaceOnUse" x1="51.18999999999994" y1="50.210000000000036" x2="46.809999999999945" y2="42.960000000000036"><stop stop-opacity="1" stop-color="#fb4428" offset="0"></stop><stop stop-opacity="1" stop-color="#fb563e" offset="1"></stop></linearGradient><mask id="Mask3969" x="-1" y="-1" width="2" height="2"><rect width="5.2999999999999545" height="5.300000000000182" x="58.50999999999999" y="44.909999999999854" fill="#ffffff"></rect><path d="M59.51325,50.20627c-0.55228,0 -1,-0.44772 -1,-1v-3.29709c0,-0.55228 0.44772,-1 1,-1h3.29709c0.55228,0 1,0.44772 1,1v3.29709c0,0.55228 -0.44772,1 -1,1z" fill="#000000"></path></mask><filter id="Filter3973" width="36.299999999999955" height="36.30000000000018" x="43.50999999999999" y="29.909999999999854" filterUnits="userSpaceOnUse"><feOffset dx="1" dy="1" result="FeOffset3974Out" in="SourceGraphic"></feOffset><feGaussianBlur stdDeviation="2 2" result="FeGaussianBlur3975Out" in="FeOffset3974Out"></feGaussianBlur></filter><mask id="Mask3985" x="-1" y="-1" width="2" height="2"><rect width="5.2999999999999545" height="5.300000000000182" x="58.50999999999999" y="44.909999999999854" fill="#ffffff"></rect><path d="M59.51325,50.20627c-0.55228,0 -1,-0.44772 -1,-1v-3.29709c0,-0.55228 0.44772,-1 1,-1h3.29709c0.55228,0 1,0.44772 1,1v3.29709c0,0.55228 -0.44772,1 -1,1z" fill="#000000"></path></mask><filter id="Filter3989" width="36.299999999999955" height="36.30000000000018" x="42.50999999999999" y="28.909999999999854" filterUnits="userSpaceOnUse"><feOffset dx="-1" dy="-1" result="FeOffset3990Out" in="SourceGraphic"></feOffset><feGaussianBlur stdDeviation="2 2" result="FeGaussianBlur3991Out" in="FeOffset3990Out"></feGaussianBlur></filter><linearGradient id="LinearGradient3992" gradientUnits="userSpaceOnUse" x1="63.059999999999945" y1="50.210000000000036" x2="58.67999999999995" y2="42.960000000000036"><stop stop-opacity="1" stop-color="#2bb451" offset="0"></stop><stop stop-opacity="1" stop-color="#6ecb88" offset="1"></stop></linearGradient><mask id="Mask4004" x="-1" y="-1" width="2" height="2"><rect width="5.2999999999999545" height="5.300000000000182" x="58.50999999999999" y="44.909999999999854" fill="#ffffff"></rect><path d="M59.51325,50.20627c-0.55228,0 -1,-0.44772 -1,-1v-3.29709c0,-0.55228 0.44772,-1 1,-1h3.29709c0.55228,0 1,0.44772 1,1v3.29709c0,0.55228 -0.44772,1 -1,1z" fill="#000000"></path></mask><filter id="Filter4008" width="36.299999999999955" height="36.30000000000018" x="42.50999999999999" y="28.909999999999854" filterUnits="userSpaceOnUse"><feOffset dx="-1" dy="-1" result="FeOffset4009Out" in="SourceGraphic"></feOffset><feGaussianBlur stdDeviation="2 2" result="FeGaussianBlur4010Out" in="FeOffset4009Out"></feGaussianBlur></filter><linearGradient id="LinearGradient4011" gradientUnits="userSpaceOnUse" x1="63.059999999999945" y1="50.210000000000036" x2="58.67999999999995" y2="42.960000000000036"><stop stop-opacity="1" stop-color="#2bb451" offset="0"></stop><stop stop-opacity="1" stop-color="#6ecb88" offset="1"></stop></linearGradient><mask id="Mask4023" x="-1" y="-1" width="2" height="2"><rect width="5.2999999999999545" height="5.300000000000182" x="58.50999999999999" y="44.909999999999854" fill="#ffffff"></rect><path d="M59.51325,50.20627c-0.55228,0 -1,-0.44772 -1,-1v-3.29709c0,-0.55228 0.44772,-1 1,-1h3.29709c0.55228,0 1,0.44772 1,1v3.29709c0,0.55228 -0.44772,1 -1,1z" fill="#000000"></path></mask><filter id="Filter4027" width="36.299999999999955" height="36.30000000000018" x="42.50999999999999" y="28.909999999999854" filterUnits="userSpaceOnUse"><feOffset dx="-1" dy="-1" result="FeOffset4028Out" in="SourceGraphic"></feOffset><feGaussianBlur stdDeviation="2 2" result="FeGaussianBlur4029Out" in="FeOffset4028Out"></feGaussianBlur></filter><linearGradient id="LinearGradient4030" gradientUnits="userSpaceOnUse" x1="63.059999999999945" y1="50.210000000000036" x2="58.67999999999995" y2="42.960000000000036"><stop stop-opacity="1" stop-color="#2bb451" offset="0"></stop><stop stop-opacity="1" stop-color="#6ecb88" offset="1"></stop></linearGradient><mask id="Mask4044" x="-1" y="-1" width="2" height="2"><rect width="5.300000000000068" height="5.300000000000182" x="70.02999999999997" y="44.909999999999854" fill="#ffffff"></rect><path d="M71.03306,50.20627c-0.55228,0 -1,-0.44772 -1,-1v-3.29709c0,-0.55228 0.44772,-1 1,-1h3.29709c0.55228,0 1,0.44772 1,1v3.29709c0,0.55228 -0.44772,1 -1,1z" fill="#000000"></path></mask><filter id="Filter4048" width="36.30000000000007" height="36.30000000000018" x="55.02999999999997" y="29.909999999999854" filterUnits="userSpaceOnUse"><feOffset dx="1" dy="1" result="FeOffset4049Out" in="SourceGraphic"></feOffset><feGaussianBlur stdDeviation="2 2" result="FeGaussianBlur4050Out" in="FeOffset4049Out"></feGaussianBlur></filter><mask id="Mask4060" x="-1" y="-1" width="2" height="2"><rect width="5.300000000000068" height="5.300000000000182" x="70.02999999999997" y="44.909999999999854" fill="#ffffff"></rect><path d="M71.03306,50.20627c-0.55228,0 -1,-0.44772 -1,-1v-3.29709c0,-0.55228 0.44772,-1 1,-1h3.29709c0.55228,0 1,0.44772 1,1v3.29709c0,0.55228 -0.44772,1 -1,1z" fill="#000000"></path></mask><filter id="Filter4064" width="36.30000000000007" height="36.30000000000018" x="54.02999999999997" y="28.909999999999854" filterUnits="userSpaceOnUse"><feOffset dx="-1" dy="-1" result="FeOffset4065Out" in="SourceGraphic"></feOffset><feGaussianBlur stdDeviation="2 2" result="FeGaussianBlur4066Out" in="FeOffset4065Out"></feGaussianBlur></filter><linearGradient id="LinearGradient4067" gradientUnits="userSpaceOnUse" x1="74.57999999999993" y1="50.210000000000036" x2="70.19999999999993" y2="42.960000000000036"><stop stop-opacity="1" stop-color="#28a4e0" offset="0"></stop><stop stop-opacity="1" stop-color="#36a0d4" offset="1"></stop></linearGradient><mask id="Mask4079" x="-1" y="-1" width="2" height="2"><rect width="5.300000000000068" height="5.300000000000182" x="70.02999999999997" y="44.909999999999854" fill="#ffffff"></rect><path d="M71.03306,50.20627c-0.55228,0 -1,-0.44772 -1,-1v-3.29709c0,-0.55228 0.44772,-1 1,-1h3.29709c0.55228,0 1,0.44772 1,1v3.29709c0,0.55228 -0.44772,1 -1,1z" fill="#000000"></path></mask><filter id="Filter4083" width="36.30000000000007" height="36.30000000000018" x="54.02999999999997" y="28.909999999999854" filterUnits="userSpaceOnUse"><feOffset dx="-1" dy="-1" result="FeOffset4084Out" in="SourceGraphic"></feOffset><feGaussianBlur stdDeviation="2 2" result="FeGaussianBlur4085Out" in="FeOffset4084Out"></feGaussianBlur></filter><linearGradient id="LinearGradient4086" gradientUnits="userSpaceOnUse" x1="74.57999999999993" y1="50.210000000000036" x2="70.19999999999993" y2="42.960000000000036"><stop stop-opacity="1" stop-color="#28a4e0" offset="0"></stop><stop stop-opacity="1" stop-color="#76c9f2" offset="1"></stop></linearGradient><mask id="Mask4098" x="-1" y="-1" width="2" height="2"><rect width="5.300000000000068" height="5.300000000000182" x="70.02999999999997" y="44.909999999999854" fill="#ffffff"></rect><path d="M71.03306,50.20627c-0.55228,0 -1,-0.44772 -1,-1v-3.29709c0,-0.55228 0.44772,-1 1,-1h3.29709c0.55228,0 1,0.44772 1,1v3.29709c0,0.55228 -0.44772,1 -1,1z" fill="#000000"></path></mask><filter id="Filter4102" width="36.30000000000007" height="36.30000000000018" x="54.02999999999997" y="28.909999999999854" filterUnits="userSpaceOnUse"><feOffset dx="-1" dy="-1" result="FeOffset4103Out" in="SourceGraphic"></feOffset><feGaussianBlur stdDeviation="2 2" result="FeGaussianBlur4104Out" in="FeOffset4103Out"></feGaussianBlur></filter><linearGradient id="LinearGradient4105" gradientUnits="userSpaceOnUse" x1="74.57999999999993" y1="50.210000000000036" x2="70.19999999999993" y2="42.960000000000036"><stop stop-opacity="1" stop-color="#28a4e0" offset="0"></stop><stop stop-opacity="1" stop-color="#76c9f2" offset="1"></stop></linearGradient><mask id="Mask4119" x="-1" y="-1" width="2" height="2"><rect width="32.610000000000014" height="16" x="119.41999999999996" y="134" fill="#ffffff"></rect><path d="M127.41602,149.99934c-4.41828,0 -8,-3.58172 -8,-8v0c0,-4.41828 3.58172,-8 8,-8h16.61496c4.41828,0 8,3.58172 8,8v0c0,4.41828 -3.58172,8 -8,8z" fill="#000000"></path></mask><filter id="Filter4123" width="94.61000000000001" height="80" x="91.41999999999996" y="106" filterUnits="userSpaceOnUse"><feOffset dx="6" dy="8" result="FeOffset4124Out" in="SourceGraphic"></feOffset><feGaussianBlur stdDeviation="7.2 7.2" result="FeGaussianBlur4125Out" in="FeOffset4124Out"></feGaussianBlur></filter><linearGradient id="LinearGradient4126" gradientUnits="userSpaceOnUse" x1="129.45999999999992" y1="131.57999999999993" x2="148.05999999999995" y2="150"><stop stop-opacity="1" stop-color="#7fd195" offset="0"></stop><stop stop-opacity="1" stop-color="#33b657" offset="1"></stop></linearGradient><mask id="Mask4138" x="-1" y="-1" width="2" height="2"><rect width="18" height="18" x="135" y="133" fill="#ffffff"></rect><path d="M135,141.99951c0,-4.97056 4.02944,-9 9,-9c4.97056,0 9,4.02944 9,9c0,4.97056 -4.02944,9 -9,9c-4.97056,0 -9,-4.02944 -9,-9z" fill="#000000"></path></mask><filter id="Filter4142" width="65" height="65" x="114" y="112" filterUnits="userSpaceOnUse"><feOffset dx="5" dy="5" result="FeOffset4143Out" in="SourceGraphic"></feOffset><feGaussianBlur stdDeviation="4.4 4.4" result="FeGaussianBlur4144Out" in="FeOffset4143Out"></feGaussianBlur></filter><linearGradient id="LinearGradient4145" gradientUnits="userSpaceOnUse" x1="138.67999999999995" y1="136.84000000000015" x2="151.96000000000004" y2="157.26000000000022"><stop stop-opacity="1" stop-color="#fafdff" offset="0"></stop><stop stop-opacity="1" stop-color="#dfe9fc" offset="1"></stop></linearGradient><mask id="Mask4157" x="-1" y="-1" width="2" height="2"><rect width="12" height="12" x="46" y="136" fill="#ffffff"></rect><path d="M46,142c0,-3.31371 2.68629,-6 6,-6c3.31371,0 6,2.68629 6,6c0,3.31371 -2.68629,6 -6,6c-3.31371,0 -6,-2.68629 -6,-6z" fill="#000000"></path></mask><filter id="Filter4161" width="37" height="37" x="34" y="124" filterUnits="userSpaceOnUse"><feOffset dx="1" dy="1" result="FeOffset4162Out" in="SourceGraphic"></feOffset><feGaussianBlur stdDeviation="0.8 0.8" result="FeGaussianBlur4163Out" in="FeOffset4162Out"></feGaussianBlur></filter><linearGradient id="LinearGradient4164" gradientUnits="userSpaceOnUse" x1="48.450000000000045" y1="138.5600000000004" x2="57.299999999999955" y2="152.1800000000003"><stop stop-opacity="1" stop-color="#fafdff" offset="0"></stop><stop stop-opacity="1" stop-color="#dfe9fc" offset="1"></stop></linearGradient><mask id="Mask4176" x="-1" y="-1" width="2" height="2"><rect width="12" height="12" x="46" y="136" fill="#ffffff"></rect><path d="M46,142c0,-3.31371 2.68629,-6 6,-6c3.31371,0 6,2.68629 6,6c0,3.31371 -2.68629,6 -6,6c-3.31371,0 -6,-2.68629 -6,-6z" fill="#000000"></path></mask><filter id="Filter4180" width="37" height="37" x="33" y="123" filterUnits="userSpaceOnUse"><feOffset dx="-1" dy="-1" result="FeOffset4181Out" in="SourceGraphic"></feOffset><feGaussianBlur stdDeviation="0.8 0.8" result="FeGaussianBlur4182Out" in="FeOffset4181Out"></feGaussianBlur></filter><mask id="Mask4191" x="-1" y="-1" width="2" height="2"><rect width="12" height="12" x="46" y="136" fill="#ffffff"></rect><path d="M46,142c0,-3.31371 2.68629,-6 6,-6c3.31371,0 6,2.68629 6,6c0,3.31371 -2.68629,6 -6,6c-3.31371,0 -6,-2.68629 -6,-6z" fill="#000000"></path></mask><filter id="Filter4195" width="37" height="37" x="33" y="123" filterUnits="userSpaceOnUse"><feOffset dx="-1" dy="-1" result="FeOffset4196Out" in="SourceGraphic"></feOffset><feGaussianBlur stdDeviation="0.8 0.8" result="FeGaussianBlur4197Out" in="FeOffset4196Out"></feGaussianBlur></filter><linearGradient id="LinearGradient4198" gradientUnits="userSpaceOnUse" x1="48.450000000000045" y1="138.5600000000004" x2="57.299999999999955" y2="152.1800000000003"><stop stop-opacity="1" stop-color="#f0f3f7" offset="0"></stop><stop stop-opacity="1" stop-color="#dfe9fc" offset="1"></stop></linearGradient></defs><desc>Generated with Avocode.</desc><g><g><title>iconDev</title><g><title>Rectangle 414</title><path d="M10,200c-5.52285,0 -10,-4.47715 -10,-10v-180c0,-5.52285 4.47715,-10 10,-10h180c5.52285,0 10,4.47715 10,10v180c0,5.52285 -4.47715,10 -10,10z" fill="#e8eff7" fill-opacity="1"></path></g><g><title>Rectangle 415</title><g filter="url(#Filter3819)"><path d="M47,163c-5.52285,0 -10,-4.47715 -10,-10v-106c0,-5.52285 4.47715,-10 10,-10h106c5.52285,0 10,4.47715 10,10v106c0,5.52285 -4.47715,10 -10,10z" fill="none" stroke-opacity="0.16" stroke-width="0" mask="url(&quot;#Mask3815&quot;)"></path><path d="M47,163c-5.52285,0 -10,-4.47715 -10,-10v-106c0,-5.52285 4.47715,-10 10,-10h106c5.52285,0 10,4.47715 10,10v106c0,5.52285 -4.47715,10 -10,10z" fill="#3d495c" fill-opacity="0.16"></path></g><path d="M47,163c-5.52285,0 -10,-4.47715 -10,-10v-106c0,-5.52285 4.47715,-10 10,-10h106c5.52285,0 10,4.47715 10,10v106c0,5.52285 -4.47715,10 -10,10z" fill="url(#LinearGradient3822)"></path></g><g><title>Rectangle 495</title><path d="M53,122c-3.31371,0 -6,-2.68629 -6,-6v-43c0,-3.31371 2.68629,-6 6,-6h94c3.31371,0 6,2.68629 6,6v43c0,3.31371 -2.68629,6 -6,6z" fill="#ebf2fb" fill-opacity="1"></path></g><g><title>Group 1889</title><g><title>Path 3216</title><path d="M109.24878,86.28363c-0.61182,0.61154 -0.61182,1.60315 0,2.21469l5.77026,5.77014v0l-5.77026,5.77008c-0.61182,0.61154 -0.61182,1.60336 0,2.21484c0.61157,0.61154 1.60303,0.61154 2.21484,0l6.87744,-6.87756c0.61182,-0.61154 0.61182,-1.60315 0,-2.21478l-6.87744,-6.87741c-0.61182,-0.61169 -1.60327,-0.61169 -2.21484,0z" fill="#254b88" fill-opacity="1"></path></g><g><title>Path 3217</title><path d="M90.55054,86.28357c0.61157,0.61154 0.61157,1.60321 0,2.21475l-5.77002,5.77014v0l5.77002,5.76999c0.61157,0.61154 0.61157,1.60339 0,2.21478c-0.61157,0.6116 -1.60303,0.6116 -2.21484,0l-6.87708,-6.8775c-0.61145,-0.61154 -0.61145,-1.60315 0,-2.21475l6.87708,-6.87741c0.61182,-0.61163 1.60327,-0.61163 2.21484,0z" fill="#254b88" fill-opacity="1"></path></g><g transform="rotate(-59.99999955470796 99.45499999999998 94.54500000000007)"><title>Rectangle 492</title><path d="M90.37406,96.17824c-0.55228,0 -1,-0.44772 -1,-1v-1.2694c0,-0.55228 0.44772,-1 1,-1h18.1613c0.55228,0 1,0.44772 1,1v1.2694c0,0.55228 -0.44772,1 -1,1z" fill="#254b88" fill-opacity="1"></path></g></g><g><title>Rectangle 493</title><g filter="url(#Filter3860)"><path d="M37,57v0v-10c0,-5.52285 4.47715,-10 10,-10h106c5.52285,0 10,4.47715 10,10v10v0z" fill="none" stroke-opacity="0.03" stroke-width="0" mask="url(&quot;#Mask3856&quot;)"></path><path d="M37,57v0v-10c0,-5.52285 4.47715,-10 10,-10h106c5.52285,0 10,4.47715 10,10v10v0z" fill="#3d495c" fill-opacity="0.03"></path></g><path d="M37,57v0v-10c0,-5.52285 4.47715,-10 10,-10h106c5.52285,0 10,4.47715 10,10v10v0z" fill="url(#LinearGradient3863)"></path></g><g><title>Group 1890</title><g><title>Group 1871</title><g><title>Rectangle 448</title><g filter="url(#Filter3883)"><path d="M47.64453,50.20627c-0.55228,0 -1,-0.44772 -1,-1v-3.29709c0,-0.55228 0.44772,-1 1,-1h3.29709c0.55228,0 1,0.44772 1,1v3.29709c0,0.55228 -0.44772,1 -1,1z" fill="none" stroke-opacity="0.18" stroke-width="0" mask="url(&quot;#Mask3879&quot;)"></path><path d="M47.64453,50.20627c-0.55228,0 -1,-0.44772 -1,-1v-3.29709c0,-0.55228 0.44772,-1 1,-1h3.29709c0.55228,0 1,0.44772 1,1v3.29709c0,0.55228 -0.44772,1 -1,1z" fill="#000000" fill-opacity="0.18"></path></g><path d="M47.64453,50.20627c-0.55228,0 -1,-0.44772 -1,-1v-3.29709c0,-0.55228 0.44772,-1 1,-1h3.29709c0.55228,0 1,0.44772 1,1v3.29709c0,0.55228 -0.44772,1 -1,1z" fill="#edf2f8" fill-opacity="1"></path></g><g><title>Rectangle 457</title><g filter="url(#Filter3899)"><path d="M47.64453,50.20627c-0.55228,0 -1,-0.44772 -1,-1v-3.29709c0,-0.55228 0.44772,-1 1,-1h3.29709c0.55228,0 1,0.44772 1,1v3.29709c0,0.55228 -0.44772,1 -1,1z" fill="none" stroke-opacity="1" stroke-width="0" mask="url(&quot;#Mask3895&quot;)"></path><path d="M47.64453,50.20627c-0.55228,0 -1,-0.44772 -1,-1v-3.29709c0,-0.55228 0.44772,-1 1,-1h3.29709c0.55228,0 1,0.44772 1,1v3.29709c0,0.55228 -0.44772,1 -1,1z" fill="#ffffff" fill-opacity="1"></path></g><path d="M47.64453,50.20627c-0.55228,0 -1,-0.44772 -1,-1v-3.29709c0,-0.55228 0.44772,-1 1,-1h3.29709c0.55228,0 1,0.44772 1,1v3.29709c0,0.55228 -0.44772,1 -1,1z" fill="url(#LinearGradient3902)"></path></g><g><title>Rectangle 458</title><g filter="url(#Filter3918)"><path d="M47.64453,50.20627c-0.55228,0 -1,-0.44772 -1,-1v-3.29709c0,-0.55228 0.44772,-1 1,-1h3.29709c0.55228,0 1,0.44772 1,1v3.29709c0,0.55228 -0.44772,1 -1,1z" fill="none" stroke-opacity="1" stroke-width="0" mask="url(&quot;#Mask3914&quot;)"></path><path d="M47.64453,50.20627c-0.55228,0 -1,-0.44772 -1,-1v-3.29709c0,-0.55228 0.44772,-1 1,-1h3.29709c0.55228,0 1,0.44772 1,1v3.29709c0,0.55228 -0.44772,1 -1,1z" fill="#ffffff" fill-opacity="1"></path></g><path d="M47.64453,50.20627c-0.55228,0 -1,-0.44772 -1,-1v-3.29709c0,-0.55228 0.44772,-1 1,-1h3.29709c0.55228,0 1,0.44772 1,1v3.29709c0,0.55228 -0.44772,1 -1,1z" fill="url(#LinearGradient3921)"></path></g><g><title>Rectangle 463</title><g filter="url(#Filter3937)"><path d="M47.64453,50.20627c-0.55228,0 -1,-0.44772 -1,-1v-3.29709c0,-0.55228 0.44772,-1 1,-1h3.29709c0.55228,0 1,0.44772 1,1v3.29709c0,0.55228 -0.44772,1 -1,1z" fill="none" stroke-opacity="1" stroke-width="0" mask="url(&quot;#Mask3933&quot;)"></path><path d="M47.64453,50.20627c-0.55228,0 -1,-0.44772 -1,-1v-3.29709c0,-0.55228 0.44772,-1 1,-1h3.29709c0.55228,0 1,0.44772 1,1v3.29709c0,0.55228 -0.44772,1 -1,1z" fill="#ffffff" fill-opacity="1"></path></g></g><g><title>Rectangle 465</title><g filter="url(#Filter3952)"><path d="M47.64453,50.20627c-0.55228,0 -1,-0.44772 -1,-1v-3.29709c0,-0.55228 0.44772,-1 1,-1h3.29709c0.55228,0 1,0.44772 1,1v3.29709c0,0.55228 -0.44772,1 -1,1z" fill="none" stroke-opacity="1" stroke-width="0" mask="url(&quot;#Mask3948&quot;)"></path><path d="M47.64453,50.20627c-0.55228,0 -1,-0.44772 -1,-1v-3.29709c0,-0.55228 0.44772,-1 1,-1h3.29709c0.55228,0 1,0.44772 1,1v3.29709c0,0.55228 -0.44772,1 -1,1z" fill="#ffffff" fill-opacity="1"></path></g><path d="M47.64453,50.20627c-0.55228,0 -1,-0.44772 -1,-1v-3.29709c0,-0.55228 0.44772,-1 1,-1h3.29709c0.55228,0 1,0.44772 1,1v3.29709c0,0.55228 -0.44772,1 -1,1z" fill="url(#LinearGradient3955)"></path></g></g><g><title>Group 1872</title><g><title>Rectangle 448</title><g filter="url(#Filter3973)"><path d="M59.51325,50.20627c-0.55228,0 -1,-0.44772 -1,-1v-3.29709c0,-0.55228 0.44772,-1 1,-1h3.29709c0.55228,0 1,0.44772 1,1v3.29709c0,0.55228 -0.44772,1 -1,1z" fill="none" stroke-opacity="0.18" stroke-width="0" mask="url(&quot;#Mask3969&quot;)"></path><path d="M59.51325,50.20627c-0.55228,0 -1,-0.44772 -1,-1v-3.29709c0,-0.55228 0.44772,-1 1,-1h3.29709c0.55228,0 1,0.44772 1,1v3.29709c0,0.55228 -0.44772,1 -1,1z" fill="#000000" fill-opacity="0.18"></path></g><path d="M59.51325,50.20627c-0.55228,0 -1,-0.44772 -1,-1v-3.29709c0,-0.55228 0.44772,-1 1,-1h3.29709c0.55228,0 1,0.44772 1,1v3.29709c0,0.55228 -0.44772,1 -1,1z" fill="#edf2f8" fill-opacity="1"></path></g><g><title>Rectangle 459</title><g filter="url(#Filter3989)"><path d="M59.51325,50.20627c-0.55228,0 -1,-0.44772 -1,-1v-3.29709c0,-0.55228 0.44772,-1 1,-1h3.29709c0.55228,0 1,0.44772 1,1v3.29709c0,0.55228 -0.44772,1 -1,1z" fill="none" stroke-opacity="1" stroke-width="0" mask="url(&quot;#Mask3985&quot;)"></path><path d="M59.51325,50.20627c-0.55228,0 -1,-0.44772 -1,-1v-3.29709c0,-0.55228 0.44772,-1 1,-1h3.29709c0.55228,0 1,0.44772 1,1v3.29709c0,0.55228 -0.44772,1 -1,1z" fill="#ffffff" fill-opacity="1"></path></g><path d="M59.51325,50.20627c-0.55228,0 -1,-0.44772 -1,-1v-3.29709c0,-0.55228 0.44772,-1 1,-1h3.29709c0.55228,0 1,0.44772 1,1v3.29709c0,0.55228 -0.44772,1 -1,1z" fill="url(#LinearGradient3992)"></path></g><g><title>Rectangle 460</title><g filter="url(#Filter4008)"><path d="M59.51325,50.20627c-0.55228,0 -1,-0.44772 -1,-1v-3.29709c0,-0.55228 0.44772,-1 1,-1h3.29709c0.55228,0 1,0.44772 1,1v3.29709c0,0.55228 -0.44772,1 -1,1z" fill="none" stroke-opacity="1" stroke-width="0" mask="url(&quot;#Mask4004&quot;)"></path><path d="M59.51325,50.20627c-0.55228,0 -1,-0.44772 -1,-1v-3.29709c0,-0.55228 0.44772,-1 1,-1h3.29709c0.55228,0 1,0.44772 1,1v3.29709c0,0.55228 -0.44772,1 -1,1z" fill="#ffffff" fill-opacity="1"></path></g><path d="M59.51325,50.20627c-0.55228,0 -1,-0.44772 -1,-1v-3.29709c0,-0.55228 0.44772,-1 1,-1h3.29709c0.55228,0 1,0.44772 1,1v3.29709c0,0.55228 -0.44772,1 -1,1z" fill="url(#LinearGradient4011)"></path></g><g><title>Rectangle 466</title><g filter="url(#Filter4027)"><path d="M59.51325,50.20627c-0.55228,0 -1,-0.44772 -1,-1v-3.29709c0,-0.55228 0.44772,-1 1,-1h3.29709c0.55228,0 1,0.44772 1,1v3.29709c0,0.55228 -0.44772,1 -1,1z" fill="none" stroke-opacity="1" stroke-width="0" mask="url(&quot;#Mask4023&quot;)"></path><path d="M59.51325,50.20627c-0.55228,0 -1,-0.44772 -1,-1v-3.29709c0,-0.55228 0.44772,-1 1,-1h3.29709c0.55228,0 1,0.44772 1,1v3.29709c0,0.55228 -0.44772,1 -1,1z" fill="#ffffff" fill-opacity="1"></path></g><path d="M59.51325,50.20627c-0.55228,0 -1,-0.44772 -1,-1v-3.29709c0,-0.55228 0.44772,-1 1,-1h3.29709c0.55228,0 1,0.44772 1,1v3.29709c0,0.55228 -0.44772,1 -1,1z" fill="url(#LinearGradient4030)"></path></g></g><g><title>Group 1873</title><g><title>Rectangle 448</title><g filter="url(#Filter4048)"><path d="M71.03306,50.20627c-0.55228,0 -1,-0.44772 -1,-1v-3.29709c0,-0.55228 0.44772,-1 1,-1h3.29709c0.55228,0 1,0.44772 1,1v3.29709c0,0.55228 -0.44772,1 -1,1z" fill="none" stroke-opacity="0.18" stroke-width="0" mask="url(&quot;#Mask4044&quot;)"></path><path d="M71.03306,50.20627c-0.55228,0 -1,-0.44772 -1,-1v-3.29709c0,-0.55228 0.44772,-1 1,-1h3.29709c0.55228,0 1,0.44772 1,1v3.29709c0,0.55228 -0.44772,1 -1,1z" fill="#000000" fill-opacity="0.18"></path></g><path d="M71.03306,50.20627c-0.55228,0 -1,-0.44772 -1,-1v-3.29709c0,-0.55228 0.44772,-1 1,-1h3.29709c0.55228,0 1,0.44772 1,1v3.29709c0,0.55228 -0.44772,1 -1,1z" fill="#edf2f8" fill-opacity="1"></path></g><g><title>Rectangle 461</title><g filter="url(#Filter4064)"><path d="M71.03306,50.20627c-0.55228,0 -1,-0.44772 -1,-1v-3.29709c0,-0.55228 0.44772,-1 1,-1h3.29709c0.55228,0 1,0.44772 1,1v3.29709c0,0.55228 -0.44772,1 -1,1z" fill="none" stroke-opacity="1" stroke-width="0" mask="url(&quot;#Mask4060&quot;)"></path><path d="M71.03306,50.20627c-0.55228,0 -1,-0.44772 -1,-1v-3.29709c0,-0.55228 0.44772,-1 1,-1h3.29709c0.55228,0 1,0.44772 1,1v3.29709c0,0.55228 -0.44772,1 -1,1z" fill="#ffffff" fill-opacity="1"></path></g><path d="M71.03306,50.20627c-0.55228,0 -1,-0.44772 -1,-1v-3.29709c0,-0.55228 0.44772,-1 1,-1h3.29709c0.55228,0 1,0.44772 1,1v3.29709c0,0.55228 -0.44772,1 -1,1z" fill="url(#LinearGradient4067)"></path></g><g><title>Rectangle 462</title><g filter="url(#Filter4083)"><path d="M71.03306,50.20627c-0.55228,0 -1,-0.44772 -1,-1v-3.29709c0,-0.55228 0.44772,-1 1,-1h3.29709c0.55228,0 1,0.44772 1,1v3.29709c0,0.55228 -0.44772,1 -1,1z" fill="none" stroke-opacity="1" stroke-width="0" mask="url(&quot;#Mask4079&quot;)"></path><path d="M71.03306,50.20627c-0.55228,0 -1,-0.44772 -1,-1v-3.29709c0,-0.55228 0.44772,-1 1,-1h3.29709c0.55228,0 1,0.44772 1,1v3.29709c0,0.55228 -0.44772,1 -1,1z" fill="#ffffff" fill-opacity="1"></path></g><path d="M71.03306,50.20627c-0.55228,0 -1,-0.44772 -1,-1v-3.29709c0,-0.55228 0.44772,-1 1,-1h3.29709c0.55228,0 1,0.44772 1,1v3.29709c0,0.55228 -0.44772,1 -1,1z" fill="url(#LinearGradient4086)"></path></g><g><title>Rectangle 467</title><g filter="url(#Filter4102)"><path d="M71.03306,50.20627c-0.55228,0 -1,-0.44772 -1,-1v-3.29709c0,-0.55228 0.44772,-1 1,-1h3.29709c0.55228,0 1,0.44772 1,1v3.29709c0,0.55228 -0.44772,1 -1,1z" fill="none" stroke-opacity="1" stroke-width="0" mask="url(&quot;#Mask4098&quot;)"></path><path d="M71.03306,50.20627c-0.55228,0 -1,-0.44772 -1,-1v-3.29709c0,-0.55228 0.44772,-1 1,-1h3.29709c0.55228,0 1,0.44772 1,1v3.29709c0,0.55228 -0.44772,1 -1,1z" fill="#ffffff" fill-opacity="1"></path></g><path d="M71.03306,50.20627c-0.55228,0 -1,-0.44772 -1,-1v-3.29709c0,-0.55228 0.44772,-1 1,-1h3.29709c0.55228,0 1,0.44772 1,1v3.29709c0,0.55228 -0.44772,1 -1,1z" fill="url(#LinearGradient4105)"></path></g></g></g><g><title>Group 1891</title><g><title>Rectangle 494</title><g filter="url(#Filter4123)"><path d="M127.41602,149.99934c-4.41828,0 -8,-3.58172 -8,-8v0c0,-4.41828 3.58172,-8 8,-8h16.61496c4.41828,0 8,3.58172 8,8v0c0,4.41828 -3.58172,8 -8,8z" fill="none" stroke-opacity="0.13" stroke-width="0" mask="url(&quot;#Mask4119&quot;)"></path><path d="M127.41602,149.99934c-4.41828,0 -8,-3.58172 -8,-8v0c0,-4.41828 3.58172,-8 8,-8h16.61496c4.41828,0 8,3.58172 8,8v0c0,4.41828 -3.58172,8 -8,8z" fill="#3d495c" fill-opacity="0.13"></path></g><path d="M127.41602,149.99934c-4.41828,0 -8,-3.58172 -8,-8v0c0,-4.41828 3.58172,-8 8,-8h16.61496c4.41828,0 8,3.58172 8,8v0c0,4.41828 -3.58172,8 -8,8z" fill="url(#LinearGradient4126)"></path></g><g><title>Ellipse 82</title><g filter="url(#Filter4142)"><path d="M135,141.99951c0,-4.97056 4.02944,-9 9,-9c4.97056,0 9,4.02944 9,9c0,4.97056 -4.02944,9 -9,9c-4.97056,0 -9,-4.02944 -9,-9z" fill="none" stroke-opacity="0.16" stroke-width="0" mask="url(&quot;#Mask4138&quot;)"></path><path d="M135,141.99951c0,-4.97056 4.02944,-9 9,-9c4.97056,0 9,4.02944 9,9c0,4.97056 -4.02944,9 -9,9c-4.97056,0 -9,-4.02944 -9,-9z" fill="#1a2534" fill-opacity="0.16"></path></g><path d="M135,141.99951c0,-4.97056 4.02944,-9 9,-9c4.97056,0 9,4.02944 9,9c0,4.97056 -4.02944,9 -9,9c-4.97056,0 -9,-4.02944 -9,-9z" fill="url(#LinearGradient4145)"></path></g></g><g><title>Ellipse 83</title><g filter="url(#Filter4161)"><path d="M46,142c0,-3.31371 2.68629,-6 6,-6c3.31371,0 6,2.68629 6,6c0,3.31371 -2.68629,6 -6,6c-3.31371,0 -6,-2.68629 -6,-6z" fill="none" stroke-opacity="0.11" stroke-width="0" mask="url(&quot;#Mask4157&quot;)"></path><path d="M46,142c0,-3.31371 2.68629,-6 6,-6c3.31371,0 6,2.68629 6,6c0,3.31371 -2.68629,6 -6,6c-3.31371,0 -6,-2.68629 -6,-6z" fill="#1a2534" fill-opacity="0.11"></path></g><path d="M46,142c0,-3.31371 2.68629,-6 6,-6c3.31371,0 6,2.68629 6,6c0,3.31371 -2.68629,6 -6,6c-3.31371,0 -6,-2.68629 -6,-6z" fill="url(#LinearGradient4164)"></path></g><g><title>Ellipse 84</title><g filter="url(#Filter4180)"><path d="M46,142c0,-3.31371 2.68629,-6 6,-6c3.31371,0 6,2.68629 6,6c0,3.31371 -2.68629,6 -6,6c-3.31371,0 -6,-2.68629 -6,-6z" fill="none" stroke-opacity="0.11" stroke-width="0" mask="url(&quot;#Mask4176&quot;)"></path><path d="M46,142c0,-3.31371 2.68629,-6 6,-6c3.31371,0 6,2.68629 6,6c0,3.31371 -2.68629,6 -6,6c-3.31371,0 -6,-2.68629 -6,-6z" fill="#ffffff" fill-opacity="0.11"></path></g></g><g><title>Ellipse 85</title><g filter="url(#Filter4195)"><path d="M46,142c0,-3.31371 2.68629,-6 6,-6c3.31371,0 6,2.68629 6,6c0,3.31371 -2.68629,6 -6,6c-3.31371,0 -6,-2.68629 -6,-6z" fill="none" stroke-opacity="1" stroke-width="0" mask="url(&quot;#Mask4191&quot;)"></path><path d="M46,142c0,-3.31371 2.68629,-6 6,-6c3.31371,0 6,2.68629 6,6c0,3.31371 -2.68629,6 -6,6c-3.31371,0 -6,-2.68629 -6,-6z" fill="#ffffff" fill-opacity="1"></path></g><path d="M46,142c0,-3.31371 2.68629,-6 6,-6c3.31371,0 6,2.68629 6,6c0,3.31371 -2.68629,6 -6,6c-3.31371,0 -6,-2.68629 -6,-6z" fill="url(#LinearGradient4198)"></path></g></g></g></svg>