<?xml version="1.0" encoding="UTF-8"?>
<svg id="SVGDoc" width="200" height="200" xmlns="http://www.w3.org/2000/svg" version="1.1" xmlns:xlink="http://www.w3.org/1999/xlink" xmlns:avocode="https://avocode.com/" viewBox="0 0 200 200"><defs><mask id="Mask2981" x="-1" y="-1" width="2" height="2"><rect width="126" height="126" x="37" y="37" fill="#ffffff"></rect><path d="M47,163c-5.52285,0 -10,-4.47715 -10,-10v-106c0,-5.52285 4.47715,-10 10,-10h106c5.52285,0 10,4.47715 10,10v106c0,5.52285 -4.47715,10 -10,10z" fill="#000000"></path></mask><filter id="Filter2985" width="198" height="198" x="7" y="7" filterUnits="userSpaceOnUse"><feOffset dx="12" dy="12" result="FeOffset2986Out" in="SourceGraphic"></feOffset><feGaussianBlur stdDeviation="8 8" result="FeGaussianBlur2987Out" in="FeOffset2986Out"></feGaussianBlur></filter><linearGradient id="LinearGradient2988" gradientUnits="userSpaceOnUse" x1="100" y1="37" x2="100" y2="163"><stop stop-opacity="1" stop-color="#fafdff" offset="0"></stop><stop stop-opacity="1" stop-color="#f2f9ff" offset="1"></stop></linearGradient><mask id="Mask3000" x="-1" y="-1" width="2" height="2"><rect width="126" height="20" x="37" y="37" fill="#ffffff"></rect><path d="M37,57v0v-10c0,-5.52285 4.47715,-10 10,-10h106c5.52285,0 10,4.47715 10,10v10v0z" fill="#000000"></path></mask><filter id="Filter3004" width="148" height="43" x="26" y="26" filterUnits="userSpaceOnUse"><feOffset dx="0" dy="1" result="FeOffset3005Out" in="SourceGraphic"></feOffset><feGaussianBlur stdDeviation="0.4 0.4" result="FeGaussianBlur3006Out" in="FeOffset3005Out"></feGaussianBlur></filter><linearGradient id="LinearGradient3007" gradientUnits="userSpaceOnUse" x1="100" y1="37" x2="100" y2="57"><stop stop-opacity="1" stop-color="#fafdff" offset="0"></stop><stop stop-opacity="1" stop-color="#f2f9ff" offset="1"></stop></linearGradient><mask id="Mask3023" x="-1" y="-1" width="2" height="2"><rect width="5.2999999999999545" height="5.300000000000182" x="46.6400000000001" y="44.909999999999854" fill="#ffffff"></rect><path d="M47.64453,50.20627c-0.55228,0 -1,-0.44772 -1,-1v-3.29709c0,-0.55228 0.44772,-1 1,-1h3.29709c0.55228,0 1,0.44772 1,1v3.29709c0,0.55228 -0.44772,1 -1,1z" fill="#000000"></path></mask><filter id="Filter3027" width="36.299999999999955" height="36.30000000000018" x="31.6400000000001" y="29.909999999999854" filterUnits="userSpaceOnUse"><feOffset dx="1" dy="1" result="FeOffset3028Out" in="SourceGraphic"></feOffset><feGaussianBlur stdDeviation="2 2" result="FeGaussianBlur3029Out" in="FeOffset3028Out"></feGaussianBlur></filter><mask id="Mask3039" x="-1" y="-1" width="2" height="2"><rect width="5.2999999999999545" height="5.300000000000182" x="46.6400000000001" y="44.909999999999854" fill="#ffffff"></rect><path d="M47.64453,50.20627c-0.55228,0 -1,-0.44772 -1,-1v-3.29709c0,-0.55228 0.44772,-1 1,-1h3.29709c0.55228,0 1,0.44772 1,1v3.29709c0,0.55228 -0.44772,1 -1,1z" fill="#000000"></path></mask><filter id="Filter3043" width="36.299999999999955" height="36.30000000000018" x="30.6400000000001" y="28.909999999999854" filterUnits="userSpaceOnUse"><feOffset dx="-1" dy="-1" result="FeOffset3044Out" in="SourceGraphic"></feOffset><feGaussianBlur stdDeviation="2 2" result="FeGaussianBlur3045Out" in="FeOffset3044Out"></feGaussianBlur></filter><linearGradient id="LinearGradient3046" gradientUnits="userSpaceOnUse" x1="51.190000000000055" y1="50.210000000000036" x2="46.81000000000017" y2="42.960000000000036"><stop stop-opacity="1" stop-color="#fb4428" offset="0"></stop><stop stop-opacity="1" stop-color="#fb563e" offset="1"></stop></linearGradient><mask id="Mask3058" x="-1" y="-1" width="2" height="2"><rect width="5.2999999999999545" height="5.300000000000182" x="46.6400000000001" y="44.909999999999854" fill="#ffffff"></rect><path d="M47.64453,50.20627c-0.55228,0 -1,-0.44772 -1,-1v-3.29709c0,-0.55228 0.44772,-1 1,-1h3.29709c0.55228,0 1,0.44772 1,1v3.29709c0,0.55228 -0.44772,1 -1,1z" fill="#000000"></path></mask><filter id="Filter3062" width="36.299999999999955" height="36.30000000000018" x="30.6400000000001" y="28.909999999999854" filterUnits="userSpaceOnUse"><feOffset dx="-1" dy="-1" result="FeOffset3063Out" in="SourceGraphic"></feOffset><feGaussianBlur stdDeviation="2 2" result="FeGaussianBlur3064Out" in="FeOffset3063Out"></feGaussianBlur></filter><linearGradient id="LinearGradient3065" gradientUnits="userSpaceOnUse" x1="51.190000000000055" y1="50.210000000000036" x2="46.81000000000017" y2="42.960000000000036"><stop stop-opacity="1" stop-color="#fb4428" offset="0"></stop><stop stop-opacity="1" stop-color="#fb563e" offset="1"></stop></linearGradient><mask id="Mask3077" x="-1" y="-1" width="2" height="2"><rect width="5.2999999999999545" height="5.300000000000182" x="46.6400000000001" y="44.909999999999854" fill="#ffffff"></rect><path d="M47.64453,50.20627c-0.55228,0 -1,-0.44772 -1,-1v-3.29709c0,-0.55228 0.44772,-1 1,-1h3.29709c0.55228,0 1,0.44772 1,1v3.29709c0,0.55228 -0.44772,1 -1,1z" fill="#000000"></path></mask><filter id="Filter3081" width="36.299999999999955" height="36.30000000000018" x="30.6400000000001" y="28.909999999999854" filterUnits="userSpaceOnUse"><feOffset dx="-1" dy="-1" result="FeOffset3082Out" in="SourceGraphic"></feOffset><feGaussianBlur stdDeviation="2 2" result="FeGaussianBlur3083Out" in="FeOffset3082Out"></feGaussianBlur></filter><mask id="Mask3092" x="-1" y="-1" width="2" height="2"><rect width="5.2999999999999545" height="5.300000000000182" x="46.6400000000001" y="44.909999999999854" fill="#ffffff"></rect><path d="M47.64453,50.20627c-0.55228,0 -1,-0.44772 -1,-1v-3.29709c0,-0.55228 0.44772,-1 1,-1h3.29709c0.55228,0 1,0.44772 1,1v3.29709c0,0.55228 -0.44772,1 -1,1z" fill="#000000"></path></mask><filter id="Filter3096" width="36.299999999999955" height="36.30000000000018" x="30.6400000000001" y="28.909999999999854" filterUnits="userSpaceOnUse"><feOffset dx="-1" dy="-1" result="FeOffset3097Out" in="SourceGraphic"></feOffset><feGaussianBlur stdDeviation="2 2" result="FeGaussianBlur3098Out" in="FeOffset3097Out"></feGaussianBlur></filter><linearGradient id="LinearGradient3099" gradientUnits="userSpaceOnUse" x1="51.190000000000055" y1="50.210000000000036" x2="46.81000000000017" y2="42.960000000000036"><stop stop-opacity="1" stop-color="#fb4428" offset="0"></stop><stop stop-opacity="1" stop-color="#fb563e" offset="1"></stop></linearGradient><mask id="Mask3113" x="-1" y="-1" width="2" height="2"><rect width="5.2999999999999545" height="5.300000000000182" x="58.50999999999999" y="44.909999999999854" fill="#ffffff"></rect><path d="M59.51325,50.20627c-0.55228,0 -1,-0.44772 -1,-1v-3.29709c0,-0.55228 0.44772,-1 1,-1h3.29709c0.55228,0 1,0.44772 1,1v3.29709c0,0.55228 -0.44772,1 -1,1z" fill="#000000"></path></mask><filter id="Filter3117" width="36.299999999999955" height="36.30000000000018" x="43.50999999999999" y="29.909999999999854" filterUnits="userSpaceOnUse"><feOffset dx="1" dy="1" result="FeOffset3118Out" in="SourceGraphic"></feOffset><feGaussianBlur stdDeviation="2 2" result="FeGaussianBlur3119Out" in="FeOffset3118Out"></feGaussianBlur></filter><mask id="Mask3129" x="-1" y="-1" width="2" height="2"><rect width="5.2999999999999545" height="5.300000000000182" x="58.50999999999999" y="44.909999999999854" fill="#ffffff"></rect><path d="M59.51325,50.20627c-0.55228,0 -1,-0.44772 -1,-1v-3.29709c0,-0.55228 0.44772,-1 1,-1h3.29709c0.55228,0 1,0.44772 1,1v3.29709c0,0.55228 -0.44772,1 -1,1z" fill="#000000"></path></mask><filter id="Filter3133" width="36.299999999999955" height="36.30000000000018" x="42.50999999999999" y="28.909999999999854" filterUnits="userSpaceOnUse"><feOffset dx="-1" dy="-1" result="FeOffset3134Out" in="SourceGraphic"></feOffset><feGaussianBlur stdDeviation="2 2" result="FeGaussianBlur3135Out" in="FeOffset3134Out"></feGaussianBlur></filter><linearGradient id="LinearGradient3136" gradientUnits="userSpaceOnUse" x1="63.059999999999945" y1="50.210000000000036" x2="58.680000000000064" y2="42.960000000000036"><stop stop-opacity="1" stop-color="#2bb451" offset="0"></stop><stop stop-opacity="1" stop-color="#6ecb88" offset="1"></stop></linearGradient><mask id="Mask3148" x="-1" y="-1" width="2" height="2"><rect width="5.2999999999999545" height="5.300000000000182" x="58.50999999999999" y="44.909999999999854" fill="#ffffff"></rect><path d="M59.51325,50.20627c-0.55228,0 -1,-0.44772 -1,-1v-3.29709c0,-0.55228 0.44772,-1 1,-1h3.29709c0.55228,0 1,0.44772 1,1v3.29709c0,0.55228 -0.44772,1 -1,1z" fill="#000000"></path></mask><filter id="Filter3152" width="36.299999999999955" height="36.30000000000018" x="42.50999999999999" y="28.909999999999854" filterUnits="userSpaceOnUse"><feOffset dx="-1" dy="-1" result="FeOffset3153Out" in="SourceGraphic"></feOffset><feGaussianBlur stdDeviation="2 2" result="FeGaussianBlur3154Out" in="FeOffset3153Out"></feGaussianBlur></filter><linearGradient id="LinearGradient3155" gradientUnits="userSpaceOnUse" x1="63.059999999999945" y1="50.210000000000036" x2="58.680000000000064" y2="42.960000000000036"><stop stop-opacity="1" stop-color="#2bb451" offset="0"></stop><stop stop-opacity="1" stop-color="#6ecb88" offset="1"></stop></linearGradient><mask id="Mask3167" x="-1" y="-1" width="2" height="2"><rect width="5.2999999999999545" height="5.300000000000182" x="58.50999999999999" y="44.909999999999854" fill="#ffffff"></rect><path d="M59.51325,50.20627c-0.55228,0 -1,-0.44772 -1,-1v-3.29709c0,-0.55228 0.44772,-1 1,-1h3.29709c0.55228,0 1,0.44772 1,1v3.29709c0,0.55228 -0.44772,1 -1,1z" fill="#000000"></path></mask><filter id="Filter3171" width="36.299999999999955" height="36.30000000000018" x="42.50999999999999" y="28.909999999999854" filterUnits="userSpaceOnUse"><feOffset dx="-1" dy="-1" result="FeOffset3172Out" in="SourceGraphic"></feOffset><feGaussianBlur stdDeviation="2 2" result="FeGaussianBlur3173Out" in="FeOffset3172Out"></feGaussianBlur></filter><linearGradient id="LinearGradient3174" gradientUnits="userSpaceOnUse" x1="63.059999999999945" y1="50.210000000000036" x2="58.680000000000064" y2="42.960000000000036"><stop stop-opacity="1" stop-color="#2bb451" offset="0"></stop><stop stop-opacity="1" stop-color="#6ecb88" offset="1"></stop></linearGradient><mask id="Mask3188" x="-1" y="-1" width="2" height="2"><rect width="5.2999999999999545" height="5.300000000000182" x="70.02999999999997" y="44.909999999999854" fill="#ffffff"></rect><path d="M71.03306,50.20627c-0.55228,0 -1,-0.44772 -1,-1v-3.29709c0,-0.55228 0.44772,-1 1,-1h3.29709c0.55228,0 1,0.44772 1,1v3.29709c0,0.55228 -0.44772,1 -1,1z" fill="#000000"></path></mask><filter id="Filter3192" width="36.299999999999955" height="36.30000000000018" x="55.02999999999997" y="29.909999999999854" filterUnits="userSpaceOnUse"><feOffset dx="1" dy="1" result="FeOffset3193Out" in="SourceGraphic"></feOffset><feGaussianBlur stdDeviation="2 2" result="FeGaussianBlur3194Out" in="FeOffset3193Out"></feGaussianBlur></filter><mask id="Mask3204" x="-1" y="-1" width="2" height="2"><rect width="5.2999999999999545" height="5.300000000000182" x="70.02999999999997" y="44.909999999999854" fill="#ffffff"></rect><path d="M71.03306,50.20627c-0.55228,0 -1,-0.44772 -1,-1v-3.29709c0,-0.55228 0.44772,-1 1,-1h3.29709c0.55228,0 1,0.44772 1,1v3.29709c0,0.55228 -0.44772,1 -1,1z" fill="#000000"></path></mask><filter id="Filter3208" width="36.299999999999955" height="36.30000000000018" x="54.02999999999997" y="28.909999999999854" filterUnits="userSpaceOnUse"><feOffset dx="-1" dy="-1" result="FeOffset3209Out" in="SourceGraphic"></feOffset><feGaussianBlur stdDeviation="2 2" result="FeGaussianBlur3210Out" in="FeOffset3209Out"></feGaussianBlur></filter><linearGradient id="LinearGradient3211" gradientUnits="userSpaceOnUse" x1="74.57999999999993" y1="50.210000000000036" x2="70.20000000000005" y2="42.960000000000036"><stop stop-opacity="1" stop-color="#28a4e0" offset="0"></stop><stop stop-opacity="1" stop-color="#36a0d4" offset="1"></stop></linearGradient><mask id="Mask3223" x="-1" y="-1" width="2" height="2"><rect width="5.2999999999999545" height="5.300000000000182" x="70.02999999999997" y="44.909999999999854" fill="#ffffff"></rect><path d="M71.03306,50.20627c-0.55228,0 -1,-0.44772 -1,-1v-3.29709c0,-0.55228 0.44772,-1 1,-1h3.29709c0.55228,0 1,0.44772 1,1v3.29709c0,0.55228 -0.44772,1 -1,1z" fill="#000000"></path></mask><filter id="Filter3227" width="36.299999999999955" height="36.30000000000018" x="54.02999999999997" y="28.909999999999854" filterUnits="userSpaceOnUse"><feOffset dx="-1" dy="-1" result="FeOffset3228Out" in="SourceGraphic"></feOffset><feGaussianBlur stdDeviation="2 2" result="FeGaussianBlur3229Out" in="FeOffset3228Out"></feGaussianBlur></filter><linearGradient id="LinearGradient3230" gradientUnits="userSpaceOnUse" x1="74.57999999999993" y1="50.210000000000036" x2="70.20000000000005" y2="42.960000000000036"><stop stop-opacity="1" stop-color="#28a4e0" offset="0"></stop><stop stop-opacity="1" stop-color="#76c9f2" offset="1"></stop></linearGradient><mask id="Mask3242" x="-1" y="-1" width="2" height="2"><rect width="5.2999999999999545" height="5.300000000000182" x="70.02999999999997" y="44.909999999999854" fill="#ffffff"></rect><path d="M71.03306,50.20627c-0.55228,0 -1,-0.44772 -1,-1v-3.29709c0,-0.55228 0.44772,-1 1,-1h3.29709c0.55228,0 1,0.44772 1,1v3.29709c0,0.55228 -0.44772,1 -1,1z" fill="#000000"></path></mask><filter id="Filter3246" width="36.299999999999955" height="36.30000000000018" x="54.02999999999997" y="28.909999999999854" filterUnits="userSpaceOnUse"><feOffset dx="-1" dy="-1" result="FeOffset3247Out" in="SourceGraphic"></feOffset><feGaussianBlur stdDeviation="2 2" result="FeGaussianBlur3248Out" in="FeOffset3247Out"></feGaussianBlur></filter><linearGradient id="LinearGradient3249" gradientUnits="userSpaceOnUse" x1="74.57999999999993" y1="50.210000000000036" x2="70.20000000000005" y2="42.960000000000036"><stop stop-opacity="1" stop-color="#28a4e0" offset="0"></stop><stop stop-opacity="1" stop-color="#76c9f2" offset="1"></stop></linearGradient><mask id="Mask3261" x="-1" y="-1" width="2" height="2"><rect width="46" height="31" x="46" y="69" fill="#ffffff"></rect><path d="M50,100c-2.20914,0 -4,-1.79086 -4,-4v-23c0,-2.20914 1.79086,-4 4,-4h38c2.20914,0 4,1.79086 4,4v23c0,2.20914 -1.79086,4 -4,4z" fill="#000000"></path></mask><filter id="Filter3265" width="80" height="66" x="30" y="53" filterUnits="userSpaceOnUse"><feOffset dx="2" dy="3" result="FeOffset3266Out" in="SourceGraphic"></feOffset><feGaussianBlur stdDeviation="2.4 2.4" result="FeGaussianBlur3267Out" in="FeOffset3266Out"></feGaussianBlur></filter><linearGradient id="LinearGradient3268" gradientUnits="userSpaceOnUse" x1="50.3599999999999" y1="71.15999999999985" x2="90.80999999999995" y2="117.14000000000033"><stop stop-opacity="1" stop-color="#f2f8ff" offset="0"></stop><stop stop-opacity="1" stop-color="#e0edfd" offset="1"></stop></linearGradient><mask id="Mask3280" x="-1" y="-1" width="2" height="2"><rect width="37" height="8" x="108" y="69" fill="#ffffff"></rect><path d="M112,77c-2.20914,0 -4,-1.79086 -4,-4v0c0,-2.20914 1.79086,-4 4,-4h29c2.20914,0 4,1.79086 4,4v0c0,2.20914 -1.79086,4 -4,4z" fill="#000000"></path></mask><filter id="Filter3284" width="63" height="34" x="96" y="57" filterUnits="userSpaceOnUse"><feOffset dx="2" dy="2" result="FeOffset3285Out" in="SourceGraphic"></feOffset><feGaussianBlur stdDeviation="0.8 0.8" result="FeGaussianBlur3286Out" in="FeOffset3285Out"></feGaussianBlur></filter><linearGradient id="LinearGradient3287" gradientUnits="userSpaceOnUse" x1="142.26" y1="69" x2="110.42000000000007" y2="69"><stop stop-opacity="1" stop-color="#d6e3ef" offset="0"></stop><stop stop-opacity="1" stop-color="#bed5eb" offset="1"></stop></linearGradient><mask id="Mask3299" x="-1" y="-1" width="2" height="2"><rect width="23" height="8" x="108" y="83" fill="#ffffff"></rect><path d="M112,91c-2.20914,0 -4,-1.79086 -4,-4v0c0,-2.20914 1.79086,-4 4,-4h15c2.20914,0 4,1.79086 4,4v0c0,2.20914 -1.79086,4 -4,4z" fill="#000000"></path></mask><filter id="Filter3303" width="49" height="34" x="96" y="71" filterUnits="userSpaceOnUse"><feOffset dx="2" dy="2" result="FeOffset3304Out" in="SourceGraphic"></feOffset><feGaussianBlur stdDeviation="0.8 0.8" result="FeGaussianBlur3305Out" in="FeOffset3304Out"></feGaussianBlur></filter><linearGradient id="LinearGradient3306" gradientUnits="userSpaceOnUse" x1="129.29999999999995" y1="83" x2="109.5" y2="83"><stop stop-opacity="1" stop-color="#d6e3ef" offset="0"></stop><stop stop-opacity="1" stop-color="#bed5eb" offset="1"></stop></linearGradient><mask id="Mask3318" x="-1" y="-1" width="2" height="2"><rect width="24" height="8" x="130" y="142" fill="#ffffff"></rect><path d="M134,150c-2.20914,0 -4,-1.79086 -4,-4v0c0,-2.20914 1.79086,-4 4,-4h16c2.20914,0 4,1.79086 4,4v0c0,2.20914 -1.79086,4 -4,4z" fill="#000000"></path></mask><filter id="Filter3322" width="50" height="34" x="118" y="130" filterUnits="userSpaceOnUse"><feOffset dx="2" dy="2" result="FeOffset3323Out" in="SourceGraphic"></feOffset><feGaussianBlur stdDeviation="0.8 0.8" result="FeGaussianBlur3324Out" in="FeOffset3323Out"></feGaussianBlur></filter><linearGradient id="LinearGradient3325" gradientUnits="userSpaceOnUse" x1="152.22000000000003" y1="142" x2="131.56999999999994" y2="142"><stop stop-opacity="1" stop-color="#d6e3ef" offset="0"></stop><stop stop-opacity="1" stop-color="#bed5eb" offset="1"></stop></linearGradient><mask id="Mask3337" x="-1" y="-1" width="2" height="2"><rect width="24" height="8" x="46" y="142" fill="#ffffff"></rect><path d="M50,150c-2.20914,0 -4,-1.79086 -4,-4v0c0,-2.20914 1.79086,-4 4,-4h16c2.20914,0 4,1.79086 4,4v0c0,2.20914 -1.79086,4 -4,4z" fill="#000000"></path></mask><filter id="Filter3341" width="50" height="34" x="34" y="130" filterUnits="userSpaceOnUse"><feOffset dx="2" dy="2" result="FeOffset3342Out" in="SourceGraphic"></feOffset><feGaussianBlur stdDeviation="0.8 0.8" result="FeGaussianBlur3343Out" in="FeOffset3342Out"></feGaussianBlur></filter><linearGradient id="LinearGradient3344" gradientUnits="userSpaceOnUse" x1="46.960000000000036" y1="142.6800000000003" x2="68.34999999999991" y2="149.3699999999999"><stop stop-opacity="1" stop-color="#e7f1fd" offset="0"></stop><stop stop-opacity="1" stop-color="#f5f7fa" offset="1"></stop></linearGradient><mask id="Mask3356" x="-1" y="-1" width="2" height="2"><rect width="13" height="8" x="88" y="142" fill="#ffffff"></rect><path d="M92,150c-2.20914,0 -4,-1.79086 -4,-4v0c0,-2.20914 1.79086,-4 4,-4h9v0v8v0z" fill="#000000"></path></mask><filter id="Filter3360" width="39" height="34" x="76" y="130" filterUnits="userSpaceOnUse"><feOffset dx="2" dy="2" result="FeOffset3361Out" in="SourceGraphic"></feOffset><feGaussianBlur stdDeviation="0.8 0.8" result="FeGaussianBlur3362Out" in="FeOffset3361Out"></feGaussianBlur></filter><linearGradient id="LinearGradient3363" gradientUnits="userSpaceOnUse" x1="88.51999999999998" y1="142.6800000000003" x2="100.1099999999999" y2="149.3699999999999"><stop stop-opacity="1" stop-color="#e7f1fd" offset="0"></stop><stop stop-opacity="1" stop-color="#f5f7fa" offset="1"></stop></linearGradient><mask id="Mask3387" x="-1" y="-1" width="2" height="2"><rect width="24" height="24" x="130" y="113" fill="#ffffff"></rect><path d="M142,137c-6.62742,0 -12,-5.37258 -12,-12v0c0,-6.62742 5.37258,-12 12,-12v0c6.62742,0 12,5.37258 12,12v0c0,6.62742 -5.37258,12 -12,12z" fill="#000000"></path></mask><filter id="Filter3391" width="49" height="50" x="118" y="101" filterUnits="userSpaceOnUse"><feOffset dx="1" dy="2" result="FeOffset3392Out" in="SourceGraphic"></feOffset><feGaussianBlur stdDeviation="0.8 0.8" result="FeGaussianBlur3393Out" in="FeOffset3392Out"></feGaussianBlur></filter><linearGradient id="LinearGradient3394" gradientUnits="userSpaceOnUse" x1="154" y1="135.52000000000044" x2="130" y2="135.52999999999975"><stop stop-opacity="1" stop-color="#e5f0fa" offset="0"></stop><stop stop-opacity="1" stop-color="#f0f4fa" offset="0.47"></stop><stop stop-opacity="1" stop-color="#dee9f5" offset="1"></stop></linearGradient><mask id="Mask3407" x="-1" y="-1" width="2" height="2"><rect width="24" height="24" x="130" y="113" fill="#ffffff"></rect><path d="M142,137c-6.62742,0 -12,-5.37258 -12,-12v0c0,-6.62742 5.37258,-12 12,-12v0c6.62742,0 12,5.37258 12,12v0c0,6.62742 -5.37258,12 -12,12z" fill="#000000"></path></mask><filter id="Filter3411" width="49" height="49" x="117" y="100" filterUnits="userSpaceOnUse"><feOffset dx="-1" dy="-1" result="FeOffset3412Out" in="SourceGraphic"></feOffset><feGaussianBlur stdDeviation="0.8 0.8" result="FeGaussianBlur3413Out" in="FeOffset3412Out"></feGaussianBlur></filter><mask id="Mask3422" x="-1" y="-1" width="2" height="2"><rect width="24" height="24" x="130" y="113" fill="#ffffff"></rect><path d="M142,137c-6.62742,0 -12,-5.37258 -12,-12v0c0,-6.62742 5.37258,-12 12,-12v0c6.62742,0 12,5.37258 12,12v0c0,6.62742 -5.37258,12 -12,12z" fill="#000000"></path></mask><filter id="Filter3426" width="50" height="48" x="116" y="101" filterUnits="userSpaceOnUse"><feOffset dx="-2" dy="0" result="FeOffset3427Out" in="SourceGraphic"></feOffset><feGaussianBlur stdDeviation="0.8 0.8" result="FeGaussianBlur3428Out" in="FeOffset3427Out"></feGaussianBlur></filter><linearGradient id="LinearGradient3429" gradientUnits="userSpaceOnUse" x1="154" y1="135.52000000000044" x2="130" y2="135.52999999999975"><stop stop-opacity="1" stop-color="#e5f0fa" offset="0"></stop><stop stop-opacity="1" stop-color="#e9eff8" offset="0.47"></stop><stop stop-opacity="1" stop-color="#dee9f5" offset="1"></stop></linearGradient><mask id="Mask3444" x="-1" y="-1" width="2" height="2"><rect width="24" height="24" x="88" y="113" fill="#ffffff"></rect><path d="M100,137c-6.62742,0 -12,-5.37258 -12,-12v0c0,-6.62742 5.37258,-12 12,-12v0c6.62742,0 12,5.37258 12,12v0c0,6.62742 -5.37258,12 -12,12z" fill="#000000"></path></mask><filter id="Filter3448" width="49" height="50" x="76" y="101" filterUnits="userSpaceOnUse"><feOffset dx="1" dy="2" result="FeOffset3449Out" in="SourceGraphic"></feOffset><feGaussianBlur stdDeviation="0.8 0.8" result="FeGaussianBlur3450Out" in="FeOffset3449Out"></feGaussianBlur></filter><linearGradient id="LinearGradient3451" gradientUnits="userSpaceOnUse" x1="112" y1="135.52000000000044" x2="88" y2="135.52999999999975"><stop stop-opacity="1" stop-color="#e5f0fa" offset="0"></stop><stop stop-opacity="1" stop-color="#f0f4fa" offset="0.47"></stop><stop stop-opacity="1" stop-color="#dee9f5" offset="1"></stop></linearGradient><mask id="Mask3464" x="-1" y="-1" width="2" height="2"><rect width="24" height="24" x="88" y="113" fill="#ffffff"></rect><path d="M94,137c-3.31371,0 -6,-2.68629 -6,-6v-12c0,-3.31371 2.68629,-6 6,-6h12c3.31371,0 6,2.68629 6,6v12c0,3.31371 -2.68629,6 -6,6z" fill="#000000"></path></mask><filter id="Filter3468" width="49" height="49" x="75" y="100" filterUnits="userSpaceOnUse"><feOffset dx="-1" dy="-1" result="FeOffset3469Out" in="SourceGraphic"></feOffset><feGaussianBlur stdDeviation="0.8 0.8" result="FeGaussianBlur3470Out" in="FeOffset3469Out"></feGaussianBlur></filter><mask id="Mask3479" x="-1" y="-1" width="2" height="2"><rect width="24" height="24" x="88" y="113" fill="#ffffff"></rect><path d="M100,137c-6.62742,0 -12,-5.37258 -12,-12v0c0,-6.62742 5.37258,-12 12,-12v0c6.62742,0 12,5.37258 12,12v0c0,6.62742 -5.37258,12 -12,12z" fill="#000000"></path></mask><filter id="Filter3483" width="52" height="50" x="73" y="100" filterUnits="userSpaceOnUse"><feOffset dx="-2" dy="0" result="FeOffset3484Out" in="SourceGraphic"></feOffset><feGaussianBlur stdDeviation="1.2 1.2" result="FeGaussianBlur3485Out" in="FeOffset3484Out"></feGaussianBlur></filter><linearGradient id="LinearGradient3486" gradientUnits="userSpaceOnUse" x1="112" y1="135.52000000000044" x2="88" y2="135.52999999999975"><stop stop-opacity="1" stop-color="#e5f0fa" offset="0"></stop><stop stop-opacity="1" stop-color="#e9eff8" offset="0.47"></stop><stop stop-opacity="1" stop-color="#dee9f5" offset="1"></stop></linearGradient><mask id="Mask3501" x="-1" y="-1" width="2" height="2"><rect width="24" height="24" x="46" y="113" fill="#ffffff"></rect><path d="M58,137c-6.62742,0 -12,-5.37258 -12,-12v0c0,-6.62742 5.37258,-12 12,-12v0c6.62742,0 12,5.37258 12,12v0c0,6.62742 -5.37258,12 -12,12z" fill="#000000"></path></mask><filter id="Filter3505" width="50" height="50" x="34" y="101" filterUnits="userSpaceOnUse"><feOffset dx="2" dy="2" result="FeOffset3506Out" in="SourceGraphic"></feOffset><feGaussianBlur stdDeviation="0.8 0.8" result="FeGaussianBlur3507Out" in="FeOffset3506Out"></feGaussianBlur></filter><linearGradient id="LinearGradient3508" gradientUnits="userSpaceOnUse" x1="70" y1="135.52000000000044" x2="46" y2="135.52999999999975"><stop stop-opacity="1" stop-color="#e5f0fa" offset="0"></stop><stop stop-opacity="1" stop-color="#f0f4fa" offset="0.47"></stop><stop stop-opacity="1" stop-color="#dee9f5" offset="1"></stop></linearGradient><mask id="Mask3521" x="-1" y="-1" width="2" height="2"><rect width="24" height="24" x="46" y="113" fill="#ffffff"></rect><path d="M52,137c-3.31371,0 -6,-2.68629 -6,-6v-12c0,-3.31371 2.68629,-6 6,-6h12c3.31371,0 6,2.68629 6,6v12c0,3.31371 -2.68629,6 -6,6z" fill="#000000"></path></mask><filter id="Filter3525" width="49" height="49" x="33" y="100" filterUnits="userSpaceOnUse"><feOffset dx="-1" dy="-1" result="FeOffset3526Out" in="SourceGraphic"></feOffset><feGaussianBlur stdDeviation="0.8 0.8" result="FeGaussianBlur3527Out" in="FeOffset3526Out"></feGaussianBlur></filter><mask id="Mask3536" x="-1" y="-1" width="2" height="2"><rect width="24" height="24" x="46" y="113" fill="#ffffff"></rect><path d="M58,137c-6.62742,0 -12,-5.37258 -12,-12v0c0,-6.62742 5.37258,-12 12,-12v0c6.62742,0 12,5.37258 12,12v0c0,6.62742 -5.37258,12 -12,12z" fill="#000000"></path></mask><filter id="Filter3540" width="54" height="54" x="30" y="97" filterUnits="userSpaceOnUse"><feOffset dx="-2" dy="-2" result="FeOffset3541Out" in="SourceGraphic"></feOffset><feGaussianBlur stdDeviation="1.6 1.6" result="FeGaussianBlur3542Out" in="FeOffset3541Out"></feGaussianBlur></filter><linearGradient id="LinearGradient3543" gradientUnits="userSpaceOnUse" x1="70" y1="135.52000000000044" x2="46" y2="135.52999999999975"><stop stop-opacity="1" stop-color="#e5f0fa" offset="0"></stop><stop stop-opacity="1" stop-color="#e9eff8" offset="0.47"></stop><stop stop-opacity="1" stop-color="#dee9f5" offset="1"></stop></linearGradient><linearGradient id="LinearGradient3552" gradientUnits="userSpaceOnUse" x1="93.18000000000006" y1="117.02999999999975" x2="100" y2="137"><stop stop-opacity="1" stop-color="#e5eef7" offset="0"></stop><stop stop-opacity="1" stop-color="#f1f5fc" offset="1"></stop></linearGradient><linearGradient id="LinearGradient3560" gradientUnits="userSpaceOnUse" x1="53.09999999999991" y1="120.30000000000018" x2="65.16000000000008" y2="137"><stop stop-opacity="1" stop-color="#e5eef7" offset="0"></stop><stop stop-opacity="1" stop-color="#f5f8ff" offset="1"></stop></linearGradient><linearGradient id="LinearGradient3568" gradientUnits="userSpaceOnUse" x1="100.71000000000004" y1="137" x2="108.22000000000003" y2="110.21000000000004"><stop stop-opacity="1" stop-color="#fb5036" offset="0"></stop><stop stop-opacity="1" stop-color="#ff806e" offset="1"></stop></linearGradient><mask id="Mask3622" x="-1" y="-1" width="2" height="2"><rect width="46" height="31" x="46" y="69" fill="#ffffff"></rect><path d="M50,100c-2.20914,0 -4,-1.79086 -4,-4v-23c0,-2.20914 1.79086,-4 4,-4h38c2.20914,0 4,1.79086 4,4v23c0,2.20914 -1.79086,4 -4,4z" fill="#000000"></path></mask><filter id="Filter3626" width="78" height="63" x="29" y="52" filterUnits="userSpaceOnUse"><feOffset dx="-2" dy="-2" result="FeOffset3627Out" in="SourceGraphic"></feOffset><feGaussianBlur stdDeviation="2 2" result="FeGaussianBlur3628Out" in="FeOffset3627Out"></feGaussianBlur></filter><linearGradient id="LinearGradient3629" gradientUnits="userSpaceOnUse" x1="58.22000000000003" y1="66.81999999999971" x2="82.8900000000001" y2="100"><stop stop-opacity="1" stop-color="#e2ecf7" offset="0"></stop><stop stop-opacity="1" stop-color="#edf3fc" offset="0.46"></stop><stop stop-opacity="1" stop-color="#f5f7fa" offset="1"></stop></linearGradient><mask id="Mask3642" x="-1" y="-1" width="2" height="2"><rect width="10" height="9" x="95" y="26" fill="#ffffff"></rect><path d="M100,26v0l5,9v0h-10v0z" fill="#000000"></path></mask><filter id="Filter3646" width="45" height="46" x="76" y="5" filterUnits="userSpaceOnUse"><feOffset dx="-3" dy="-5" result="FeOffset3647Out" in="SourceGraphic"></feOffset><feGaussianBlur stdDeviation="2.4 2.4" result="FeGaussianBlur3648Out" in="FeOffset3647Out"></feGaussianBlur></filter><linearGradient id="LinearGradient3654" gradientUnits="userSpaceOnUse" x1="136.08999999999992" y1="115.8100000000004" x2="145.74" y2="135.90999999999985"><stop stop-opacity="1" stop-color="#61bfed" offset="0"></stop><stop stop-opacity="1" stop-color="#2fa7e1" offset="1"></stop></linearGradient><mask id="Mask3666" x="-1" y="-1" width="2" height="2"><rect width="24" height="8" x="46" y="142" fill="#ffffff"></rect><path d="M50,150c-2.20914,0 -4,-1.79086 -4,-4v0c0,-2.20914 1.79086,-4 4,-4h16c2.20914,0 4,1.79086 4,4v0c0,2.20914 -1.79086,4 -4,4z" fill="#000000"></path></mask><filter id="Filter3670" width="49" height="34" x="33" y="128" filterUnits="userSpaceOnUse"><feOffset dx="-1" dy="-2" result="FeOffset3671Out" in="SourceGraphic"></feOffset><feGaussianBlur stdDeviation="0.8 0.8" result="FeGaussianBlur3672Out" in="FeOffset3671Out"></feGaussianBlur></filter><linearGradient id="LinearGradient3673" gradientUnits="userSpaceOnUse" x1="40.1099999999999" y1="143.85999999999967" x2="68.34999999999991" y2="149.3699999999999"><stop stop-opacity="1" stop-color="#e5eef7" offset="0"></stop><stop stop-opacity="1" stop-color="#eff5fc" offset="1"></stop></linearGradient><mask id="Mask3685" x="-1" y="-1" width="2" height="2"><rect width="18" height="8" x="88" y="142" fill="#ffffff"></rect><path d="M92,150c-2.20914,0 -4,-1.79086 -4,-4v0c0,-2.20914 1.79086,-4 4,-4h10c2.20914,0 4,1.79086 4,4v0c0,2.20914 -1.79086,4 -4,4z" fill="#000000"></path></mask><filter id="Filter3689" width="43" height="34" x="75" y="128" filterUnits="userSpaceOnUse"><feOffset dx="-1" dy="-2" result="FeOffset3690Out" in="SourceGraphic"></feOffset><feGaussianBlur stdDeviation="0.8 0.8" result="FeGaussianBlur3691Out" in="FeOffset3690Out"></feGaussianBlur></filter><linearGradient id="LinearGradient3692" gradientUnits="userSpaceOnUse" x1="83.57999999999993" y1="143.85999999999967" x2="104.75999999999999" y2="149.3699999999999"><stop stop-opacity="1" stop-color="#e5eef7" offset="0"></stop><stop stop-opacity="1" stop-color="#eff5fc" offset="1"></stop></linearGradient><mask id="Mask3709" x="-1" y="-1" width="2" height="2"><rect width="12" height="8" x="100" y="142" fill="#ffffff"></rect><path d="M112.00018,146.0004c0,1.10001 -0.44995,2.10001 -1.16998,2.82999c-0.72998,0.72 -1.72998,1.17001 -2.83002,1.17001h-8v0v-8v0h8c2.20001,0 4,1.79999 4,4z" fill="#000000"></path></mask><filter id="Filter3713" width="38" height="34" x="88" y="130" filterUnits="userSpaceOnUse"><feOffset dx="2" dy="2" result="FeOffset3714Out" in="SourceGraphic"></feOffset><feGaussianBlur stdDeviation="0.8 0.8" result="FeGaussianBlur3715Out" in="FeOffset3714Out"></feGaussianBlur></filter><linearGradient id="LinearGradient3716" gradientUnits="userSpaceOnUse" x1="111.1099999999999" y1="142" x2="100.77999999999997" y2="142"><stop stop-opacity="1" stop-color="#d6e3ef" offset="0"></stop><stop stop-opacity="1" stop-color="#bed5eb" offset="1"></stop></linearGradient><mask id="Mask3728" x="-1" y="-1" width="2" height="2"><rect width="37" height="8" x="108" y="69" fill="#ffffff"></rect><path d="M112,77c-2.20914,0 -4,-1.79086 -4,-4v0c0,-2.20914 1.79086,-4 4,-4h29c2.20914,0 4,1.79086 4,4v0c0,2.20914 -1.79086,4 -4,4z" fill="#000000"></path></mask><filter id="Filter3732" width="63" height="34" x="94" y="55" filterUnits="userSpaceOnUse"><feOffset dx="-2" dy="-2" result="FeOffset3733Out" in="SourceGraphic"></feOffset><feGaussianBlur stdDeviation="0.8 0.8" result="FeGaussianBlur3734Out" in="FeOffset3733Out"></feGaussianBlur></filter><linearGradient id="LinearGradient3735" gradientUnits="userSpaceOnUse" x1="143.52999999999997" y1="78.3100000000004" x2="81.07999999999993" y2="72.10000000000036"><stop stop-opacity="1" stop-color="#d6e7f7" offset="0"></stop><stop stop-opacity="1" stop-color="#c4dbf0" offset="1"></stop></linearGradient><mask id="Mask3747" x="-1" y="-1" width="2" height="2"><rect width="23" height="8" x="108" y="83" fill="#ffffff"></rect><path d="M112,91c-2.20914,0 -4,-1.79086 -4,-4v0c0,-2.20914 1.79086,-4 4,-4h15c2.20914,0 4,1.79086 4,4v0c0,2.20914 -1.79086,4 -4,4z" fill="#000000"></path></mask><filter id="Filter3751" width="49" height="34" x="94" y="69" filterUnits="userSpaceOnUse"><feOffset dx="-2" dy="-2" result="FeOffset3752Out" in="SourceGraphic"></feOffset><feGaussianBlur stdDeviation="0.8 0.8" result="FeGaussianBlur3753Out" in="FeOffset3752Out"></feGaussianBlur></filter><linearGradient id="LinearGradient3754" gradientUnits="userSpaceOnUse" x1="130.07999999999993" y1="92.3100000000004" x2="91.26999999999998" y2="86.10000000000036"><stop stop-opacity="1" stop-color="#d6e7f7" offset="0"></stop><stop stop-opacity="1" stop-color="#c4dbf0" offset="1"></stop></linearGradient><mask id="Mask3766" x="-1" y="-1" width="2" height="2"><rect width="24" height="8" x="130" y="142" fill="#ffffff"></rect><path d="M134,150c-2.20914,0 -4,-1.79086 -4,-4v0c0,-2.20914 1.79086,-4 4,-4h16c2.20914,0 4,1.79086 4,4v0c0,2.20914 -1.79086,4 -4,4z" fill="#000000"></path></mask><filter id="Filter3770" width="50" height="34" x="116" y="128" filterUnits="userSpaceOnUse"><feOffset dx="-2" dy="-2" result="FeOffset3771Out" in="SourceGraphic"></feOffset><feGaussianBlur stdDeviation="0.8 0.8" result="FeGaussianBlur3772Out" in="FeOffset3771Out"></feGaussianBlur></filter><linearGradient id="LinearGradient3773" gradientUnits="userSpaceOnUse" x1="153.03999999999996" y1="151.3100000000004" x2="122.51999999999998" y2="138.35999999999967"><stop stop-opacity="1" stop-color="#d6e7f7" offset="0"></stop><stop stop-opacity="1" stop-color="#c4dbf0" offset="1"></stop></linearGradient><mask id="Mask3785" x="-1" y="-1" width="2" height="2"><rect width="12" height="8" x="100" y="142" fill="#ffffff"></rect><path d="M112.00018,146.0004c0,1.10001 -0.44995,2.10001 -1.16998,2.82999c-0.72998,0.72 -1.72998,1.17001 -2.83002,1.17001h-8v0v-8v0h8c2.20001,0 4,1.79999 4,4z" fill="#000000"></path></mask><filter id="Filter3789" width="34" height="32" x="89" y="129" filterUnits="userSpaceOnUse"><feOffset dx="0" dy="-2" result="FeOffset3790Out" in="SourceGraphic"></feOffset><feGaussianBlur stdDeviation="0.4 0.4" result="FeGaussianBlur3791Out" in="FeOffset3790Out"></feGaussianBlur></filter><linearGradient id="LinearGradient3792" gradientUnits="userSpaceOnUse" x1="111.51999999999998" y1="151.3100000000004" x2="96.25999999999999" y2="138.35999999999967"><stop stop-opacity="1" stop-color="#d6e7f7" offset="0"></stop><stop stop-opacity="1" stop-color="#c4dbf0" offset="1"></stop></linearGradient></defs><desc>Generated with Avocode.</desc><g><g><title>iconDesign</title><g><title>Rectangle 414</title><path d="M10,200c-5.52285,0 -10,-4.47715 -10,-10v-180c0,-5.52285 4.47715,-10 10,-10h180c5.52285,0 10,4.47715 10,10v180c0,5.52285 -4.47715,10 -10,10z" fill="#e8eff7" fill-opacity="1"></path></g><g><title>Group 5871</title><g><title>Rectangle 5107</title><g filter="url(#Filter2985)"><path d="M47,163c-5.52285,0 -10,-4.47715 -10,-10v-106c0,-5.52285 4.47715,-10 10,-10h106c5.52285,0 10,4.47715 10,10v106c0,5.52285 -4.47715,10 -10,10z" fill="none" stroke-opacity="0.16" stroke-width="0" mask="url(&quot;#Mask2981&quot;)"></path><path d="M47,163c-5.52285,0 -10,-4.47715 -10,-10v-106c0,-5.52285 4.47715,-10 10,-10h106c5.52285,0 10,4.47715 10,10v106c0,5.52285 -4.47715,10 -10,10z" fill="#3d495c" fill-opacity="0.16"></path></g><path d="M47,163c-5.52285,0 -10,-4.47715 -10,-10v-106c0,-5.52285 4.47715,-10 10,-10h106c5.52285,0 10,4.47715 10,10v106c0,5.52285 -4.47715,10 -10,10z" fill="url(#LinearGradient2988)"></path></g><g><title>Rectangle 5106</title><g filter="url(#Filter3004)"><path d="M37,57v0v-10c0,-5.52285 4.47715,-10 10,-10h106c5.52285,0 10,4.47715 10,10v10v0z" fill="none" stroke-opacity="0.03" stroke-width="0" mask="url(&quot;#Mask3000&quot;)"></path><path d="M37,57v0v-10c0,-5.52285 4.47715,-10 10,-10h106c5.52285,0 10,4.47715 10,10v10v0z" fill="#3d495c" fill-opacity="0.03"></path></g><path d="M37,57v0v-10c0,-5.52285 4.47715,-10 10,-10h106c5.52285,0 10,4.47715 10,10v10v0z" fill="url(#LinearGradient3007)"></path></g><g><title>Group 5870</title><g><title>Group 1871</title><g><title>Rectangle 448</title><g filter="url(#Filter3027)"><path d="M47.64453,50.20627c-0.55228,0 -1,-0.44772 -1,-1v-3.29709c0,-0.55228 0.44772,-1 1,-1h3.29709c0.55228,0 1,0.44772 1,1v3.29709c0,0.55228 -0.44772,1 -1,1z" fill="none" stroke-opacity="0.18" stroke-width="0" mask="url(&quot;#Mask3023&quot;)"></path><path d="M47.64453,50.20627c-0.55228,0 -1,-0.44772 -1,-1v-3.29709c0,-0.55228 0.44772,-1 1,-1h3.29709c0.55228,0 1,0.44772 1,1v3.29709c0,0.55228 -0.44772,1 -1,1z" fill="#000000" fill-opacity="0.18"></path></g><path d="M47.64453,50.20627c-0.55228,0 -1,-0.44772 -1,-1v-3.29709c0,-0.55228 0.44772,-1 1,-1h3.29709c0.55228,0 1,0.44772 1,1v3.29709c0,0.55228 -0.44772,1 -1,1z" fill="#edf2f8" fill-opacity="1"></path></g><g><title>Rectangle 457</title><g filter="url(#Filter3043)"><path d="M47.64453,50.20627c-0.55228,0 -1,-0.44772 -1,-1v-3.29709c0,-0.55228 0.44772,-1 1,-1h3.29709c0.55228,0 1,0.44772 1,1v3.29709c0,0.55228 -0.44772,1 -1,1z" fill="none" stroke-opacity="1" stroke-width="0" mask="url(&quot;#Mask3039&quot;)"></path><path d="M47.64453,50.20627c-0.55228,0 -1,-0.44772 -1,-1v-3.29709c0,-0.55228 0.44772,-1 1,-1h3.29709c0.55228,0 1,0.44772 1,1v3.29709c0,0.55228 -0.44772,1 -1,1z" fill="#ffffff" fill-opacity="1"></path></g><path d="M47.64453,50.20627c-0.55228,0 -1,-0.44772 -1,-1v-3.29709c0,-0.55228 0.44772,-1 1,-1h3.29709c0.55228,0 1,0.44772 1,1v3.29709c0,0.55228 -0.44772,1 -1,1z" fill="url(#LinearGradient3046)"></path></g><g><title>Rectangle 458</title><g filter="url(#Filter3062)"><path d="M47.64453,50.20627c-0.55228,0 -1,-0.44772 -1,-1v-3.29709c0,-0.55228 0.44772,-1 1,-1h3.29709c0.55228,0 1,0.44772 1,1v3.29709c0,0.55228 -0.44772,1 -1,1z" fill="none" stroke-opacity="1" stroke-width="0" mask="url(&quot;#Mask3058&quot;)"></path><path d="M47.64453,50.20627c-0.55228,0 -1,-0.44772 -1,-1v-3.29709c0,-0.55228 0.44772,-1 1,-1h3.29709c0.55228,0 1,0.44772 1,1v3.29709c0,0.55228 -0.44772,1 -1,1z" fill="#ffffff" fill-opacity="1"></path></g><path d="M47.64453,50.20627c-0.55228,0 -1,-0.44772 -1,-1v-3.29709c0,-0.55228 0.44772,-1 1,-1h3.29709c0.55228,0 1,0.44772 1,1v3.29709c0,0.55228 -0.44772,1 -1,1z" fill="url(#LinearGradient3065)"></path></g><g><title>Rectangle 463</title><g filter="url(#Filter3081)"><path d="M47.64453,50.20627c-0.55228,0 -1,-0.44772 -1,-1v-3.29709c0,-0.55228 0.44772,-1 1,-1h3.29709c0.55228,0 1,0.44772 1,1v3.29709c0,0.55228 -0.44772,1 -1,1z" fill="none" stroke-opacity="1" stroke-width="0" mask="url(&quot;#Mask3077&quot;)"></path><path d="M47.64453,50.20627c-0.55228,0 -1,-0.44772 -1,-1v-3.29709c0,-0.55228 0.44772,-1 1,-1h3.29709c0.55228,0 1,0.44772 1,1v3.29709c0,0.55228 -0.44772,1 -1,1z" fill="#ffffff" fill-opacity="1"></path></g></g><g><title>Rectangle 465</title><g filter="url(#Filter3096)"><path d="M47.64453,50.20627c-0.55228,0 -1,-0.44772 -1,-1v-3.29709c0,-0.55228 0.44772,-1 1,-1h3.29709c0.55228,0 1,0.44772 1,1v3.29709c0,0.55228 -0.44772,1 -1,1z" fill="none" stroke-opacity="1" stroke-width="0" mask="url(&quot;#Mask3092&quot;)"></path><path d="M47.64453,50.20627c-0.55228,0 -1,-0.44772 -1,-1v-3.29709c0,-0.55228 0.44772,-1 1,-1h3.29709c0.55228,0 1,0.44772 1,1v3.29709c0,0.55228 -0.44772,1 -1,1z" fill="#ffffff" fill-opacity="1"></path></g><path d="M47.64453,50.20627c-0.55228,0 -1,-0.44772 -1,-1v-3.29709c0,-0.55228 0.44772,-1 1,-1h3.29709c0.55228,0 1,0.44772 1,1v3.29709c0,0.55228 -0.44772,1 -1,1z" fill="url(#LinearGradient3099)"></path></g></g><g><title>Group 1872</title><g><title>Rectangle 448</title><g filter="url(#Filter3117)"><path d="M59.51325,50.20627c-0.55228,0 -1,-0.44772 -1,-1v-3.29709c0,-0.55228 0.44772,-1 1,-1h3.29709c0.55228,0 1,0.44772 1,1v3.29709c0,0.55228 -0.44772,1 -1,1z" fill="none" stroke-opacity="0.18" stroke-width="0" mask="url(&quot;#Mask3113&quot;)"></path><path d="M59.51325,50.20627c-0.55228,0 -1,-0.44772 -1,-1v-3.29709c0,-0.55228 0.44772,-1 1,-1h3.29709c0.55228,0 1,0.44772 1,1v3.29709c0,0.55228 -0.44772,1 -1,1z" fill="#000000" fill-opacity="0.18"></path></g><path d="M59.51325,50.20627c-0.55228,0 -1,-0.44772 -1,-1v-3.29709c0,-0.55228 0.44772,-1 1,-1h3.29709c0.55228,0 1,0.44772 1,1v3.29709c0,0.55228 -0.44772,1 -1,1z" fill="#edf2f8" fill-opacity="1"></path></g><g><title>Rectangle 459</title><g filter="url(#Filter3133)"><path d="M59.51325,50.20627c-0.55228,0 -1,-0.44772 -1,-1v-3.29709c0,-0.55228 0.44772,-1 1,-1h3.29709c0.55228,0 1,0.44772 1,1v3.29709c0,0.55228 -0.44772,1 -1,1z" fill="none" stroke-opacity="1" stroke-width="0" mask="url(&quot;#Mask3129&quot;)"></path><path d="M59.51325,50.20627c-0.55228,0 -1,-0.44772 -1,-1v-3.29709c0,-0.55228 0.44772,-1 1,-1h3.29709c0.55228,0 1,0.44772 1,1v3.29709c0,0.55228 -0.44772,1 -1,1z" fill="#ffffff" fill-opacity="1"></path></g><path d="M59.51325,50.20627c-0.55228,0 -1,-0.44772 -1,-1v-3.29709c0,-0.55228 0.44772,-1 1,-1h3.29709c0.55228,0 1,0.44772 1,1v3.29709c0,0.55228 -0.44772,1 -1,1z" fill="url(#LinearGradient3136)"></path></g><g><title>Rectangle 460</title><g filter="url(#Filter3152)"><path d="M59.51325,50.20627c-0.55228,0 -1,-0.44772 -1,-1v-3.29709c0,-0.55228 0.44772,-1 1,-1h3.29709c0.55228,0 1,0.44772 1,1v3.29709c0,0.55228 -0.44772,1 -1,1z" fill="none" stroke-opacity="1" stroke-width="0" mask="url(&quot;#Mask3148&quot;)"></path><path d="M59.51325,50.20627c-0.55228,0 -1,-0.44772 -1,-1v-3.29709c0,-0.55228 0.44772,-1 1,-1h3.29709c0.55228,0 1,0.44772 1,1v3.29709c0,0.55228 -0.44772,1 -1,1z" fill="#ffffff" fill-opacity="1"></path></g><path d="M59.51325,50.20627c-0.55228,0 -1,-0.44772 -1,-1v-3.29709c0,-0.55228 0.44772,-1 1,-1h3.29709c0.55228,0 1,0.44772 1,1v3.29709c0,0.55228 -0.44772,1 -1,1z" fill="url(#LinearGradient3155)"></path></g><g><title>Rectangle 466</title><g filter="url(#Filter3171)"><path d="M59.51325,50.20627c-0.55228,0 -1,-0.44772 -1,-1v-3.29709c0,-0.55228 0.44772,-1 1,-1h3.29709c0.55228,0 1,0.44772 1,1v3.29709c0,0.55228 -0.44772,1 -1,1z" fill="none" stroke-opacity="1" stroke-width="0" mask="url(&quot;#Mask3167&quot;)"></path><path d="M59.51325,50.20627c-0.55228,0 -1,-0.44772 -1,-1v-3.29709c0,-0.55228 0.44772,-1 1,-1h3.29709c0.55228,0 1,0.44772 1,1v3.29709c0,0.55228 -0.44772,1 -1,1z" fill="#ffffff" fill-opacity="1"></path></g><path d="M59.51325,50.20627c-0.55228,0 -1,-0.44772 -1,-1v-3.29709c0,-0.55228 0.44772,-1 1,-1h3.29709c0.55228,0 1,0.44772 1,1v3.29709c0,0.55228 -0.44772,1 -1,1z" fill="url(#LinearGradient3174)"></path></g></g><g><title>Group 1873</title><g><title>Rectangle 448</title><g filter="url(#Filter3192)"><path d="M71.03306,50.20627c-0.55228,0 -1,-0.44772 -1,-1v-3.29709c0,-0.55228 0.44772,-1 1,-1h3.29709c0.55228,0 1,0.44772 1,1v3.29709c0,0.55228 -0.44772,1 -1,1z" fill="none" stroke-opacity="0.18" stroke-width="0" mask="url(&quot;#Mask3188&quot;)"></path><path d="M71.03306,50.20627c-0.55228,0 -1,-0.44772 -1,-1v-3.29709c0,-0.55228 0.44772,-1 1,-1h3.29709c0.55228,0 1,0.44772 1,1v3.29709c0,0.55228 -0.44772,1 -1,1z" fill="#000000" fill-opacity="0.18"></path></g><path d="M71.03306,50.20627c-0.55228,0 -1,-0.44772 -1,-1v-3.29709c0,-0.55228 0.44772,-1 1,-1h3.29709c0.55228,0 1,0.44772 1,1v3.29709c0,0.55228 -0.44772,1 -1,1z" fill="#edf2f8" fill-opacity="1"></path></g><g><title>Rectangle 461</title><g filter="url(#Filter3208)"><path d="M71.03306,50.20627c-0.55228,0 -1,-0.44772 -1,-1v-3.29709c0,-0.55228 0.44772,-1 1,-1h3.29709c0.55228,0 1,0.44772 1,1v3.29709c0,0.55228 -0.44772,1 -1,1z" fill="none" stroke-opacity="1" stroke-width="0" mask="url(&quot;#Mask3204&quot;)"></path><path d="M71.03306,50.20627c-0.55228,0 -1,-0.44772 -1,-1v-3.29709c0,-0.55228 0.44772,-1 1,-1h3.29709c0.55228,0 1,0.44772 1,1v3.29709c0,0.55228 -0.44772,1 -1,1z" fill="#ffffff" fill-opacity="1"></path></g><path d="M71.03306,50.20627c-0.55228,0 -1,-0.44772 -1,-1v-3.29709c0,-0.55228 0.44772,-1 1,-1h3.29709c0.55228,0 1,0.44772 1,1v3.29709c0,0.55228 -0.44772,1 -1,1z" fill="url(#LinearGradient3211)"></path></g><g><title>Rectangle 462</title><g filter="url(#Filter3227)"><path d="M71.03306,50.20627c-0.55228,0 -1,-0.44772 -1,-1v-3.29709c0,-0.55228 0.44772,-1 1,-1h3.29709c0.55228,0 1,0.44772 1,1v3.29709c0,0.55228 -0.44772,1 -1,1z" fill="none" stroke-opacity="1" stroke-width="0" mask="url(&quot;#Mask3223&quot;)"></path><path d="M71.03306,50.20627c-0.55228,0 -1,-0.44772 -1,-1v-3.29709c0,-0.55228 0.44772,-1 1,-1h3.29709c0.55228,0 1,0.44772 1,1v3.29709c0,0.55228 -0.44772,1 -1,1z" fill="#ffffff" fill-opacity="1"></path></g><path d="M71.03306,50.20627c-0.55228,0 -1,-0.44772 -1,-1v-3.29709c0,-0.55228 0.44772,-1 1,-1h3.29709c0.55228,0 1,0.44772 1,1v3.29709c0,0.55228 -0.44772,1 -1,1z" fill="url(#LinearGradient3230)"></path></g><g><title>Rectangle 467</title><g filter="url(#Filter3246)"><path d="M71.03306,50.20627c-0.55228,0 -1,-0.44772 -1,-1v-3.29709c0,-0.55228 0.44772,-1 1,-1h3.29709c0.55228,0 1,0.44772 1,1v3.29709c0,0.55228 -0.44772,1 -1,1z" fill="none" stroke-opacity="1" stroke-width="0" mask="url(&quot;#Mask3242&quot;)"></path><path d="M71.03306,50.20627c-0.55228,0 -1,-0.44772 -1,-1v-3.29709c0,-0.55228 0.44772,-1 1,-1h3.29709c0.55228,0 1,0.44772 1,1v3.29709c0,0.55228 -0.44772,1 -1,1z" fill="#ffffff" fill-opacity="1"></path></g><path d="M71.03306,50.20627c-0.55228,0 -1,-0.44772 -1,-1v-3.29709c0,-0.55228 0.44772,-1 1,-1h3.29709c0.55228,0 1,0.44772 1,1v3.29709c0,0.55228 -0.44772,1 -1,1z" fill="url(#LinearGradient3249)"></path></g></g></g></g><g><title>Rectangle 495</title><g filter="url(#Filter3265)"><path d="M50,100c-2.20914,0 -4,-1.79086 -4,-4v-23c0,-2.20914 1.79086,-4 4,-4h38c2.20914,0 4,1.79086 4,4v23c0,2.20914 -1.79086,4 -4,4z" fill="none" stroke-opacity="0.16" stroke-width="0" mask="url(&quot;#Mask3261&quot;)"></path><path d="M50,100c-2.20914,0 -4,-1.79086 -4,-4v-23c0,-2.20914 1.79086,-4 4,-4h38c2.20914,0 4,1.79086 4,4v23c0,2.20914 -1.79086,4 -4,4z" fill="#5c779f" fill-opacity="0.16"></path></g><path d="M50,100c-2.20914,0 -4,-1.79086 -4,-4v-23c0,-2.20914 1.79086,-4 4,-4h38c2.20914,0 4,1.79086 4,4v23c0,2.20914 -1.79086,4 -4,4z" fill="url(#LinearGradient3268)"></path></g><g><title>Rectangle 5099</title><g filter="url(#Filter3284)"><path d="M112,77c-2.20914,0 -4,-1.79086 -4,-4v0c0,-2.20914 1.79086,-4 4,-4h29c2.20914,0 4,1.79086 4,4v0c0,2.20914 -1.79086,4 -4,4z" fill="none" stroke-opacity="0.16" stroke-width="0" mask="url(&quot;#Mask3280&quot;)"></path><path d="M112,77c-2.20914,0 -4,-1.79086 -4,-4v0c0,-2.20914 1.79086,-4 4,-4h29c2.20914,0 4,1.79086 4,4v0c0,2.20914 -1.79086,4 -4,4z" fill="#a1b6d6" fill-opacity="0.16"></path></g><path d="M112,77c-2.20914,0 -4,-1.79086 -4,-4v0c0,-2.20914 1.79086,-4 4,-4h29c2.20914,0 4,1.79086 4,4v0c0,2.20914 -1.79086,4 -4,4z" fill="url(#LinearGradient3287)"></path></g><g><title>Rectangle 5100</title><g filter="url(#Filter3303)"><path d="M112,91c-2.20914,0 -4,-1.79086 -4,-4v0c0,-2.20914 1.79086,-4 4,-4h15c2.20914,0 4,1.79086 4,4v0c0,2.20914 -1.79086,4 -4,4z" fill="none" stroke-opacity="0.16" stroke-width="0" mask="url(&quot;#Mask3299&quot;)"></path><path d="M112,91c-2.20914,0 -4,-1.79086 -4,-4v0c0,-2.20914 1.79086,-4 4,-4h15c2.20914,0 4,1.79086 4,4v0c0,2.20914 -1.79086,4 -4,4z" fill="#a1b6d6" fill-opacity="0.16"></path></g><path d="M112,91c-2.20914,0 -4,-1.79086 -4,-4v0c0,-2.20914 1.79086,-4 4,-4h15c2.20914,0 4,1.79086 4,4v0c0,2.20914 -1.79086,4 -4,4z" fill="url(#LinearGradient3306)"></path></g><g><title>Rectangle 5104</title><g filter="url(#Filter3322)"><path d="M134,150c-2.20914,0 -4,-1.79086 -4,-4v0c0,-2.20914 1.79086,-4 4,-4h16c2.20914,0 4,1.79086 4,4v0c0,2.20914 -1.79086,4 -4,4z" fill="none" stroke-opacity="0.16" stroke-width="0" mask="url(&quot;#Mask3318&quot;)"></path><path d="M134,150c-2.20914,0 -4,-1.79086 -4,-4v0c0,-2.20914 1.79086,-4 4,-4h16c2.20914,0 4,1.79086 4,4v0c0,2.20914 -1.79086,4 -4,4z" fill="#a1b6d6" fill-opacity="0.16"></path></g><path d="M134,150c-2.20914,0 -4,-1.79086 -4,-4v0c0,-2.20914 1.79086,-4 4,-4h16c2.20914,0 4,1.79086 4,4v0c0,2.20914 -1.79086,4 -4,4z" fill="url(#LinearGradient3325)"></path></g><g><title>Rectangle 5101</title><g filter="url(#Filter3341)"><path d="M50,150c-2.20914,0 -4,-1.79086 -4,-4v0c0,-2.20914 1.79086,-4 4,-4h16c2.20914,0 4,1.79086 4,4v0c0,2.20914 -1.79086,4 -4,4z" fill="none" stroke-opacity="0.16" stroke-width="0" mask="url(&quot;#Mask3337&quot;)"></path><path d="M50,150c-2.20914,0 -4,-1.79086 -4,-4v0c0,-2.20914 1.79086,-4 4,-4h16c2.20914,0 4,1.79086 4,4v0c0,2.20914 -1.79086,4 -4,4z" fill="#afb5be" fill-opacity="0.16"></path></g><path d="M50,150c-2.20914,0 -4,-1.79086 -4,-4v0c0,-2.20914 1.79086,-4 4,-4h16c2.20914,0 4,1.79086 4,4v0c0,2.20914 -1.79086,4 -4,4z" fill="url(#LinearGradient3344)"></path></g><g><title>Rectangle 5199</title><g filter="url(#Filter3360)"><path d="M92,150c-2.20914,0 -4,-1.79086 -4,-4v0c0,-2.20914 1.79086,-4 4,-4h9v0v8v0z" fill="none" stroke-opacity="0.16" stroke-width="0" mask="url(&quot;#Mask3356&quot;)"></path><path d="M92,150c-2.20914,0 -4,-1.79086 -4,-4v0c0,-2.20914 1.79086,-4 4,-4h9v0v8v0z" fill="#afb5be" fill-opacity="0.16"></path></g><path d="M92,150c-2.20914,0 -4,-1.79086 -4,-4v0c0,-2.20914 1.79086,-4 4,-4h9v0v8v0z" fill="url(#LinearGradient3363)"></path></g><g><title>Ellipse 330</title><path d="M88,125c0,-6.62742 5.37258,-12 12,-12c6.62742,0 12,5.37258 12,12c0,6.62742 -5.37258,12 -12,12c-6.62742,0 -12,-5.37258 -12,-12z" fill="#ebf4fd" fill-opacity="1"></path></g><g><title>Ellipse 401</title><path d="M46,125c0,-6.62742 5.37258,-12 12,-12c6.62742,0 12,5.37258 12,12c0,6.62742 -5.37258,12 -12,12c-6.62742,0 -12,-5.37258 -12,-12z" fill="#ebf4fd" fill-opacity="1"></path></g><g><title>Group 5866</title><g><title>Rectangle 657</title><g filter="url(#Filter3391)"><path d="M142,137c-6.62742,0 -12,-5.37258 -12,-12v0c0,-6.62742 5.37258,-12 12,-12v0c6.62742,0 12,5.37258 12,12v0c0,6.62742 -5.37258,12 -12,12z" fill="none" stroke-opacity="0.45" stroke-width="0" mask="url(&quot;#Mask3387&quot;)"></path><path d="M142,137c-6.62742,0 -12,-5.37258 -12,-12v0c0,-6.62742 5.37258,-12 12,-12v0c6.62742,0 12,5.37258 12,12v0c0,6.62742 -5.37258,12 -12,12z" fill="#a9b9d1" fill-opacity="0.45"></path></g><path d="M142,137c-6.62742,0 -12,-5.37258 -12,-12v0c0,-6.62742 5.37258,-12 12,-12v0c6.62742,0 12,5.37258 12,12v0c0,6.62742 -5.37258,12 -12,12z" fill="url(#LinearGradient3394)"></path></g><g><title>Rectangle 658</title><g filter="url(#Filter3411)"><path d="M142,137c-6.62742,0 -12,-5.37258 -12,-12v0c0,-6.62742 5.37258,-12 12,-12v0c6.62742,0 12,5.37258 12,12v0c0,6.62742 -5.37258,12 -12,12z" fill="none" stroke-opacity="1" stroke-width="0" mask="url(&quot;#Mask3407&quot;)"></path><path d="M142,137c-6.62742,0 -12,-5.37258 -12,-12v0c0,-6.62742 5.37258,-12 12,-12v0c6.62742,0 12,5.37258 12,12v0c0,6.62742 -5.37258,12 -12,12z" fill="#ffffff" fill-opacity="1"></path></g></g><g><title>Rectangle 659</title><g filter="url(#Filter3426)"><path d="M142,137c-6.62742,0 -12,-5.37258 -12,-12v0c0,-6.62742 5.37258,-12 12,-12v0c6.62742,0 12,5.37258 12,12v0c0,6.62742 -5.37258,12 -12,12z" fill="none" stroke-opacity="1" stroke-width="0" mask="url(&quot;#Mask3422&quot;)"></path><path d="M142,137c-6.62742,0 -12,-5.37258 -12,-12v0c0,-6.62742 5.37258,-12 12,-12v0c6.62742,0 12,5.37258 12,12v0c0,6.62742 -5.37258,12 -12,12z" fill="#ffffff" fill-opacity="1"></path></g><path d="M142,137c-6.62742,0 -12,-5.37258 -12,-12v0c0,-6.62742 5.37258,-12 12,-12v0c6.62742,0 12,5.37258 12,12v0c0,6.62742 -5.37258,12 -12,12z" fill="url(#LinearGradient3429)"></path></g></g><g><title>Group 5867</title><g><title>Rectangle 657</title><g filter="url(#Filter3448)"><path d="M100,137c-6.62742,0 -12,-5.37258 -12,-12v0c0,-6.62742 5.37258,-12 12,-12v0c6.62742,0 12,5.37258 12,12v0c0,6.62742 -5.37258,12 -12,12z" fill="none" stroke-opacity="0.45" stroke-width="0" mask="url(&quot;#Mask3444&quot;)"></path><path d="M100,137c-6.62742,0 -12,-5.37258 -12,-12v0c0,-6.62742 5.37258,-12 12,-12v0c6.62742,0 12,5.37258 12,12v0c0,6.62742 -5.37258,12 -12,12z" fill="#a9b9d1" fill-opacity="0.45"></path></g><path d="M100,137c-6.62742,0 -12,-5.37258 -12,-12v0c0,-6.62742 5.37258,-12 12,-12v0c6.62742,0 12,5.37258 12,12v0c0,6.62742 -5.37258,12 -12,12z" fill="url(#LinearGradient3451)"></path></g><g><title>Rectangle 658</title><g filter="url(#Filter3468)"><path d="M94,137c-3.31371,0 -6,-2.68629 -6,-6v-12c0,-3.31371 2.68629,-6 6,-6h12c3.31371,0 6,2.68629 6,6v12c0,3.31371 -2.68629,6 -6,6z" fill="none" stroke-opacity="1" stroke-width="0" mask="url(&quot;#Mask3464&quot;)"></path><path d="M94,137c-3.31371,0 -6,-2.68629 -6,-6v-12c0,-3.31371 2.68629,-6 6,-6h12c3.31371,0 6,2.68629 6,6v12c0,3.31371 -2.68629,6 -6,6z" fill="#ffffff" fill-opacity="1"></path></g></g><g><title>Rectangle 659</title><g filter="url(#Filter3483)"><path d="M100,137c-6.62742,0 -12,-5.37258 -12,-12v0c0,-6.62742 5.37258,-12 12,-12v0c6.62742,0 12,5.37258 12,12v0c0,6.62742 -5.37258,12 -12,12z" fill="none" stroke-opacity="1" stroke-width="0" mask="url(&quot;#Mask3479&quot;)"></path><path d="M100,137c-6.62742,0 -12,-5.37258 -12,-12v0c0,-6.62742 5.37258,-12 12,-12v0c6.62742,0 12,5.37258 12,12v0c0,6.62742 -5.37258,12 -12,12z" fill="#ffffff" fill-opacity="1"></path></g><path d="M100,137c-6.62742,0 -12,-5.37258 -12,-12v0c0,-6.62742 5.37258,-12 12,-12v0c6.62742,0 12,5.37258 12,12v0c0,6.62742 -5.37258,12 -12,12z" fill="url(#LinearGradient3486)"></path></g></g><g><title>Group 5907</title><g><title>Rectangle 657</title><g filter="url(#Filter3505)"><path d="M58,137c-6.62742,0 -12,-5.37258 -12,-12v0c0,-6.62742 5.37258,-12 12,-12v0c6.62742,0 12,5.37258 12,12v0c0,6.62742 -5.37258,12 -12,12z" fill="none" stroke-opacity="0.45" stroke-width="0" mask="url(&quot;#Mask3501&quot;)"></path><path d="M58,137c-6.62742,0 -12,-5.37258 -12,-12v0c0,-6.62742 5.37258,-12 12,-12v0c6.62742,0 12,5.37258 12,12v0c0,6.62742 -5.37258,12 -12,12z" fill="#d6dfeb" fill-opacity="0.45"></path></g><path d="M58,137c-6.62742,0 -12,-5.37258 -12,-12v0c0,-6.62742 5.37258,-12 12,-12v0c6.62742,0 12,5.37258 12,12v0c0,6.62742 -5.37258,12 -12,12z" fill="url(#LinearGradient3508)"></path></g><g><title>Rectangle 658</title><g filter="url(#Filter3525)"><path d="M52,137c-3.31371,0 -6,-2.68629 -6,-6v-12c0,-3.31371 2.68629,-6 6,-6h12c3.31371,0 6,2.68629 6,6v12c0,3.31371 -2.68629,6 -6,6z" fill="none" stroke-opacity="1" stroke-width="0" mask="url(&quot;#Mask3521&quot;)"></path><path d="M52,137c-3.31371,0 -6,-2.68629 -6,-6v-12c0,-3.31371 2.68629,-6 6,-6h12c3.31371,0 6,2.68629 6,6v12c0,3.31371 -2.68629,6 -6,6z" fill="#ffffff" fill-opacity="1"></path></g></g><g><title>Rectangle 659</title><g filter="url(#Filter3540)"><path d="M58,137c-6.62742,0 -12,-5.37258 -12,-12v0c0,-6.62742 5.37258,-12 12,-12v0c6.62742,0 12,5.37258 12,12v0c0,6.62742 -5.37258,12 -12,12z" fill="none" stroke-opacity="0.7" stroke-width="0" mask="url(&quot;#Mask3536&quot;)"></path><path d="M58,137c-6.62742,0 -12,-5.37258 -12,-12v0c0,-6.62742 5.37258,-12 12,-12v0c6.62742,0 12,5.37258 12,12v0c0,6.62742 -5.37258,12 -12,12z" fill="#ffffff" fill-opacity="0.7"></path></g><path d="M58,137c-6.62742,0 -12,-5.37258 -12,-12v0c0,-6.62742 5.37258,-12 12,-12v0c6.62742,0 12,5.37258 12,12v0c0,6.62742 -5.37258,12 -12,12z" fill="url(#LinearGradient3543)"></path></g></g><g><title>Ellipse 331</title><path d="M88,125c0,-6.62742 5.37258,-12 12,-12c6.62742,0 12,5.37258 12,12c0,6.62742 -5.37258,12 -12,12c-6.62742,0 -12,-5.37258 -12,-12z" fill="url(#LinearGradient3552)"></path></g><g><title>Ellipse 402</title><path d="M46,125c0,-6.62742 5.37258,-12 12,-12c6.62742,0 12,5.37258 12,12c0,6.62742 -5.37258,12 -12,12c-6.62742,0 -12,-5.37258 -12,-12z" fill="url(#LinearGradient3560)"></path></g><g><title>Path 6358</title><path d="M99.99884,113.00003c6.62695,0 12,5.37299 12,12c0,6.62799 -5.37305,12 -12,12z" fill="url(#LinearGradient3568)"></path></g><g><title>Group 5854</title><g transform="rotate(90 100 152.27000000000044)"><title>Line 535</title><path d="M97.27095,152.27104h5.4581" fill-opacity="0" fill="#ffffff" stroke-dashoffset="0" stroke-linejoin="miter" stroke-linecap="round" stroke-opacity="1" stroke="#254b88" stroke-miterlimit="20" stroke-width="1"></path></g><g transform="rotate(90 100 136.35999999999967)"><title>Line 536</title><path d="M97.27095,136.36186h5.4581" fill-opacity="0" fill="#ffffff" stroke-dashoffset="0" stroke-linejoin="miter" stroke-linecap="round" stroke-opacity="1" stroke="#254b88" stroke-miterlimit="20" stroke-width="1"></path></g><g transform="rotate(90 100 121.59000000000015)"><title>Line 537</title><path d="M97.27095,121.58989h5.4581" fill-opacity="0" fill="#ffffff" stroke-dashoffset="0" stroke-linejoin="miter" stroke-linecap="round" stroke-opacity="1" stroke="#254b88" stroke-miterlimit="20" stroke-width="1"></path></g><g transform="rotate(90 100 106.81999999999971)"><title>Line 538</title><path d="M97.27095,106.81694h5.4581" fill-opacity="0" fill="#ffffff" stroke-dashoffset="0" stroke-linejoin="miter" stroke-linecap="round" stroke-opacity="1" stroke="#254b88" stroke-miterlimit="20" stroke-width="1"></path></g><g transform="rotate(90 100 92.05000000000018)"><title>Line 539</title><path d="M97.27095,92.04546h5.4581" fill-opacity="0" fill="#ffffff" stroke-dashoffset="0" stroke-linejoin="miter" stroke-linecap="round" stroke-opacity="1" stroke="#254b88" stroke-miterlimit="20" stroke-width="1"></path></g><g transform="rotate(90 100 77.27000000000044)"><title>Line 540</title><path d="M97.27095,77.27397h5.4581" fill-opacity="0" fill="#ffffff" stroke-dashoffset="0" stroke-linejoin="miter" stroke-linecap="round" stroke-opacity="1" stroke="#254b88" stroke-miterlimit="20" stroke-width="1"></path></g><g transform="rotate(90 100 47.72999999999956)"><title>Line 541</title><path d="M97.27095,47.72905h5.4581" fill-opacity="0" fill="#ffffff" stroke-dashoffset="0" stroke-linejoin="miter" stroke-linecap="round" stroke-opacity="1" stroke="#254b88" stroke-miterlimit="20" stroke-width="1"></path></g><g transform="rotate(90 100 62.5)"><title>Line 542</title><path d="M97.27095,62.50151h5.4581" fill-opacity="0" fill="#ffffff" stroke-dashoffset="0" stroke-linejoin="miter" stroke-linecap="round" stroke-opacity="1" stroke="#254b88" stroke-miterlimit="20" stroke-width="1"></path></g></g><g><title>Rectangle 5187</title><g filter="url(#Filter3626)"><path d="M50,100c-2.20914,0 -4,-1.79086 -4,-4v-23c0,-2.20914 1.79086,-4 4,-4h38c2.20914,0 4,1.79086 4,4v23c0,2.20914 -1.79086,4 -4,4z" fill="none" stroke-opacity="1" stroke-width="0" mask="url(&quot;#Mask3622&quot;)"></path><path d="M50,100c-2.20914,0 -4,-1.79086 -4,-4v-23c0,-2.20914 1.79086,-4 4,-4h38c2.20914,0 4,1.79086 4,4v23c0,2.20914 -1.79086,4 -4,4z" fill="#ffffff" fill-opacity="1"></path></g><path d="M50,100c-2.20914,0 -4,-1.79086 -4,-4v-23c0,-2.20914 1.79086,-4 4,-4h38c2.20914,0 4,1.79086 4,4v23c0,2.20914 -1.79086,4 -4,4z" fill="url(#LinearGradient3629)"></path></g><g transform="rotate(-180 100 30.5)"><title>Polygon 4</title><g filter="url(#Filter3646)"><path d="M100,26v0l5,9v0h-10v0z" fill="none" stroke-opacity="0.16" stroke-width="0" mask="url(&quot;#Mask3642&quot;)"></path><path d="M100,26v0l5,9v0h-10v0z" fill="#131526" fill-opacity="0.16"></path></g><path d="M100,26v0l5,9v0h-10v0z" fill="#254b88" fill-opacity="1"></path></g><g><title>Ellipse 384</title><path d="M130,125c0,-6.62742 5.37258,-12 12,-12c6.62742,0 12,5.37258 12,12c0,6.62742 -5.37258,12 -12,12c-6.62742,0 -12,-5.37258 -12,-12z" fill="url(#LinearGradient3654)"></path></g><g><title>Rectangle 5188</title><g filter="url(#Filter3670)"><path d="M50,150c-2.20914,0 -4,-1.79086 -4,-4v0c0,-2.20914 1.79086,-4 4,-4h16c2.20914,0 4,1.79086 4,4v0c0,2.20914 -1.79086,4 -4,4z" fill="none" stroke-opacity="0.65" stroke-width="0" mask="url(&quot;#Mask3666&quot;)"></path><path d="M50,150c-2.20914,0 -4,-1.79086 -4,-4v0c0,-2.20914 1.79086,-4 4,-4h16c2.20914,0 4,1.79086 4,4v0c0,2.20914 -1.79086,4 -4,4z" fill="#ffffff" fill-opacity="0.65"></path></g><path d="M50,150c-2.20914,0 -4,-1.79086 -4,-4v0c0,-2.20914 1.79086,-4 4,-4h16c2.20914,0 4,1.79086 4,4v0c0,2.20914 -1.79086,4 -4,4z" fill="url(#LinearGradient3673)"></path></g><g><title>Rectangle 5200</title><g filter="url(#Filter3689)"><path d="M92,150c-2.20914,0 -4,-1.79086 -4,-4v0c0,-2.20914 1.79086,-4 4,-4h10c2.20914,0 4,1.79086 4,4v0c0,2.20914 -1.79086,4 -4,4z" fill="none" stroke-opacity="0.65" stroke-width="0" mask="url(&quot;#Mask3685&quot;)"></path><path d="M92,150c-2.20914,0 -4,-1.79086 -4,-4v0c0,-2.20914 1.79086,-4 4,-4h10c2.20914,0 4,1.79086 4,4v0c0,2.20914 -1.79086,4 -4,4z" fill="#ffffff" fill-opacity="0.65"></path></g><path d="M92,150c-2.20914,0 -4,-1.79086 -4,-4v0c0,-2.20914 1.79086,-4 4,-4h10c2.20914,0 4,1.79086 4,4v0c0,2.20914 -1.79086,4 -4,4z" fill="url(#LinearGradient3692)"></path></g><g><title>Union 64</title><path d="M69,84.5v0l-18,10.99902v0l18,-10.99902v0l-18,-10.99805v0l18,10.99805v0l18,-10.99805v0l-18,10.99805v0l18,10.99902v0z" fill-opacity="0" fill="#ffffff" stroke-dashoffset="0" stroke-linejoin="round" stroke-linecap="round" stroke-opacity="1" stroke="#d9e3f0" stroke-miterlimit="20" stroke-width="1"></path></g><g><title>Path 6359</title><g filter="url(#Filter3713)"><path d="M112.00018,146.0004c0,1.10001 -0.44995,2.10001 -1.16998,2.82999c-0.72998,0.72 -1.72998,1.17001 -2.83002,1.17001h-8v0v-8v0h8c2.20001,0 4,1.79999 4,4z" fill="none" stroke-opacity="0.16" stroke-width="0" mask="url(&quot;#Mask3709&quot;)"></path><path d="M112.00018,146.0004c0,1.10001 -0.44995,2.10001 -1.16998,2.82999c-0.72998,0.72 -1.72998,1.17001 -2.83002,1.17001h-8v0v-8v0h8c2.20001,0 4,1.79999 4,4z" fill="#a1b6d6" fill-opacity="0.16"></path></g><path d="M112.00018,146.0004c0,1.10001 -0.44995,2.10001 -1.16998,2.82999c-0.72998,0.72 -1.72998,1.17001 -2.83002,1.17001h-8v0v-8v0h8c2.20001,0 4,1.79999 4,4z" fill="url(#LinearGradient3716)"></path></g><g><title>Rectangle 5201</title><g filter="url(#Filter3732)"><path d="M112,77c-2.20914,0 -4,-1.79086 -4,-4v0c0,-2.20914 1.79086,-4 4,-4h29c2.20914,0 4,1.79086 4,4v0c0,2.20914 -1.79086,4 -4,4z" fill="none" stroke-opacity="1" stroke-width="0" mask="url(&quot;#Mask3728&quot;)"></path><path d="M112,77c-2.20914,0 -4,-1.79086 -4,-4v0c0,-2.20914 1.79086,-4 4,-4h29c2.20914,0 4,1.79086 4,4v0c0,2.20914 -1.79086,4 -4,4z" fill="#ffffff" fill-opacity="1"></path></g><path d="M112,77c-2.20914,0 -4,-1.79086 -4,-4v0c0,-2.20914 1.79086,-4 4,-4h29c2.20914,0 4,1.79086 4,4v0c0,2.20914 -1.79086,4 -4,4z" fill="url(#LinearGradient3735)"></path></g><g><title>Rectangle 5202</title><g filter="url(#Filter3751)"><path d="M112,91c-2.20914,0 -4,-1.79086 -4,-4v0c0,-2.20914 1.79086,-4 4,-4h15c2.20914,0 4,1.79086 4,4v0c0,2.20914 -1.79086,4 -4,4z" fill="none" stroke-opacity="1" stroke-width="0" mask="url(&quot;#Mask3747&quot;)"></path><path d="M112,91c-2.20914,0 -4,-1.79086 -4,-4v0c0,-2.20914 1.79086,-4 4,-4h15c2.20914,0 4,1.79086 4,4v0c0,2.20914 -1.79086,4 -4,4z" fill="#ffffff" fill-opacity="1"></path></g><path d="M112,91c-2.20914,0 -4,-1.79086 -4,-4v0c0,-2.20914 1.79086,-4 4,-4h15c2.20914,0 4,1.79086 4,4v0c0,2.20914 -1.79086,4 -4,4z" fill="url(#LinearGradient3754)"></path></g><g><title>Rectangle 5203</title><g filter="url(#Filter3770)"><path d="M134,150c-2.20914,0 -4,-1.79086 -4,-4v0c0,-2.20914 1.79086,-4 4,-4h16c2.20914,0 4,1.79086 4,4v0c0,2.20914 -1.79086,4 -4,4z" fill="none" stroke-opacity="1" stroke-width="0" mask="url(&quot;#Mask3766&quot;)"></path><path d="M134,150c-2.20914,0 -4,-1.79086 -4,-4v0c0,-2.20914 1.79086,-4 4,-4h16c2.20914,0 4,1.79086 4,4v0c0,2.20914 -1.79086,4 -4,4z" fill="#ffffff" fill-opacity="1"></path></g><path d="M134,150c-2.20914,0 -4,-1.79086 -4,-4v0c0,-2.20914 1.79086,-4 4,-4h16c2.20914,0 4,1.79086 4,4v0c0,2.20914 -1.79086,4 -4,4z" fill="url(#LinearGradient3773)"></path></g><g><title>Path 6453</title><g filter="url(#Filter3789)"><path d="M112.00018,146.0004c0,1.10001 -0.44995,2.10001 -1.16998,2.82999c-0.72998,0.72 -1.72998,1.17001 -2.83002,1.17001h-8v0v-8v0h8c2.20001,0 4,1.79999 4,4z" fill="none" stroke-opacity="0.3" stroke-width="0" mask="url(&quot;#Mask3785&quot;)"></path><path d="M112.00018,146.0004c0,1.10001 -0.44995,2.10001 -1.16998,2.82999c-0.72998,0.72 -1.72998,1.17001 -2.83002,1.17001h-8v0v-8v0h8c2.20001,0 4,1.79999 4,4z" fill="#ffffff" fill-opacity="0.3"></path></g><path d="M112.00018,146.0004c0,1.10001 -0.44995,2.10001 -1.16998,2.82999c-0.72998,0.72 -1.72998,1.17001 -2.83002,1.17001h-8v0v-8v0h8c2.20001,0 4,1.79999 4,4z" fill="url(#LinearGradient3792)"></path></g></g></g></svg>