<?xml version="1.0" encoding="UTF-8"?>
<svg id="SVGDoc" width="200" height="200" xmlns="http://www.w3.org/2000/svg" version="1.1" xmlns:xlink="http://www.w3.org/1999/xlink" xmlns:avocode="https://avocode.com/" viewBox="0 0 200 200"><defs><mask id="Mask2725" x="-1" y="-1" width="2" height="2"><rect width="126" height="126" x="37" y="37" fill="#ffffff"></rect><path d="M47,163c-5.52285,0 -10,-4.47715 -10,-10v-106c0,-5.52285 4.47715,-10 10,-10h106c5.52285,0 10,4.47715 10,10v106c0,5.52285 -4.47715,10 -10,10z" fill="#000000"></path></mask><filter id="Filter2729" width="198" height="198" x="7" y="7" filterUnits="userSpaceOnUse"><feOffset dx="12" dy="12" result="FeOffset2730Out" in="SourceGraphic"></feOffset><feGaussianBlur stdDeviation="8 8" result="FeGaussianBlur2731Out" in="FeOffset2730Out"></feGaussianBlur></filter><linearGradient id="LinearGradient2732" gradientUnits="userSpaceOnUse" x1="100" y1="37" x2="100" y2="163"><stop stop-opacity="1" stop-color="#fafdff" offset="0"></stop><stop stop-opacity="1" stop-color="#f2f9ff" offset="1"></stop></linearGradient><clipPath id="ClipPath2738"><path d="M47,163c-5.52285,0 -10,-4.47715 -10,-10v-106c0,-5.52285 4.47715,-10 10,-10h106c5.52285,0 10,4.47715 10,10v106c0,5.52285 -4.47715,10 -10,10z" fill="#ffffff"></path></clipPath><linearGradient id="LinearGradient2840" gradientUnits="userSpaceOnUse" x1="77.28999999999996" y1="83.10000000000036" x2="77.28999999999996" y2="110.71000000000004"><stop stop-opacity="1" stop-color="#30b555" offset="0"></stop><stop stop-opacity="1" stop-color="#64c67f" offset="1"></stop></linearGradient><linearGradient id="LinearGradient2848" gradientUnits="userSpaceOnUse" x1="97.78999999999996" y1="104.78999999999996" x2="97.78999999999996" y2="145.21000000000004"><stop stop-opacity="1" stop-color="#54b8ea" offset="0"></stop><stop stop-opacity="1" stop-color="#3fafe5" offset="0.4"></stop><stop stop-opacity="1" stop-color="#2ea1e2" offset="1"></stop></linearGradient><linearGradient id="LinearGradient2857" gradientUnits="userSpaceOnUse" x1="118.28999999999996" y1="91.68000000000029" x2="118.28999999999996" y2="119.28999999999996"><stop stop-opacity="1" stop-color="#54b8ea" offset="0"></stop><stop stop-opacity="1" stop-color="#3fafe5" offset="0.4"></stop><stop stop-opacity="1" stop-color="#2ea1e2" offset="1"></stop></linearGradient><linearGradient id="LinearGradient2866" gradientUnits="userSpaceOnUse" x1="63.289999999999964" y1="97.10000000000036" x2="63.289999999999964" y2="124.71000000000004"><stop stop-opacity="1" stop-color="#e82b0d" offset="0"></stop><stop stop-opacity="1" stop-color="#fb4c31" offset="0.4"></stop><stop stop-opacity="1" stop-color="#fb4c32" offset="1"></stop></linearGradient><linearGradient id="LinearGradient2875" gradientUnits="userSpaceOnUse" x1="128.78999999999996" y1="72.85000000000036" x2="128.78999999999996" y2="93.55000000000018"><stop stop-opacity="1" stop-color="#e82b0d" offset="0"></stop><stop stop-opacity="1" stop-color="#fb4c31" offset="0.4"></stop><stop stop-opacity="1" stop-color="#fb4c32" offset="1"></stop></linearGradient><mask id="Mask2930" x="-1" y="-1" width="2" height="2"><rect width="37" height="8" x="52" y="49" fill="#ffffff"></rect><path d="M56,57c-2.20914,0 -4,-1.79086 -4,-4v0c0,-2.20914 1.79086,-4 4,-4h29c2.20914,0 4,1.79086 4,4v0c0,2.20914 -1.79086,4 -4,4z" fill="#000000"></path></mask><filter id="Filter2934" width="63" height="34" x="40" y="37" filterUnits="userSpaceOnUse"><feOffset dx="2" dy="2" result="FeOffset2935Out" in="SourceGraphic"></feOffset><feGaussianBlur stdDeviation="0.8 0.8" result="FeGaussianBlur2936Out" in="FeOffset2935Out"></feGaussianBlur></filter><linearGradient id="LinearGradient2937" gradientUnits="userSpaceOnUse" x1="86.25999999999999" y1="49" x2="54.42000000000007" y2="49"><stop stop-opacity="1" stop-color="#d6e3ef" offset="0"></stop><stop stop-opacity="1" stop-color="#bed5eb" offset="1"></stop></linearGradient><mask id="Mask2949" x="-1" y="-1" width="2" height="2"><rect width="37" height="8" x="52" y="49" fill="#ffffff"></rect><path d="M56,57c-2.20914,0 -4,-1.79086 -4,-4v0c0,-2.20914 1.79086,-4 4,-4h29c2.20914,0 4,1.79086 4,4v0c0,2.20914 -1.79086,4 -4,4z" fill="#000000"></path></mask><filter id="Filter2953" width="63" height="34" x="38" y="35" filterUnits="userSpaceOnUse"><feOffset dx="-2" dy="-2" result="FeOffset2954Out" in="SourceGraphic"></feOffset><feGaussianBlur stdDeviation="0.8 0.8" result="FeGaussianBlur2955Out" in="FeOffset2954Out"></feGaussianBlur></filter><linearGradient id="LinearGradient2956" gradientUnits="userSpaceOnUse" x1="87.52999999999997" y1="58.3100000000004" x2="25.079999999999927" y2="52.100000000000364"><stop stop-opacity="1" stop-color="#d6e7f7" offset="0"></stop><stop stop-opacity="1" stop-color="#c4dbf0" offset="1"></stop></linearGradient></defs><desc>Generated with Avocode.</desc><g><g><title>Group 6215</title><g><title>Rectangle 414</title><path d="M10,200c-5.52285,0 -10,-4.47715 -10,-10v-180c0,-5.52285 4.47715,-10 10,-10h180c5.52285,0 10,4.47715 10,10v180c0,5.52285 -4.47715,10 -10,10z" fill="#e8eff7" fill-opacity="1"></path></g><g><title>Rectangle 668</title><g filter="url(#Filter2729)"><path d="M47,163c-5.52285,0 -10,-4.47715 -10,-10v-106c0,-5.52285 4.47715,-10 10,-10h106c5.52285,0 10,4.47715 10,10v106c0,5.52285 -4.47715,10 -10,10z" fill="none" stroke-opacity="0.16" stroke-width="0" mask="url(&quot;#Mask2725&quot;)"></path><path d="M47,163c-5.52285,0 -10,-4.47715 -10,-10v-106c0,-5.52285 4.47715,-10 10,-10h106c5.52285,0 10,4.47715 10,10v106c0,5.52285 -4.47715,10 -10,10z" fill="#3d495c" fill-opacity="0.16"></path></g><path d="M47,163c-5.52285,0 -10,-4.47715 -10,-10v-106c0,-5.52285 4.47715,-10 10,-10h106c5.52285,0 10,4.47715 10,10v106c0,5.52285 -4.47715,10 -10,10z" fill="url(#LinearGradient2732)"></path><path d="M47,163c-5.52285,0 -10,-4.47715 -10,-10v-106c0,-5.52285 4.47715,-10 10,-10h106c5.52285,0 10,4.47715 10,10v106c0,5.52285 -4.47715,10 -10,10z" fill-opacity="0" fill="#ffffff" stroke-dashoffset="0" stroke-linejoin="miter" stroke-linecap="butt" stroke-opacity="0.04" stroke="#aebaeb" stroke-miterlimit="20" stroke-width="16" clip-path="url(&quot;#ClipPath2738&quot;)"></path></g><g opacity="0.5"><title>Rectangle 5936</title><path d="M52,136v0v-70v0h97v0v70v0z" fill="#ebf2fb" fill-opacity="1"></path></g><g><title>Rectangle 5954</title><path d="M52,136v0v-70v0h14v0v70v0z" fill="#e5eefa" fill-opacity="1"></path></g><g><title>Rectangle 5955</title><path d="M80,136v0v-70v0h14v0v70v0z" fill="#e5eefa" fill-opacity="1"></path></g><g><title>Rectangle 5956</title><path d="M107,136v0v-70v0h14v0v70v0z" fill="#e5eefa" fill-opacity="1"></path></g><g><title>Rectangle 5957</title><path d="M135,136v0v-70v0h14v0v70v0z" fill="#e5eefa" fill-opacity="1"></path></g><g opacity="0.4"><title>Line 570</title><path d="M66,66.16797v70" fill-opacity="0" fill="#ffffff" stroke-dashoffset="0" stroke-linejoin="miter" stroke-linecap="round" stroke-opacity="1" stroke="#cfd9e5" stroke-miterlimit="20" stroke-width="1"></path></g><g opacity="0.4"><title>Line 571</title><path d="M94,66.16797v70" fill-opacity="0" fill="#ffffff" stroke-dashoffset="0" stroke-linejoin="miter" stroke-linecap="round" stroke-opacity="1" stroke="#cfd9e5" stroke-miterlimit="20" stroke-width="1"></path></g><g opacity="0.4"><title>Line 572</title><path d="M121,66.16797v70" fill-opacity="0" fill="#ffffff" stroke-dashoffset="0" stroke-linejoin="miter" stroke-linecap="round" stroke-opacity="1" stroke="#cfd9e5" stroke-miterlimit="20" stroke-width="1"></path></g><g opacity="0.4"><title>Line 573</title><path d="M135,66.16797v70" fill-opacity="0" fill="#ffffff" stroke-dashoffset="0" stroke-linejoin="miter" stroke-linecap="round" stroke-opacity="1" stroke="#cfd9e5" stroke-miterlimit="20" stroke-width="1"></path></g><g><title>Line 578</title><path d="M148.5,136.16797h-96" fill-opacity="0" fill="#ffffff" stroke-dashoffset="0" stroke-linejoin="miter" stroke-linecap="round" stroke-opacity="1" stroke="#cfd9e5" stroke-miterlimit="20" stroke-width="1"></path></g><g opacity="0.4"><title>Line 605</title><path d="M148.5,122.16797h-96" fill-opacity="0" fill="#ffffff" stroke-dashoffset="0" stroke-linejoin="miter" stroke-linecap="round" stroke-opacity="1" stroke="#cfd9e5" stroke-miterlimit="20" stroke-width="1"></path></g><g opacity="0.4"><title>Line 606</title><path d="M148.5,108.16797h-96" fill-opacity="0" fill="#ffffff" stroke-dashoffset="0" stroke-linejoin="miter" stroke-linecap="round" stroke-opacity="1" stroke="#cfd9e5" stroke-miterlimit="20" stroke-width="1"></path></g><g opacity="0.4"><title>Line 607</title><path d="M148.5,94.16797h-96" fill-opacity="0" fill="#ffffff" stroke-dashoffset="0" stroke-linejoin="miter" stroke-linecap="round" stroke-opacity="1" stroke="#cfd9e5" stroke-miterlimit="20" stroke-width="1"></path></g><g opacity="0.4"><title>Line 608</title><path d="M148.5,80.16797h-96" fill-opacity="0" fill="#ffffff" stroke-dashoffset="0" stroke-linejoin="miter" stroke-linecap="round" stroke-opacity="1" stroke="#cfd9e5" stroke-miterlimit="20" stroke-width="1"></path></g><g><title>Group 6209</title><g><title>Line 609</title><path d="M148.5,49.93945h-9.00244" fill-opacity="0" fill="#ffffff" stroke-dashoffset="0" stroke-linejoin="miter" stroke-linecap="round" stroke-opacity="1" stroke="#d1e3f5" stroke-miterlimit="20" stroke-width="1.2000000476837158"></path></g><g><title>Line 610</title><path d="M148.5,56.06055h-9.00244" fill-opacity="0" fill="#ffffff" stroke-dashoffset="0" stroke-linejoin="miter" stroke-linecap="round" stroke-opacity="1" stroke="#d1e3f5" stroke-miterlimit="20" stroke-width="1.2000000476837158"></path></g><g><title>Line 611</title><path d="M148.5,53.00049h-9.00244" fill-opacity="0" fill="#ffffff" stroke-dashoffset="0" stroke-linejoin="miter" stroke-linecap="round" stroke-opacity="1" stroke="#d1e3f5" stroke-miterlimit="20" stroke-width="1.2000000476837158"></path></g></g><g><title>Line 575</title><path d="M107,66.16797v70" fill-opacity="0" fill="#ffffff" stroke-dashoffset="0" stroke-linejoin="miter" stroke-linecap="round" stroke-opacity="1" stroke="#254b88" stroke-miterlimit="20" stroke-width="1"></path></g><g opacity="0.4"><title>Line 576</title><path d="M80,66.16797v70" fill-opacity="0" fill="#ffffff" stroke-dashoffset="0" stroke-linejoin="miter" stroke-linecap="round" stroke-opacity="1" stroke="#cfd9e5" stroke-miterlimit="20" stroke-width="1"></path></g><g transform="rotate(90 80 96.71000000000004)"><title>Rectangle 5931</title><path d="M79.29,110.71001c-1.10457,0 -2,-0.89543 -2,-2v-24.00024c0,-1.10457 0.89543,-2 2,-2h1.41977c1.10457,0 2,0.89543 2,2v24.00024c0,1.10457 -0.89543,2 -2,2z" fill="url(#LinearGradient2840)"></path></g><g transform="rotate(90 100.5 124.71000000000004)"><title>Rectangle 5932</title><path d="M99.79012,145.20989c-1.10457,0 -2,-0.89543 -2,-2v-37c0,-1.10457 0.89543,-2 2,-2h1.41977c1.10457,0 2,0.89543 2,2v37c0,1.10457 -0.89543,2 -2,2z" fill="url(#LinearGradient2848)"></path></g><g transform="rotate(90 121 105.28999999999996)"><title>Rectangle 5934</title><path d="M120.28975,119.28984c-1.10457,0 -2,-0.89543 -2,-2v-23.99976c0,-1.10457 0.89543,-2 2,-2h1.41977c1.10457,0 2,0.89543 2,2v23.99976c0,1.10457 -0.89543,2 -2,2z" fill="url(#LinearGradient2857)"></path></g><g transform="rotate(90 66 110.71000000000004)"><title>Rectangle 5930</title><path d="M65.29034,124.70966c-1.10457,0 -2,-0.89543 -2,-2v-23.99955c0,-1.10457 0.89543,-2 2,-2h1.41977c1.10457,0 2,0.89543 2,2v23.99955c0,1.10457 -0.89543,2 -2,2z" fill="url(#LinearGradient2866)"></path></g><g transform="rotate(90 131.5 83.05000000000018)"><title>Rectangle 5933</title><path d="M130.78973,93.54523c-1.10457,0 -2,-0.89543 -2,-2v-16.99882c0,-1.10457 0.89543,-2 2,-2h1.41977c1.10457,0 2,0.89543 2,2v16.99882c0,1.10457 -0.89543,2 -2,2z" fill="url(#LinearGradient2875)"></path></g><g><title>Ellipse 725</title><path d="M50,142c0,-1.10457 0.89543,-2 2,-2c1.10457,0 2,0.89543 2,2c0,1.10457 -0.89543,2 -2,2c-1.10457,0 -2,-0.89543 -2,-2z" fill="#cce1f3" fill-opacity="1"></path></g><g><title>Ellipse 726</title><path d="M64,142c0,-1.10457 0.89543,-2 2,-2c1.10457,0 2,0.89543 2,2c0,1.10457 -0.89543,2 -2,2c-1.10457,0 -2,-0.89543 -2,-2z" fill="#cce1f3" fill-opacity="1"></path></g><g><title>Ellipse 727</title><path d="M78,142c0,-1.10457 0.89543,-2 2,-2c1.10457,0 2,0.89543 2,2c0,1.10457 -0.89543,2 -2,2c-1.10457,0 -2,-0.89543 -2,-2z" fill="#cce1f3" fill-opacity="1"></path></g><g><title>Ellipse 728</title><path d="M92,142c0,-1.10457 0.89543,-2 2,-2c1.10457,0 2,0.89543 2,2c0,1.10457 -0.89543,2 -2,2c-1.10457,0 -2,-0.89543 -2,-2z" fill="#cce1f3" fill-opacity="1"></path></g><g><title>Ellipse 729</title><path d="M105,142c0,-1.10457 0.89543,-2 2,-2c1.10457,0 2,0.89543 2,2c0,1.10457 -0.89543,2 -2,2c-1.10457,0 -2,-0.89543 -2,-2z" fill="#254b88" fill-opacity="1"></path></g><g><title>Ellipse 730</title><path d="M119,142c0,-1.10457 0.89543,-2 2,-2c1.10457,0 2,0.89543 2,2c0,1.10457 -0.89543,2 -2,2c-1.10457,0 -2,-0.89543 -2,-2z" fill="#cce1f3" fill-opacity="1"></path></g><g><title>Ellipse 731</title><path d="M133,142c0,-1.10457 0.89543,-2 2,-2c1.10457,0 2,0.89543 2,2c0,1.10457 -0.89543,2 -2,2c-1.10457,0 -2,-0.89543 -2,-2z" fill="#cce1f3" fill-opacity="1"></path></g><g><title>Ellipse 732</title><path d="M147,142c0,-1.10457 0.89543,-2 2,-2c1.10457,0 2,0.89543 2,2c0,1.10457 -0.89543,2 -2,2c-1.10457,0 -2,-0.89543 -2,-2z" fill="#cce1f3" fill-opacity="1"></path></g><g><title>Group 6212</title><g><title>Rectangle 5952</title><g filter="url(#Filter2934)"><path d="M56,57c-2.20914,0 -4,-1.79086 -4,-4v0c0,-2.20914 1.79086,-4 4,-4h29c2.20914,0 4,1.79086 4,4v0c0,2.20914 -1.79086,4 -4,4z" fill="none" stroke-opacity="0.16" stroke-width="0" mask="url(&quot;#Mask2930&quot;)"></path><path d="M56,57c-2.20914,0 -4,-1.79086 -4,-4v0c0,-2.20914 1.79086,-4 4,-4h29c2.20914,0 4,1.79086 4,4v0c0,2.20914 -1.79086,4 -4,4z" fill="#a1b6d6" fill-opacity="0.16"></path></g><path d="M56,57c-2.20914,0 -4,-1.79086 -4,-4v0c0,-2.20914 1.79086,-4 4,-4h29c2.20914,0 4,1.79086 4,4v0c0,2.20914 -1.79086,4 -4,4z" fill="url(#LinearGradient2937)"></path></g><g><title>Rectangle 5953</title><g filter="url(#Filter2953)"><path d="M56,57c-2.20914,0 -4,-1.79086 -4,-4v0c0,-2.20914 1.79086,-4 4,-4h29c2.20914,0 4,1.79086 4,4v0c0,2.20914 -1.79086,4 -4,4z" fill="none" stroke-opacity="1" stroke-width="0" mask="url(&quot;#Mask2949&quot;)"></path><path d="M56,57c-2.20914,0 -4,-1.79086 -4,-4v0c0,-2.20914 1.79086,-4 4,-4h29c2.20914,0 4,1.79086 4,4v0c0,2.20914 -1.79086,4 -4,4z" fill="#ffffff" fill-opacity="1"></path></g><path d="M56,57c-2.20914,0 -4,-1.79086 -4,-4v0c0,-2.20914 1.79086,-4 4,-4h29c2.20914,0 4,1.79086 4,4v0c0,2.20914 -1.79086,4 -4,4z" fill="url(#LinearGradient2956)"></path></g></g></g></g></svg>