<svg xmlns="http://www.w3.org/2000/svg" xmlns:xlink="http://www.w3.org/1999/xlink"><defs><style>
    .sprite-symbol-usage {display: none;}
    .sprite-symbol-usage:target {display: inline;}
  </style><symbol viewBox="0 0 22 22" id="arrow"><path d="M0 16.5h5.5V22H0Z" fill="#fb3b1e" /><path d="M5.5 11H11v5.5H5.5Z" fill="#fb6049" /><path d="M11 5.5h5.5V11H11Z" fill="#fc9c8e" /><path d="M11 0h5.5v5.5H11ZM5.5 0H11v5.5H5.5Z" fill="#fb4e33" /><path d="M16.5 0H22v5.5h-5.5Z" fill="#fb3b1e" /><path d="M16.5 5.5H22V11h-5.5ZM16.5 11H22v5.5h-5.5Z" fill="#fb4e33" /></symbol><symbol viewBox="0 0 180 330" id="arrow_left"><path d="m4.39 175.61 150 150a15 15 0 0 0 21.22-21.22L36.21 165l139.4-139.39a15 15 0 0 0-21.22-21.22l-150 150a15 15 0 0 0 0 21.21Z" /></symbol><symbol viewBox="0 0 180 330" id="arrow_right"><path d="m175.61 154.39-150-150A15 15 0 0 0 4.39 25.61L143.79 165 4.39 304.39a15 15 0 0 0 21.22 21.22l150-150a15 15 0 0 0 0-21.21Z" /></symbol><symbol viewBox="0 0 78 78" id="at"><path fill="#fe3b1f" d="M54 48h6v6h-6zM54 54h6v6h-6zM18 30h6v6h-6zM18 36h6v6h-6zM18 42h6v6h-6zM24 24h6v6h-6zM24 48h6v6h-6zM30 18h6v6h-6zM30 54h6v6h-6zM36 18h6v6h-6zM36 54h6v6h-6zM42 18h6v6h-6zM42 54h6v6h-6zM48 24h6v6h-6zM54 30h6v6h-6zM54 36h6v6h-6z" /><path fill="#fff" d="M36 36h6v6h-6z" /><path fill="#fe3b1f" d="M54 42h6v6h-6z" /><path fill="#1da0df" d="M0 24h6v6H0zM0 18h6v6H0zM0 30h6v6H0zM0 36h6v6H0zM0 42h6v6H0zM0 48h6v6H0zM0 54h6v6H0zM72 24h6v6h-6zM72 18h6v6h-6zM72 30h6v6h-6zM72 36h6v6h-6zM72 42h6v6h-6zM72 48h6v6h-6zM66 54h6v6h-6zM60 54h6v6h-6zM54 72h6v6h-6zM60 6h6v6h-6zM66 12h6v6h-6zM12 6h6v6h-6zM6 12h6v6H6zM12 66h6v6h-6zM6 60h6v6H6zM24 0h6v6h-6zM18 0h6v6h-6zM30 0h6v6h-6zM36 0h6v6h-6zM42 0h6v6h-6zM48 0h6v6h-6zM54 0h6v6h-6zM24 72h6v6h-6zM18 72h6v6h-6zM30 72h6v6h-6zM36 72h6v6h-6zM42 72h6v6h-6zM48 72h6v6h-6z" /></symbol><symbol viewBox="0 0 28.071 28" id="bell"><path fill="#fb4e33" d="M5.614 5.6h5.614v5.6H5.614z" /><path fill="#fe3b1f" d="M11.228 0h5.614v5.6h-5.614z" /><path fill="#e51f1f" d="M16.842 5.6h5.614v5.6h-5.614z" /><path fill="#fe3b1f" d="M16.842 11.2h5.614v5.6h-5.614z" /><path d="M5.614 11.2h5.614v5.6H5.614Z" fill="#fa271b" /><path d="M0 16.8h5.614v5.6H0Z" fill="#e51f1f" /><path fill="#ff2707" d="M22.457 16.8h5.614v5.6h-5.614z" /><path fill="#fb4e33" d="M11.228 16.8h5.614v5.6h-5.614z" /><path fill="#fe3b1f" d="M5.614 16.8h5.614v5.6H5.614z" /><path fill="#e51f1f" d="M16.842 16.8h5.614v5.6h-5.614zM11.228 11.2h5.614v5.6h-5.614z" /><path fill="#fe3b1f" d="M11.228 5.6h5.614v5.6h-5.614z" /><path fill="#1fa5e1" d="M11.228 22.4h5.614V28h-5.614z" /></symbol><symbol viewBox="0 0 114 72" id="bike"><path fill="#1da0df" d="M0 36h6v6H0zM0 42h6v6H0zM0 48h6v6H0zM6 30h6v6H6zM36 30h6v6h-6zM6 60h6v6H6zM0 54h6v6H0zM42 42h6v6h-6zM42 48h6v6h-6zM42 54h6v6h-6zM12 24h6v6h-6zM12 66h6v6h-6zM18 66h6v6h-6zM24 24h6v6h-6zM24 66h6v6h-6zM30 66h6v6h-6zM36 60h6v6h-6zM66 42h6v6h-6zM66 48h6v6h-6zM102 30h6v6h-6zM72 60h6v6h-6zM66 54h6v6h-6zM108 36h6v6h-6zM108 42h6v6h-6zM108 48h6v6h-6zM108 54h6v6h-6zM78 24h6v6h-6zM84 24h6v6h-6zM96 24h6v6h-6zM78 66h6v6h-6zM84 66h6v6h-6zM90 24h6v6h-6zM90 66h6v6h-6zM96 66h6v6h-6zM102 60h6v6h-6z" /><path fill="#fb3b1e" d="M42 30h6v6h-6zM48 30h6v6h-6z" /><path fill="#00b451" d="M66 30h6v6h-6z" /><path fill="#fb3b1e" d="M24 24h6v6h-6zM24 30h6v6h-6zM30 30h6v6h-6z" /><path fill="#00b451" d="M60 24h6v6h-6z" /><path fill="#fb3b1e" d="M36 30h6v6h-6z" /><path fill="#00b451" d="M54 18h6v6h-6zM48 12h6v6h-6z" /><path fill="#fb3b1e" d="M30 18h6v6h-6zM36 12h6v6h-6z" /><path fill="#00b451" d="M42 6h6v6h-6zM36 0h6v6h-6z" /><path fill="#fb3b1e" d="M60 0h6v6h-6zM54 0h6v6h-6zM78 0h6v6h-6zM72 0h6v6h-6zM66 0h6v6h-6zM78 6h6v6h-6zM72 12h6v6h-6zM66 18h6v6h-6z" /><path fill="#fff" d="M87 45h6v6h-6zM21 45h6v6h-6z" /></symbol><symbol viewBox="0 0 18.6 18.6" id="check"><g fill="none" stroke="#3db256" stroke-miterlimit="10" stroke-width="1.6"><path d="M5.15 8.12 9.3 11.4l7.41-8.35" /><path d="M17.48 7a8.73 8.73 0 0 1 .32 2.3 8.51 8.51 0 1 1-4.31-7.39" /></g></symbol><symbol viewBox="0 0 100 100" id="clock"><g data-name="Сгруппировать 6262" fill="#fff"><path data-name="Прямоугольник 5991" d="M5.463 74.634H0v-5.463h5.463z" /><path data-name="Прямоугольник 5996" d="M5.463 58.244H0v-5.463h5.463z" /><path data-name="Прямоугольник 5999" d="M5.463 41.854H0v-5.463h5.463z" /><path data-name="Прямоугольник 5992" d="M5.463 69.17H0v-5.463h5.463z" /><path data-name="Прямоугольник 5995" d="M5.463 52.78H0v-5.463h5.463z" /><path data-name="Прямоугольник 5993" d="M5.463 63.707H0v-5.463h5.463z" /><path data-name="Прямоугольник 5994" d="M5.463 47.317H0v-5.463h5.463z" /><path data-name="Прямоугольник 5996" d="M60.097 58.244h-5.463v-5.463h5.463z" /><path data-name="Прямоугольник 6003" opacity=".8" d="M38.243 58.244H32.78v-5.463h5.463z" /><path data-name="Прямоугольник 6004" opacity=".6" d="M43.707 63.707h-5.463v-5.463h5.463z" /><path data-name="Прямоугольник 5999" d="M60.097 41.854h-5.463v-5.463h5.463z" /><path data-name="Прямоугольник 6002" d="M32.78 41.854h-5.463v-5.463h5.463z" /><path data-name="Прямоугольник 5995" d="M60.097 52.78h-5.463v-5.463h5.463z" /><path data-name="Прямоугольник 6000" d="M32.78 52.78h-5.463v-5.463h5.463z" /><path data-name="Прямоугольник 5998" d="M60.097 36.39h-5.463v-5.463h5.463z" /><path data-name="Прямоугольник 5993" d="M60.097 63.707h-5.463v-5.463h5.463z" /><path data-name="Прямоугольник 5994" d="M60.097 47.317h-5.463v-5.463h5.463z" /><path data-name="Прямоугольник 6001" d="M32.78 47.317h-5.463v-5.463h5.463z" /><path data-name="Прямоугольник 5997" d="M60.097 30.927h-5.463v-5.463h5.463z" /><g data-name="Сгруппировать 6259"><path data-name="Прямоугольник 5996" d="M21.853 25.463V20h5.463v5.463z" /><path data-name="Прямоугольник 5999" d="M38.243 25.463V20h5.463v5.463z" /><path data-name="Прямоугольник 5995" d="M27.317 25.463V20h5.463v5.463z" /><path data-name="Прямоугольник 5998" d="M43.707 25.463V20h5.463v5.463z" /><path data-name="Прямоугольник 5993" d="M16.39 25.463V20h5.463v5.463z" /><path data-name="Прямоугольник 5994" d="M32.78 25.463V20h5.463v5.463z" /><path data-name="Прямоугольник 5997" d="M49.17 25.463V20h5.463v5.463z" /></g><g data-name="Сгруппировать 6260"><path data-name="Прямоугольник 5991" d="M5.463 80.097v-5.463h5.463v5.463z" /><path data-name="Прямоугольник 5996" d="M21.853 80.097v-5.463h5.463v5.463z" /><path data-name="Прямоугольник 5999" d="M38.243 80.097v-5.463h5.463v5.463z" /><path data-name="Прямоугольник 5992" d="M10.927 80.097v-5.463h5.463v5.463z" /><path data-name="Прямоугольник 5995" d="M27.317 80.097v-5.463h5.463v5.463z" /><path data-name="Прямоугольник 5993" d="M16.39 80.097v-5.463h5.463v5.463z" /><path data-name="Прямоугольник 5994" d="M32.78 80.097v-5.463h5.463v5.463z" /></g></g></symbol><symbol viewBox="0 0 17.83 17.83" id="close"><path d="m8.92 8.91-7.5 7.5 7.5-7.5-7.5-7.5 7.5 7.5 7.5-7.5-7.5 7.5 7.5 7.5ZM17.83 15l-6.09-6.09 6.09-6.08L15 0 8.92 6.08 2.83 0 0 2.83l6.09 6.08L0 15l2.83 2.83 6.09-6.09L15 17.83Z" /></symbol><symbol viewBox="0 0 89.99 78" id="cloud"><path fill="#fb3b1e" d="M24 30h6v6h-6z" /><path fill="#00b451" d="M42 30h6v6h-6z" /><path fill="#1da0df" d="M60 30h6v6h-6zM6 6h6v6H6zM6 54h6v6H6zM12 0h6v6h-6zM24 0h6v6h-6zM12 60h6v6h-6zM24 60h6v6h-6zM18 0h6v6h-6zM18 60h6v6h-6zM30 0h6v6h-6zM36 0h6v6h-6zM42 0h6v6h-6zM48 0h6v6h-6zM54 0h6v6h-6zM30 60h6v6h-6zM36 60h6v6h-6zM42 60h6v6h-6zM77.99 6h6v6h-6zM0 12h6v6H0zM0 24h6v6H0zM0 30h6v6H0zM0 36h6v6H0zM0 42h6v6H0zM0 18h6v6H0zM0 48h6v6H0zM77.99 54h6v6h-6zM83.99 12h6v6h-6zM83.99 24h6v6h-6zM83.99 18h6v6h-6zM83.99 30h6v6h-6zM83.99 36h6v6h-6zM83.99 42h6v6h-6zM83.99 48h6v6h-6zM71.99 0h6v6h-6zM65.99 0h6v6h-6z" /><path fill="#1da0df" d="M60 0h6v6h-6zM71.99 60h6v6h-6zM65.99 60h6v6h-6zM60 66h6v6h-6zM54 72h6v6h-6z" /></symbol><symbol viewBox="0 0 17.83 17.83" id="cookie-close"><path d="m8.92 8.91-7.5 7.5 7.5-7.5-7.5-7.5 7.5 7.5 7.5-7.5-7.5 7.5 7.5 7.5ZM17.83 15l-6.09-6.09 6.09-6.08L15 0 8.92 6.08 2.83 0 0 2.83l6.09 6.08L0 15l2.83 2.83 6.09-6.09L15 17.83Z" /></symbol><symbol viewBox="0 0 78 84" id="cup"><path fill="#1da0df" d="M0 36h6v6H0zM0 30h6v6H0zM0 24h6v6H0zM0 42h6v6H0zM0 48h6v6H0zM0 54h6v6H0zM0 60h6v6H0zM6 72h6v6H6zM12 24h6v6h-6zM6 24h6v6H6zM12 78h6v6h-6zM18 24h6v6h-6zM18 78h6v6h-6zM24 24h6v6h-6zM24 78h6v6h-6zM30 24h6v6h-6zM30 78h6v6h-6zM36 24h6v6h-6zM42 24h6v6h-6zM48 24h6v6h-6zM36 78h6v6h-6zM42 78h6v6h-6zM54 36h6v6h-6z" /><path fill="#fff" d="M36 42h6v6h-6zM36 48h6v6h-6z" /><path fill="#1da0df" d="M54 30h6v6h-6zM54 24h6v6h-6z" /><path fill="#fb3b1e" d="M24 6h6v6h-6z" /><path fill="#00b451" d="M36 3h6v6h-6z" /><path fill="#1da0df" d="M48 0h6v6h-6zM54 42h6v6h-6zM54 48h6v6h-6zM54 54h6v6h-6zM66 36h6v6h-6zM66 54h6v6h-6zM72 48h6v6h-6zM72 42h6v6h-6zM54 60h6v6h-6zM48 72h6v6h-6z" /></symbol><symbol viewBox="0 0 10 21" id="facebook"><path d="M6.69 20.35v-9.81H9.4l.35-3.38H6.69V5.47c0-.88.09-1.36 1.35-1.36h1.7V.73H7c-3.26 0-4.4 1.64-4.4 4.4v2h-2v3.38h2v9.81h4.09Z" /></symbol><symbol viewBox="0 0 96 66" id="faces"><path fill="#1da0df" d="M72 0h6v6h-6zM72 60h6v6h-6zM78 6h6v6h-6zM78 54h6v6h-6zM84 12h6v6h-6zM84 18h6v6h-6zM84 24h6v6h-6zM72 24h6v6h-6zM84 36h6v6h-6zM84 42h6v6h-6zM84 48h6v6h-6zM90 30h6v6h-6z" /><path fill="#00b451" d="M36 0h6v6h-6zM36 60h6v6h-6zM42 6h6v6h-6zM42 54h6v6h-6zM48 12h6v6h-6zM48 18h6v6h-6zM48 24h6v6h-6zM36 24h6v6h-6zM48 36h6v6h-6zM48 42h6v6h-6zM48 48h6v6h-6zM54 30h6v6h-6z" /><path fill="#fb3b1e" d="M0 0h6v6H0zM0 60h6v6H0zM6 6h6v6H6zM6 54h6v6H6zM12 12h6v6h-6zM12 18h6v6h-6zM12 24h6v6h-6zM0 24h6v6H0zM12 36h6v6h-6zM12 42h6v6h-6zM12 48h6v6h-6zM18 30h6v6h-6z" /></symbol><symbol viewBox="0 0 26 34" id="fire"><path fill="#f36200" d="M0 13h5v4H0zM0 17h5v4H0z" /><path fill="#fb4e33" d="M0 21h5v4H0zM0 25h5v5H0z" /><path fill="#ff8000" d="M5 13h4v4H5zM5 17h4v4H5zM5 21h4v4H5z" /><path fill="#fb4e33" d="M5 25h4v5H5z" /><path fill="#ff8000" d="M9 13h4v4H9z" /><path fill="#ffac27" d="M9 17h4v4H9z" /><path fill="#feff00" d="M9 21h4v4H9zM9 25h4v5H9z" /><path fill="#ffac27" d="M13 13h4v4h-4z" /><path fill="#feff00" d="M13 17h4v4h-4zM13 21h4v4h-4z" /><path fill="#ffac27" d="M13 25h4v5h-4z" /><path fill="#ff8000" d="M17 13h4v4h-4zM17 17h4v4h-4zM17 21h4v4h-4z" /><path fill="#ffac27" d="M17 25h4v5h-4z" /><path fill="#fe3b1f" d="M21 13h5v4h-5zM21 17h5v4h-5zM21 21h5v4h-5zM21 25h5v5h-5zM17 30h4v4h-4zM13 30h4v4h-4zM9 30h4v4H9z" /><path fill="#fb4e33" d="M5 30h4v4H5z" /><path fill="#f36200" d="M17 9h4v4h-4z" /><path fill="#ff8000" d="M13 9h4v4h-4zM9 9h4v4H9z" /><path fill="#f36200" d="M17 4h4v5h-4z" /><path fill="#ff8000" d="M13 4h4v5h-4z" /><path fill="#f36200" d="M9 4h4v5H9zM13 0h4v4h-4zM5 9h4v4H5z" /></symbol><symbol viewBox="0 0 38 33" id="heart"><path d="M16.28 32.56v-5.427h5.426v5.426z" fill="#fe3b1f" /><path d="M10.853 27.132v-5.426h5.426v5.426z" fill="#fe3b1f" /><path d="M5.426 21.706v-5.427h5.426v5.427z" fill="#fff" /><path d="M0 16.28v-5.426h5.426v5.426z" fill="#00a0df" /><path d="M0 10.853V5.427h5.426v5.426z" fill="#fff" /><path d="M5.426 5.426V0h5.426v5.426z" fill="#00a0df" /><path d="M10.853 5.426V0h5.426v5.426z" fill="#fe3b1f" /><g transform="rotate(-180 19.005 29.845)"><path d="M16.294 32.559v-5.427h5.427v5.427z" fill="#fe3b1f" /></g><g transform="rotate(-180 24.435 24.42)"><path d="M21.72 27.133v-5.427h5.426v5.427z" fill="#00b451" /></g><g transform="rotate(-180 29.86 18.995)"><path d="M27.147 21.706V16.28h5.426v5.426z" fill="#fe3b1f" /></g><g transform="rotate(-180 35.285 13.565)"><path d="M32.574 16.28v-5.427H38v5.426z" fill="#fff" /></g><g transform="rotate(-180 35.285 8.14)"><path d="M32.574 10.854V5.427H38v5.427z" fill="#00a0df" /></g><g transform="rotate(-180 29.86 2.715)"><path d="M27.147 5.427V0h5.426v5.427z" fill="#fe3b1f" /></g><g transform="rotate(-180 24.435 2.715)"><path d="M21.72 5.427V0h5.426v5.427z" fill="#00b451" /></g><path d="M16.28 10.853V5.427h5.426v5.426z" fill="#fe3b1f" /></symbol><symbol viewBox="0 0 24 36" id="lemon"><path fill="#edc70a" d="M0 12h4v4H0z" /><path fill="#ffda00" d="M4 8h4v4H4zM8 8h4v4H8z" /><path fill="#56bf19" d="M12 8h4v4h-4zM12 4h4v4h-4z" /><path fill="#68d216" d="M16 4h4v4h-4zM20 8h4v4h-4z" /><path fill="#56bf19" d="M16 8h4v4h-4zM8 4h4v4H8z" /><path fill="#68d216" d="M8 0h4v4H8z" /><path fill="#edc70a" d="M0 16h4v4H0zM0 20h4v4H0zM0 24h4v4H0z" /><path fill="#ffda00" d="M4 12h4v4H4zM4 16h4v4H4zM4 20h4v4H4zM4 24h4v4H4zM8 12h4v4H8zM8 16h4v4H8zM8 20h4v4H8zM8 24h4v4H8zM12 12h4v4h-4z" /><path fill="#fff" d="M12 16h4v4h-4z" /><path fill="#ffda00" d="M12 20h4v4h-4zM12 24h4v4h-4zM16 12h4v4h-4zM16 16h4v4h-4zM16 20h4v4h-4zM16 24h4v4h-4z" /><path fill="#edc70a" d="M4 28h4v4H4z" /><path fill="#ffda00" d="M8 28h4v4H8zM12 28h4v4h-4z" /><path fill="#edc70a" d="M8 32h4v4H8z" /></symbol><symbol viewBox="0 0 23.72 24.12" id="link"><path d="M16.16 15.12 8.58 7.56 16.15 0l7.56 7.56Zm-4.74-7.56 4.74 4.74 4.73-4.74-4.74-4.74ZM7.56 24.12 0 16.56 7.56 9l7.56 7.56Zm-4.74-7.56 4.74 4.74 4.74-4.74-4.74-4.74Z" /><path d="m6.815 15.706 8.712-8.712L16.94 8.41 8.229 17.12z" /></symbol><symbol viewBox="0 0 66 78" id="list"><path fill="#1da0df" d="M0 12h6v6H0zM0 18h6v6H0zM0 24h6v6H0zM0 30h6v6H0zM0 36h6v6H0zM0 42h6v6H0zM0 48h6v6H0z" /><path fill="#fff" d="M0 54h6v6H0z" /><path fill="#1da0df" d="M0 60h6v6H0zM6 66h6v6H6zM12 0h6v6h-6zM6 0h6v6H6zM12 72h6v6h-6zM18 0h6v6h-6z" /><path fill="#fff" d="M18 72h6v6h-6zM18 66h6v6h-6zM18 60h6v6h-6zM18 54h6v6h-6zM12 54h6v6h-6zM6 54h6v6H6z" /><path fill="#1da0df" d="M24 0h6v6h-6zM24 72h6v6h-6zM30 0h6v6h-6zM30 72h6v6h-6zM36 0h6v6h-6zM42 0h6v6h-6zM48 0h6v6h-6zM54 0h6v6h-6zM36 72h6v6h-6zM42 72h6v6h-6zM48 72h6v6h-6zM54 72h6v6h-6zM60 30h6v6h-6zM60 24h6v6h-6zM60 18h6v6h-6zM60 12h6v6h-6zM0 6h6v6H0zM60 6h6v6h-6zM60 0h6v6h-6zM60 36h6v6h-6zM60 42h6v6h-6zM60 48h6v6h-6zM60 54h6v6h-6zM60 60h6v6h-6zM60 66h6v6h-6z" /><path fill="#fe3b1f" d="M18 24h6v6h-6z" /><path fill="#2bb451" d="M18 36h6v6h-6z" /><path fill="#1da0df" d="M30 24h18v6H30zM30 36h18v6H30z" /></symbol><symbol viewBox="0 0 100 100" id="magic"><g data-name="Сгруппировать 5444"><path data-name="Прямоугольник 3443" fill="#fff" d="M5.449 68.699h5.45v5.45h-5.45z" /><path data-name="Прямоугольник 3444" fill="#fff" d="M-.001 74.149h5.45v5.45h-5.45z" /><path data-name="Прямоугольник 3445" fill="#fff" d="M10.899 63.249h5.45v5.45h-5.45z" /><path data-name="Прямоугольник 3446" fill="#fff" d="M16.349 57.799h5.45v5.45h-5.45z" /><path data-name="Прямоугольник 3447" fill="#fff" d="M21.799 52.349h5.45v5.45h-5.45z" /><path data-name="Прямоугольник 3448" fill="#cad4e6" d="M27.249 46.899h5.45v5.45h-5.45z" /><path data-name="Прямоугольник 3449" fill="#cad4e6" d="M32.699 41.449h5.45v5.45h-5.45z" /><path data-name="Прямоугольник 3450" fill="#2bb451" d="M47.149 26.999h5.45v5.45h-5.45z" /><path data-name="Прямоугольник 3451" fill="#1da0df" d="M47.149 45.449h5.45v5.45h-5.45z" /><path data-name="Прямоугольник 3452" fill="#fe3b1f" d="M28.699 26.999h5.45v5.45h-5.45z" /></g></symbol><symbol viewBox="0 0 51 52" id="mark_blue"><path fill="#1da0df" d="M10 12h9v9h-9zM19 12h12v9H19z" /><path d="M19.5 0h11.7v12H19.5Z" fill="#1d89e5" /><path fill="#48c4ff" d="M31 12h11v9H31zM10 21h9v11h-9z" /><path fill="#1da0df" d="M0 21h10v11H0z" /><path fill="#eef3f9" d="M19 21h12v11H19z" /><path fill="#1da0df" d="M31 21h11v11H31z" /><path fill="#1d89e5" d="M42 21h9v11h-9z" /><path fill="#48c4ff" d="M10 32h9v11h-9zM19 32h12v11H19z" /><path fill="#1da0df" d="M19 43h12v9H19z" /><path fill="#48c4fd" d="M31 32h11v11H31z" /></symbol><symbol viewBox="0 0 51 52" id="mark_red"><path fill="#ff2707" d="M11 11h9v10h-9z" /><path fill="#fb4e33" d="M20 11h11v10H20z" /><path fill="#ff2707" d="M20 0h11v11H20z" /><path fill="#e51f1f" d="M31 11h11v10H31z" /><path fill="#ff2707" d="M11 21h9v11h-9z" /><path fill="#fb4e33" d="M0 21h11v11H0z" /><path fill="#eef3f9" d="M20 21h11v11H20z" /><path fill="#ff2707" d="M31 21h11v11H31zM42 21h9v11h-9z" /><path fill="#e51f1f" d="M11 32h9v10h-9z" /><path fill="#ff2707" d="M20 32h11v10H20z" /><path fill="#fb4e33" d="M20 42h11v10H20z" /><path fill="#e51f1f" d="M31 32h11v10H31z" /></symbol><symbol viewBox="0 0 18.48 18.48" id="menu"><path d="M0 0h3.69v3.69H0Zm7.39 0h3.7v3.69h-3.7Zm7.39 0h3.7v3.69h-3.7ZM0 7.39h3.69v3.7H0Zm7.39 0h3.7v3.7h-3.7Zm7.39 0h3.7v3.7h-3.7ZM0 14.78h3.69v3.7H0Zm7.39 0h3.7v3.7h-3.7Zm7.39 0h3.7v3.7h-3.7Z" fill="currentColor" /></symbol><symbol viewBox="0 0 22 22" id="moon"><path d="M16.35 17.56a7.58 7.58 0 0 1 0-13.13 7.45 7.45 0 0 0-3.8-1 7.6 7.6 0 0 0 0 15.2 7.36 7.36 0 0 0 3.8-1" /></symbol><symbol viewBox="0 0 105.34 72.96" id="paperplane"><path d="m67.37 46.47 19.32 10.68L105.34 0ZM59.13 41.88 43.19 31.61 105.34 0Z" fill="#fff" /><path d="m60.62 58-1.49-16.12L104.93.14Z" fill="#d3dbde" /><path d="M68.84 47.23 60.62 58l14.8-7Z" fill="#92a4b1" /><path d="M36 69h4v4h-4Z" fill="#fff" opacity=".9" style="isolation:isolate" /><path d="M48 63h4v4h-4Z" fill="#fff" /><path d="M24 67h4v4h-4Z" fill="#fff" opacity=".8" style="isolation:isolate" /><path d="M12 61h4v4h-4Z" fill="#fff" opacity=".7" style="isolation:isolate" /><path d="M0 56h4v4H0Z" fill="#fff" opacity=".5" style="isolation:isolate" /></symbol><symbol viewBox="0 0 22 22" id="pixel_arrow"><path d="M0 22v-5.5h5.5V22z" fill="#fb3b1e" /><path d="M5.5 16.5V11H11v5.5z" fill="#fb6049" /><path d="M11 11V5.5h5.5V11z" fill="#fc9c8e" /><path d="M11 5.5V0h5.5v5.5z" fill="#fb4e33" /><path d="M5.5 5.5V0H11v5.5z" fill="#fb4e33" /><path d="M16.5 5.5V0H22v5.5z" fill="#fb3b1e" /><path d="M16.5 11V5.5H22V11z" fill="#fb4e33" /><path d="M16.5 16.5V11H22v5.5z" fill="#fb4e33" /></symbol><symbol viewBox="0 0 8.041 13.566" id="right_angle_arrow"><path d="M.369.368a1.258 1.258 0 0 0 0 1.779l4.635 4.635-4.635 4.635a1.258 1.258 0 0 0 1.779 1.779l5.525-5.525a1.258 1.258 0 0 0 0-1.779L2.148.367A1.258 1.258 0 0 0 .369.368Z" fill="currentColor" /></symbol><symbol viewBox="0 0 22 22" id="sun"><path d="M5 11a6 6 0 1 1 6 6 6 6 0 0 1-6-6ZM9.5 3V0h3v3ZM9.5 22v-3h3v3ZM4.19 6.62 2.07 4.5l2.12-2.12L6.31 4.5ZM17.81 19.62l-2.12-2.12 2.12-2.12 2.12 2.12ZM3 12.5H0v-3h3ZM22 12.5h-3v-3h3ZM6.93 17.5l-2.12 2.12-2.12-2.12 2.12-2.12ZM19.31 4.5l-2.12 2.12-2.12-2.12 2.12-2.12Z" /></symbol><symbol viewBox="0 0 100 100" id="team"><g data-name="Сгруппировать 2134"><path data-name="Прямоугольник 940" fill="#fb3b1e" d="M16.389 41.853h-5.463V36.39h5.463z" /><path data-name="Прямоугольник 941" fill="#fb3b1e" d="M16.389 36.389h-5.463v-5.463h5.463z" /><path data-name="Прямоугольник 942" fill="#fb3b1e" d="M10.926 30.926H5.463v-5.463h5.463z" /><path data-name="Прямоугольник 943" fill="#fb3b1e" d="M5.463 25.463H0V20h5.463z" /><path data-name="Прямоугольник 944" fill="#fb3b1e" d="M10.926 74.633H5.463V69.17h5.463z" /><path data-name="Прямоугольник 945" fill="#fb3b1e" d="M5.463 80.096H0v-5.463h5.463z" /><path data-name="Прямоугольник 946" fill="#fb3b1e" d="M16.389 47.316h-5.463v-5.463h5.463z" /><path data-name="Прямоугольник 947" fill="#fb3b1e" d="M21.853 52.78H16.39v-5.463h5.463z" /><path data-name="Прямоугольник 948" fill="#fb3b1e" d="M5.463 47.316H0v-5.463h5.463z" /><path data-name="Прямоугольник 949" fill="#fb3b1e" d="M16.389 58.243h-5.463V52.78h5.463z" /><path data-name="Прямоугольник 950" fill="#fb3b1e" d="M16.389 63.706h-5.463v-5.463h5.463z" /><path data-name="Прямоугольник 951" fill="#fb3b1e" d="M16.389 69.169h-5.463v-5.463h5.463z" /><path data-name="Линия 17" fill="none" d="M10.926 36.389v-4.182" /><path data-name="Линия 18" fill="none" d="M10.926 47.316v7.793" /></g><g data-name="Сгруппировать 2135" fill="#00b451"><path data-name="Прямоугольник 952" d="M47.779 41.853h-5.463V36.39h5.463z" /><path data-name="Прямоугольник 953" d="M47.779 36.389h-5.463v-5.463h5.463z" /><path data-name="Прямоугольник 954" d="M42.316 30.926h-5.463v-5.463h5.463z" /><path data-name="Прямоугольник 955" d="M36.853 25.463H31.39V20h5.463z" /><path data-name="Прямоугольник 956" d="M42.316 74.633h-5.463V69.17h5.463z" /><path data-name="Прямоугольник 957" d="M36.853 80.096H31.39v-5.463h5.463z" /><path data-name="Прямоугольник 958" d="M47.779 47.316h-5.463v-5.463h5.463z" /><path data-name="Прямоугольник 959" d="M53.243 52.78H47.78v-5.463h5.463z" /><path data-name="Прямоугольник 960" d="M36.853 47.316H31.39v-5.463h5.463z" /><path data-name="Прямоугольник 961" d="M47.779 58.243h-5.463V52.78h5.463z" /><path data-name="Прямоугольник 962" d="M47.779 63.706h-5.463v-5.463h5.463z" /><path data-name="Прямоугольник 963" d="M47.779 69.169h-5.463v-5.463h5.463z" /><path data-name="Линия 19" d="M42.316 36.389v-4.182" /></g><g data-name="Сгруппировать 2136"><path data-name="Прямоугольник 964" fill="#1da0df" d="M79.169 41.853h-5.463V36.39h5.463z" /><path data-name="Прямоугольник 965" fill="#1da0df" d="M79.169 36.389h-5.463v-5.463h5.463z" /><path data-name="Прямоугольник 966" fill="#1da0df" d="M73.705 30.926h-5.463v-5.463h5.463z" /><path data-name="Прямоугольник 967" fill="#1da0df" d="M68.242 25.463h-5.463V20h5.463z" /><path data-name="Прямоугольник 968" fill="#1da0df" d="M73.705 74.633h-5.463V69.17h5.463z" /><path data-name="Прямоугольник 969" fill="#1da0df" d="M68.242 80.096h-5.463v-5.463h5.463z" /><path data-name="Прямоугольник 970" fill="#1da0df" d="M79.169 47.316h-5.463v-5.463h5.463z" /><path data-name="Прямоугольник 971" fill="#1da0df" d="M84.632 52.78h-5.463v-5.463h5.463z" /><path data-name="Прямоугольник 972" fill="#1da0df" d="M68.242 47.316h-5.463v-5.463h5.463z" /><path data-name="Прямоугольник 973" fill="#1da0df" d="M79.169 58.243h-5.463V52.78h5.463z" /><path data-name="Прямоугольник 974" fill="#1da0df" d="M79.169 63.706h-5.463v-5.463h5.463z" /><path data-name="Прямоугольник 975" fill="#1da0df" d="M79.169 69.169h-5.463v-5.463h5.463z" /><path data-name="Линия 20" fill="#0089dd" d="M73.705 36.389v-4.182" /></g></symbol><symbol viewBox="0 0 32 32" id="tickIcon"><path d="M0 16C0 7.163 7.163 0 16 0s16 7.163 16 16-7.163 16-16 16S0 24.837 0 16z" fill="currentColor" /><path d="M22.225 11.768a.927.927 0 0 0-1.312 0l-6.417 7.417-3.416-3.417a.927.927 0 1 0-1.312 1.312l4.073 4.072a.927.927 0 0 0 1.311 0l7.073-8.072a.927.927 0 0 0 0-1.312z" fill="#242b4d" /></symbol><symbol viewBox="0 0 19 17" id="twitter"><path d="M9.17 4.63v.68l-.68-.09A11.05 11.05 0 0 1 2 2l-.89-.9-.2.7a4 4 0 0 0 .85 4.07c.54.58.42.66-.52.32C.91 6.08.63 6 .6 6a5 5 0 0 0 .49 1.84A4.44 4.44 0 0 0 3 9.64l.66.31h-.79c-.76 0-.79 0-.7.3a4.09 4.09 0 0 0 2.54 2.25l.85.29-.74.44a7.73 7.73 0 0 1-3.65 1 3.87 3.87 0 0 0-1.17.15 10.2 10.2 0 0 0 2.62 1.21 11.52 11.52 0 0 0 8.94-1 12 12 0 0 0 4.53-5.33A14.27 14.27 0 0 0 17 5.11c0-.63 0-.71.8-1.47a9.44 9.44 0 0 0 .95-1.05c.14-.27.12-.27-.57 0-1.16.41-1.32.36-.75-.26a4.08 4.08 0 0 0 .97-1.5s-.21.02-.4.17a7.79 7.79 0 0 1-1.2.46l-.8.22-.67-.46a5.62 5.62 0 0 0-1.13-.6 4.67 4.67 0 0 0-2.38.05 3.93 3.93 0 0 0-2.65 3.96Z" /></symbol><symbol viewBox="0 0 24 24" id="whatsapp"><path d="M18 14.73c-.07-.12-.27-.2-.57-.35s-1.75-.87-2-1-.47-.14-.67.15a13.68 13.68 0 0 1-.94 1.17c-.17.2-.34.22-.64.07a8 8 0 0 1-2.39-1.47 8.9 8.9 0 0 1-1.65-2.06c-.18-.3 0-.46.13-.61s.29-.34.44-.52a1.9 1.9 0 0 0 .3-.49.56.56 0 0 0 0-.52C9.86 9 9.27 7.52 9 6.92s-.49-.5-.67-.51h-.55a1.07 1.07 0 0 0-.78.36 3.36 3.36 0 0 0-1 2.48 5.82 5.82 0 0 0 1.21 3.07 13.3 13.3 0 0 0 5.08 4.49 17.33 17.33 0 0 0 1.69.63 4.3 4.3 0 0 0 1.88.12 3.06 3.06 0 0 0 2-1.42 2.39 2.39 0 0 0 .14-1.41ZM2.86 21.17l1-3.64a10 10 0 0 1-1.74-5.64 9.86 9.86 0 1 1 4.49 8.3Zm3.45 1.18a11.9 11.9 0 1 0-4.62-4.51L0 24Z" /></symbol></defs><use id="arrow-usage" xlink:href="#arrow" class="sprite-symbol-usage" /><use id="arrow_left-usage" xlink:href="#arrow_left" class="sprite-symbol-usage" /><use id="arrow_right-usage" xlink:href="#arrow_right" class="sprite-symbol-usage" /><use id="at-usage" xlink:href="#at" class="sprite-symbol-usage" /><use id="bell-usage" xlink:href="#bell" class="sprite-symbol-usage" /><use id="bike-usage" xlink:href="#bike" class="sprite-symbol-usage" /><use id="check-usage" xlink:href="#check" class="sprite-symbol-usage" /><use id="clock-usage" xlink:href="#clock" class="sprite-symbol-usage" /><use id="close-usage" xlink:href="#close" class="sprite-symbol-usage" /><use id="cloud-usage" xlink:href="#cloud" class="sprite-symbol-usage" /><use id="cookie-close-usage" xlink:href="#cookie-close" class="sprite-symbol-usage" /><use id="cup-usage" xlink:href="#cup" class="sprite-symbol-usage" /><use id="facebook-usage" xlink:href="#facebook" class="sprite-symbol-usage" /><use id="faces-usage" xlink:href="#faces" class="sprite-symbol-usage" /><use id="fire-usage" xlink:href="#fire" class="sprite-symbol-usage" /><use id="heart-usage" xlink:href="#heart" class="sprite-symbol-usage" /><use id="lemon-usage" xlink:href="#lemon" class="sprite-symbol-usage" /><use id="link-usage" xlink:href="#link" class="sprite-symbol-usage" /><use id="list-usage" xlink:href="#list" class="sprite-symbol-usage" /><use id="magic-usage" xlink:href="#magic" class="sprite-symbol-usage" /><use id="mark_blue-usage" xlink:href="#mark_blue" class="sprite-symbol-usage" /><use id="mark_red-usage" xlink:href="#mark_red" class="sprite-symbol-usage" /><use id="menu-usage" xlink:href="#menu" class="sprite-symbol-usage" /><use id="moon-usage" xlink:href="#moon" class="sprite-symbol-usage" /><use id="paperplane-usage" xlink:href="#paperplane" class="sprite-symbol-usage" /><use id="pixel_arrow-usage" xlink:href="#pixel_arrow" class="sprite-symbol-usage" /><use id="right_angle_arrow-usage" xlink:href="#right_angle_arrow" class="sprite-symbol-usage" /><use id="sun-usage" xlink:href="#sun" class="sprite-symbol-usage" /><use id="team-usage" xlink:href="#team" class="sprite-symbol-usage" /><use id="tickIcon-usage" xlink:href="#tickIcon" class="sprite-symbol-usage" /><use id="twitter-usage" xlink:href="#twitter" class="sprite-symbol-usage" /><use id="whatsapp-usage" xlink:href="#whatsapp" class="sprite-symbol-usage" /></svg>