<?xml version="1.0" encoding="UTF-8"?>
<svg id="SVGDoc" width="55" height="257" xmlns="http://www.w3.org/2000/svg" version="1.1" xmlns:xlink="http://www.w3.org/1999/xlink" xmlns:avocode="https://avocode.com/" viewBox="0 0 55 257"><defs></defs><desc>Generated with Avocode.</desc><g><g><title>bracket-icon</title><path d="M21.52,128.40047c7.704,-6.09901 12.84,-16.37099 12.84,-26.643v-68.052c0,-10.59302 9.309,-19.25999 19.902,-19.25999v-14.44501c-4.815,0 -8.988,0.64198 -12.519,2.24699c-13.161,5.457 -21.828,17.655 -21.828,31.45801v68.052c0,10.59299 -8.667,19.58099 -19.26,19.58099v14.445c10.593,0 19.26,8.667 19.26,19.25999v67.41c0,15.087 9.309,26.964 22.47,31.779c4.173,1.605 8.02499,2.247 11.877,2.247v-14.124c-10.593,0 -19.902,-9.309 -19.902,-19.902v-67.41c0,-10.272 -5.136,-20.223 -12.84,-26.64299z" fill="#ffffff" fill-opacity="1"></path></g></g></svg>