<svg xmlns="http://www.w3.org/2000/svg" viewBox="0 0 112.38 31.93">
  <title>clutch</title>
  <g>
    <path d="M29.22,0h5.17V31.92H29.22Z" fill="#fff"/>
    <path d="M52.37,21.8c0,4.95-4,5.4-5.39,5.4-3.15,0-3.6-2.93-3.6-4.5V10.34H38.21V22.48c0,2.92.9,5.62,2.7,7.19A8.14,8.14,0,0,0,47,31.92a7.88,7.88,0,0,0,5.39-1.8v1.8h5.17V10.34H52.37Z" fill="#fff"/>
    <path d="M67.66,2.47H62.49v7.87H58.67v4.95h3.82V31.92h5.17V15.29h3.82V10.34H67.66Z" fill="#fff"/>
    <path d="M87.66,25.4A7.07,7.07,0,0,1,83.39,27a6,6,0,0,1-6.08-5.85c0-.15,0-.29,0-.44a5.78,5.78,0,0,1,5.48-6.07h.59a5.91,5.91,0,0,1,4.27,1.57l.67.68,3.6-3.38-.9-.67a11.45,11.45,0,0,0-7.64-2.92,11,11,0,0,0,0,22A11.51,11.51,0,0,0,91,29l.9-.67-3.6-3.6Z" fill="#fff"/>
    <path d="M110.14,12.14a7.14,7.14,0,0,0-5.62-2.25,6.79,6.79,0,0,0-5,1.8V0H94.4V31.92h5.17V20c0-4.95,3.37-5.4,4.72-5.4,3.15,0,2.92,2.93,2.92,4.5V31.69h5.17V19.33c0-2.92-.67-5.62-2.24-7.19Z" fill="#fff"/>
    <circle cx="83.16" cy="20.9" r="3.6" fill="#ef4335"/>
    <path d="M22,24.05A10.56,10.56,0,0,1,14.61,27C9,27,4.94,22.47,4.94,16.41S9,5.84,14.83,5.84A10.56,10.56,0,0,1,22.25,9l.68.67L26.3,6.29l-.68-.67a15.07,15.07,0,0,0-10.79-4.5C6.29.9,0,7.64,0,16.41S6.29,31.92,14.61,31.92a14.76,14.76,0,0,0,10.79-4.5l.67-.68L22.7,23.38Z" fill="#fff"/>
  </g>
</svg>
