<svg xmlns="http://www.w3.org/2000/svg" width="85" height="24" viewBox="0 0 85 24"><g><g><g><path fill="#17313b" d="M22.077 0h3.888v24h-3.888z"/></g><g><path fill="#17313b" d="M39.486 16.394c0 3.719-3.043 4.057-4.057 4.057-2.366 0-2.704-2.197-2.704-3.38V7.774h-3.887V16.9c0 2.198.676 4.226 2.028 5.409C32.049 23.493 33.57 24 35.429 24c1.352 0 3.043-.338 4.057-1.352V24h3.887V7.775h-3.887z"/></g><g><path fill="#17313b" d="M50.979 1.86H47.09v5.915h-2.873v3.718h2.873V24h3.888V11.493h2.873V7.775h-2.873z"/></g><g><path fill="#17313b" d="M66.02 19.099c-.844.676-2.027 1.183-3.21 1.183-2.705 0-4.564-2.028-4.564-4.733 0-2.704 1.86-4.563 4.563-4.563 1.184 0 2.367.338 3.212 1.183l.507.507 2.704-2.535-.676-.507a8.666 8.666 0 0 0-5.747-2.197c-4.732 0-8.281 3.549-8.281 8.281 0 4.733 3.55 8.282 8.281 8.282a8.666 8.666 0 0 0 5.747-2.197l.676-.507-2.704-2.704z"/></g><g><path fill="#17313b" d="M82.922 9.127c-1.183-1.183-2.366-1.69-4.225-1.69-1.352 0-2.705.338-3.719 1.352V0h-3.887v24h3.887v-8.958c0-3.718 2.536-4.056 3.55-4.056 2.366 0 2.197 2.197 2.197 3.38v9.465h3.887v-9.296c0-2.197-.507-4.225-1.69-5.408z"/></g><g><path fill="#ef4335" d="M59.936 15.718a2.704 2.704 0 1 1 5.409 0 2.704 2.704 0 0 1-5.409 0z"/></g><g><path fill="#17313b" d="M16.669 18.085c-1.352 1.352-3.38 2.197-5.578 2.197-4.225 0-7.267-3.38-7.267-7.944 0-4.563 3.042-7.944 7.436-7.944 2.029 0 4.057.846 5.578 2.367l.507.507 2.535-2.536-.507-.507c-2.197-2.197-5.07-3.38-8.113-3.38C4.838.676.105 5.747.105 12.338.105 18.93 4.838 24 11.091 24c3.043 0 6.085-1.183 8.113-3.38l.507-.507-2.535-2.535z"/></g></g></g></svg>