<?xml version="1.0" encoding="UTF-8"?>
<svg id="SVGDoc" width="84" height="49" xmlns="http://www.w3.org/2000/svg" version="1.1" xmlns:xlink="http://www.w3.org/1999/xlink" xmlns:avocode="https://avocode.com/" viewBox="0 0 84 49"><defs></defs><desc>Generated with Avocode.</desc><g><g><title>Group 2496</title><g><title>Rectangle 1241</title><path d="M47.5942,6.05632v0v-6.05632v0h6.06761v0v6.05632v0z" fill="#fdbc5e" fill-opacity="1"></path></g><g><title>Rectangle 1242</title><path d="M53.661,6.05632v0v-6.05632v0h6.06761v0v6.05632v0z" fill="#fbad3a" fill-opacity="1"></path></g><g><title>Rectangle 1243</title><path d="M59.72897,6.05632v0v-6.05632v0h6.06761v0v6.05632v0z" fill="#fbad3a" fill-opacity="1"></path></g><g><title>Rectangle 1244</title><path d="M47.5942,12.11301v0v-6.05632v0h6.06761v0v6.05632v0z" fill="#fdbc5e" fill-opacity="1"></path></g><g><title>Rectangle 1245</title><path d="M41.52623,12.11301v0v-6.05632v0h6.06761v0v6.05632v0z" fill="#fbad3a" fill-opacity="1"></path></g><g><title>Rectangle 1246</title><path d="M53.661,12.11301v0v-6.05632v0h6.06761v0v6.05632v0z" fill="#fbad3a" fill-opacity="1"></path></g><g><title>Rectangle 1247</title><path d="M59.72897,12.11301v0v-6.05632v0h6.06761v0v6.05632v0z" fill="#774637" fill-opacity="1"></path></g><g><title>Rectangle 1248</title><path d="M47.5942,18.16911v0v-6.05632v0h6.06761v0v6.05632v0z" fill="#fbad3a" fill-opacity="1"></path></g><g><title>Rectangle 1249</title><path d="M41.52623,18.16911v0v-6.05632v0h6.06761v0v6.05632v0z" fill="#fdbc5e" fill-opacity="1"></path></g><g><title>Rectangle 1250</title><path d="M53.661,18.16911v0v-6.05632v0h6.06761v0v6.05632v0z" fill="#fdbc5e" fill-opacity="1"></path></g><g><title>Rectangle 1251</title><path d="M59.72897,18.16911v0v-6.05632v0h6.06761v0v6.05632v0z" fill="#fbad3a" fill-opacity="1"></path></g><g><title>Rectangle 1252</title><path d="M47.5942,24.2258v0v-6.05632v0h6.06761v0v6.05632v0z" fill="#fbad3a" fill-opacity="1"></path></g><g><title>Rectangle 1253</title><path d="M41.52623,24.2258v0v-6.05632v0h6.06761v0v6.05632v0z" fill="#6c3825" fill-opacity="1"></path></g><g><title>Rectangle 1254</title><path d="M35.45825,18.16911v0v-6.05632v0h6.06761v0v6.05632v0z" fill="#fbad3a" fill-opacity="1"></path></g><g><title>Rectangle 1255</title><path d="M35.45825,24.2258v0v-6.05632v0h6.06761v0v6.05632v0z" fill="#fbad3a" fill-opacity="1"></path></g><g><title>Rectangle 1256</title><path d="M53.661,24.2258v0v-6.05632v0h6.06761v0v6.05632v0z" fill="#fbad3a" fill-opacity="1"></path></g><g><title>Rectangle 1257</title><path d="M59.72897,24.2258v0v-6.05632v0h6.06761v0v6.05632v0z" fill="#6c3825" fill-opacity="1"></path></g><g><title>Rectangle 1258</title><path d="M65.79694,6.05632v0v-6.05632v0h6.06761v0v6.05632v0z" fill="#fbad3a" fill-opacity="1"></path></g><g><title>Rectangle 1259</title><path d="M65.79694,12.11301v0v-6.05632v0h6.06761v0v6.05632v0z" fill="#fbad3a" fill-opacity="1"></path></g><g><title>Rectangle 1260</title><path d="M65.79694,18.16911v0v-6.05632v0h6.06761v0v6.05632v0z" fill="#fbad3a" fill-opacity="1"></path></g><g><title>Rectangle 1261</title><path d="M71.86375,12.11301v0v-6.05632v0h6.06761v0v6.05632v0z" fill="#fbad3a" fill-opacity="1"></path></g><g><title>Rectangle 1262</title><path d="M71.86375,18.16911v0v-6.05632v0h6.06761v0v6.05632v0z" fill="#fbad3a" fill-opacity="1"></path></g><g><title>Rectangle 1263</title><path d="M14.69496,15.14135v0v-6.05632v0h6.06761v0v6.05632v0z" fill="#fbad3a" fill-opacity="1"></path></g><g><title>Rectangle 1264</title><path d="M71.86375,24.2258v0v-6.05632v0h6.06761v0v6.05632v0z" fill="#fbad3a" fill-opacity="1"></path></g><g><title>Rectangle 1265</title><path d="M77.93172,24.2258v0v-6.05632v0h6.06761v0v6.05632v0z" fill="#fdbc5e" fill-opacity="1"></path></g><g><title>Rectangle 1266</title><path d="M77.93172,18.16911v0v-6.05632v0h6.06761v0v6.05632v0z" fill="#fbad3a" fill-opacity="1"></path></g><g><title>Rectangle 1267</title><path d="M65.79694,24.2258v0v-6.05632v0h6.06761v0v6.05632v0z" fill="#fbad3a" fill-opacity="1"></path></g><g transform="rotate(180 68.83000000000001 45.42000000000007)"><title>Rectangle 1268</title><path d="M65.79614,48.45117v0v-6.05632v0h6.06761v0v6.05632v0z" fill="#f29d2c" fill-opacity="1"></path></g><g transform="rotate(180 62.765000000000015 45.42000000000007)"><title>Rectangle 1269</title><path d="M59.72933,48.45117v0v-6.05632v0h6.06761v0v6.05632v0z" fill="#f29d2c" fill-opacity="1"></path></g><g transform="rotate(180 3.0349999999999966 28.254999999999995)"><title>Rectangle 1270</title><path d="M0,31.28178v0v-6.05632v0h6.06761v0v6.05632v0z" fill="#f29d2c" fill-opacity="1"></path></g><g transform="rotate(180 56.69500000000002 45.42000000000007)"><title>Rectangle 1271</title><path d="M53.66136,48.45117v0v-6.05632v0h6.06761v0v6.05632v0z" fill="#faa72b" fill-opacity="1"></path></g><g transform="rotate(180 68.83000000000001 39.36500000000001)"><title>Rectangle 1272</title><path d="M65.79614,42.39448v0v-6.05632v0h6.06761v0v6.05632v0z" fill="#faa72b" fill-opacity="1"></path></g><g transform="rotate(180 74.89500000000001 39.36500000000001)"><title>Rectangle 1273</title><path d="M71.86411,42.39448v0v-6.05632v0h6.06761v0v6.05632v0z" fill="#fbad3a" fill-opacity="1"></path></g><g transform="rotate(180 62.765000000000015 39.36500000000001)"><title>Rectangle 1274</title><path d="M59.72933,42.39448v0v-6.05632v0h6.06761v0v6.05632v0z" fill="#fbad3a" fill-opacity="1"></path></g><g transform="rotate(180 56.69500000000002 39.36500000000001)"><title>Rectangle 1275</title><path d="M53.66136,42.39448v0v-6.05632v0h6.06761v0v6.05632v0z" fill="#6c3825" fill-opacity="1"></path></g><g transform="rotate(180 68.83000000000001 33.309999999999945)"><title>Rectangle 1276</title><path d="M65.79614,36.33838v0v-6.05632v0h6.06761v0v6.05632v0z" fill="#fbad3a" fill-opacity="1"></path></g><g transform="rotate(180 74.89500000000001 33.309999999999945)"><title>Rectangle 1277</title><path d="M71.86411,36.33838v0v-6.05632v0h6.06761v0v6.05632v0z" fill="#fbad3a" fill-opacity="1"></path></g><g transform="rotate(180 62.765000000000015 33.309999999999945)"><title>Rectangle 1278</title><path d="M59.72933,36.33838v0v-6.05632v0h6.06761v0v6.05632v0z" fill="#fbad3a" fill-opacity="1"></path></g><g transform="rotate(180 56.69500000000002 33.309999999999945)"><title>Rectangle 1279</title><path d="M53.66136,36.33838v0v-6.05632v0h6.06761v0v6.05632v0z" fill="#fbad3a" fill-opacity="1"></path></g><g transform="rotate(180 68.83000000000001 27.254999999999995)"><title>Rectangle 1280</title><path d="M65.79614,30.28169v0v-6.05632v0h6.06761v0v6.05632v0z" fill="#fbad3a" fill-opacity="1"></path></g><g transform="rotate(180 74.89500000000001 27.254999999999995)"><title>Rectangle 1281</title><path d="M71.86411,30.28169v0v-6.05632v0h6.06761v0v6.05632v0z" fill="#774637" fill-opacity="1"></path></g><g transform="rotate(180 80.965 33.309999999999945)"><title>Rectangle 1282</title><path d="M77.93208,36.33838v0v-6.05632v0h6.06761v0v6.05632v0z" fill="#fbad3a" fill-opacity="1"></path></g><g transform="rotate(180 80.965 27.254999999999995)"><title>Rectangle 1283</title><path d="M77.93208,30.28169v0v-6.05632v0h6.06761v0v6.05632v0z" fill="#fbad3a" fill-opacity="1"></path></g><g transform="rotate(180 62.765000000000015 27.254999999999995)"><title>Rectangle 1284</title><path d="M59.72933,30.28169v0v-6.05632v0h6.06761v0v6.05632v0z" fill="#fbad3a" fill-opacity="1"></path></g><g transform="rotate(180 56.69500000000002 27.254999999999995)"><title>Rectangle 1285</title><path d="M53.66136,30.28169v0v-6.05632v0h6.06761v0v6.05632v0z" fill="#fdbc5e" fill-opacity="1"></path></g><g transform="rotate(180 50.625 45.42000000000007)"><title>Rectangle 1286</title><path d="M47.59339,48.45117v0v-6.05632v0h6.06761v0v6.05632v0z" fill="#fbad3a" fill-opacity="1"></path></g><g transform="rotate(180 50.625 39.36500000000001)"><title>Rectangle 1287</title><path d="M47.59339,42.39448v0v-6.05632v0h6.06761v0v6.05632v0z" fill="#fbad3a" fill-opacity="1"></path></g><g transform="rotate(180 50.625 33.309999999999945)"><title>Rectangle 1288</title><path d="M47.59339,36.33838v0v-6.05632v0h6.06761v0v6.05632v0z" fill="#fbad3a" fill-opacity="1"></path></g><g transform="rotate(180 44.559999999999974 39.36500000000001)"><title>Rectangle 1289</title><path d="M41.52659,42.39448v0v-6.05632v0h6.06761v0v6.05632v0z" fill="#fbad3a" fill-opacity="1"></path></g><g transform="rotate(180 44.559999999999974 33.309999999999945)"><title>Rectangle 1290</title><path d="M41.52659,36.33838v0v-6.05632v0h6.06761v0v6.05632v0z" fill="#fbad3a" fill-opacity="1"></path></g><g transform="rotate(180 44.559999999999974 27.254999999999995)"><title>Rectangle 1291</title><path d="M41.52659,30.28169v0v-6.05632v0h6.06761v0v6.05632v0z" fill="#fbad3a" fill-opacity="1"></path></g><g transform="rotate(180 23.794999999999987 31.279999999999973)"><title>Rectangle 1292</title><path d="M20.76329,34.31012v0v-6.05632v0h6.06761v0v6.05632v0z" fill="#fbad3a" fill-opacity="1"></path></g><g transform="rotate(180 38.494999999999976 27.254999999999995)"><title>Rectangle 1293</title><path d="M35.45862,30.28169v0v-6.05632v0h6.06761v0v6.05632v0z" fill="#fbad3a" fill-opacity="1"></path></g><g transform="rotate(180 38.494999999999976 33.309999999999945)"><title>Rectangle 1294</title><path d="M35.45862,36.33838v0v-6.05632v0h6.06761v0v6.05632v0z" fill="#fdbc5e" fill-opacity="1"></path></g><g transform="rotate(180 50.625 27.254999999999995)"><title>Rectangle 1295</title><path d="M47.59339,30.28169v0v-6.05632v0h6.06761v0v6.05632v0z" fill="#fbad3a" fill-opacity="1"></path></g></g></g></svg>