<svg id="b5f3a2c3-7821-4cfc-913a-e9d05ef7bb52" data-name="Layer 1" xmlns="http://www.w3.org/2000/svg" viewBox="0 0 18 18">
  <path d="M18,15.5A2.5,2.5,0,0,1,15.5,18H2.5A2.5,2.5,0,0,1,0,15.5V2.5A2.5,2.5,0,0,1,2.5,0h13A2.5,2.5,0,0,1,18,2.5Z" style="fill: #0a66c2"/>
  <path d="M12,15.5V10.45c0-.84-.41-1.35-1.1-1.35a1,1,0,0,0-.89.68,5,5,0,0,0,0,.56V15.5H6.5V6H10v.53A3.24,3.24,0,0,1,11.87,6c2.27,0,3.63,1.55,3.63,4.14V15.5Zm-9.5,0V6H4.23A1.69,1.69,0,0,1,2.5,4.25,1.7,1.7,0,0,1,4.26,2.5,1.69,1.69,0,0,1,6,4.24,1.7,1.7,0,0,1,4.24,6H6v9.5Z" style="opacity: 0.05000000074505806;isolation: isolate"/>
  <path d="M12.25,15.25v-4.8c0-1-.52-1.6-1.35-1.6a1.21,1.21,0,0,0-1.12.84,3.36,3.36,0,0,0,0,.66v4.9h-3v-9h3v.82a2.8,2.8,0,0,1,2.12-.82c2.12,0,3.38,1.45,3.38,3.89v5.11Zm-9.5,0v-9h3v9Zm1.48-9.5a1.44,1.44,0,0,1-1.48-1.5,1.45,1.45,0,0,1,1.51-1.5A1.44,1.44,0,0,1,5.75,4.24,1.45,1.45,0,0,1,4.24,5.75Z" style="opacity: 0.07000000029802322;isolation: isolate"/>
  <path d="M3,6.5H5.5V15H3Zm1.24-1h0A1.2,1.2,0,0,1,3,4.25,1.21,1.21,0,0,1,4.26,3,1.19,1.19,0,0,1,5.5,4.25,1.2,1.2,0,0,1,4.24,5.5ZM15,15H12.5V10.45A1.63,1.63,0,0,0,10.9,8.6a1.44,1.44,0,0,0-1.35,1,3.67,3.67,0,0,0-.05.9V15H7V6.5H9.5V7.81A2.53,2.53,0,0,1,11.87,6.5C13.66,6.5,15,7.63,15,10.14V15Z" style="fill: #fff"/>
</svg>
