<svg id="Logo" xmlns="http://www.w3.org/2000/svg" width="123.754" height="32" viewBox="0 0 123.754 32">
  <g id="Сгруппировать_2733" data-name="Сгруппировать 2733" transform="translate(38.881 5.647)">
    <path id="Контур_3714" data-name="Контур 3714" d="M412.779,360.2v3.075a3.738,3.738,0,0,0-1.021-.122,2.479,2.479,0,0,0-1.916.766,3.138,3.138,0,0,0-.7,2.2v5.34h-3.064V360.315h3.064v1.366c.089-.1.216-.237.378-.406a4.476,4.476,0,0,1,1.072-.659,3.862,3.862,0,0,1,1.736-.411Z" transform="translate(-406.074 -355.541)" fill="#2e1a46"/>
    <path id="Контур_3715" data-name="Контур 3715" d="M438.565,370.3v-.91a1.453,1.453,0,0,1-.14.173c-.062.069-.2.2-.4.378a5.043,5.043,0,0,1-.653.488,4,4,0,0,1-.924.386,4.043,4.043,0,0,1-1.181.173,4.65,4.65,0,0,1-3.459-1.661,5.719,5.719,0,0,1,0-7.824,4.651,4.651,0,0,1,3.459-1.661,4.078,4.078,0,0,1,1.788.4,3.758,3.758,0,0,1,1.166.777l.344.411v-1.366h3.064V370.3a5.427,5.427,0,0,1-1.681,4.045,5.816,5.816,0,0,1-4.225,1.639,6.725,6.725,0,0,1-1.832-.249,6.355,6.355,0,0,1-1.454-.591,7.653,7.653,0,0,1-1.01-.693,3.623,3.623,0,0,1-.611-.6l-.211-.255,1.932-1.821a5.189,5.189,0,0,0,.337.411,3.921,3.921,0,0,0,1.028.662,3.747,3.747,0,0,0,1.71.4,2.741,2.741,0,0,0,2.953-2.953Zm-4.39-6.843a2.991,2.991,0,0,0,0,3.912,2.339,2.339,0,0,0,1.776.777,2.479,2.479,0,0,0,1.83-.8,2.778,2.778,0,0,0,0-3.868,2.483,2.483,0,0,0-1.83-.795A2.343,2.343,0,0,0,434.175,363.46Z" transform="translate(-422.772 -355.294)" fill="#2e1a46"/>
    <path id="Контур_3716" data-name="Контур 3716" d="M482.5,349.7a4.987,4.987,0,0,1,3.752,1.683,6.11,6.11,0,0,1-.007,8.224,4.989,4.989,0,0,1-3.746,1.683,4.1,4.1,0,0,1-1.787-.4,3.68,3.68,0,0,1-1.177-.782l-.333-.411v1.366h-3.075V345.146h3.075v6.139a1.421,1.421,0,0,1,.133-.166c.06-.067.191-.191.4-.373a4.722,4.722,0,0,1,.66-.489,4.417,4.417,0,0,1,2.109-.56Zm-2.5,8a2.588,2.588,0,0,0,3.863,0,3.466,3.466,0,0,0,0-4.412,2.6,2.6,0,0,0-3.863,0,3.458,3.458,0,0,0,0,4.412Z" transform="translate(-454.439 -345.146)" fill="#2e1a46"/>
    <path id="Контур_3717" data-name="Контур 3717" d="M520.1,369.7a5.5,5.5,0,0,1,0-8.117,5.882,5.882,0,0,1,4.24-1.736,5.581,5.581,0,0,1,1.648.24,4.967,4.967,0,0,1,1.284.564,9,9,0,0,1,.888.662,3.614,3.614,0,0,1,.566.577l.167.233-1.932,1.932a2.61,2.61,0,0,0-1.181-1.073,2.823,2.823,0,0,0-3.522.5,3.132,3.132,0,0,0,.007,4.341,2.8,2.8,0,0,0,2.076.9,3.006,3.006,0,0,0,1.439-.366,3.45,3.45,0,0,0,.992-.733l.3-.377,1.821,1.932c-.044.06-.107.142-.182.249a4.718,4.718,0,0,1-.539.546,5.887,5.887,0,0,1-.91.675,6.09,6.09,0,0,1-1.272.546,5.436,5.436,0,0,1-1.648.249A5.882,5.882,0,0,1,520.1,369.7Z" transform="translate(-483.562 -355.294)" fill="#2e1a46"/>
    <path id="Контур_3718" data-name="Контур 3718" d="M566.185,361.581a5.563,5.563,0,0,1,0,8.117,5.828,5.828,0,0,1-8.3,0,5.549,5.549,0,0,1,0-8.117,5.827,5.827,0,0,1,8.3,0Zm-6.068,1.961a3.13,3.13,0,0,0,0,4.2,2.6,2.6,0,0,0,3.841,0,3.13,3.13,0,0,0,0-4.2,2.585,2.585,0,0,0-3.841,0Z" transform="translate(-509.66 -355.294)" fill="#2e1a46"/>
    <path id="Контур_3719" data-name="Контур 3719" d="M604.05,349.7a4.05,4.05,0,0,1,1.783.4,3.927,3.927,0,0,1,1.17.777l.344.411v-6.139h3.064v15.919h-3.064V359.7a1.451,1.451,0,0,1-.138.171c-.064.071-.2.2-.4.377a4.352,4.352,0,0,1-.661.489,3.826,3.826,0,0,1-.922.384,4.148,4.148,0,0,1-1.177.167,5.01,5.01,0,0,1-3.759-1.683,6.107,6.107,0,0,1,0-8.224A5.009,5.009,0,0,1,604.05,349.7Zm-1.366,8a2.588,2.588,0,0,0,3.863,0,3.443,3.443,0,0,0,0-4.412,2.6,2.6,0,0,0-3.863,0,3.444,3.444,0,0,0,0,4.412Z" transform="translate(-539.055 -345.146)" fill="#2e1a46"/>
    <path id="Контур_3720" data-name="Контур 3720" d="M654.722,366.661h-8.071a2.541,2.541,0,0,0,.966,1.536,3.083,3.083,0,0,0,1.987.629,3.781,3.781,0,0,0,1.6-.34,3.1,3.1,0,0,0,1.039-.682l.322-.344,1.588,2.043-.2.2a6.005,6.005,0,0,1-.6.477,7.111,7.111,0,0,1-.966.593,6.129,6.129,0,0,1-1.325.462,7.072,7.072,0,0,1-1.683.2,5.745,5.745,0,0,1-4.185-1.705,5.72,5.72,0,0,1-.022-8.18,5.593,5.593,0,0,1,4.1-1.705,5.437,5.437,0,0,1,5.562,5.573Zm-3.8-3.619a2.441,2.441,0,0,0-1.647-.577,2.523,2.523,0,0,0-1.661.566,3.017,3.017,0,0,0-.959,1.477h5.118A2.521,2.521,0,0,0,650.919,363.042Z" transform="translate(-569.96 -355.294)" fill="#2e1a46"/>
  </g>
  <rect id="Прямоугольник_1549" data-name="Прямоугольник 1549" width="5.339" height="5.326" transform="translate(0 13.337)" fill="#24af3f"/>
  <rect id="Прямоугольник_1550" data-name="Прямоугольник 1550" width="5.339" height="5.326" transform="translate(6.113 19.436)" fill="#31baff"/>
  <rect id="Прямоугольник_1551" data-name="Прямоугольник 1551" width="5.339" height="5.326" transform="translate(6.113 7.237)" fill="#fe3b1f"/>
  <path id="Контур_3721" data-name="Контур 3721" d="M340.991,344.341,327.132,358.2a2.409,2.409,0,0,1-3.406,0h0a2.408,2.408,0,0,1,0-3.406l11.887-11.89-11.887-11.887a2.409,2.409,0,0,1,0-3.406h0a2.408,2.408,0,0,1,3.406,0l13.859,13.859A2.03,2.03,0,0,1,340.991,344.341Z" transform="translate(-309.855 -326.905)" fill="#001689"/>
</svg>
