<svg xmlns="http://www.w3.org/2000/svg" width="127.619" height="32" viewBox="0 0 127.619 32">
  <g id="Logo" transform="translate(-5604.053 -2293.441)">
    <g id="Сгруппировать_1955" data-name="Сгруппировать 1955">
      <rect id="Прямоугольник_632" data-name="Прямоугольник 632" width="4.351" height="4.351" transform="translate(5615.54 2314.401) rotate(90)" fill="#008ce2"/>
      <rect id="Прямоугольник_633" data-name="Прямоугольник 633" width="4.351" height="4.351" transform="translate(5608.404 2307.265) rotate(90)" fill="#00b451"/>
      <rect id="Прямоугольник_634" data-name="Прямоугольник 634" width="4.351" height="4.351" transform="translate(5615.54 2300.13) rotate(90)" fill="#fe3b1f"/>
    </g>
    <g id="Сгруппировать_1956" data-name="Сгруппировать 1956">
      <path id="Контур_3271" data-name="Контур 3271" d="M5650.943,2304.21v3.176a3.867,3.867,0,0,0-1.055-.126,2.56,2.56,0,0,0-1.979.791,3.238,3.238,0,0,0-.727,2.27v5.515h-3.164v-11.511h3.164v1.41c.092-.108.222-.245.39-.42a4.638,4.638,0,0,1,1.107-.681,3.989,3.989,0,0,1,1.793-.424Z" fill="#fff"/>
      <path id="Контур_3272" data-name="Контур 3272" d="M5660.328,2314.9v-.94a1.705,1.705,0,0,1-.144.178c-.065.072-.2.2-.413.39a5.329,5.329,0,0,1-.674.505,4.13,4.13,0,0,1-.954.4,4.186,4.186,0,0,1-1.22.179,4.8,4.8,0,0,1-3.573-1.716,5.906,5.906,0,0,1,0-8.08,4.8,4.8,0,0,1,3.573-1.716,4.21,4.21,0,0,1,1.846.413,3.888,3.888,0,0,1,1.2.8l.355.424v-1.41h3.164V2314.9a5.606,5.606,0,0,1-1.735,4.178,6.008,6.008,0,0,1-4.364,1.692,6.945,6.945,0,0,1-1.892-.257,6.563,6.563,0,0,1-1.5-.61,7.956,7.956,0,0,1-1.043-.715,3.808,3.808,0,0,1-.631-.619l-.218-.264,2-1.88c.076.107.193.247.349.424a4.039,4.039,0,0,0,1.062.683,3.861,3.861,0,0,0,1.765.418,2.832,2.832,0,0,0,3.05-3.05Zm-4.533-7.067a2.811,2.811,0,0,0-.752,2.017,2.841,2.841,0,0,0,.752,2.023,2.416,2.416,0,0,0,1.834.8,2.564,2.564,0,0,0,1.89-.826,2.87,2.87,0,0,0,0-3.995,2.565,2.565,0,0,0-1.89-.82A2.418,2.418,0,0,0,5655.795,2307.829Z" fill="#fff"/>
      <path id="Контур_3273" data-name="Контур 3273" d="M5673,2304.095a5.15,5.15,0,0,1,3.875,1.739,6.308,6.308,0,0,1-.007,8.493,5.153,5.153,0,0,1-3.868,1.738,4.238,4.238,0,0,1-1.846-.408,3.813,3.813,0,0,1-1.215-.807l-.344-.424v1.41h-3.176V2299.4h3.176v6.34a1.352,1.352,0,0,1,.137-.172c.062-.069.2-.2.408-.385a4.9,4.9,0,0,1,.681-.5,4.305,4.305,0,0,1,.957-.4A4.212,4.212,0,0,1,5673,2304.095Zm-2.584,8.267a2.672,2.672,0,0,0,3.989,0,3.578,3.578,0,0,0,0-4.556,2.68,2.68,0,0,0-3.989,0,3.572,3.572,0,0,0,0,4.556Z" fill="#fff"/>
      <path id="Контур_3274" data-name="Контур 3274" d="M5681.757,2314.272a5.682,5.682,0,0,1,0-8.383,6.073,6.073,0,0,1,4.379-1.794,5.765,5.765,0,0,1,1.7.248,5.13,5.13,0,0,1,1.325.583,9.448,9.448,0,0,1,.918.683,3.715,3.715,0,0,1,.584.6l.172.241-2,1.995a2.687,2.687,0,0,0-1.22-1.108,2.915,2.915,0,0,0-3.636.512,3.236,3.236,0,0,0,.006,4.483,2.9,2.9,0,0,0,2.144.928,3.106,3.106,0,0,0,1.486-.378,3.551,3.551,0,0,0,1.025-.757l.31-.39,1.88,2c-.046.062-.11.147-.188.257a4.8,4.8,0,0,1-.557.564,5.99,5.99,0,0,1-.94.7,6.271,6.271,0,0,1-1.314.564,5.612,5.612,0,0,1-1.7.257A6.071,6.071,0,0,1,5681.757,2314.272Z" fill="#fff"/>
      <path id="Контур_3275" data-name="Контур 3275" d="M5702.394,2305.889a5.745,5.745,0,0,1,0,8.383,6.018,6.018,0,0,1-8.571,0,5.73,5.73,0,0,1,0-8.383,6.015,6.015,0,0,1,8.571,0Zm-6.267,2.024a3.233,3.233,0,0,0,0,4.341,2.684,2.684,0,0,0,3.967,0,3.233,3.233,0,0,0,0-4.341,2.671,2.671,0,0,0-3.967,0Z" fill="#fff"/>
      <path id="Контур_3276" data-name="Контур 3276" d="M5711.142,2304.095a4.184,4.184,0,0,1,1.842.413,4.055,4.055,0,0,1,1.208.8l.356.424v-6.34h3.164v16.441h-3.164v-1.41a1.428,1.428,0,0,1-.143.176c-.066.074-.2.2-.412.39a4.484,4.484,0,0,1-.684.505,3.946,3.946,0,0,1-.951.4,4.28,4.28,0,0,1-1.216.172,5.175,5.175,0,0,1-3.882-1.738,6.308,6.308,0,0,1,0-8.493A5.174,5.174,0,0,1,5711.142,2304.095Zm-1.41,8.267a2.673,2.673,0,0,0,3.99,0,3.555,3.555,0,0,0,0-4.556,2.681,2.681,0,0,0-3.99,0,3.559,3.559,0,0,0,0,4.556Z" fill="#fff"/>
      <path id="Контур_3277" data-name="Контур 3277" d="M5731.557,2311.135h-8.335a2.624,2.624,0,0,0,1,1.587,3.184,3.184,0,0,0,2.052.649,3.91,3.91,0,0,0,1.656-.351,3.21,3.21,0,0,0,1.073-.7l.332-.355,1.64,2.109-.207.207a6.341,6.341,0,0,1-.619.493,7.387,7.387,0,0,1-1,.612,6.392,6.392,0,0,1-1.369.477,7.315,7.315,0,0,1-1.738.206,5.936,5.936,0,0,1-4.323-1.761,5.909,5.909,0,0,1-.023-8.447,5.777,5.777,0,0,1,4.231-1.762,5.615,5.615,0,0,1,5.744,5.756Zm-3.928-3.738a2.52,2.52,0,0,0-1.7-.6,2.6,2.6,0,0,0-1.715.585,3.115,3.115,0,0,0-.991,1.525h5.286A2.6,2.6,0,0,0,5727.629,2307.4Z" fill="#fff"/>
    </g>
    <path id="Контур_3278" data-name="Контур 3278" d="M5619.927,2325.441a2.206,2.206,0,0,1-1.56-3.767l12.233-12.233-12.233-12.234a2.206,2.206,0,0,1,3.12-3.12l13.906,13.907a2.049,2.049,0,0,1,0,2.894l-13.906,13.906A2.192,2.192,0,0,1,5619.927,2325.441Z" fill="#fff"/>
  </g>
</svg>
