<svg xmlns="http://www.w3.org/2000/svg" xmlns:xlink="http://www.w3.org/1999/xlink" width="577.141" height="582.793" viewBox="0 0 577.141 582.793">
  <defs>
    <radialGradient id="radial-gradient" cx="0.676" cy="0.338" r="0.729" gradientTransform="translate(-0.002 0.004) rotate(-0.341)" gradientUnits="objectBoundingBox">
      <stop offset="0" stop-color="#4ad7e3"/>
      <stop offset="1" stop-color="#2777b2"/>
    </radialGradient>
  </defs>
  <g id="SpaceIllustration" transform="translate(-985.498 -4828.475)">
    <ellipse id="Эллипс_649" data-name="Эллипс 649" cx="237.689" cy="137.109" rx="237.689" ry="137.109" transform="translate(1026.006 4984.391)" fill="none" stroke="#6681aa" stroke-miterlimit="10" stroke-width="1.4"/>
    <ellipse id="Эллипс_650" data-name="Эллипс 650" cx="137.109" cy="237.689" rx="137.109" ry="237.689" transform="translate(1126.588 4883.811)" fill="none" stroke="#4c6e9f" stroke-miterlimit="10" stroke-width="1.4"/>
    <circle id="Эллипс_651" data-name="Эллипс 651" cx="237.689" cy="237.689" r="237.689" transform="translate(1026.006 4883.811)" fill="none" stroke="#2a4577" stroke-miterlimit="10" stroke-width="1.4"/>
    <g id="Сгруппировать_6125" data-name="Сгруппировать 6125" transform="translate(-85.372 0.006)">
      <circle id="Эллипс_714" data-name="Эллипс 714" cx="40.005" cy="40.005" r="40.005" transform="translate(1296.924 5381.289) rotate(-68)" fill="#1da0df"/>
      <path id="Вычитание_173" data-name="Вычитание 173" d="M18452,12622.007a40,40,0,1,1,0-80,40.437,40.437,0,0,1,6.441.515,40.011,40.011,0,0,0,0,78.976A40.517,40.517,0,0,1,18452,12622.007Z" transform="translate(-17229.072 17754.281) rotate(-68)" fill="#188fd3"/>
    </g>
    <circle id="Эллипс_663" data-name="Эллипс 663" cx="40.005" cy="40.005" r="40.005" transform="translate(985.998 5081.492)" fill="#fe3b1f"/>
    <path id="Вычитание_137" data-name="Вычитание 137" d="M18452,12622.007a40,40,0,1,1,0-80,40.437,40.437,0,0,1,6.441.515,40.011,40.011,0,0,0,0,78.976A40.517,40.517,0,0,1,18452,12622.007Z" transform="translate(-17426 -7460.508)" fill="#d1341e" stroke="rgba(0,0,0,0)" stroke-miterlimit="10" stroke-width="1"/>
    <circle id="Эллипс_652" data-name="Эллипс 652" cx="40.005" cy="40.005" r="40.005" transform="translate(1461.389 5081.492)" fill="#2bb451"/>
    <g id="Сгруппировать_5954" data-name="Сгруппировать 5954" transform="translate(1476.805 5106.73)">
      <g id="Сгруппировать_5821" data-name="Сгруппировать 5821" transform="translate(19.733 18.271)">
        <path id="Контур_6329" data-name="Контур 6329" d="M2678.074,5189.027a.871.871,0,0,0-.431.1l-4.138,2.39a.873.873,0,0,0-.431.756v4.771a.874.874,0,0,0,.431.755l1.081.624a1.762,1.762,0,0,0,.958.255,1.145,1.145,0,0,0,1.221-1.292v-4.709a.118.118,0,0,0-.123-.114h-.518a.118.118,0,0,0-.124.114v4.709c0,.363-.379.729-.992.422l-1.125-.659a.123.123,0,0,1-.07-.1v-4.771a.14.14,0,0,1,.07-.115l4.129-2.38a.122.122,0,0,1,.124,0l4.129,2.38a.143.143,0,0,1,.07.115v4.771a.133.133,0,0,1-.061.114l-4.138,2.381a.126.126,0,0,1-.124,0l-1.063-.633a.113.113,0,0,0-.105,0,2.726,2.726,0,0,1-.624.282c-.068.023-.171.06.035.176l1.388.816a.866.866,0,0,0,.862,0l4.138-2.38a.875.875,0,0,0,.43-.755v-4.771a.874.874,0,0,0-.43-.756l-4.138-2.39a.867.867,0,0,0-.431-.1Z" transform="translate(-2673.074 -5189.027)" fill="#fff" fill-rule="evenodd"/>
        <path id="Контур_6330" data-name="Контур 6330" d="M2681.517,5194.387c-1.178,0-1.88.5-1.88,1.334,0,.905.7,1.154,1.827,1.266,1.353.133,1.459.331,1.459.6,0,.462-.368.659-1.239.659-1.094,0-1.334-.272-1.415-.817a.119.119,0,0,0-.115-.1h-.536a.125.125,0,0,0-.123.123c0,.7.378,1.52,2.188,1.52,1.309,0,2.064-.514,2.064-1.414s-.61-1.132-1.88-1.3-1.406-.253-1.406-.553c0-.248.1-.58,1.054-.58.849,0,1.163.183,1.291.755a.121.121,0,0,0,.115.1h.535a.131.131,0,0,0,.088-.043.114.114,0,0,0,.036-.088c-.083-.985-.74-1.449-2.065-1.449Z" transform="translate(-2675.411 -5190.978)" fill="#fff" fill-rule="evenodd"/>
      </g>
      <g id="Сгруппировать_5822" data-name="Сгруппировать 5822">
        <path id="path22" d="M2675.142,5160.3a.27.27,0,0,0-.132.035.267.267,0,0,0-.132.229v6.721a.178.178,0,0,1-.088.158.185.185,0,0,1-.184,0l-1.1-.633a.526.526,0,0,0-.527,0l-4.385,2.53a.541.541,0,0,0-.263.466v5.061a.526.526,0,0,0,.263.457l4.385,2.53a.526.526,0,0,0,.527,0l4.384-2.53a.525.525,0,0,0,.263-.457v-12.616a.535.535,0,0,0-.272-.466l-2.609-1.459a.255.255,0,0,0-.132-.026Zm-28.2,6.317a.5.5,0,0,0-.237.062l-4.384,2.53a.525.525,0,0,0-.264.457l.009,6.792a.258.258,0,0,0,.131.228.251.251,0,0,0,.264,0l2.6-1.493a.537.537,0,0,0,.272-.457v-3.171a.526.526,0,0,1,.264-.458l1.107-.641a.528.528,0,0,1,.527,0l1.107.641a.524.524,0,0,1,.264.458v3.171a.539.539,0,0,0,.272.457l2.6,1.493a.252.252,0,0,0,.264,0,.263.263,0,0,0,.132-.228l.009-6.792a.523.523,0,0,0-.263-.457l-4.385-2.53a.491.491,0,0,0-.237-.062Zm39.4.062a.521.521,0,0,0-.264.07l-4.384,2.531a.524.524,0,0,0-.264.457v5.061a.529.529,0,0,0,.272.457l4.349,2.478a.526.526,0,0,0,.518.009l2.636-1.468a.267.267,0,0,0,.141-.228.257.257,0,0,0-.132-.228l-4.41-2.531a.282.282,0,0,1-.141-.236v-1.582a.271.271,0,0,1,.141-.228l1.37-.791a.262.262,0,0,1,.263,0l1.371.791a.262.262,0,0,1,.132.228v1.248a.264.264,0,0,0,.4.229l2.627-1.528a.529.529,0,0,0,.264-.457v-1.222a.524.524,0,0,0-.264-.457l-4.358-2.531a.528.528,0,0,0-.263-.071Zm-13.109,3.777a.143.143,0,0,1,.071.018l1.5.87a.137.137,0,0,1,.07.115v1.739a.136.136,0,0,1-.07.114l-1.5.87a.13.13,0,0,1-.132,0l-1.5-.87a.136.136,0,0,1-.07-.114v-1.739a.136.136,0,0,1,.07-.115l1.5-.87a.111.111,0,0,1,.061-.017Z" transform="translate(-2642.055 -5160.305)" fill="#fff" fill-rule="evenodd"/>
        <path id="Контур_6331" data-name="Контур 6331" d="M2667.628,5170.29a.521.521,0,0,0-.264.071l-4.384,2.521a.542.542,0,0,0-.263.466v5.061a.527.527,0,0,0,.263.458l4.384,2.53a.525.525,0,0,0,.527,0l4.384-2.53a.527.527,0,0,0,.263-.458v-5.061a.542.542,0,0,0-.263-.466l-4.384-2.521A.521.521,0,0,0,2667.628,5170.29Z" transform="translate(-2649.573 -5163.938)" fill="#fff" fill-rule="evenodd"/>
        <path id="Контур_6332" data-name="Контур 6332" d="M2711.106,5177.39a.113.113,0,0,0-.053.008l-.844.491a.1.1,0,0,0-.053.088v.967a.1.1,0,0,0,.053.087l.844.482a.09.09,0,0,0,.1,0l.844-.482a.1.1,0,0,0,.053-.087v-.967a.106.106,0,0,0-.053-.088l-.844-.491A.068.068,0,0,0,2711.106,5177.39Z" transform="translate(-2666.834 -5166.521)" fill="#fff" fill-rule="evenodd"/>
      </g>
    </g>
    <circle id="Эллипс_653" data-name="Эллипс 653" cx="99.632" cy="99.632" r="99.632" transform="translate(1363.262 5221.131) rotate(180)" fill="#3c4d74"/>
    <circle id="Эллипс_672" data-name="Эллипс 672" cx="32.041" cy="32.041" r="32.041" transform="translate(1404.879 4929.418)" fill="#536bb1"/>
    <circle id="Эллипс_673" data-name="Эллипс 673" cx="40.005" cy="40.005" r="40.005" transform="translate(1342.002 4962.49)" fill="#1da0df"/>
    <path id="Контур_6474" data-name="Контур 6474" d="M2199.292,5623.875a31.583,31.583,0,0,0-14.331,3.109c-3.725,1.945-6.232,4.746-6.232,8.03s2.507,6.084,6.232,8.029a34.583,34.583,0,0,0,28.663,0c3.725-1.944,6.232-4.746,6.232-8.029s-2.507-6.084-6.232-8.03A31.586,31.586,0,0,0,2199.292,5623.875Zm0,1.714a30.039,30.039,0,0,1,13.539,2.915c3.407,1.777,5.311,4.114,5.311,6.51s-1.9,4.732-5.311,6.51a32.9,32.9,0,0,1-27.077,0c-3.407-1.778-5.312-4.113-5.312-6.51s1.9-4.733,5.312-6.51A30.037,30.037,0,0,1,2199.292,5625.589Zm-2.135,1.714-2.149,10.282h2.249l1.085-5.141h1.8a1.6,1.6,0,0,1,1.131.284,1.27,1.27,0,0,1,.111,1.071l-.82,3.786h2.282l.891-4.093a2.2,2.2,0,0,0-.429-2.139,3.889,3.889,0,0,0-2.61-.622h-2l.713-3.428Zm-9.86,3.428-1.737,9.424h2.266l.452-2.57h1.412c2.952,0,4.558-.683,5.158-3.216.516-2.179-.8-3.638-2.982-3.638Zm17.993,0-1.737,9.424h2.266l.452-2.57h1.413c2.952,0,4.559-.683,5.157-3.216.515-2.179-.8-3.638-2.982-3.638Zm-16.045,1.713h1.764c1.466,0,1.774.659,1.7,1.393-.2,1.891-1.375,2.035-2.641,2.035H2188.6Zm17.993,0H2209c1.466,0,1.773.659,1.7,1.393-.2,1.891-1.375,2.035-2.641,2.035h-1.469Z" transform="translate(-935.596 -275.824)" fill="#fff"/>
    <circle id="Эллипс_675" data-name="Эллипс 675" cx="40.007" cy="40.007" r="40.007" transform="translate(1224.055 4843.803)" fill="url(#radial-gradient)"/>
    <path id="wordpress" d="M2179.466,5164.479a20.184,20.184,0,1,0,20.184-20.185,20.184,20.184,0,0,0-20.184,20.185m1.555,0a18.591,18.591,0,0,1,1.615-7.582l8.887,24.346a18.629,18.629,0,0,1-10.5-16.764m18.629,18.627a18.639,18.639,0,0,1-5.262-.758l5.59-16.237,5.727,15.685a1.681,1.681,0,0,0,.131.253,18.532,18.532,0,0,1-6.185,1.057m15.055-18.977a17.582,17.582,0,0,0,1.418-6.674,13.783,13.783,0,0,0-.128-1.917,18.633,18.633,0,0,1-6.979,25.04Zm-4.016-5.729a9.827,9.827,0,0,1,1.537,5.138,17.324,17.324,0,0,1-1.418,6.023l-1.859,6.205-6.732-20.022c1.124-.061,2.131-.177,2.131-.177a.771.771,0,0,0-.117-1.537s-3.018.239-4.966.239c-1.83,0-4.9-.239-4.9-.239a.771.771,0,0,0-.12,1.537s.952.117,1.956.177l2.9,7.952-4.075,12.224-6.786-20.175c1.124-.061,2.134-.178,2.134-.178a.771.771,0,0,0-.119-1.537s-3.014.239-4.967.239c-.348,0-.76-.009-1.2-.021a18.62,18.62,0,0,1,28.142-3.505c-.08-.006-.162-.016-.239-.016a3.223,3.223,0,0,0-3.129,3.3c0,1.537.885,2.835,1.83,4.369" transform="translate(-817.467 -162.794)" fill="#fff"/>
    <g id="Group_5724" data-name="Group 5724" transform="translate(1421.17 4952.691)">
      <path id="Subtraction_1" data-name="Subtraction 1" d="M2352.548,5059.938h0l-6.032-3.359h-13.2a3.188,3.188,0,0,1-3.191-3.187v-10.64a3.177,3.177,0,0,1,3.177-3.19h27.864a3.189,3.189,0,0,1,3.191,3.188v10.64a3.189,3.189,0,0,1-3.188,3.191h-10l1.372,3.358Zm-13.319-11.443h0a18.66,18.66,0,0,0,1.334,3.454,10.326,10.326,0,0,0,1.741,2.474,1.441,1.441,0,0,0,1.022.518.7.7,0,0,0,.078,0,.9.9,0,0,0,.737-.5,1.654,1.654,0,0,0,.167-.918,26.041,26.041,0,0,1,.389-5.3,29.258,29.258,0,0,1,.607-3.013,9.509,9.509,0,0,1,.743-2.01,1.2,1.2,0,0,0,.139-.668,1.085,1.085,0,0,0-.431-.793,1.226,1.226,0,0,0-.771-.283c-.035,0-.071,0-.1,0a1.068,1.068,0,0,0-.919.612,12.736,12.736,0,0,0-1.106,3.092,35.408,35.408,0,0,0-.73,4.562,26.2,26.2,0,0,1-1.322-4.759,1.8,1.8,0,0,0-.371-.879.876.876,0,0,0-.683-.293.747.747,0,0,0-.087,0,1.327,1.327,0,0,0-1.044.835l-3.047,5.8c-.51-2.057-.983-4.543-1.405-7.388a1.237,1.237,0,0,0-.333-.756,1.022,1.022,0,0,0-.729-.252c-.047,0-.1,0-.147.006a1.116,1.116,0,0,0-.877.43,1.188,1.188,0,0,0-.223.933,60.628,60.628,0,0,0,2.3,10.563c.27.646.573.962.929.962a.348.348,0,0,0,.045,0,1.572,1.572,0,0,0,.962-.637,9.581,9.581,0,0,0,1.139-1.784c.433-.893,1.107-2.24,2-4.007Zm19.774-5.538a3.309,3.309,0,0,0-1.817.521,4.751,4.751,0,0,0-1.453,1.566,7.336,7.336,0,0,0-.814,1.868,7.737,7.737,0,0,0-.271,2.057,5.411,5.411,0,0,0,.668,2.755,3.323,3.323,0,0,0,.931,1.058,3.392,3.392,0,0,0,1.3.557,3.672,3.672,0,0,0,.752.083,3.339,3.339,0,0,0,1.828-.521,4.653,4.653,0,0,0,1.44-1.566,7.463,7.463,0,0,0,.814-1.879,7.747,7.747,0,0,0,.271-2.059,5.173,5.173,0,0,0-.668-2.741,3.325,3.325,0,0,0-.931-1.058,3.412,3.412,0,0,0-1.3-.557,3.722,3.722,0,0,0-.75-.082Zm-8.711,0a3.311,3.311,0,0,0-1.818.521,4.748,4.748,0,0,0-1.452,1.566,7.3,7.3,0,0,0-.814,1.868,7.718,7.718,0,0,0-.272,2.057,5.413,5.413,0,0,0,.668,2.755,3.329,3.329,0,0,0,.931,1.058,3.393,3.393,0,0,0,1.3.557,3.665,3.665,0,0,0,.751.083,3.339,3.339,0,0,0,1.829-.521,4.657,4.657,0,0,0,1.441-1.566,7.462,7.462,0,0,0,.814-1.879,7.719,7.719,0,0,0,.273-2.059,5.241,5.241,0,0,0-.668-2.741,3.243,3.243,0,0,0-2.227-1.614A3.6,3.6,0,0,0,2350.292,5042.957Zm7.917,8.073a.862.862,0,0,1-.166-.016c-.34-.071-.618-.375-.82-.9a3.491,3.491,0,0,1-.251-1.266,4.794,4.794,0,0,1,.1-1.016,4.52,4.52,0,0,1,.737-1.656,1.618,1.618,0,0,1,1.254-.882.983.983,0,0,1,.193.02c.341.071.618.375.821.9a3.507,3.507,0,0,1,.25,1.267,4.854,4.854,0,0,1-.1,1.029,3.663,3.663,0,0,1-1.058,2.06A1.5,1.5,0,0,1,2358.21,5051.03Zm-8.724,0a.871.871,0,0,1-.167-.016c-.34-.071-.617-.375-.82-.9a3.512,3.512,0,0,1-.251-1.266,4.842,4.842,0,0,1,.1-1.016,4.533,4.533,0,0,1,.738-1.656,1.618,1.618,0,0,1,1.254-.882.991.991,0,0,1,.193.02c.341.071.617.375.821.9a3.486,3.486,0,0,1,.25,1.267,4.086,4.086,0,0,1-.1,1.029,3.663,3.663,0,0,1-1.057,2.06,1.5,1.5,0,0,1-.963.461Z" transform="translate(-2330.128 -5039.561)" fill="#fff"/>
    </g>
    <rect id="Прямоугольник_5327" data-name="Прямоугольник 5327" width="9.457" height="9.457" transform="translate(1109.027 4890.889)" fill="#fe3b1f"/>
    <rect id="Прямоугольник_5328" data-name="Прямоугольник 5328" width="9.457" height="9.457" transform="translate(1541.395 5048.164)" fill="#fe3b1f"/>
    <rect id="Прямоугольник_5329" data-name="Прямоугольник 5329" width="9.457" height="9.457" transform="translate(1531.938 5057.621)" fill="#943033"/>
    <rect id="Прямоугольник_5322" data-name="Прямоугольник 5322" width="9.457" height="9.457" transform="translate(1421.17 5348.697)" fill="#fe3b1f"/>
    <rect id="Прямоугольник_5330" data-name="Прямоугольник 5330" width="6.457" height="6.457" transform="translate(1274.043 5373.996)" fill="#0c8fd3"/>
    <rect id="Прямоугольник_5331" data-name="Прямоугольник 5331" width="6.457" height="6.457" transform="translate(1261.043 5386.452)" fill="#0c8fd3" opacity="0.5"/>
    <rect id="Прямоугольник_5332" data-name="Прямоугольник 5332" width="6.457" height="6.457" transform="translate(1260.469 5333.996)" fill="#0c8fd3"/>
    <rect id="Прямоугольник_5323" data-name="Прямоугольник 5323" width="6.457" height="6.457" transform="translate(1494.953 5093.043)" fill="#239844"/>
    <rect id="Прямоугольник_5324" data-name="Прямоугольник 5324" width="6.457" height="6.457" transform="translate(1483.262 5141.5)" fill="#239844" opacity="0.499"/>
    <rect id="Прямоугольник_5333" data-name="Прямоугольник 5333" width="6.457" height="6.457" transform="translate(1284.656 4863.5)" fill="#239844" opacity="0.499"/>
    <rect id="Прямоугольник_5334" data-name="Прямоугольник 5334" width="6.457" height="6.457" transform="translate(1029.219 5093.043)" fill="#d1341e"/>
    <rect id="Прямоугольник_5335" data-name="Прямоугольник 5335" width="6.457" height="6.457" transform="translate(1035.676 5099.5)" fill="#d1341e" opacity="0.4"/>
    <rect id="Прямоугольник_5336" data-name="Прямоугольник 5336" width="6.457" height="6.457" transform="translate(1022.779 5093.043)" fill="#d1341e" opacity="0.5"/>
    <rect id="Прямоугольник_5337" data-name="Прямоугольник 5337" width="6.457" height="6.457" transform="translate(1046.572 5136.992)" fill="#d1341e"/>
    <rect id="Прямоугольник_5338" data-name="Прямоугольник 5338" width="6.457" height="6.457" transform="translate(1283.469 5337.996)" fill="#0c8fd3" opacity="0.5"/>
    <rect id="Прямоугольник_5339" data-name="Прямоугольник 5339" width="6.457" height="6.457" transform="translate(1358.771 5020.868)" fill="#0c8fd3" opacity="0.5"/>
    <rect id="Прямоугольник_5340" data-name="Прямоугольник 5340" width="6.457" height="6.457" transform="translate(1424.393 4942.235)" fill="#3e579f" opacity="0.5"/>
    <rect id="Прямоугольник_5341" data-name="Прямоугольник 5341" width="6.457" height="6.457" transform="translate(1365.229 5027.324)" fill="#0c8fd3"/>
    <rect id="Прямоугольник_5342" data-name="Прямоугольник 5342" width="6.457" height="6.457" transform="translate(1417.936 4942.235)" fill="#3e579f"/>
    <rect id="Прямоугольник_5325" data-name="Прямоугольник 5325" width="6.457" height="6.457" transform="translate(1476.805 5135.043)" fill="#239844"/>
    <rect id="Прямоугольник_5343" data-name="Прямоугольник 5343" width="6.457" height="6.457" transform="translate(1278.199 4857.043)" fill="#239844"/>
    <rect id="Прямоугольник_5344" data-name="Прямоугольник 5344" width="9.457" height="9.457" transform="translate(1099.57 5042.494)" fill="#3c446a"/>
    <rect id="Прямоугольник_5345" data-name="Прямоугольник 5345" width="9.457" height="9.457" transform="translate(990.299 5211.676)" fill="#1a6498"/>
    <rect id="Прямоугольник_5326" data-name="Прямоугольник 5326" width="9.457" height="9.457" transform="translate(1553.182 5241.492)" fill="#1da0df"/>
    <rect id="Прямоугольник_5346" data-name="Прямоугольник 5346" width="9.457" height="9.457" transform="translate(1421.713 4874.354)" fill="#21634e"/>
    <rect id="Прямоугольник_5347" data-name="Прямоугольник 5347" width="9.457" height="9.457" transform="translate(1121.859 5270.043)" fill="#2bb451"/>
    <rect id="Прямоугольник_5348" data-name="Прямоугольник 5348" width="9.457" height="9.457" transform="translate(1112.402 5260.586)" fill="#21634e"/>
    <rect id="Прямоугольник_5349" data-name="Прямоугольник 5349" width="9.457" height="9.457" transform="translate(1014.047 4902.961)" fill="#2bb451"/>
    <path id="Контур_6476" data-name="Контур 6476" d="M40.005,0A40.005,40.005,0,1,1,0,40.005,40.005,40.005,0,0,1,40.005,0Z" transform="translate(1278.707 4829.163) rotate(60)" fill="#03bbdd"/>
    <circle id="Эллипс_654" data-name="Эллипс 654" cx="18.82" cy="18.82" r="18.82" transform="translate(1413.637 5268.808)" fill="#293962"/>
    <circle id="Эллипс_677" data-name="Эллипс 677" cx="11.885" cy="11.885" r="11.885" transform="translate(1048.572 5234.839)" fill="#293962"/>
    <g id="Сгруппировать_5956" data-name="Сгруппировать 5956" transform="translate(1245.475 4867.275)">
      <circle id="Эллипс_287" data-name="Эллипс 287" cx="3.32" cy="3.32" r="3.32" transform="translate(15.268 13.183)" fill="#fff"/>
      <path id="Контур_6324" data-name="Контур 6324" d="M2201.87,4721.954a49.179,49.179,0,0,1-6.338-.387,28.468,28.468,0,0,1-5.452-1.208,15.006,15.006,0,0,1-4.855-2.6,4.7,4.7,0,0,1-1.942-3.416,4.489,4.489,0,0,1,1.845-3.282,14.553,14.553,0,0,1,4.6-2.472,30.92,30.92,0,0,1,5.57-1.317,44.678,44.678,0,0,1,6.568-.472,38.088,38.088,0,0,1,11.977,1.757,15.1,15.1,0,0,1,4.7,2.478,4.5,4.5,0,0,1,1.912,3.308,4.675,4.675,0,0,1-2.02,3.444,15.815,15.815,0,0,1-5.014,2.585,29.882,29.882,0,0,1-5.354,1.183A46.534,46.534,0,0,1,2201.87,4721.954Zm0-13.564a43.18,43.18,0,0,0-6.334.455,29.293,29.293,0,0,0-5.281,1.246,12.946,12.946,0,0,0-4.094,2.179,3.063,3.063,0,0,0-1.291,2.074,3.289,3.289,0,0,0,1.388,2.209,13.406,13.406,0,0,0,4.336,2.3,26.87,26.87,0,0,0,5.144,1.135,47.574,47.574,0,0,0,6.132.373,36.661,36.661,0,0,0,11.053-1.5,14.251,14.251,0,0,0,4.5-2.3,3.27,3.27,0,0,0,1.441-2.218,3.09,3.09,0,0,0-1.341-2.089,13.538,13.538,0,0,0-4.2-2.2A36.491,36.491,0,0,0,2201.87,4708.39Z" transform="translate(-2183.282 -4697.842)" fill="#fff"/>
      <path id="Контур_6325" data-name="Контур 6325" d="M2201.107,4722.446a3.509,3.509,0,0,1-1.773-.436,4.49,4.49,0,0,1-1.92-3.238,14.541,14.541,0,0,1,.158-5.223,30.819,30.819,0,0,1,1.641-5.486,44.642,44.642,0,0,1,2.873-5.925,38.027,38.027,0,0,1,7.507-9.5,15.1,15.1,0,0,1,4.493-2.832,4.5,4.5,0,0,1,3.821,0,4.673,4.673,0,0,1,1.974,3.47,15.808,15.808,0,0,1-.265,5.636,29.89,29.89,0,0,1-1.65,5.228,46.458,46.458,0,0,1-2.753,5.569,49.066,49.066,0,0,1-3.5,5.3,28.456,28.456,0,0,1-3.769,4.119,14.983,14.983,0,0,1-4.678,2.908A6.532,6.532,0,0,1,2201.107,4722.446Zm15.1-31.472a4.685,4.685,0,0,0-1.574.325,13.553,13.553,0,0,0-4,2.539,36.457,36.457,0,0,0-7.173,9.093h0a43.119,43.119,0,0,0-2.771,5.714,29.257,29.257,0,0,0-1.558,5.2,12.962,12.962,0,0,0-.157,4.636,3.063,3.063,0,0,0,1.153,2.154,3.289,3.289,0,0,0,2.607-.1,13.417,13.417,0,0,0,4.161-2.6,26.939,26.939,0,0,0,3.553-3.889,47.721,47.721,0,0,0,3.387-5.126,36.635,36.635,0,0,0,4.223-10.325,14.245,14.245,0,0,0,.255-5.054,3.273,3.273,0,0,0-1.2-2.356A1.809,1.809,0,0,0,2216.208,4690.975Z" transform="translate(-2190.061 -4689.387)" fill="#fff"/>
      <path id="Контур_6326" data-name="Контур 6326" d="M2216.2,4722.489a6.151,6.151,0,0,1-2.027-.384,14.507,14.507,0,0,1-4.446-2.746,30.858,30.858,0,0,1-3.931-4.16,44.807,44.807,0,0,1-3.7-5.448h0a38.09,38.09,0,0,1-4.479-11.246,15.11,15.11,0,0,1-.209-5.307,4.5,4.5,0,0,1,1.906-3.312,4.675,4.675,0,0,1,3.992.023,15.814,15.814,0,0,1,4.75,3.044,29.934,29.934,0,0,1,3.706,4.041,46.662,46.662,0,0,1,3.45,5.167,49.214,49.214,0,0,1,2.841,5.679,28.447,28.447,0,0,1,1.686,5.322,14.988,14.988,0,0,1,.182,5.5,4.7,4.7,0,0,1-1.983,3.393A3.426,3.426,0,0,1,2216.2,4722.489Zm-12.729-13.533a43.271,43.271,0,0,0,3.567,5.254,29.337,29.337,0,0,0,3.725,3.946,12.951,12.951,0,0,0,3.938,2.451,3.066,3.066,0,0,0,2.442.077,3.288,3.288,0,0,0,1.217-2.308,13.415,13.415,0,0,0-.178-4.906,26.808,26.808,0,0,0-1.594-5.02,47.561,47.561,0,0,0-2.75-5.494,36.6,36.6,0,0,0-6.835-8.815,14.243,14.243,0,0,0-4.251-2.744,3.272,3.272,0,0,0-2.641-.136,3.089,3.089,0,0,0-1.136,2.207,13.547,13.547,0,0,0,.2,4.732,36.471,36.471,0,0,0,4.3,10.756Z" transform="translate(-2190.07 -4689.42)" fill="#fff"/>
    </g>
    <path id="Вычитание_144" data-name="Вычитание 144" d="M18452,12622.007a40,40,0,1,1,0-80,40.437,40.437,0,0,1,6.441.515,40.011,40.011,0,0,0,0,78.976A40.517,40.517,0,0,1,18452,12622.007Z" transform="translate(2934.396 -17387.102) rotate(60)" fill="#01a4cb" stroke="rgba(0,0,0,0)" stroke-miterlimit="10" stroke-width="1"/>
    <path id="Вычитание_130" data-name="Вычитание 130" d="M40,0A40,40,0,0,0,11.717,68.289,39.915,39.915,0,0,0,40,80a40.437,40.437,0,0,0,6.441-.515,40,40,0,0,1-21.84-67.774A39.935,39.935,0,0,1,46.441.515,40.517,40.517,0,0,0,40,0Z" transform="translate(1541.398 5161.497) rotate(180)" fill="#179844" stroke="rgba(0,0,0,0)" stroke-miterlimit="10" stroke-width="1"/>
    <text id="Tech_Stack" data-name="Tech
Stack" transform="translate(1263.997 5113.502)" fill="#fff" font-size="32" font-family="Biotif-SemiBold, Biotif" font-weight="600"><tspan x="-34.875" y="0">Tech</tspan><tspan x="-40.609" y="36">Stack</tspan></text>
    <path id="Вычитание_151" data-name="Вычитание 151" d="M18452,12622.007a40,40,0,1,1,0-80,40.437,40.437,0,0,1,6.441.515,40.011,40.011,0,0,0,0,78.976A40.517,40.517,0,0,1,18452,12622.007Z" transform="translate(19834.01 17584.496) rotate(180)" fill="#0c8fd3" stroke="rgba(0,0,0,0)" stroke-miterlimit="10" stroke-width="1"/>
    <path id="Вычитание_158" data-name="Вычитание 158" d="M18443.889,12605.78a31.889,31.889,0,1,1,0-63.778,32.273,32.273,0,0,1,5.137.41,31.9,31.9,0,0,0-.006,62.959A32.29,32.29,0,0,1,18443.889,12605.78Z" transform="translate(19880.961 17535.199) rotate(180)" fill="#3e579f" stroke="rgba(0,0,0,0)" stroke-miterlimit="10" stroke-width="1"/>
    <path id="Вычитание_166" data-name="Вычитание 166" d="M171.027,183.9v0a99.756,99.756,0,0,0,20.67-31.338,99.136,99.136,0,0,0,5.612-18.416,100.611,100.611,0,0,0-.069-39.819A99.086,99.086,0,0,0,182.248,58.7a99.923,99.923,0,0,0-43.835-36.1,99.13,99.13,0,0,0-18.7-5.805,100.415,100.415,0,0,0-48.225,2.007A99.134,99.134,0,0,0,46.463,30.132,99.826,99.826,0,0,1,78.447,8.1a99.119,99.119,0,0,1,18.986-6,100.6,100.6,0,0,1,40.5-.07,99.086,99.086,0,0,1,35.626,14.991,99.923,99.923,0,0,1,36.1,43.835,99.131,99.131,0,0,1,5.805,18.7,100.467,100.467,0,0,1-1.309,45.731,99.483,99.483,0,0,1-24.091,43A100.175,100.175,0,0,1,171.027,183.9Z" transform="translate(1381.545 5221.131) rotate(180)" fill="#2c3d64"/>
    <g id="Сгруппировать_5957" data-name="Сгруппировать 5957" transform="translate(14991.385 6398)">
      <rect id="Прямоугольник_5300" data-name="Прямоугольник 5300" width="9.457" height="9.457" transform="translate(-13699.729 -1212.506)" fill="#2c3d64" opacity="0.3"/>
      <rect id="Прямоугольник_5302" data-name="Прямоугольник 5302" width="9.457" height="9.457" transform="translate(-13718.643 -1212.506)" fill="#2c3d64" opacity="0.5"/>
      <rect id="Прямоугольник_5303" data-name="Прямоугольник 5303" width="9.457" height="9.457" transform="translate(-13728.1 -1212.506)" fill="#2c3d64"/>
      <rect id="Прямоугольник_5305" data-name="Прямоугольник 5305" width="9.457" height="9.457" transform="translate(-13747.014 -1212.506)" fill="#2c3d64"/>
      <rect id="Прямоугольник_5306" data-name="Прямоугольник 5306" width="9.457" height="9.457" transform="translate(-13756.471 -1212.506)" fill="#2c3d64"/>
      <rect id="Прямоугольник_5307" data-name="Прямоугольник 5307" width="9.457" height="9.457" transform="translate(-13765.928 -1212.506)" fill="#2c3d64"/>
      <rect id="Прямоугольник_5308" data-name="Прямоугольник 5308" width="9.457" height="9.457" transform="translate(-13775.385 -1212.506)" fill="#2c3d64"/>
    </g>
    <g id="Сгруппировать_5958" data-name="Сгруппировать 5958" transform="translate(14968.889 6377.546)">
      <rect id="Прямоугольник_5300-2" data-name="Прямоугольник 5300" width="9.457" height="9.457" transform="translate(-13699.729 -1212.506)" fill="#2c3d64" opacity="0.3"/>
      <rect id="Прямоугольник_5301" data-name="Прямоугольник 5301" width="9.457" height="9.457" transform="translate(-13709.186 -1212.506)" fill="#2c3d64" opacity="0.5"/>
      <rect id="Прямоугольник_5302-2" data-name="Прямоугольник 5302" width="9.457" height="9.457" transform="translate(-13718.643 -1212.506)" fill="#2c3d64" opacity="0.5"/>
      <rect id="Прямоугольник_5303-2" data-name="Прямоугольник 5303" width="9.457" height="9.457" transform="translate(-13728.1 -1212.506)" fill="#2c3d64"/>
      <rect id="Прямоугольник_5304" data-name="Прямоугольник 5304" width="9.457" height="9.457" transform="translate(-13737.557 -1212.506)" fill="#2c3d64"/>
      <rect id="Прямоугольник_5305-2" data-name="Прямоугольник 5305" width="9.457" height="9.457" transform="translate(-13747.014 -1212.506)" fill="#2c3d64"/>
      <rect id="Прямоугольник_5306-2" data-name="Прямоугольник 5306" width="9.457" height="9.457" transform="translate(-13756.471 -1212.506)" fill="#2c3d64"/>
      <rect id="Прямоугольник_5307-2" data-name="Прямоугольник 5307" width="9.457" height="9.457" transform="translate(-13765.928 -1212.506)" fill="#2c3d64"/>
      <rect id="Прямоугольник_5308-2" data-name="Прямоугольник 5308" width="9.457" height="9.457" transform="translate(-13775.385 -1212.506)" fill="#2c3d64"/>
    </g>
    <g id="Сгруппировать_5959" data-name="Сгруппировать 5959" transform="translate(14956.889 6279.583)">
      <rect id="Прямоугольник_5300-3" data-name="Прямоугольник 5300" width="9.457" height="9.457" transform="translate(-13699.729 -1212.506)" fill="#2c3d64" opacity="0.3"/>
      <rect id="Прямоугольник_5302-3" data-name="Прямоугольник 5302" width="9.457" height="9.457" transform="translate(-13718.643 -1212.506)" fill="#2c3d64" opacity="0.5"/>
      <rect id="Прямоугольник_5303-3" data-name="Прямоугольник 5303" width="9.457" height="9.457" transform="translate(-13728.1 -1212.506)" fill="#2c3d64"/>
      <rect id="Прямоугольник_5304-2" data-name="Прямоугольник 5304" width="9.457" height="9.457" transform="translate(-13737.557 -1212.506)" fill="#2c3d64"/>
      <rect id="Прямоугольник_5306-3" data-name="Прямоугольник 5306" width="9.457" height="9.457" transform="translate(-13756.471 -1212.506)" fill="#2c3d64"/>
    </g>
    <rect id="Прямоугольник_5350" data-name="Прямоугольник 5350" width="9.457" height="9.457" transform="translate(1291.834 5047.223)" fill="#2c3d64" opacity="0.5"/>
    <rect id="Прямоугольник_5351" data-name="Прямоугольник 5351" width="6.457" height="6.457" transform="translate(1290.105 4878.625)" fill="#20a4cb" opacity="0.499"/>
    <rect id="Прямоугольник_5352" data-name="Прямоугольник 5352" width="6.457" height="6.457" transform="translate(1290.105 4885.082)" fill="#20a4cb" opacity="0.3"/>
    <rect id="Прямоугольник_5353" data-name="Прямоугольник 5353" width="6.457" height="6.457" transform="translate(1268.105 4909.625)" fill="#20a4cb" opacity="0.499"/>
    <rect id="Прямоугольник_5354" data-name="Прямоугольник 5354" width="6.457" height="6.457" transform="translate(1290.105 4872.169)" fill="#20a4cb"/>
    <rect id="Прямоугольник_5355" data-name="Прямоугольник 5355" width="9.457" height="9.457" transform="translate(1256.734 5046.624)" fill="#2c3d64" opacity="0.5"/>
    <rect id="Прямоугольник_5356" data-name="Прямоугольник 5356" width="9.457" height="9.457" transform="translate(1247.277 5046.624)" fill="#2c3d64"/>
    <g id="Page-1" transform="translate(999.795 5105.901)">
      <g id="Black-Next.js" transform="translate(0.203 0.287)">
        <g id="next-black" transform="translate(0 0)">
          <g id="EXT-_-Type-something" data-name="EXT-+-Type-something">
            <path id="EXT" d="M48.942,8.633H58.995v.8H49.863v5.985H58.45v.8H49.863v6.571H59.1v.795H48.942Zm10.953,0h1.068L65.7,15.2l4.838-6.571L77.114.287,66.3,15.894l5.571,7.68h-1.11L65.7,16.584l-5.089,6.989H59.518l5.613-7.68Zm12.377.8v-.8H83.728v.8H78.451V23.574h-.921V9.428Z" transform="translate(-36.366 -0.287)" fill="#fff"/>
            <path id="Type-something" d="M.2,32.632H1.355L17.238,56.286l-6.564-8.713L1.166,33.762,1.124,47.573H.2Z" transform="translate(-0.203 -24.286)" fill="#fff"/>
          </g>
          <path id="_.JS" data-name=".JS" d="M182.449,76.922a.333.333,0,1,0-.329-.333A.323.323,0,0,0,182.449,76.922Zm.905-.876a.9.9,0,0,0,.986.916.926.926,0,0,0,1-1.021v-2.28h-.5v2.278c0,.36-.182.552-.5.552a.449.449,0,0,1-.488-.444ZM186,76.017c.036.576.518.945,1.235.945.766,0,1.246-.387,1.246-1,0-.485-.274-.753-.937-.907l-.356-.087c-.421-.1-.592-.23-.592-.46,0-.29.264-.48.661-.48a.618.618,0,0,1,.684.483h.488a1.054,1.054,0,0,0-1.165-.925c-.706,0-1.177.382-1.177.956,0,.473.267.755.852.891l.417.1c.428.1.616.248.616.494,0,.286-.3.494-.7.494-.432,0-.733-.194-.775-.5Z" transform="translate(-135.18 -54.67)" fill="#fff"/>
        </g>
      </g>
    </g>
  </g>
</svg>
