<svg xmlns="http://www.w3.org/2000/svg" xmlns:xlink="http://www.w3.org/1999/xlink" viewBox="0 0 228 32.95">
  <defs>
    <linearGradient id="a" data-name="Безымянный градиент" x1="-565.59" y1="389.22" x2="-564.19" y2="389.32" gradientTransform="matrix(228, 0, 0, -32.95, 128954.1, 12841.06)" gradientUnits="userSpaceOnUse">
      <stop offset="0" stop-color="#e43c24"/>
      <stop offset="1" stop-color="#fb563d"/>
    </linearGradient>
  </defs>
  <title>stars</title>
  <path d="M210.68,27.32,200,33,202,21l-8.66-8.44,12-1.73L210.68,0,216,10.85l12,1.73L219.34,21l2,11.92Zm-48.34,0L151.63,33,153.68,21,145,12.58l12-1.73L162.34,0l5.35,10.85,12,1.73L171,21l2.05,11.92Zm-48.34,0L103.3,33l2-11.93-8.66-8.44,12-1.73L114,0l5.36,10.85,12,1.73L122.66,21l2,11.92Zm-48.34,0L55,33,57,21l-8.66-8.44,12-1.73L65.66,0,71,10.85l12,1.73L74.32,21l2,11.92Zm-48.34,0L6.62,32.94,8.66,21,0,12.58l12-1.73L17.32,0l5.35,10.85,12,1.73L26,21,28,32.94Z" fill="url(#a)"/>
</svg>
