<svg xmlns="http://www.w3.org/2000/svg" width="246" height="246" viewBox="0 0 246 246">
  <g id="Group_6676" data-name="Group 6676" transform="translate(-591 -252)">
    <rect id="Rectangle_3403" data-name="Rectangle 3403" width="246" height="246" transform="translate(591 252)" fill="#1770ff"/>
    <path id="wordpress" d="M5,43.414A38.414,38.414,0,1,0,43.414,5,38.412,38.412,0,0,0,5,43.414m2.96,0a35.379,35.379,0,0,1,3.071-14.429L27.943,75.319A35.453,35.453,0,0,1,7.96,43.414M43.414,78.867A35.465,35.465,0,0,1,33.4,77.426L44.037,46.52l10.9,29.853a3.2,3.2,0,0,0,.25.482,35.268,35.268,0,0,1-11.771,2.011M72.066,42.749a33.49,33.49,0,0,0,2.7-12.7A26.459,26.459,0,0,0,74.52,26.4,35.462,35.462,0,0,1,61.238,74.055L72.066,42.749Zm-7.644-10.9a18.7,18.7,0,0,1,2.925,9.778q0,4.555-2.7,11.463L61.11,64.9,48.3,26.794c2.139-.116,4.057-.338,4.057-.338a1.467,1.467,0,0,0-.223-2.925s-5.744.453-9.451.453c-3.485,0-9.335-.453-9.335-.453a1.467,1.467,0,0,0-.227,2.925s1.812.222,3.723.338L42.36,41.928,34.6,65.19l-12.915-38.4c2.139-.116,4.062-.338,4.062-.338a1.467,1.467,0,0,0-.227-2.925s-5.741.453-9.452.453c-.664,0-1.446-.017-2.279-.041a35.436,35.436,0,0,1,53.56-6.67c-.152-.012-.3-.03-.455-.03a6.134,6.134,0,0,0-5.956,6.289c0,2.925,1.685,5.4,3.479,8.314" transform="translate(671 332)" fill="#fff"/>
  </g>
</svg>
