<svg xmlns="http://www.w3.org/2000/svg" width="246" height="246" viewBox="0 0 246 246">
  <g id="Group_6686" data-name="Group 6686" transform="translate(-837 -990)">
    <rect id="Rectangle_6267" data-name="Rectangle 6267" width="246" height="246" transform="translate(837 990)" fill="#2b2e3a"/>
    <path id="Path_6667" data-name="Path 6667" d="M70.28,70.788c-12.545-2.285-22.464.107-26.418,6.954-2.95,5.11-2.107,11.884,2.045,19.126a1.286,1.286,0,1,0,2.232-1.28c-3.74-6.523-4.468-12.369-2.049-16.559,3.284-5.688,12.132-7.821,23.728-5.709a1.286,1.286,0,1,0,.461-2.531ZM52.431,105.67A80.5,80.5,0,0,0,71.61,120.811c18.2,10.507,37.571,13.315,47.119,6.8a1.286,1.286,0,1,0-1.45-2.126c-8.545,5.827-26.948,3.159-44.383-6.907a77.951,77.951,0,0,1-18.562-14.646,1.287,1.287,0,1,0-1.9,1.732Z" transform="translate(876.965 1006.846)" fill="#9feaf9"/>
    <path id="Path_6668" data-name="Path 6668" d="M115.725,104.181c8.214-9.7,11.082-19.464,7.137-26.3-2.9-5.028-9.039-7.683-17.2-7.789a1.287,1.287,0,1,0-.033,2.573c7.335.1,12.622,2.382,15,6.5,3.277,5.676.719,14.379-6.873,23.348a1.287,1.287,0,1,0,1.964,1.662ZM94.615,71.293A80.351,80.351,0,0,0,71.69,80.379C52.9,91.225,40.649,107.218,42.351,118.815a1.287,1.287,0,1,0,2.546-.374c-1.511-10.3,10.1-25.456,28.079-35.834a77.777,77.777,0,0,1,22.177-8.8,1.286,1.286,0,1,0-.539-2.516Z" transform="translate(876.922 1006.77)" fill="#9feaf9"/>
    <path id="Path_6669" data-name="Path 6669" d="M60.837,111.9c4.3,11.993,11.322,19.377,19.222,19.377,5.762,0,11.093-3.928,15.251-10.844A1.287,1.287,0,1,0,93.1,119.1c-3.736,6.215-8.325,9.6-13.046,9.6-6.563,0-12.83-6.586-16.8-17.671a1.286,1.286,0,1,0-2.422.867Zm39.23-2.346a80.756,80.756,0,0,0,3.418-23.842c0-21.312-7.459-39.684-18.084-44.4a1.286,1.286,0,1,0-1.044,2.352c9.476,4.208,16.555,21.643,16.555,42.05a78.223,78.223,0,0,1-3.3,23.074,1.287,1.287,0,1,0,2.456.769Zm24.228-1.26a6.157,6.157,0,1,0-6.157,6.157A6.157,6.157,0,0,0,124.3,108.289Zm-2.573,0a3.584,3.584,0,1,1-3.584-3.584,3.584,3.584,0,0,1,3.584,3.584Zm-79.832,6.157a6.157,6.157,0,1,0-6.157-6.157A6.157,6.157,0,0,0,41.891,114.446Zm0-2.573a3.584,3.584,0,1,1,3.584-3.584,3.584,3.584,0,0,1-3.584,3.584Z" transform="translate(880.266 1021.728)" fill="#9feaf9"/>
    <path id="Path_6670" data-name="Path 6670" d="M121.011,41.232a6.157,6.157,0,1,0-6.157-6.157,6.157,6.157,0,0,0,6.157,6.157Zm0-2.573a3.584,3.584,0,1,1,3.584-3.584A3.584,3.584,0,0,1,121.011,38.659Zm.94,45.048a4.455,4.455,0,1,1,3.414-5.295A4.455,4.455,0,0,1,121.951,83.707Z" transform="translate(839.313 1028.082)" fill="#9feaf9"/>
  </g>
</svg>
