<svg xmlns="http://www.w3.org/2000/svg" width="246" height="246" viewBox="0 0 246 246">
  <g id="Group_6685" data-name="Group 6685" transform="translate(-1083 -990)">
    <rect id="Rectangle_6268" data-name="Rectangle 6268" width="246" height="246" transform="translate(1083 990)" fill="#6082bb"/>
    <path id="Path_6671" data-name="Path 6671" d="M91.862,140.892c32.6,0,57.67,13.741,57.67,28.808s-25.1,28.808-57.67,28.808c-32.6,0-57.67-13.741-57.67-28.808s25.1-28.808,57.67-28.808m0-3.192c-33.6,0-60.862,14.309-60.862,32s27.266,32,60.862,32,60.862-14.309,60.862-32S125.458,137.7,91.862,137.7ZM72.494,167.13c-1.515,7.709-6.817,6.9-13.336,6.9l2.6-13.417c7.249,0,12.145-.784,10.739,6.519Zm-22.965,20.5h6.979l1.65-8.521c7.817,0,12.659.568,17.15-3.625,4.977-4.571,6.249-12.686,2.732-16.744-1.839-2.137-4.815-3.165-8.845-3.165H55.751Zm35.327-40.629h6.952l-1.65,8.521c5.978,0,11.55-.433,14.228,2.029,2.813,2.6,1.461,5.9-1.569,21.5H95.784c2.921-15.094,3.489-16.365,2.407-17.5-1.028-1.109-3.354-.866-9.008-.866l-3.571,18.367H78.662l6.194-32.054Zm42.2,20.125c-1.515,7.817-6.979,6.9-13.336,6.9l2.6-13.417c7.276,0,12.145-.784,10.739,6.519Zm-22.992,20.5h7.006l1.65-8.521c8.223,0,12.768.487,17.15-3.625,4.977-4.571,6.249-12.686,2.732-16.744-1.839-2.137-4.815-3.165-8.845-3.165H110.31Z" transform="translate(1114 943.3)" fill="#fff"/>
  </g>
</svg>
