<svg xmlns="http://www.w3.org/2000/svg" width="246" height="246" viewBox="0 0 246 246">
  <g id="Group_6677" data-name="Group 6677" transform="translate(-837 -252)">
    <rect id="Rectangle_3401" data-name="Rectangle 3401" width="246" height="246" transform="translate(837 252)" fill="#242b4d"/>
    <path id="Path_5666" data-name="Path 5666" d="M373.105,393.6a2.784,2.784,0,0,0-3.86.762c-5.028,7.568-15.695,7.975-16.254,7.975h-.254c-13.155,0-18.184,11.225-18.387,11.682a2.8,2.8,0,0,0,1.422,3.657,2.972,2.972,0,0,0,1.117.254,2.747,2.747,0,0,0,2.54-1.676c.051-.1,3.5-7.822,12.393-8.33V422.3a10.051,10.051,0,0,1-4.419,7.365c-2.692,1.879-6.3,2.844-10.717,2.844a16.359,16.359,0,0,1-12.8-5.435c-3.251-3.606-4.876-8.736-4.876-15.34l.051-15.847c.254-5.841,1.829-10.463,4.825-13.765a16.432,16.432,0,0,1,12.8-5.435c4.419,0,8.025.965,10.717,2.844a10.034,10.034,0,0,1,4.47,7.822h0v.356a3.5,3.5,0,1,0,7.009,0v-.356h0a16.191,16.191,0,0,0-6.908-11.987c-4.114-3-9.244-4.47-15.441-4.47-7.365,0-13.308,2.438-17.828,7.263-4.267,4.52-6.5,10.463-6.755,17.778h0c0,.508-.051,1.016-.051,1.524l.051,14.273H311.9c0,8.076,2.286,14.527,6.806,19.352s10.463,7.263,17.828,7.263c6.2,0,11.327-1.473,15.441-4.47a16.335,16.335,0,0,0,6.755-10.819l.152-15.949c4.622-1.117,10.921-3.657,14.882-9.651A2.6,2.6,0,0,0,373.105,393.6Z" transform="translate(619.855 -29.623)" fill="#fff"/>
  </g>
</svg>
