<svg xmlns="http://www.w3.org/2000/svg" width="245" height="245" viewBox="0 0 245 245">
  <g id="Group_6678" data-name="Group 6678" transform="translate(-1083 -252)">
    <rect id="Rectangle_3402" data-name="Rectangle 3402" width="245" height="245" transform="translate(1083 252)" fill="#fe3b1f"/>
    <g id="Group_5073" data-name="Group 5073" transform="translate(1152 345.484)">
      <path id="Subtraction_1" data-name="Subtraction 1" d="M70.392,63.976h0L51.454,53.431H10.018A10.014,10.014,0,0,1,0,43.412V10.018A9.851,9.851,0,0,1,2.887,2.957,9.916,9.916,0,0,1,9.975,0H97.458a10.013,10.013,0,0,1,10.018,10.018V43.412A10.014,10.014,0,0,1,97.458,53.431H66.086l4.306,10.543ZM28.577,28.049v0A58.591,58.591,0,0,0,32.765,38.9a32.424,32.424,0,0,0,5.466,7.766,4.527,4.527,0,0,0,3.208,1.625c.084,0,.165,0,.243-.009A2.811,2.811,0,0,0,44,46.7a5.2,5.2,0,0,0,.524-2.884,81.69,81.69,0,0,1,1.223-16.646,91.525,91.525,0,0,1,1.906-9.459A29.781,29.781,0,0,1,49.985,11.4a3.778,3.778,0,0,0,.436-2.1,3.4,3.4,0,0,0-1.354-2.49,3.853,3.853,0,0,0-2.421-.889c-.109,0-.221,0-.332.014a3.35,3.35,0,0,0-2.884,1.923,39.919,39.919,0,0,0-3.473,9.7,110.978,110.978,0,0,0-2.294,14.324,82.3,82.3,0,0,1-4.151-14.942,5.662,5.662,0,0,0-1.165-2.759,2.755,2.755,0,0,0-2.143-.92c-.089,0-.181,0-.274.009-1.3.087-2.408.969-3.278,2.622L17.086,34.122c-1.6-6.459-3.087-14.264-4.412-23.2A3.887,3.887,0,0,0,11.627,8.55a3.207,3.207,0,0,0-2.29-.791c-.149,0-.3.006-.464.019A3.5,3.5,0,0,0,6.12,9.132a3.724,3.724,0,0,0-.7,2.927c2.565,16.3,4.99,27.462,7.209,33.161.847,2.032,1.8,3.019,2.918,3.019.046,0,.094,0,.141-.005a4.912,4.912,0,0,0,3.02-2,30.113,30.113,0,0,0,3.577-5.6c1.358-2.8,3.474-7.035,6.291-12.581ZM90.66,10.661A10.425,10.425,0,0,0,84.953,12.3a14.916,14.916,0,0,0-4.56,4.915,22.987,22.987,0,0,0-2.556,5.865,24.218,24.218,0,0,0-.852,6.455,16.988,16.988,0,0,0,2.1,8.65A10.413,10.413,0,0,0,82,41.505a10.639,10.639,0,0,0,4.068,1.748,11.544,11.544,0,0,0,2.36.262,10.482,10.482,0,0,0,5.739-1.638A14.623,14.623,0,0,0,98.7,36.962a23.494,23.494,0,0,0,2.556-5.9,24.3,24.3,0,0,0,.852-6.461,16.224,16.224,0,0,0-2.1-8.606,10.413,10.413,0,0,0-2.922-3.32,10.639,10.639,0,0,0-4.068-1.748A11.544,11.544,0,0,0,90.66,10.661Zm-27.35,0A10.426,10.426,0,0,0,57.6,12.3a14.91,14.91,0,0,0-4.56,4.915,22.986,22.986,0,0,0-2.556,5.865,24.219,24.219,0,0,0-.852,6.455,17,17,0,0,0,2.1,8.65,10.419,10.419,0,0,0,2.922,3.32,10.639,10.639,0,0,0,4.069,1.748,11.541,11.541,0,0,0,2.359.262,10.483,10.483,0,0,0,5.74-1.638,14.618,14.618,0,0,0,4.527-4.915,23.479,23.479,0,0,0,2.556-5.9,24.3,24.3,0,0,0,.852-6.461,16.452,16.452,0,0,0-2.1-8.606,10.189,10.189,0,0,0-6.99-5.068A11.53,11.53,0,0,0,63.31,10.661ZM88.166,36.008a2.664,2.664,0,0,1-.521-.051c-1.072-.223-1.939-1.179-2.577-2.84a11,11,0,0,1-.786-3.975,15.161,15.161,0,0,1,.305-3.189,14.185,14.185,0,0,1,2.316-5.2c1.237-1.837,2.562-2.768,3.938-2.768a3.182,3.182,0,0,1,.606.059c1.071.223,1.939,1.178,2.577,2.84a11.017,11.017,0,0,1,.786,3.976,15.194,15.194,0,0,1-.305,3.233,11.5,11.5,0,0,1-3.321,6.466A4.726,4.726,0,0,1,88.166,36.008Zm-27.394,0a2.665,2.665,0,0,1-.521-.051c-1.071-.223-1.938-1.178-2.577-2.84a11.015,11.015,0,0,1-.786-3.975,15.162,15.162,0,0,1,.305-3.189,14.186,14.186,0,0,1,2.316-5.2c1.237-1.837,2.562-2.768,3.937-2.768a3.182,3.182,0,0,1,.606.059c1.072.223,1.939,1.179,2.577,2.84a11,11,0,0,1,.787,3.976,12.911,12.911,0,0,1-.306,3.233,11.507,11.507,0,0,1-3.32,6.466A4.726,4.726,0,0,1,60.772,36.008Z" transform="translate(0 0)" fill="#fff"/>
      <path id="Subtraction_1_-_Outline" data-name="Subtraction 1 - Outline" d="M71.39,65.1l-1.241-.684L51.324,53.931H10.018A10.514,10.514,0,0,1-.5,43.412V10.018A10.345,10.345,0,0,1,2.532,2.6,10.412,10.412,0,0,1,9.975-.5H97.458a10.513,10.513,0,0,1,10.518,10.518V43.412A10.514,10.514,0,0,1,97.458,53.931H66.83ZM9.975.5A9.476,9.476,0,0,0,.5,10.014v33.4a9.514,9.514,0,0,0,9.518,9.519H51.583l17.807,9.915-4.049-9.915H97.458a9.514,9.514,0,0,0,9.518-9.519V10.018A9.513,9.513,0,0,0,97.458.5ZM41.44,48.786a5,5,0,0,1-3.569-1.778,32.916,32.916,0,0,1-5.55-7.883A57.4,57.4,0,0,1,28.453,29.4C25.92,34.393,24,38.241,22.735,40.85l-.007.013a30.584,30.584,0,0,1-3.642,5.7,5.354,5.354,0,0,1-3.362,2.17c-.058,0-.118.006-.176.006-1.341,0-2.446-1.088-3.379-3.327l0-.011C9.933,39.668,7.5,28.477,4.927,12.136a4.215,4.215,0,0,1,.794-3.307A3.97,3.97,0,0,1,8.837,7.279c.168-.013.337-.02.5-.02a3.687,3.687,0,0,1,2.634.928,4.364,4.364,0,0,1,1.2,2.666c1.236,8.337,2.611,15.684,4.09,21.865l8.953-17.047c.957-1.817,2.2-2.789,3.687-2.888.1-.007.206-.011.307-.011a3.236,3.236,0,0,1,2.515,1.086,6.137,6.137,0,0,1,1.285,3,86,86,0,0,0,3.389,12.893,105.384,105.384,0,0,1,2.078-12.3,40.412,40.412,0,0,1,3.52-9.826,3.863,3.863,0,0,1,3.285-2.183c.123-.011.248-.016.37-.016a4.34,4.34,0,0,1,2.731,1A3.881,3.881,0,0,1,50.92,9.263v.016a4.251,4.251,0,0,1-.494,2.36,29.3,29.3,0,0,0-2.291,6.207,91.034,91.034,0,0,0-1.9,9.406,81.243,81.243,0,0,0-1.219,16.533,5.692,5.692,0,0,1-.581,3.153l0,.007a3.325,3.325,0,0,1-2.711,1.831C41.632,48.783,41.537,48.786,41.44,48.786ZM28.7,26.7l.358,1.206a58.109,58.109,0,0,0,4.153,10.755,31.928,31.928,0,0,0,5.38,7.647,4.061,4.061,0,0,0,2.851,1.475c.071,0,.14,0,.2-.008a2.306,2.306,0,0,0,1.914-1.311,4.715,4.715,0,0,0,.466-2.607v-.007A82.153,82.153,0,0,1,45.252,27.1a92.028,92.028,0,0,1,1.917-9.512,30.262,30.262,0,0,1,2.376-6.422,3.256,3.256,0,0,0,.377-1.823,2.891,2.891,0,0,0-1.165-2.134,3.328,3.328,0,0,0-2.4-.768h-.008A2.849,2.849,0,0,0,43.872,8.1l0,0a39.434,39.434,0,0,0-3.425,9.581,110.481,110.481,0,0,0-2.283,14.259l-.209,2.037-.754-1.9a82.8,82.8,0,0,1-4.177-15.033,5.191,5.191,0,0,0-1.046-2.518,2.246,2.246,0,0,0-1.771-.754c-.078,0-.158,0-.24.008-1.12.075-2.086.867-2.869,2.356L16.917,35.518,16.6,34.242C14.995,27.772,13.507,19.951,12.179,11v-.007a3.413,3.413,0,0,0-.9-2.077,2.979,2.979,0,0,0-2.371-.637A3,3,0,0,0,6.523,9.428l-.008.011a3.237,3.237,0,0,0-.6,2.544c2.558,16.263,4.974,27.383,7.178,33.05.749,1.8,1.575,2.706,2.454,2.706.034,0,.069,0,.1,0a4.545,4.545,0,0,0,2.679-1.827,29.621,29.621,0,0,0,3.508-5.5C23.2,37.6,25.315,33.368,28.13,27.825ZM88.432,44.015a12.043,12.043,0,0,1-2.463-.273,11.136,11.136,0,0,1-4.258-1.832,10.909,10.909,0,0,1-3.063-3.478,17.476,17.476,0,0,1-2.163-8.9,24.717,24.717,0,0,1,.87-6.589,23.486,23.486,0,0,1,2.611-5.993,15.405,15.405,0,0,1,4.717-5.076,10.917,10.917,0,0,1,5.976-1.717,12.044,12.044,0,0,1,2.463.273,11.136,11.136,0,0,1,4.258,1.832,10.908,10.908,0,0,1,3.061,3.474,16.714,16.714,0,0,1,2.165,8.861,24.8,24.8,0,0,1-.87,6.591,23.994,23.994,0,0,1-2.61,6.029A15.111,15.111,0,0,1,94.441,42.3,10.974,10.974,0,0,1,88.432,44.015ZM90.66,11.161a9.932,9.932,0,0,0-5.437,1.559,14.426,14.426,0,0,0-4.4,4.754,22.488,22.488,0,0,0-2.5,5.738,23.718,23.718,0,0,0-.834,6.322,16.5,16.5,0,0,0,2.03,8.4A9.923,9.923,0,0,0,82.3,41.1a10.144,10.144,0,0,0,3.879,1.664,11.043,11.043,0,0,0,2.256.251,9.99,9.99,0,0,0,5.47-1.559A14.133,14.133,0,0,0,98.27,36.7a23,23,0,0,0,2.5-5.779,23.8,23.8,0,0,0,.834-6.328v-.006a15.734,15.734,0,0,0-2.028-8.345l0-.007a9.918,9.918,0,0,0-2.78-3.163,10.144,10.144,0,0,0-3.879-1.664A11.043,11.043,0,0,0,90.66,11.161ZM61.082,44.015a12.04,12.04,0,0,1-2.462-.273,11.136,11.136,0,0,1-4.259-1.832A10.915,10.915,0,0,1,51.3,38.433a17.482,17.482,0,0,1-2.163-8.9,24.718,24.718,0,0,1,.87-6.589,23.485,23.485,0,0,1,2.611-5.993,15.4,15.4,0,0,1,4.717-5.076,10.918,10.918,0,0,1,5.976-1.717,12.029,12.029,0,0,1,2.462.273,10.671,10.671,0,0,1,7.32,5.306A16.938,16.938,0,0,1,75.257,24.6a24.8,24.8,0,0,1-.87,6.594,23.979,23.979,0,0,1-2.61,6.029A15.106,15.106,0,0,1,67.091,42.3,10.975,10.975,0,0,1,61.082,44.015ZM63.31,11.161a9.933,9.933,0,0,0-5.438,1.56,14.42,14.42,0,0,0-4.4,4.754,22.487,22.487,0,0,0-2.5,5.738,23.719,23.719,0,0,0-.834,6.322,16.5,16.5,0,0,0,2.029,8.4A9.929,9.929,0,0,0,54.947,41.1a10.144,10.144,0,0,0,3.879,1.664,11.04,11.04,0,0,0,2.256.251,9.99,9.99,0,0,0,5.47-1.559A14.128,14.128,0,0,0,70.92,36.7a22.983,22.983,0,0,0,2.5-5.779,23.8,23.8,0,0,0,.834-6.328,15.97,15.97,0,0,0-2.027-8.352l0-.007a9.708,9.708,0,0,0-6.661-4.827A11.025,11.025,0,0,0,63.31,11.161ZM88.166,36.508a3.166,3.166,0,0,1-.619-.061C86.294,36.186,85.3,35.126,84.6,33.3a11.5,11.5,0,0,1-.819-4.154,15.656,15.656,0,0,1,.317-3.3,14.683,14.683,0,0,1,2.393-5.378c1.335-1.98,2.8-2.983,4.349-2.983a3.682,3.682,0,0,1,.7.068h.006c1.248.26,2.238,1.32,2.942,3.15a11.512,11.512,0,0,1,.819,4.155,15.683,15.683,0,0,1-.317,3.339,11.975,11.975,0,0,1-3.476,6.733A5.191,5.191,0,0,1,88.166,36.508ZM90.84,18.485c-1.2,0-2.385.857-3.523,2.547l-.007.01a13.688,13.688,0,0,0-2.235,5.017,14.662,14.662,0,0,0-.294,3.082,10.5,10.5,0,0,0,.752,3.795c.574,1.494,1.318,2.345,2.213,2.531a2.156,2.156,0,0,0,.419.041,4.265,4.265,0,0,0,2.684-1.321,11.032,11.032,0,0,0,3.165-6.2,14.71,14.71,0,0,0,.295-3.129,10.52,10.52,0,0,0-.752-3.8c-.574-1.492-1.317-2.343-2.21-2.53A2.68,2.68,0,0,0,90.84,18.485ZM60.772,36.508a3.166,3.166,0,0,1-.619-.061c-1.252-.261-2.242-1.32-2.946-3.151a11.511,11.511,0,0,1-.82-4.155,15.658,15.658,0,0,1,.317-3.3A14.685,14.685,0,0,1,59.1,20.469c1.335-1.98,2.8-2.983,4.348-2.983a3.683,3.683,0,0,1,.7.068h.006c1.249.26,2.239,1.32,2.942,3.15a11.5,11.5,0,0,1,.82,4.146A13.416,13.416,0,0,1,67.6,28.2a11.978,11.978,0,0,1-3.476,6.733A5.192,5.192,0,0,1,60.772,36.508Zm2.674-18.023c-1.2,0-2.384.857-3.522,2.547l-.007.01a13.689,13.689,0,0,0-2.235,5.017,14.665,14.665,0,0,0-.294,3.082,10.519,10.519,0,0,0,.752,3.795c.575,1.494,1.319,2.345,2.213,2.531a2.156,2.156,0,0,0,.419.041,4.265,4.265,0,0,0,2.685-1.321,11.035,11.035,0,0,0,3.165-6.2,12.419,12.419,0,0,0,.3-3.11V24.86a10.507,10.507,0,0,0-.753-3.8c-.573-1.492-1.316-2.343-2.21-2.531A2.68,2.68,0,0,0,63.447,18.485Z" transform="translate(0 0)" fill="rgba(0,0,0,0)"/>
    </g>
  </g>
</svg>
