<svg xmlns="http://www.w3.org/2000/svg" xmlns:xlink="http://www.w3.org/1999/xlink" width="246" height="246" viewBox="0 0 246 246">
  <defs>
    <clipPath id="clip-path">
      <circle id="Ellipse_202" data-name="Ellipse 202" cx="43.1" cy="43.1" r="43.1" fill="none"/>
    </clipPath>
  </defs>
  <g id="Group_6681" data-name="Group 6681" transform="translate(-591 -498)">
    <rect id="Rectangle_3397" data-name="Rectangle 3397" width="246" height="246" transform="translate(591 498)" fill="#33c6f4"/>
    <g id="Layer_2" data-name="Layer 2" transform="translate(671 578)">
      <g id="Layer_1" data-name="Layer 1" transform="translate(0 0)">
        <g id="Group_5065" data-name="Group 5065" clip-path="url(#clip-path)">
          <circle id="Ellipse_201" data-name="Ellipse 201" cx="43.1" cy="43.1" r="43.1" fill="#33c6f4"/>
          <path id="Path_5662" data-name="Path 5662" d="M88.893,107.2C69.074,98.29,48.68,73.258,46.962,72.111s-4.022.286-4.022.286c-1.436-2.3-3.733.286-3.733.286C28.575,90.78.14,108.057.14,108.057a52.776,52.776,0,0,0,45.219,25.114C77.449,133.171,88.893,107.2,88.893,107.2Z" transform="translate(-1.416 -46.262)" fill="#1b447e"/>
          <path id="Path_5663" data-name="Path 5663" d="M67.48,89.322s5.744-2.6,4.594,1.725-5.744,10.627-4.308,10.913,5.473-3.733,6.609-3.162,2.011.289,1.436,2.3-1.15,3.447,0,3.447,2.011-2.6,3.447-5.173,3.733-1.436,4.594-.575,3.447,5.748,5.458,5.173,3.158-3.162,2.3-8.906.575-7.466.575-7.466,1.722-.861,4.883,3.158,8.906,10.052,9.763,9.767-4.019-6.605-2.872-7.18,5.744.861,8.045,2.872c0,0,.787,3.291.787.134L89.31,73.24l-4.022.282-3.733.286S72.363,87.6,67.48,89.322Z" transform="translate(-43.769 -47.391)" fill="#fff"/>
          <path id="Path_5664" data-name="Path 5664" d="M87.425,111.322C70.769,103.838,54.306,85.5,47.276,77.671c-1.261-1.4-2.127-2.39-2.536-2.758L41.708,76.8l-.422-.586C30,93.971,3.163,110.409,2,111.116L-1.72,105c.277-.168,27.795-17.031,37.839-34.128.969-1.193,3-3.219,5.773-2.986a5.026,5.026,0,0,1,1.657.429,6.7,6.7,0,0,1,5.4.821c.683.456,1.272,1.1,3.655,3.754,6.149,6.848,22.481,25.04,37.756,31.9Z" transform="translate(-1.416 -46.262)" fill="#221e1f"/>
        </g>
        <path id="Ellipse_203" data-name="Ellipse 203" d="M43.1-3.58A46.68,46.68,0,1,1-3.58,43.1,46.733,46.733,0,0,1,43.1-3.58Zm0,86.2A39.52,39.52,0,1,0,3.58,43.1,39.565,39.565,0,0,0,43.1,82.62Z" fill="#221e1f"/>
      </g>
    </g>
  </g>
</svg>
