<svg xmlns="http://www.w3.org/2000/svg" xmlns:xlink="http://www.w3.org/1999/xlink" width="246" height="246" viewBox="0 0 246 246">
  <defs>
    <linearGradient id="linear-gradient" x1="-4.337" y1="3.276" x2="-4.337" y2="3.281" gradientUnits="objectBoundingBox">
      <stop offset="0" stop-color="#f56640"/>
      <stop offset="0.244" stop-color="#f57840"/>
      <stop offset="1" stop-color="#ffbe54"/>
    </linearGradient>
    <linearGradient id="linear-gradient-2" x1="-5.021" y1="4.841" x2="-5.021" y2="4.85" gradientUnits="objectBoundingBox">
      <stop offset="0" stop-color="#f56640"/>
      <stop offset="0.181" stop-color="#f57840"/>
      <stop offset="1" stop-color="#ffbe54"/>
    </linearGradient>
    <linearGradient id="linear-gradient-3" x1="-6.291" y1="4.75" x2="-6.291" y2="4.763" gradientUnits="objectBoundingBox">
      <stop offset="0" stop-color="#f56640"/>
      <stop offset="0.084" stop-color="#f57840"/>
      <stop offset="1" stop-color="#ffbe54"/>
    </linearGradient>
    <linearGradient id="linear-gradient-4" x1="-6.291" y1="4.753" x2="-6.291" y2="4.761" gradientUnits="objectBoundingBox">
      <stop offset="0" stop-color="#f56640"/>
      <stop offset="0.391" stop-color="#f57840"/>
      <stop offset="1" stop-color="#ffbe54"/>
    </linearGradient>
  </defs>
  <g id="Group_6692" data-name="Group 6692" transform="translate(-1373 -1236)">
    <rect id="Rectangle_6353" data-name="Rectangle 6353" width="246" height="246" transform="translate(1373 1236)" fill="#fff"/>
    <g id="wp-rocket-logo-vector" transform="translate(1394.701 1104.3)">
      <path id="Path_6697" data-name="Path 6697" d="M56.169,316.267a2.215,2.215,0,0,1-1.947-1.227l-.64-1.44H47.234l-.64,1.44a2.185,2.185,0,0,1-1.947,1.227H44.3l2.72,20.7c.133.4.4.4.533,0l2.694-6.614,2.347,6.588c.133.4.4.4.533,0l3.147-20.643-.107-.027" transform="translate(-16.867 -54.19)" fill="url(#linear-gradient)"/>
      <path id="Path_6698" data-name="Path 6698" d="M55.468,311.5H49.627l-.88,2a2.234,2.234,0,0,1-1.547,1.174l2.054,12.749a.288.288,0,0,0,.533,0l2.64-4,2.4,3.974c.16.24.4.24.533,0l2.32-12.775a2.252,2.252,0,0,1-1.36-1.12l-.853-2" transform="translate(-18.994 -52.65)" fill="url(#linear-gradient-2)"/>
      <path id="Path_6699" data-name="Path 6699" d="M59.235,295.535,55.421,287l-3.814,8.535a2.454,2.454,0,0,1-.507.667l1.574,8.481a.3.3,0,0,0,.453,0l2.134-2.827,2.134,2.8a.287.287,0,0,0,.453,0l1.76-8.588a1.488,1.488,0,0,1-.373-.533" transform="translate(-21.853 -34.685)" fill="url(#linear-gradient-3)"/>
      <path id="Path_6700" data-name="Path 6700" d="M59.235,295.535,55.421,287l-3.814,8.535a2.454,2.454,0,0,1-.507.667l1.574,8.481a.3.3,0,0,0,.453,0l2.134-2.827,2.134,2.8a.287.287,0,0,0,.453,0l1.76-8.588a1.488,1.488,0,0,1-.373-.533" transform="translate(-21.853 -34.685)" opacity="0.5" fill="url(#linear-gradient-4)"/>
      <path id="Path_6701" data-name="Path 6701" d="M21.325,240.687a.508.508,0,0,1,.533-.693h3.361a.65.65,0,0,1,.533.4l2.454,9.682h.107L32.74,240.02a.54.54,0,0,1,.48-.32h.533a.476.476,0,0,1,.48.32l4.427,10.055h.107l2.454-9.682a.577.577,0,0,1,.533-.4h3.361a.526.526,0,0,1,.533.693l-5.414,19.23a.544.544,0,0,1-.533.4h-.453a.527.527,0,0,1-.48-.32l-5.254-11.709h-.08L28.233,260a.613.613,0,0,1-.48.32H27.3a.568.568,0,0,1-.533-.4l-5.441-19.23m27.311-.16a.535.535,0,0,1,.533-.533h6.908a6.374,6.374,0,1,1,.027,12.749H53.09v6.721a.535.535,0,0,1-.533.533H49.2a.519.519,0,0,1-.533-.533l-.027-18.936h0m7.2,8.028a2.265,2.265,0,0,0,2.267-2.267,2.205,2.205,0,0,0-2.267-2.134h-2.72v4.374h2.72" fill="#f56640"/>
      <path id="Path_6702" data-name="Path 6702" d="M210.627,240.527a.535.535,0,0,1,.533-.533h8.535a6.123,6.123,0,0,1,2,11.949l3.921,7.255a.535.535,0,0,1-.48.827h-3.814a.505.505,0,0,1-.453-.24l-3.814-7.575h-1.974v7.308a.535.535,0,0,1-.533.533h-3.414a.519.519,0,0,1-.533-.533l.027-18.99m8.721,8a2.292,2.292,0,0,0,2.187-2.294,2.2,2.2,0,0,0-2.187-2.187h-4.241v4.481h4.241M238.6,239.7a10.3,10.3,0,1,1-10.268,10.322A10.29,10.29,0,0,1,238.6,239.7m0,16A5.734,5.734,0,1,0,232.9,250,5.731,5.731,0,0,0,238.6,255.7m22.644-16a9.757,9.757,0,0,1,6.934,2.667.556.556,0,0,1,.027.8L266,245.488a.485.485,0,0,1-.72,0,5.913,5.913,0,0,0-3.867-1.467,5.859,5.859,0,0,0,.027,11.709,5.958,5.958,0,0,0,3.814-1.36.6.6,0,0,1,.747.027l2.214,2.374a.574.574,0,0,1-.027.773,9.777,9.777,0,0,1-6.934,2.774,10.308,10.308,0,1,1,0-20.617m10.375.987a.689.689,0,0,1,.693-.693h3.361a.706.706,0,0,1,.693.693v7.521l6.348-7.921a.893.893,0,0,1,.533-.293h3.6a.68.68,0,0,1,.533,1.067l-6.694,8.375L288,258.93a.676.676,0,0,1-.533,1.067h-3.947a.76.76,0,0,1-.533-.213l-6.641-8.988v8.535a.706.706,0,0,1-.693.693H272.29a.689.689,0,0,1-.693-.693l.027-18.643m19.256-.16a.535.535,0,0,1,.533-.533h11.842a.519.519,0,0,1,.533.533v3.121a.535.535,0,0,1-.533.533h-7.921v3.547h6.534a.535.535,0,0,1,.533.533v3.121a.519.519,0,0,1-.533.533h-6.534v3.867h7.921a.519.519,0,0,1,.533.533v3.121a.535.535,0,0,1-.533.533H291.413a.519.519,0,0,1-.533-.533v-18.91m19.336,3.654h-4.107a.519.519,0,0,1-.533-.533v-3.121a.535.535,0,0,1,.533-.533h12.7a.519.519,0,0,1,.533.533v3.121a.535.535,0,0,1-.533.533h-4.081v15.283a.535.535,0,0,1-.533.533h-3.467a.535.535,0,0,1-.533-.533l.027-15.283" transform="translate(-138.813 0)" fill="#0e1b23"/>
      <path id="Path_6703" data-name="Path 6703" d="M103.574,353.841c1.227,0,2.08-.64,2.08-1.734v-.027c0-.96-.64-1.414-1.867-1.707-1.12-.267-1.387-.453-1.387-.907v-.027c0-.373.347-.693.96-.693a2.427,2.427,0,0,1,1.334.453.451.451,0,0,0,.267.08.478.478,0,0,0,.48-.48.461.461,0,0,0-.213-.4,3.248,3.248,0,0,0-1.84-.533,1.8,1.8,0,0,0-2,1.68v.027c0,1.067.693,1.44,1.947,1.734,1.094.24,1.307.48,1.307.88v.027c0,.427-.4.72-1.04.72a2.534,2.534,0,0,1-1.627-.587.429.429,0,0,0-.293-.08.478.478,0,0,0-.48.48.521.521,0,0,0,.187.4,3.741,3.741,0,0,0,2.187.693m7.068-4.027a.506.506,0,0,0-.507-.507.49.49,0,0,0-.507.507v2.027a.97.97,0,0,1-.987,1.094c-.587,0-.933-.373-.933-1.067V349.84a.49.49,0,0,0-.507-.507.506.506,0,0,0-.507.507v2.347a1.579,1.579,0,0,0,2.934.907v.213a.506.506,0,0,0,.507.507.49.49,0,0,0,.507-.507v-3.494m1.254,4.827v-4.8a.507.507,0,0,1,1.013,0v.267a1.751,1.751,0,0,1,1.494-.827,2.091,2.091,0,0,1,2.027,2.267v.027a2.075,2.075,0,0,1-2.027,2.267,1.8,1.8,0,0,1-1.494-.773v1.547a.49.49,0,0,1-.507.507.5.5,0,0,1-.507-.48m2.267-1.68a1.281,1.281,0,0,0,1.254-1.414v-.027a1.274,1.274,0,1,0-2.534,0v.027a1.332,1.332,0,0,0,1.28,1.414m4.081-1.707h2.267a1.133,1.133,0,0,0-1.12-1.147,1.171,1.171,0,0,0-1.147,1.147m2.827,2.027a2.32,2.32,0,0,1-1.574.587,2.2,2.2,0,0,1-2.267-2.267v-.027a2.178,2.178,0,0,1,2.134-2.294,2.077,2.077,0,0,1,2.08,2.16.462.462,0,0,1-.48.48h-2.747a1.222,1.222,0,0,0,1.254,1.12,1.7,1.7,0,0,0,1.04-.373.4.4,0,0,1,.267-.08.41.41,0,0,1,.4.4.317.317,0,0,1-.107.293m1.44.027a.507.507,0,0,0,1.013,0V352c0-1.04.48-1.6,1.2-1.707a.489.489,0,0,0,.4-.48.476.476,0,0,0-.507-.507,1.359,1.359,0,0,0-1.094.96v-.453a.507.507,0,0,0-1.013,0v3.494m3.414-5.067a.593.593,0,0,0,1.174,0v-.053c0-.293-.24-.48-.587-.48a.525.525,0,0,0-.587.48v.053m.08,5.067a.507.507,0,0,0,1.014,0V349.84a.507.507,0,0,0-1.014,0v3.467m4.4.56a2.261,2.261,0,0,1-2.32-2.267v-.027a2.348,2.348,0,0,1,4.694-.027v.027a2.312,2.312,0,0,1-2.374,2.294m.027-.907a1.317,1.317,0,0,0,1.334-1.387v-.027a1.361,1.361,0,0,0-1.36-1.414,1.333,1.333,0,0,0-1.334,1.387v.027a1.4,1.4,0,0,0,1.36,1.414m3.361.347a.507.507,0,1,0,1.013,0V352c0-1.04.48-1.6,1.2-1.707a.489.489,0,0,0,.4-.48.476.476,0,0,0-.507-.507,1.359,1.359,0,0,0-1.094.96v-.453a.507.507,0,1,0-1.013,0v3.494m7.415.107a.586.586,0,0,0,.533.427h.107a.562.562,0,0,0,.533-.427l1.307-3.814,1.307,3.814a.54.54,0,0,0,.533.427h.107a.562.562,0,0,0,.533-.427l1.734-4.827a.476.476,0,0,0-.453-.693.545.545,0,0,0-.507.373l-1.334,4-1.307-3.974a.537.537,0,0,0-.507-.4h-.08a.514.514,0,0,0-.507.4l-1.307,3.974-1.334-4a.52.52,0,0,0-.507-.373.513.513,0,0,0-.533.507.494.494,0,0,0,.053.187l1.627,4.827m9.335.453a2.261,2.261,0,0,1-2.32-2.267v-.027a2.348,2.348,0,0,1,4.694-.027v.027a2.329,2.329,0,0,1-2.374,2.294m0-.907a1.317,1.317,0,0,0,1.334-1.387v-.027a1.361,1.361,0,0,0-1.36-1.414,1.333,1.333,0,0,0-1.334,1.387v.027a1.378,1.378,0,0,0,1.36,1.414m3.361.347a.507.507,0,0,0,1.014,0V352c0-1.04.48-1.6,1.2-1.707a.489.489,0,0,0,.4-.48.476.476,0,0,0-.507-.507,1.359,1.359,0,0,0-1.094.96v-.453a.507.507,0,0,0-1.014,0v3.494m7.655-5.174v5.174a.507.507,0,0,1-1.013,0v-.267a1.751,1.751,0,0,1-1.494.827,2.091,2.091,0,0,1-2.027-2.267v-.027a2.075,2.075,0,0,1,2.027-2.267,1.773,1.773,0,0,1,1.494.773v-1.894a.49.49,0,0,1,.507-.507.463.463,0,0,1,.507.453m-2.267,2a1.281,1.281,0,0,0-1.254,1.414v.027a1.312,1.312,0,0,0,1.254,1.414,1.332,1.332,0,0,0,1.28-1.414v-.027a1.349,1.349,0,0,0-1.28-1.414m3.627,3.147v-4.854a.49.49,0,0,1,.507-.507h1.787a1.957,1.957,0,0,1,2.214,1.947v.027a2.055,2.055,0,0,1-2.32,2h-1.147v1.414a.49.49,0,0,1-.507.507.553.553,0,0,1-.533-.533m1.04-2.32h1.2c.773,0,1.254-.427,1.254-1.04v-.027c0-.693-.48-1.04-1.254-1.04h-1.2v2.107m4.4,2.347a.507.507,0,0,0,1.013,0V352c0-1.04.48-1.6,1.2-1.707a.489.489,0,0,0,.4-.48.476.476,0,0,0-.507-.507,1.359,1.359,0,0,0-1.094.96v-.453a.507.507,0,1,0-1.013,0v3.494m4.054-2.054h2.267a1.133,1.133,0,0,0-1.12-1.147,1.171,1.171,0,0,0-1.147,1.147m2.827,2.027a2.32,2.32,0,0,1-1.574.587A2.2,2.2,0,0,1,171.4,351.6v-.027a2.178,2.178,0,0,1,2.134-2.294,2.077,2.077,0,0,1,2.08,2.16.462.462,0,0,1-.48.48h-2.747a1.222,1.222,0,0,0,1.254,1.12,1.7,1.7,0,0,0,1.04-.373.4.4,0,0,1,.267-.08.41.41,0,0,1,.4.4.317.317,0,0,1-.107.293m2.96.56c.907,0,1.627-.453,1.627-1.387v-.027c0-.8-.72-1.094-1.36-1.28-.507-.16-.987-.293-.987-.613v-.027c0-.24.213-.427.613-.427a2.376,2.376,0,0,1,1.04.293.385.385,0,0,0,.187.053.416.416,0,0,0,.427-.4.39.39,0,0,0-.24-.373,3.139,3.139,0,0,0-1.387-.347,1.4,1.4,0,0,0-1.574,1.334v.027c0,.853.72,1.094,1.36,1.28.507.16.987.267.987.613v.027c0,.293-.24.48-.693.48a2.151,2.151,0,0,1-1.254-.427.5.5,0,0,0-.213-.053.393.393,0,0,0-.4.4.383.383,0,0,0,.187.347,3.25,3.25,0,0,0,1.68.507m4.081,0c.907,0,1.627-.453,1.627-1.387v-.027c0-.8-.72-1.094-1.36-1.28-.507-.16-.987-.293-.987-.613v-.027c0-.24.213-.427.613-.427a2.376,2.376,0,0,1,1.04.293.385.385,0,0,0,.187.053.416.416,0,0,0,.427-.4.39.39,0,0,0-.24-.373,3.139,3.139,0,0,0-1.387-.347,1.4,1.4,0,0,0-1.574,1.334v.027c0,.853.72,1.094,1.36,1.28.507.16.987.267.987.613v.027c0,.293-.24.48-.693.48a2.151,2.151,0,0,1-1.254-.427.5.5,0,0,0-.213-.053.393.393,0,0,0-.4.4.383.383,0,0,0,.187.347,3.25,3.25,0,0,0,1.68.507m5.254-.56v-4.854a.49.49,0,0,1,.507-.507h1.787a1.957,1.957,0,0,1,2.214,1.947v.027a2.055,2.055,0,0,1-2.32,2h-1.147v1.414a.49.49,0,0,1-.507.507.553.553,0,0,1-.533-.533m1.04-2.32h1.2c.773,0,1.254-.427,1.254-1.04v-.027c0-.693-.48-1.04-1.254-1.04h-1.2v2.107m5.121.293h2.267a1.133,1.133,0,0,0-1.12-1.147,1.19,1.19,0,0,0-1.147,1.147m2.854,2.027a2.32,2.32,0,0,1-1.574.587,2.2,2.2,0,0,1-2.267-2.267v-.027a2.178,2.178,0,0,1,2.134-2.294,2.077,2.077,0,0,1,2.08,2.16.462.462,0,0,1-.48.48H193.7a1.222,1.222,0,0,0,1.254,1.12,1.7,1.7,0,0,0,1.04-.373.4.4,0,0,1,.267-.08.41.41,0,0,1,.4.4.317.317,0,0,1-.107.293m1.414.027a.507.507,0,0,0,1.014,0V352c0-1.04.48-1.6,1.2-1.707a.489.489,0,0,0,.4-.48.476.476,0,0,0-.507-.507,1.359,1.359,0,0,0-1.094.96v-.453a.507.507,0,0,0-1.014,0v3.494m3.681,0a.506.506,0,0,0,.507.507.49.49,0,0,0,.507-.507V350.24h.773a.427.427,0,0,0,0-.853h-.773v-.24c0-.453.187-.667.587-.667a.587.587,0,0,1,.213.027.421.421,0,0,0,.427-.427.433.433,0,0,0-.347-.427,2.687,2.687,0,0,0-.507-.053,1.313,1.313,0,0,0-.987.347,1.457,1.457,0,0,0-.347,1.094v.32h-.187a.427.427,0,1,0,0,.853h.187l-.053,3.094m4.907.56a2.261,2.261,0,0,1-2.32-2.267v-.027a2.348,2.348,0,0,1,4.694-.027v.027a2.329,2.329,0,0,1-2.374,2.294m0-.88a1.317,1.317,0,0,0,1.334-1.387v-.027a1.361,1.361,0,0,0-1.36-1.414,1.333,1.333,0,0,0-1.334,1.387v.027a1.413,1.413,0,0,0,1.36,1.414m3.361.32a.507.507,0,0,0,1.013,0V352c0-1.04.48-1.6,1.2-1.707a.489.489,0,0,0,.4-.48.476.476,0,0,0-.507-.507,1.359,1.359,0,0,0-1.094.96v-.453a.507.507,0,1,0-1.013,0v3.494m3.441,0a.507.507,0,0,0,1.014,0v-2.027c0-.667.373-1.094.934-1.094s.88.373.88,1.067v2.054a.49.49,0,0,0,.507.507.506.506,0,0,0,.507-.507v-2.027c0-.72.4-1.094.933-1.094.56,0,.88.373.88,1.067v2.027a.507.507,0,0,0,1.014,0v-2.347a1.483,1.483,0,0,0-1.547-1.68,1.854,1.854,0,0,0-1.494.773,1.431,1.431,0,0,0-1.307-.773,1.583,1.583,0,0,0-1.334.747v-.213a.507.507,0,0,0-1.014,0l.027,3.521m9.175.533a1.4,1.4,0,0,1-1.547-1.36v-.027c0-.96.747-1.414,1.814-1.414a3.6,3.6,0,0,1,1.174.187v-.107c0-.613-.373-.96-1.094-.96a2.129,2.129,0,0,0-.96.187.338.338,0,0,1-.16.027.421.421,0,0,1-.427-.427.45.45,0,0,1,.267-.4,3.815,3.815,0,0,1,1.414-.267,2.1,2.1,0,0,1,1.467.48,1.84,1.84,0,0,1,.48,1.36v2.16a.478.478,0,0,1-.48.48.436.436,0,0,1-.48-.427v-.16a1.83,1.83,0,0,1-1.467.667m.293-.72c.667,0,1.174-.373,1.174-.933v-.293a2.6,2.6,0,0,0-.987-.187c-.64,0-1.04.267-1.04.72v.027c-.027.427.373.667.853.667m3.334.187a.507.507,0,0,0,1.014,0v-2.027a.97.97,0,0,1,.987-1.094c.587,0,.933.4.933,1.067v2.027a.507.507,0,0,0,1.014,0v-2.347a1.579,1.579,0,0,0-2.934-.907v-.213a.507.507,0,1,0-1.013,0v3.494m7.174.56a2.19,2.19,0,0,0,1.6-.613.453.453,0,0,0-.293-.773.407.407,0,0,0-.267.107,1.437,1.437,0,0,1-.987.4,1.32,1.32,0,0,1-1.307-1.414v-.027a1.307,1.307,0,0,1,1.28-1.387,1.353,1.353,0,0,1,.933.373.486.486,0,0,0,.293.107.454.454,0,0,0,.293-.8,2.327,2.327,0,0,0-3.841,1.734v.027a2.288,2.288,0,0,0,2.294,2.267m3.361-2.614h2.267a1.133,1.133,0,0,0-1.12-1.147,1.171,1.171,0,0,0-1.147,1.147m2.827,2.027a2.321,2.321,0,0,1-1.574.587,2.2,2.2,0,0,1-2.267-2.267v-.027a2.178,2.178,0,0,1,2.134-2.294,2.077,2.077,0,0,1,2.08,2.16.462.462,0,0,1-.48.48h-2.747a1.222,1.222,0,0,0,1.254,1.12,1.7,1.7,0,0,0,1.04-.373.4.4,0,0,1,.267-.08.41.41,0,0,1,.4.4.317.317,0,0,1-.107.293" transform="translate(-58.591 -79.122)" fill="#757575"/>
    </g>
  </g>
</svg>
