<svg xmlns="http://www.w3.org/2000/svg" width="246" height="246" viewBox="0 0 246 246">
  <g id="Group_6679" data-name="Group 6679" transform="translate(-1083 -498)">
    <rect id="Rectangle_3399" data-name="Rectangle 3399" width="246" height="246" transform="translate(1083 498)" fill="#2bb451"/>
    <g id="yoast" transform="translate(1165 578)">
      <path id="Path_5665" data-name="Path 5665" d="M59.39,41.318H93.646L92.352,44.8H59.39A13.109,13.109,0,0,0,46.154,57.741V95.572c0,6.531,4.579,12.945,15.476,12.945v3.516H59.409A16.692,16.692,0,0,1,42.6,95.552V57.741A16.541,16.541,0,0,1,59.39,41.318ZM101.587,31h12.25C87.347,100.653,87,104.479,79.812,111.917a20.74,20.74,0,0,1-14.433,6.028v-9.409c9.062-1.41,11.9-9.2,11.9-13.873,0-3.71.116-2.319-15.129-41.116h11.3l9.313,28.847L101.587,31ZM125.1,57.064v54.988H85.686a29.116,29.116,0,0,0,2.222-3.574h33.619V57.064c0-5.99-3.149-9.564-8.888-11.593l1.237-3.246C121.565,44.737,125.1,50.167,125.1,57.064Z" transform="translate(-42.599 -31)" fill="#fff"/>
    </g>
  </g>
</svg>
