<svg xmlns="http://www.w3.org/2000/svg" width="246" height="246" viewBox="0 0 246 246">
  <g id="Group_6682" data-name="Group 6682" transform="translate(-591 -744)">
    <rect id="Rectangle_6264" data-name="Rectangle 6264" width="246" height="246" transform="translate(591 744)" fill="#292c33"/>
    <g id="Group_6608" data-name="Group 6608">
      <circle id="Ellipse_287" data-name="Ellipse 287" cx="8.835" cy="8.835" r="8.835" transform="translate(705.629 858.082)" fill="#fff"/>
      <path id="Path_6324" data-name="Path 6324" d="M2232.745,4747.124a130.786,130.786,0,0,1-16.867-1.028,75.735,75.735,0,0,1-14.509-3.213,39.916,39.916,0,0,1-12.918-6.918c-3.383-2.9-5.169-6.038-5.169-9.09,0-2.964,1.7-5.984,4.91-8.733a38.727,38.727,0,0,1,12.251-6.578,82.347,82.347,0,0,1,14.823-3.5,118.83,118.83,0,0,1,17.478-1.257c11.792,0,23.111,1.661,31.873,4.676a40.174,40.174,0,0,1,12.5,6.593c3.329,2.778,5.088,5.821,5.088,8.8,0,3.1-1.858,6.269-5.375,9.164a42.093,42.093,0,0,1-13.343,6.881,79.645,79.645,0,0,1-14.247,3.147A123.89,123.89,0,0,1,2232.745,4747.124Zm0-36.1a115.008,115.008,0,0,0-16.855,1.211,78.015,78.015,0,0,0-14.054,3.315,34.476,34.476,0,0,0-10.9,5.8c-2.214,1.893-3.434,3.853-3.434,5.521,0,1.754,1.312,3.842,3.693,5.879a35.7,35.7,0,0,0,11.539,6.131,71.566,71.566,0,0,0,13.689,3.02,126.613,126.613,0,0,0,16.318.993c11.2,0,21.644-1.417,29.414-3.99a37.93,37.93,0,0,0,11.986-6.131c2.474-2.037,3.835-4.133,3.835-5.9,0-1.664-1.267-3.637-3.569-5.559a36.032,36.032,0,0,0-11.168-5.842C2254.912,4712.608,2244.081,4711.028,2232.745,4711.028Z" transform="translate(-1518.281 -3859.959)" fill="#fff"/>
      <path id="Path_6325" data-name="Path 6325" d="M2207.524,4777.361a9.335,9.335,0,0,1-4.719-1.16c-2.567-1.481-4.334-4.459-5.11-8.617a38.7,38.7,0,0,1,.42-13.9,82.061,82.061,0,0,1,4.368-14.6,118.843,118.843,0,0,1,7.645-15.767c5.889-10.215,12.984-19.192,19.977-25.273a40.162,40.162,0,0,1,11.956-7.536c4.068-1.495,7.585-1.5,10.167-.009,2.685,1.547,4.5,4.741,5.252,9.234a42.073,42.073,0,0,1-.705,15,79.5,79.5,0,0,1-4.392,13.912,123.633,123.633,0,0,1-7.325,14.82,130.592,130.592,0,0,1-9.318,14.1,75.708,75.708,0,0,1-10.03,10.961,39.85,39.85,0,0,1-12.448,7.737A17.373,17.373,0,0,1,2207.524,4777.361Zm40.184-83.75a12.467,12.467,0,0,0-4.189.866,36.067,36.067,0,0,0-10.642,6.757c-6.648,5.784-13.426,14.378-19.089,24.2h0a114.694,114.694,0,0,0-7.374,15.206,77.887,77.887,0,0,0-4.147,13.838,34.492,34.492,0,0,0-.417,12.335c.534,2.862,1.623,4.9,3.068,5.731,1.518.877,3.981.783,6.938-.262a35.667,35.667,0,0,0,11.073-6.932,71.627,71.627,0,0,0,9.456-10.349,126.891,126.891,0,0,0,9.013-13.641c5.594-9.7,9.585-19.457,11.237-27.477a37.925,37.925,0,0,0,.678-13.448c-.529-3.16-1.664-5.385-3.2-6.271A4.808,4.808,0,0,0,2247.708,4693.611Z" transform="translate(-1513.129 -3866.387)" fill="#fff"/>
      <path id="Path_6326" data-name="Path 6326" d="M2247.667,4777.363a16.36,16.36,0,0,1-5.395-1.021,38.589,38.589,0,0,1-11.831-7.307,82.087,82.087,0,0,1-10.461-11.071,119.18,119.18,0,0,1-9.844-14.5h0c-5.907-10.206-10.14-20.834-11.92-29.927a40.208,40.208,0,0,1-.557-14.122c.737-4.273,2.49-7.32,5.071-8.813,2.682-1.553,6.355-1.532,10.622.061a42.078,42.078,0,0,1,12.642,8.1,79.641,79.641,0,0,1,9.861,10.751,124.237,124.237,0,0,1,9.18,13.749,130.924,130.924,0,0,1,7.561,15.111,75.653,75.653,0,0,1,4.487,14.164,39.864,39.864,0,0,1,.485,14.648c-.812,4.378-2.636,7.5-5.278,9.028A9.111,9.111,0,0,1,2247.667,4777.363Zm-33.874-36.012a115.127,115.127,0,0,0,9.492,13.981,78.024,78.024,0,0,0,9.912,10.5,34.449,34.449,0,0,0,10.478,6.521c2.747.966,5.056,1.041,6.5.205,1.518-.879,2.667-3.059,3.238-6.142a35.686,35.686,0,0,0-.475-13.056,71.345,71.345,0,0,0-4.242-13.359,126.53,126.53,0,0,0-7.318-14.62c-5.61-9.695-12.07-18.026-18.189-23.458a37.884,37.884,0,0,0-11.313-7.3c-3-1.119-5.5-1.248-7.028-.362-1.44.835-2.513,2.919-3.023,5.873a36.048,36.048,0,0,0,.54,12.594c1.691,8.644,5.751,18.809,11.431,28.622Z" transform="translate(-1513.121 -3866.363)" fill="#fff"/>
    </g>
  </g>
</svg>
