<svg xmlns="http://www.w3.org/2000/svg" width="246" height="246" viewBox="0 0 246 246">
  <g id="Group_6684" data-name="Group 6684" transform="translate(-837 -744)">
    <rect id="Rectangle_6265" data-name="Rectangle 6265" width="246" height="246" transform="translate(837 744)" fill="#1cc4bb"/>
    <g id="Black-Next.js" transform="translate(892 826.088)">
      <g id="next-black" transform="translate(0 0)">
        <g id="EXT-_-Type-something" data-name="EXT-+-Type-something">
          <path id="EXT" d="M48.942,21.7H74.731v2.04H51.306V39.091H73.335v2.04H51.306V57.988H75v2.04H48.942Zm28.1,0h2.741L91.925,38.554,104.336,21.7,121.216.287,93.483,40.326l14.291,19.7h-2.847l-13-17.93L78.869,60.027H76.075l14.4-19.7Zm31.753,2.04V21.7h29.389v2.04H124.645V60.027h-2.364V23.738Z" transform="translate(-16.679 -0.287)" fill="#fff"/>
          <path id="Type-something" d="M.2,32.632H3.158L43.906,93.315,27.067,70.961,2.674,35.531l-.107,35.43H.2Z" transform="translate(-0.203 -11.221)" fill="#fff"/>
        </g>
        <path id="_.JS" data-name=".JS" d="M182.965,82.149a.854.854,0,1,0-.845-.854A.83.83,0,0,0,182.965,82.149Zm2.323-2.246a2.312,2.312,0,0,0,2.53,2.349,2.375,2.375,0,0,0,2.564-2.619v-5.85h-1.288v5.844c0,.923-.466,1.415-1.288,1.415a1.153,1.153,0,0,1-1.253-1.14Zm6.779-.075c.092,1.478,1.328,2.424,3.168,2.424,1.966,0,3.2-.992,3.2-2.573,0-1.243-.7-1.931-2.4-2.326l-.914-.224c-1.081-.252-1.518-.59-1.518-1.18,0-.745.678-1.232,1.7-1.232a1.584,1.584,0,0,1,1.754,1.238H198.3c-.075-1.392-1.3-2.372-2.989-2.372-1.812,0-3.019.98-3.019,2.452,0,1.215.684,1.937,2.185,2.286l1.07.257c1.1.258,1.581.636,1.581,1.266,0,.733-.759,1.266-1.794,1.266-1.109,0-1.88-.5-1.989-1.284Z" transform="translate(-61.698 -25.064)" fill="#fff"/>
      </g>
    </g>
  </g>
</svg>
