<svg xmlns="http://www.w3.org/2000/svg" width="246" height="246" viewBox="0 0 246 246">
  <g id="Group_6683" data-name="Group 6683" transform="translate(-1083 -744)">
    <rect id="Rectangle_6269" data-name="Rectangle 6269" width="246" height="246" transform="translate(1083 744)" fill="#3570a5"/>
    <g id="g1894" transform="translate(1161.002 822)">
      <path id="path8615" d="M89.847,67.469c-22.967,0-21.533,9.96-21.533,9.96l.026,10.318H90.257v3.1H59.634s-14.7-1.667-14.7,21.507S57.765,134.7,57.765,134.7h7.656V123.951s-.413-12.828,12.623-12.828H99.781s12.213.2,12.213-11.8V79.477S113.849,67.469,89.847,67.469ZM77.762,74.407a3.943,3.943,0,1,1-3.943,3.943A3.939,3.939,0,0,1,77.762,74.407Z" transform="translate(-44.938 -67.469)" fill="#fff"/>
      <path id="path8620" d="M95.655,162.488c22.967,0,21.533-9.96,21.533-9.96l-.026-10.318H95.245v-3.1h30.622s14.7,1.667,14.7-21.507-12.828-22.352-12.828-22.352h-7.656v10.754s.413,12.828-12.623,12.828H85.721s-12.213-.2-12.213,11.8v19.843S71.653,162.488,95.655,162.488Zm12.085-6.939a3.943,3.943,0,1,1,3.943-3.943A3.939,3.939,0,0,1,107.74,155.549Z" transform="translate(-50.093 -72.488)" fill="#fff"/>
    </g>
  </g>
</svg>
