<svg xmlns="http://www.w3.org/2000/svg" width="246" height="246" viewBox="0 0 246 246">
  <g id="Group_6690" data-name="Group 6690" transform="translate(-1083 -1236)">
    <rect id="Rectangle_6353" data-name="Rectangle 6353" width="246" height="246" transform="translate(1083 1236)" fill="#172153"/>
    <g id="wprocket" transform="translate(1125.883 1343.1)">
      <path id="Path_6692" data-name="Path 6692" d="M18.22,23.4a2.2,2.2,0,0,1-1.95-1.22l-.64-1.44H9.23l-.64,1.44A2.2,2.2,0,0,1,6.64,23.4H6.3L9.03,44.2c.14.39.4.39.55,0l2.7-6.65,2.36,6.63c.14.39.4.39.55,0l3.15-20.76-.12-.02Z" fill="#fff" fill-rule="evenodd"/>
      <path id="Path_6693" data-name="Path 6693" d="M15.37,20.16H9.51l-.9,2.02a2.2,2.2,0,0,1-1.54,1.17L9.13,36.18a.305.305,0,0,0,.55,0l2.64-4.02,2.42,4a.3.3,0,0,0,.55,0l2.34-12.85a2.2,2.2,0,0,1-1.36-1.13l-.9-2.02Z" fill="#fff" fill-rule="evenodd"/>
      <path id="Path_6694" data-name="Path 6694" d="M16.27,22.18l-3.85-8.6-3.83,8.6a2.46,2.46,0,0,1-.5.66l1.59,8.53a.317.317,0,0,0,.46,0l2.13-2.83,2.14,2.8a.28.28,0,0,0,.46,0l1.76-8.62a3,3,0,0,1-.36-.54Z" fill="#fff" fill-rule="evenodd"/>
      <path id="Path_6695" data-name="Path 6695" d="M.15,1.9a.509.509,0,0,1,.53-.7H4.05a.61.61,0,0,1,.53.4l2.47,9.75h.12L11.63,1.23a.55.55,0,0,1,.49-.32h.52a.508.508,0,0,1,.5.32l4.45,10.12h.12l2.48-9.74a.59.59,0,0,1,.52-.41h3.37a.515.515,0,0,1,.53.7L19.17,21.2a.54.54,0,0,1-.53.41h-.45a.56.56,0,0,1-.5-.32L12.42,9.54h-.08L7.1,21.3a.6.6,0,0,1-.5.32H6.15a.56.56,0,0,1-.52-.4L.15,1.89Zm27.46-.16a.544.544,0,0,1,.54-.54h6.93a6.415,6.415,0,1,1,.04,12.83H32.1v6.76a.56.56,0,0,1-.54.54h-3.4a.54.54,0,0,1-.53-.54V1.74h-.02Zm7.22,8.08A2.26,2.26,0,0,0,37.1,7.55a2.2,2.2,0,0,0-2.27-2.13H32.1v4.4Z" fill="#f56f46" fill-rule="evenodd"/>
      <path id="Path_6696" data-name="Path 6696" d="M50.9,1.74a.553.553,0,0,1,.54-.55h8.6a6.263,6.263,0,0,1,6.27,6.22,6.291,6.291,0,0,1-4.26,5.78l3.93,7.31a.542.542,0,0,1-.49.83H61.66a.5.5,0,0,1-.46-.25l-3.83-7.63H55.4v7.34a.56.56,0,0,1-.54.54H51.43a.54.54,0,0,1-.54-.54l.02-19.05Zm8.78,8.05a2.3,2.3,0,0,0,2.18-2.3,2.209,2.209,0,0,0-2.18-2.2H55.42v4.5ZM79.03.9A10.4,10.4,0,1,1,68.71,11.3,10.354,10.354,0,0,1,79.03.9Zm0,16.1a5.76,5.76,0,0,0,0-11.5,5.77,5.77,0,0,0,0,11.5ZM101.78.91a9.719,9.719,0,0,1,6.97,2.68.543.543,0,0,1,.03.8l-2.24,2.32a.5.5,0,0,1-.7,0,5.89,5.89,0,0,0-3.89-1.48,5.738,5.738,0,0,0-5.64,5.93,5.71,5.71,0,0,0,5.66,5.85,6.1,6.1,0,0,0,3.84-1.37.576.576,0,0,1,.75.03l2.24,2.4a.561.561,0,0,1-.04.77,9.86,9.86,0,0,1-6.98,2.8A10.37,10.37,0,1,1,101.8.9Zm10.44.98a.7.7,0,0,1,.7-.7h3.37a.71.71,0,0,1,.7.7V9.45l6.38-7.97a.946.946,0,0,1,.54-.28h3.63a.672.672,0,0,1,.53,1.06l-6.73,8.43,7.34,9.54a.681.681,0,0,1-.55,1.07h-3.96a.84.84,0,0,1-.53-.2l-6.67-9.04v8.58a.71.71,0,0,1-.7.7H112.9a.69.69,0,0,1-.7-.7l.02-18.75Zm19.36-.15a.538.538,0,0,1,.54-.54h11.91a.534.534,0,0,1,.55.54V4.87a.55.55,0,0,1-.55.55h-7.96V8.98h6.56a.558.558,0,0,1,.54.54v3.13a.54.54,0,0,1-.54.55h-6.56v3.9h7.96a.534.534,0,0,1,.55.54v3.13a.55.55,0,0,1-.55.54H132.12a.54.54,0,0,1-.54-.54V1.74Zm19.44,3.68H146.9a.54.54,0,0,1-.55-.55V1.74a.555.555,0,0,1,.55-.55h12.76a.54.54,0,0,1,.54.55V4.87a.55.55,0,0,1-.54.55h-4.12V20.77a.56.56,0,0,1-.54.54h-3.46a.56.56,0,0,1-.54-.54l.02-15.35ZM23.92,36.12c1.23,0,2.1-.66,2.1-1.75v-.02c0-.97-.64-1.42-1.88-1.72-1.13-.26-1.4-.46-1.4-.92V31.7c0-.39.36-.7.96-.7a2.4,2.4,0,0,1,1.35.45.5.5,0,0,0,.26.07.476.476,0,0,0,.49-.48.47.47,0,0,0-.23-.4,3.22,3.22,0,0,0-1.85-.55,1.791,1.791,0,0,0-2,1.7v.02c0,1.08.7,1.44,1.95,1.74,1.08.25,1.32.48,1.32.9v.02c0,.43-.4.73-1.04.73a2.566,2.566,0,0,1-1.64-.6.49.49,0,1,0-.59.78,3.65,3.65,0,0,0,2.2.73Zm7.11-4.05a.51.51,0,0,0-.5-.5.5.5,0,0,0-.52.5v2.04a.968.968,0,0,1-1,1.08c-.6,0-.94-.38-.94-1.07V32.07a.5.5,0,0,0-1,0v2.36a1.516,1.516,0,0,0,1.56,1.7,1.6,1.6,0,0,0,1.38-.78v.22a.51.51,0,0,0,1.02,0v-3.5Zm1.27,4.84V32.08a.5.5,0,1,1,1.01,0v.27a1.777,1.777,0,0,1,1.5-.83,2.114,2.114,0,0,1,2.05,2.3v.01a2.115,2.115,0,0,1-2.05,2.3,1.8,1.8,0,0,1-1.5-.78v1.56a.505.505,0,0,1-1.01,0Zm2.27-1.67a1.289,1.289,0,0,0,1.27-1.4v-.03a1.3,1.3,0,0,0-1.27-1.4,1.321,1.321,0,0,0-1.29,1.4v.02a1.326,1.326,0,0,0,1.3,1.41Zm4.1-1.73h2.27a1.147,1.147,0,0,0-1.12-1.16A1.2,1.2,0,0,0,38.67,33.51Zm2.85,2.04a2.255,2.255,0,0,1-1.59.58,2.2,2.2,0,0,1-2.26-2.29v-.02a2.2,2.2,0,0,1,2.16-2.3,2.1,2.1,0,0,1,2.1,2.18.47.47,0,0,1-.48.48H38.68a1.226,1.226,0,0,0,1.27,1.12A1.622,1.622,0,0,0,41,34.92a.38.38,0,0,1,.26-.1.406.406,0,0,1,.4.42.44.44,0,0,1-.14.3Zm1.44.02a.505.505,0,0,0,1.01,0v-1.3c0-1.05.5-1.6,1.22-1.73a.495.495,0,0,0-.1-.98,1.4,1.4,0,0,0-1.12.97v-.46a.5.5,0,1,0-1,0v3.5Zm3.44-5.1a.581.581,0,0,0,1.15,0v-.04a.581.581,0,0,0-1.15,0v.05Zm.08,5.1a.489.489,0,0,0,.5.5.5.5,0,0,0,.5-.5v-3.5a.5.5,0,0,0-1,0Zm4.43.56a2.28,2.28,0,0,1-2.34-2.28v-.02a2.355,2.355,0,0,1,4.71-.02v.02A2.3,2.3,0,0,1,50.91,36.13Zm.02-.89a1.324,1.324,0,0,0,1.34-1.4,1.366,1.366,0,0,0-1.36-1.43,1.322,1.322,0,0,0-1.33,1.4v.02a1.358,1.358,0,0,0,1.35,1.41Zm3.38.33a.489.489,0,0,0,.5.5.5.5,0,0,0,.5-.5v-1.3c0-1.05.5-1.6,1.22-1.73a.47.47,0,0,0,.4-.48.462.462,0,0,0-.5-.5,1.386,1.386,0,0,0-1.11.97v-.46a.5.5,0,1,0-1.01,0v3.5Zm7.45.12a.567.567,0,0,0,.54.42h.1a.548.548,0,0,0,.53-.42l1.3-3.83,1.31,3.83a.556.556,0,0,0,.53.42h.1a.559.559,0,0,0,.53-.42l1.74-4.85a.59.59,0,0,0,.05-.21.5.5,0,0,0-.51-.5.53.53,0,0,0-.5.37l-1.35,4.03-1.32-4a.533.533,0,0,0-.52-.41h-.08a.543.543,0,0,0-.52.4l-1.32,4.01-1.35-4.02a.53.53,0,0,0-.5-.38.51.51,0,0,0-.53.5.54.54,0,0,0,.04.2l1.73,4.86Zm9.38.44a2.28,2.28,0,0,1-2.34-2.28v-.02a2.355,2.355,0,0,1,4.71-.02v.02A2.3,2.3,0,0,1,71.14,36.13Zm.02-.89a1.316,1.316,0,0,0,1.33-1.4,1.364,1.364,0,0,0-1.35-1.43,1.322,1.322,0,0,0-1.33,1.4v.02A1.358,1.358,0,0,0,71.16,35.24Zm3.38.33a.489.489,0,0,0,.5.5.5.5,0,0,0,.5-.5v-1.3c0-1.05.5-1.6,1.22-1.73a.47.47,0,0,0,.4-.48.462.462,0,0,0-.5-.5,1.386,1.386,0,0,0-1.11.97v-.46a.5.5,0,1,0-1.01,0v3.5Zm7.67-5.19v5.2a.505.505,0,0,1-1.01,0v-.29a1.8,1.8,0,0,1-1.51.83,2.117,2.117,0,0,1-2.05-2.29v-.02a2.111,2.111,0,0,1,2.05-2.29,1.779,1.779,0,0,1,1.5.78V30.38a.51.51,0,0,1,1.02,0ZM79.93,32.4a1.292,1.292,0,0,0-1.27,1.41v.02a1.281,1.281,0,1,0,2.55.01v-.03a1.314,1.314,0,0,0-1.28-1.4Zm3.66,3.16V30.7a.51.51,0,0,1,.52-.51h1.8a1.957,1.957,0,0,1,2.22,1.95v.02c0,1.31-1.05,2-2.34,2H84.62v1.41a.51.51,0,1,1-1.02.01Zm1.03-2.34h1.2c.78,0,1.26-.43,1.26-1.05v-.01c0-.69-.49-1.05-1.26-1.05h-1.2v2.11Zm4.45,2.35a.489.489,0,0,0,.5.5.5.5,0,0,0,.5-.5v-1.3c0-1.05.5-1.6,1.22-1.73a.47.47,0,0,0,.4-.48.462.462,0,0,0-.5-.5,1.386,1.386,0,0,0-1.11.97v-.46a.5.5,0,1,0-1.01,0v3.5Zm4.06-2.06H95.4a1.147,1.147,0,0,0-1.12-1.16,1.206,1.206,0,0,0-1.15,1.16ZM96,35.55a2.263,2.263,0,0,1-1.6.58,2.2,2.2,0,0,1-2.26-2.29v-.02a2.2,2.2,0,0,1,2.16-2.3,2.1,2.1,0,0,1,2.1,2.18.47.47,0,0,1-.48.48H93.15a1.233,1.233,0,0,0,1.27,1.12,1.622,1.622,0,0,0,1.05-.38.38.38,0,0,1,.26-.1.406.406,0,0,1,.4.42.44.44,0,0,1-.13.3Zm2.95.56c.92,0,1.64-.46,1.64-1.38v-.02c0-.8-.73-1.09-1.37-1.29-.52-.17-1-.3-1-.63v-.01c0-.25.23-.44.62-.44a2.514,2.514,0,0,1,1.04.3.411.411,0,0,0,.62-.35.43.43,0,0,0-.25-.4,3.04,3.04,0,0,0-1.39-.35,1.405,1.405,0,0,0-1.57,1.35v.01c0,.85.73,1.12,1.38,1.3.52.16.99.28.99.62v.02c0,.29-.25.47-.69.47a2.365,2.365,0,0,1-1.27-.42.44.44,0,0,0-.22-.06.413.413,0,0,0-.21.76,3.01,3.01,0,0,0,1.68.52Zm4.1,0c.92,0,1.64-.46,1.64-1.38v-.02c0-.8-.72-1.09-1.37-1.29-.52-.17-1-.3-1-.63v-.01c0-.25.23-.44.63-.44a2.474,2.474,0,0,1,1.03.3.411.411,0,0,0,.62-.35.43.43,0,0,0-.24-.4,3.04,3.04,0,0,0-1.39-.35,1.4,1.4,0,0,0-1.57,1.35v.01c0,.85.73,1.12,1.38,1.3.52.16.99.28.99.62v.02c0,.29-.26.47-.69.47a2.365,2.365,0,0,1-1.27-.42.44.44,0,0,0-.22-.06.4.4,0,0,0-.4.4.39.39,0,0,0,.18.36,3.017,3.017,0,0,0,1.68.52Zm5.3-.55V30.7a.51.51,0,0,1,.53-.51h1.79a1.957,1.957,0,0,1,2.22,1.95v.02c0,1.31-1.05,2-2.34,2h-1.16v1.41a.515.515,0,0,1-1.03.01Zm1.04-2.34h1.2c.77,0,1.26-.43,1.26-1.04v-.02c0-.69-.5-1.05-1.27-1.05h-1.2v2.11Zm5.16.3h2.27a1.157,1.157,0,0,0-1.13-1.17,1.2,1.2,0,0,0-1.14,1.16Zm2.85,2.03a2.255,2.255,0,0,1-1.59.58,2.2,2.2,0,0,1-2.27-2.29v-.02a2.2,2.2,0,0,1,2.16-2.3,2.1,2.1,0,0,1,2.1,2.18.47.47,0,0,1-.47.48h-2.77a1.226,1.226,0,0,0,1.27,1.12,1.575,1.575,0,0,0,1.04-.38.38.38,0,0,1,.26-.1.4.4,0,0,1,.4.42.44.44,0,0,1-.13.3Zm1.44.02a.505.505,0,0,0,1.01,0v-1.3c0-1.05.5-1.6,1.21-1.73a.47.47,0,0,0,.4-.48.462.462,0,0,0-.5-.5,1.375,1.375,0,0,0-1.1.97v-.45a.51.51,0,1,0-1.02,0v3.5Zm3.68,0a.505.505,0,0,0,1.01,0V32.48h.77a.415.415,0,1,0,0-.83h-.78v-.24c0-.46.2-.67.58-.67l.21.01a.418.418,0,0,0,.08-.83,2.91,2.91,0,0,0-.51-.05,1.316,1.316,0,0,0-1,.36,1.493,1.493,0,0,0-.36,1.08v.33h-.17a.43.43,0,0,0-.43.43.423.423,0,0,0,.43.41h.17v3.1Zm4.94.56a2.28,2.28,0,0,1-2.35-2.28v-.02a2.3,2.3,0,0,1,2.36-2.3,2.277,2.277,0,0,1,2.35,2.28v.02A2.3,2.3,0,0,1,127.46,36.13Zm.01-.89a1.324,1.324,0,0,0,1.34-1.4,1.364,1.364,0,0,0-1.35-1.43,1.327,1.327,0,0,0-1.33,1.4v.02a1.365,1.365,0,0,0,1.34,1.42Zm3.38.33a.505.505,0,0,0,1.01,0v-1.3c0-1.05.5-1.6,1.22-1.73a.47.47,0,0,0,.4-.48.462.462,0,0,0-.5-.5,1.4,1.4,0,0,0-1.12.97v-.45a.5.5,0,0,0-1,0v3.5Zm3.46,0a.489.489,0,0,0,.5.5.5.5,0,0,0,.51-.5V33.54a.971.971,0,0,1,.95-1.1c.56,0,.9.39.9,1.07v2.06a.5.5,0,0,0,1,0V33.54c0-.71.4-1.1.95-1.1.57,0,.9.38.9,1.08v2.05a.5.5,0,0,0,1,0V33.21a1.48,1.48,0,0,0-1.54-1.69,1.805,1.805,0,0,0-1.5.78,1.4,1.4,0,0,0-1.31-.78,1.585,1.585,0,0,0-1.35.76v-.2a.5.5,0,1,0-1.01,0v3.5Zm9.22.55a1.41,1.41,0,0,1-1.57-1.36v-.02c0-.95.75-1.42,1.83-1.42a3.6,3.6,0,0,1,1.18.19V33.4c0-.63-.38-.97-1.1-.97a2.543,2.543,0,0,0-.97.18.57.57,0,0,1-.16.03.42.42,0,0,1-.43-.42.44.44,0,0,1,.28-.4,3.749,3.749,0,0,1,1.42-.26,1.987,1.987,0,0,1,1.47.49,1.861,1.861,0,0,1,.47,1.36v2.18a.48.48,0,0,1-.5.48.451.451,0,0,1-.48-.42v-.17a1.789,1.789,0,0,1-1.44.64Zm.28-.73c.67,0,1.18-.39,1.18-.95v-.3a2.82,2.82,0,0,0-1-.18c-.66,0-1.04.28-1.04.74v.02C142.95,35.14,143.33,35.39,143.81,35.39Zm3.36.18a.489.489,0,0,0,.5.5.5.5,0,0,0,.5-.5V33.54a.99.99,0,0,1,1-1.1c.6,0,.95.4.95,1.08v2.05a.505.505,0,0,0,1.01,0V33.21a1.515,1.515,0,0,0-1.57-1.69,1.59,1.59,0,0,0-1.38.77v-.22a.51.51,0,1,0-1.02,0v3.5Zm7.22.56a2.108,2.108,0,0,0,1.6-.63.4.4,0,0,0,.15-.31.425.425,0,0,0-.71-.34,1.471,1.471,0,0,1-.99.4,1.337,1.337,0,0,1-1.32-1.42v-.02a1.325,1.325,0,0,1,1.28-1.4,1.408,1.408,0,0,1,.95.38.486.486,0,0,0,.3.1.46.46,0,0,0,.3-.82,2.23,2.23,0,0,0-1.54-.55,2.28,2.28,0,0,0-2.3,2.31v.02A2.254,2.254,0,0,0,154.39,36.13Zm3.37-2.62h2.27a1.147,1.147,0,0,0-1.12-1.16,1.206,1.206,0,0,0-1.15,1.16Zm2.86,2.04a2.263,2.263,0,0,1-1.6.58,2.2,2.2,0,0,1-2.26-2.29v-.02a2.2,2.2,0,0,1,2.16-2.3,2.1,2.1,0,0,1,2.1,2.18.47.47,0,0,1-.48.48h-2.77a1.233,1.233,0,0,0,1.27,1.12,1.623,1.623,0,0,0,1.05-.38.38.38,0,0,1,.26-.1.406.406,0,0,1,.4.42.44.44,0,0,1-.13.3Z" fill="#fff" fill-rule="evenodd"/>
    </g>
  </g>
</svg>
