<svg xmlns="http://www.w3.org/2000/svg" width="246" height="246" viewBox="0 0 246 246">
  <g id="Group_6688" data-name="Group 6688" transform="translate(-591 -1236)">
    <rect id="Rectangle_6270" data-name="Rectangle 6270" width="246" height="246" transform="translate(591 1236)" fill="#f35045"/>
    <path id="Path_6685" data-name="Path 6685" d="M52.7,9.214V27.249h6.572V30.36H49.2V9.214Zm18.924,8.972v-1.9h3.316V30.36H71.628v-1.9a4.557,4.557,0,0,1-1.9,1.662,5.583,5.583,0,0,1-2.479.6,7.255,7.255,0,0,1-2.951-.589A6.9,6.9,0,0,1,62,28.517a7.546,7.546,0,0,1-2.023-5.2,7.6,7.6,0,0,1,.533-2.825A7.473,7.473,0,0,1,62,18.126a6.908,6.908,0,0,1,2.3-1.617,7.242,7.242,0,0,1,2.951-.589,5.581,5.581,0,0,1,2.48.605,4.571,4.571,0,0,1,1.9,1.661Zm-.3,6.857a5.014,5.014,0,0,0,0-3.444,4.36,4.36,0,0,0-.851-1.419,4.122,4.122,0,0,0-1.324-.967,4.022,4.022,0,0,0-1.72-.362,3.916,3.916,0,0,0-1.7.362A4.1,4.1,0,0,0,63.581,21.6a5.269,5.269,0,0,0,0,3.443,4.1,4.1,0,0,0,2.144,2.387,3.905,3.905,0,0,0,1.7.362,4.019,4.019,0,0,0,1.72-.362,4.114,4.114,0,0,0,1.324-.967,4.356,4.356,0,0,0,.851-1.42Zm6.237,5.316V16.283h9.006v3.24h-5.69V30.359ZM98.585,18.186v-1.9H101.9V30.36H98.584v-1.9a4.562,4.562,0,0,1-1.9,1.662,5.583,5.583,0,0,1-2.479.6,7.252,7.252,0,0,1-2.951-.589,6.9,6.9,0,0,1-2.3-1.616,7.546,7.546,0,0,1-2.023-5.2,7.585,7.585,0,0,1,.533-2.825,7.473,7.473,0,0,1,1.49-2.37,6.909,6.909,0,0,1,2.3-1.617A7.239,7.239,0,0,1,94.2,15.92a5.581,5.581,0,0,1,2.48.605A4.575,4.575,0,0,1,98.585,18.186Zm-.3,6.857a5.027,5.027,0,0,0,0-3.444,4.36,4.36,0,0,0-.852-1.419,4.122,4.122,0,0,0-1.324-.967,4.016,4.016,0,0,0-1.719-.362,3.916,3.916,0,0,0-1.7.362A4.105,4.105,0,0,0,90.537,21.6a5.268,5.268,0,0,0,0,3.443,4.1,4.1,0,0,0,2.145,2.387,3.905,3.905,0,0,0,1.7.362A4.013,4.013,0,0,0,96.1,27.43a4.114,4.114,0,0,0,1.324-.967,4.356,4.356,0,0,0,.852-1.42Zm16.916-8.76h3.359l-5.444,14.077h-4.167L103.5,16.283h3.359l4.168,10.779Zm10.592-.362c4.516,0,7.6,3.973,7.017,8.624h-11a3.972,3.972,0,0,0,4.167,3.562,5.924,5.924,0,0,0,4.214-2.2l2.24,1.721c-2,2.124-3.643,3.1-6.211,3.1-4.59,0-7.7-2.883-7.7-7.4A7.312,7.312,0,0,1,125.788,15.921ZM121.812,22.1h7.948a3.9,3.9,0,0,0-4-3.562A3.845,3.845,0,0,0,121.812,22.1Zm13.153,8.261V9.214h3.317V30.359ZM39.112,9.049a.629.629,0,0,1,.022.163V17.8a.626.626,0,0,1-.317.543L31.56,22.49v8.223a.626.626,0,0,1-.317.542l-15.149,8.66a.637.637,0,0,1-.11.046c-.015,0-.028.013-.042.017a.638.638,0,0,1-.324,0c-.017,0-.033-.014-.05-.02a.564.564,0,0,1-.1-.042L.316,31.258A.626.626,0,0,1,0,30.714V4.956a.629.629,0,0,1,.022-.163A.528.528,0,0,1,.044,4.74a.709.709,0,0,1,.041-.1.6.6,0,0,1,.042-.055.656.656,0,0,1,.057-.074.614.614,0,0,1,.062-.047.667.667,0,0,1,.069-.053h0L7.891.083a.637.637,0,0,1,.629,0l7.575,4.33h0c.025.016.046.036.069.053a.6.6,0,0,1,.061.047.726.726,0,0,1,.057.073.588.588,0,0,1,.043.056.708.708,0,0,1,.041.1c.006.017.017.034.022.053a.629.629,0,0,1,.021.163V21.044l6.313-3.608V9.212a.629.629,0,0,1,.021-.163c.006-.019.016-.035.023-.053a.619.619,0,0,1,.04-.1.493.493,0,0,1,.043-.055.583.583,0,0,1,.057-.073.6.6,0,0,1,.061-.047.568.568,0,0,1,.07-.053h0l7.575-4.33a.635.635,0,0,1,.63,0l7.574,4.33h0a.831.831,0,0,1,.071.053c.02.016.043.03.061.047a.62.62,0,0,1,.056.073.588.588,0,0,1,.043.056.623.623,0,0,1,.041.1.439.439,0,0,1,.022.053Zm-1.24,8.387V10.3l-2.651,1.515L31.56,13.9v7.14l6.311-3.608ZM30.3,30.351V23.207l-3.6,2.042L16.411,31.077v7.211L30.3,30.35ZM1.262,6.04V30.351L15.149,38.29v-7.21L7.894,27l0,0h0a.616.616,0,0,1-.068-.052.717.717,0,0,1-.061-.046l0,0a.6.6,0,0,1-.052-.066.57.57,0,0,1-.047-.061v0a.5.5,0,0,1-.033-.079.426.426,0,0,1-.03-.07h0a.6.6,0,0,1-.013-.092.7.7,0,0,1-.009-.071V9.648L3.914,7.556ZM8.205,1.35,1.9,4.957,8.205,8.563l6.31-3.607L8.205,1.35Zm3.282,22.508,3.661-2.092V6.04L12.5,7.556,8.837,9.649V25.373l2.651-1.515ZM30.929,5.606l-6.31,3.606,6.31,3.607,6.309-3.607L30.929,5.606ZM30.3,13.9l-3.662-2.093L23.986,10.3v7.14l3.661,2.093L30.3,21.044V13.9ZM15.779,29.993l9.255-5.245,4.626-2.622-6.3-3.6-7.26,4.15L9.479,26.453Z" transform="translate(645 1339)" fill="#fff" fill-rule="evenodd"/>
  </g>
</svg>
