<svg xmlns="http://www.w3.org/2000/svg" width="246" height="246" viewBox="0 0 246 246">
  <g id="Group_6689" data-name="Group 6689" transform="translate(-837 -1236)">
    <rect id="Rectangle_6280" data-name="Rectangle 6280" width="246" height="246" transform="translate(837 1236)" fill="#fff"/>
    <g id="nodejs-logo-svgrepo-com" transform="translate(880.143 1335.618)">
      <g id="Group_6609" data-name="Group 6609" transform="translate(135.302 16.428)">
        <path id="Path_6687" data-name="Path 6687" d="M442.933,51.611a2.22,2.22,0,0,0-1.1.27l-10.614,6.129a2.237,2.237,0,0,0-1.1,1.938V72.186a2.238,2.238,0,0,0,1.1,1.938l2.772,1.6a4.532,4.532,0,0,0,2.456.653c1.994,0,3.132-1.21,3.132-3.312V60.986a.3.3,0,0,0-.315-.293h-1.33a.3.3,0,0,0-.315.293V73.065c0,.932-.971,1.869-2.546,1.081l-2.885-1.69a.318.318,0,0,1-.18-.27V59.949a.357.357,0,0,1,.18-.293l10.591-6.107a.313.313,0,0,1,.315,0l10.592,6.107a.36.36,0,0,1,.18.293V72.186a.34.34,0,0,1-.158.293l-10.614,6.107a.326.326,0,0,1-.315,0l-2.727-1.622a.284.284,0,0,0-.27,0,7.021,7.021,0,0,1-1.6.721c-.174.061-.438.155.09.451l3.561,2.1a2.227,2.227,0,0,0,2.208,0l10.614-6.107a2.241,2.241,0,0,0,1.1-1.938V59.949a2.237,2.237,0,0,0-1.1-1.938l-10.614-6.129a2.209,2.209,0,0,0-1.1-.271Z" transform="translate(-430.111 -51.611)" fill="#83cd29"/>
        <path id="Path_6688" data-name="Path 6688" d="M468.751,79.528c-3.022,0-4.822,1.286-4.822,3.426,0,2.32,1.787,2.958,4.687,3.245,3.47.34,3.741.849,3.741,1.533,0,1.185-.945,1.69-3.177,1.69-2.805,0-3.422-.7-3.628-2.1a.306.306,0,0,0-.293-.271h-1.375a.322.322,0,0,0-.315.316c0,1.786.972,3.9,5.611,3.9,3.358,0,5.3-1.318,5.3-3.628,0-2.29-1.565-2.9-4.823-3.335-3.292-.436-3.606-.649-3.606-1.42,0-.636.266-1.488,2.7-1.488,2.178,0,2.983.47,3.313,1.938a.308.308,0,0,0,.293.248h1.375a.333.333,0,0,0,.225-.113.3.3,0,0,0,.09-.225C473.834,80.718,472.148,79.528,468.751,79.528Z" transform="translate(-453.089 -70.784)" fill="#83cd29"/>
      </g>
      <path id="Path_6689" data-name="Path 6689" d="M85.724.383a.674.674,0,0,0-.676.676V18.3a.456.456,0,0,1-.225.406.47.47,0,0,1-.473,0l-2.817-1.622a1.35,1.35,0,0,0-1.352,0l-11.245,6.49a1.385,1.385,0,0,0-.676,1.195v12.98a1.349,1.349,0,0,0,.676,1.172l11.245,6.49a1.347,1.347,0,0,0,1.352,0l11.245-6.49a1.349,1.349,0,0,0,.676-1.172V5.386a1.374,1.374,0,0,0-.7-1.195L86.062.45A.658.658,0,0,0,85.724.383Zm-72.338,16.2a1.27,1.27,0,0,0-.608.158L1.533,23.233A1.347,1.347,0,0,0,.857,24.4L.88,41.825a.665.665,0,0,0,.338.586.656.656,0,0,0,.676,0l6.67-3.831a1.377,1.377,0,0,0,.7-1.172V29.273A1.345,1.345,0,0,1,9.939,28.1l2.839-1.645a1.357,1.357,0,0,1,1.352,0L16.97,28.1a1.346,1.346,0,0,1,.676,1.172v8.135a1.379,1.379,0,0,0,.7,1.172l6.67,3.831a.656.656,0,0,0,.676,0,.678.678,0,0,0,.338-.586l.022-17.42a1.341,1.341,0,0,0-.676-1.172L14.13,16.743a1.263,1.263,0,0,0-.608-.158Zm101.048.158a1.349,1.349,0,0,0-.676.18l-11.245,6.49a1.349,1.349,0,0,0-.676,1.172v12.98a1.358,1.358,0,0,0,.7,1.172l11.155,6.355a1.353,1.353,0,0,0,1.33.022l6.761-3.763a.683.683,0,0,0,.361-.586.666.666,0,0,0-.338-.586l-11.313-6.49a.728.728,0,0,1-.36-.609V29.025a.7.7,0,0,1,.36-.586l3.515-2.028a.675.675,0,0,1,.676,0l3.515,2.028a.674.674,0,0,1,.338.586v3.2a.676.676,0,0,0,1.014.586l6.738-3.92a1.355,1.355,0,0,0,.676-1.172V24.586a1.353,1.353,0,0,0-.676-1.172l-11.177-6.49a1.34,1.34,0,0,0-.676-.18Zm-33.623,9.69a.377.377,0,0,1,.18.045l3.854,2.231a.35.35,0,0,1,.18.293v4.462a.348.348,0,0,1-.18.293l-3.854,2.231a.341.341,0,0,1-.338,0L76.8,33.757a.349.349,0,0,1-.18-.293V29a.35.35,0,0,1,.18-.293l3.853-2.231a.3.3,0,0,1,.158-.045h0Z" transform="translate(0)" fill="#404137"/>
      <path id="Path_6690" data-name="Path 6690" d="M121.091,52.4a1.348,1.348,0,0,0-.676.18L109.17,59.05a1.384,1.384,0,0,0-.676,1.194v12.98a1.349,1.349,0,0,0,.676,1.172l11.245,6.49a1.346,1.346,0,0,0,1.352,0l11.245-6.49a1.349,1.349,0,0,0,.676-1.172V60.244a1.383,1.383,0,0,0-.676-1.194l-11.245-6.468A1.346,1.346,0,0,0,121.091,52.4Zm67.245,11.583a.276.276,0,0,0-.135.023l-2.163,1.262a.263.263,0,0,0-.135.226v2.479a.263.263,0,0,0,.135.226l2.163,1.239a.235.235,0,0,0,.248,0l2.163-1.24a.265.265,0,0,0,.135-.225V65.495a.265.265,0,0,0-.135-.225l-2.163-1.262a.188.188,0,0,0-.113-.022Z" transform="translate(-73.925 -35.727)" fill="#83cd29"/>
    </g>
  </g>
</svg>
